%TF.GenerationSoftware,KiCad,Pcbnew,9.0.3*%
%TF.CreationDate,2025-08-07T17:03:53-05:00*%
%TF.ProjectId,Battle_Bot_Mind,42617474-6c65-45f4-926f-745f4d696e64,rev?*%
%TF.SameCoordinates,Original*%
%TF.FileFunction,Soldermask,Top*%
%TF.FilePolarity,Negative*%
%FSLAX46Y46*%
G04 Gerber Fmt 4.6, Leading zero omitted, Abs format (unit mm)*
G04 Created by KiCad (PCBNEW 9.0.3) date 2025-08-07 17:03:53*
%MOMM*%
%LPD*%
G01*
G04 APERTURE LIST*
G04 Aperture macros list*
%AMRoundRect*
0 Rectangle with rounded corners*
0 $1 Rounding radius*
0 $2 $3 $4 $5 $6 $7 $8 $9 X,Y pos of 4 corners*
0 Add a 4 corners polygon primitive as box body*
4,1,4,$2,$3,$4,$5,$6,$7,$8,$9,$2,$3,0*
0 Add four circle primitives for the rounded corners*
1,1,$1+$1,$2,$3*
1,1,$1+$1,$4,$5*
1,1,$1+$1,$6,$7*
1,1,$1+$1,$8,$9*
0 Add four rect primitives between the rounded corners*
20,1,$1+$1,$2,$3,$4,$5,0*
20,1,$1+$1,$4,$5,$6,$7,0*
20,1,$1+$1,$6,$7,$8,$9,0*
20,1,$1+$1,$8,$9,$2,$3,0*%
G04 Aperture macros list end*
%ADD10RoundRect,0.760000X-1.140000X1.140000X-1.140000X-1.140000X1.140000X-1.140000X1.140000X1.140000X0*%
%ADD11C,4.000000*%
%ADD12R,0.900000X1.500000*%
%ADD13C,0.600000*%
%ADD14R,2.900000X2.900000*%
%ADD15R,1.700000X1.700000*%
%ADD16RoundRect,0.135000X0.185000X-0.135000X0.185000X0.135000X-0.185000X0.135000X-0.185000X-0.135000X0*%
%ADD17RoundRect,0.160000X0.197500X0.160000X-0.197500X0.160000X-0.197500X-0.160000X0.197500X-0.160000X0*%
%ADD18R,1.350000X1.350000*%
%ADD19C,1.350000*%
%ADD20RoundRect,0.160000X-0.197500X-0.160000X0.197500X-0.160000X0.197500X0.160000X-0.197500X0.160000X0*%
%ADD21C,1.700000*%
%ADD22R,0.600000X1.450000*%
%ADD23R,0.300000X1.450000*%
%ADD24O,1.000000X2.100000*%
%ADD25O,1.000000X1.600000*%
%ADD26RoundRect,0.147500X0.172500X-0.147500X0.172500X0.147500X-0.172500X0.147500X-0.172500X-0.147500X0*%
%ADD27RoundRect,0.250000X-0.475000X0.250000X-0.475000X-0.250000X0.475000X-0.250000X0.475000X0.250000X0*%
%ADD28R,1.750000X0.450000*%
%ADD29RoundRect,0.375000X-0.625000X-0.375000X0.625000X-0.375000X0.625000X0.375000X-0.625000X0.375000X0*%
%ADD30RoundRect,0.500000X-0.500000X-1.400000X0.500000X-1.400000X0.500000X1.400000X-0.500000X1.400000X0*%
%ADD31RoundRect,0.250000X-0.250000X-0.475000X0.250000X-0.475000X0.250000X0.475000X-0.250000X0.475000X0*%
%ADD32RoundRect,0.250000X0.250000X0.475000X-0.250000X0.475000X-0.250000X-0.475000X0.250000X-0.475000X0*%
G04 APERTURE END LIST*
D10*
%TO.C,J2*%
X142750000Y-73750000D03*
D11*
X142750000Y-78750000D03*
%TD*%
D12*
%TO.C,U1*%
X107200000Y-93000000D03*
X108700000Y-93000000D03*
X110200000Y-93000000D03*
X111700000Y-93000000D03*
X113200000Y-93000000D03*
X114700000Y-93000000D03*
X116200000Y-93000000D03*
X117700000Y-93000000D03*
X119200000Y-93000000D03*
X119200000Y-75500000D03*
X117700000Y-75500000D03*
X116200000Y-75500000D03*
X114700000Y-75500000D03*
X113200000Y-75500000D03*
X111700000Y-75500000D03*
X110200000Y-75500000D03*
X108700000Y-75500000D03*
X107200000Y-75500000D03*
D13*
X112850000Y-84390000D03*
X113950000Y-84390000D03*
X112300000Y-83840000D03*
X113400000Y-83840000D03*
X114500000Y-83840000D03*
X112850000Y-83290000D03*
D14*
X113400000Y-83290000D03*
D13*
X113950000Y-83290000D03*
X112300000Y-82740000D03*
X113400000Y-82740000D03*
X114500000Y-82740000D03*
X112850000Y-82190000D03*
X113950000Y-82190000D03*
%TD*%
D15*
%TO.C,J4*%
X110500000Y-72250000D03*
%TD*%
D16*
%TO.C,R4*%
X114750000Y-72720000D03*
X114750000Y-71700000D03*
%TD*%
D17*
%TO.C,R6*%
X123597500Y-76788000D03*
X122402500Y-76788000D03*
%TD*%
D18*
%TO.C,DBG1*%
X120250000Y-72250000D03*
D19*
X122250000Y-72250000D03*
X124250000Y-72250000D03*
%TD*%
D17*
%TO.C,R5*%
X123597500Y-78038000D03*
X122402500Y-78038000D03*
%TD*%
D20*
%TO.C,R1*%
X132902500Y-82810000D03*
X134097500Y-82810000D03*
%TD*%
D15*
%TO.C,M2*%
X135475000Y-91000000D03*
D21*
X138015000Y-91000000D03*
%TD*%
D22*
%TO.C,J1*%
X136250000Y-79545000D03*
X135450000Y-79545000D03*
D23*
X134250000Y-79545000D03*
X133250000Y-79545000D03*
X132750000Y-79545000D03*
X131750000Y-79545000D03*
D22*
X130550000Y-79545000D03*
X129750000Y-79545000D03*
X129750000Y-79545000D03*
X130550000Y-79545000D03*
D23*
X131250000Y-79545000D03*
X132250000Y-79545000D03*
X133750000Y-79545000D03*
X134750000Y-79545000D03*
D22*
X135450000Y-79545000D03*
X136250000Y-79545000D03*
D24*
X137320000Y-78630000D03*
D25*
X137320000Y-74450000D03*
D24*
X128680000Y-78630000D03*
D25*
X128680000Y-74450000D03*
%TD*%
D15*
%TO.C,M1*%
X138000000Y-86250000D03*
D21*
X135460000Y-86250000D03*
%TD*%
D26*
%TO.C,D1*%
X116000000Y-72720000D03*
X116000000Y-71750000D03*
%TD*%
D27*
%TO.C,C1*%
X125750000Y-79000000D03*
X125750000Y-80900000D03*
%TD*%
D28*
%TO.C,U2*%
X131100000Y-91850000D03*
X131100000Y-91200000D03*
X131100000Y-90550000D03*
X131100000Y-89900000D03*
X131100000Y-89250000D03*
X131100000Y-88600000D03*
X131100000Y-87950000D03*
X131100000Y-87300000D03*
X131100000Y-86650000D03*
X131100000Y-86000000D03*
X131100000Y-85350000D03*
X131100000Y-84700000D03*
X123900000Y-84700000D03*
X123900000Y-85350000D03*
X123900000Y-86000000D03*
X123900000Y-86650000D03*
X123900000Y-87300000D03*
X123900000Y-87950000D03*
X123900000Y-88600000D03*
X123900000Y-89250000D03*
X123900000Y-89900000D03*
X123900000Y-90550000D03*
X123900000Y-91200000D03*
X123900000Y-91850000D03*
%TD*%
D16*
%TO.C,R3*%
X117250000Y-72720000D03*
X117250000Y-71700000D03*
%TD*%
D26*
%TO.C,D2*%
X113500000Y-72720000D03*
X113500000Y-71750000D03*
%TD*%
D29*
%TO.C,U4*%
X144100000Y-84200000D03*
X144100000Y-86500000D03*
D30*
X150400000Y-86500000D03*
D29*
X144100000Y-88800000D03*
%TD*%
D31*
%TO.C,C6*%
X143100000Y-91750000D03*
X145000000Y-91750000D03*
%TD*%
D32*
%TO.C,C5*%
X150950000Y-92000000D03*
X149050000Y-92000000D03*
%TD*%
D17*
%TO.C,R2*%
X133500000Y-81500000D03*
X132305000Y-81500000D03*
%TD*%
D18*
%TO.C,J3*%
X148750000Y-74250000D03*
D19*
X148750000Y-76250000D03*
X148750000Y-78250000D03*
%TD*%
M02*
