M48
; DRILL file {KiCad 9.0.3} date 2025-08-07T15:13:13-0500
; FORMAT={-:-/ absolute / inch / decimal}
; #@! TF.CreationDate,2025-08-07T15:13:13-05:00
; #@! TF.GenerationSoftware,Kicad,Pcbnew,9.0.3
; #@! TF.FileFunction,Plated,1,2,PTH
FMAT,2
INCH
; #@! TA.AperFunction,Plated,PTH,ComponentDrill
T1C0.0079
; #@! TA.AperFunction,Plated,PTH,ViaDrill
T2C0.0118
; #@! TA.AperFunction,Plated,PTH,ComponentDrill
T3C0.0236
; #@! TA.AperFunction,Plated,PTH,ComponentDrill
T4C0.0256
; #@! TA.AperFunction,Plated,PTH,ComponentDrill
T5C0.0315
; #@! TA.AperFunction,Plated,PTH,ComponentDrill
T6C0.0394
; #@! TA.AperFunction,Plated,PTH,ComponentDrill
T7C0.1063
%
G90
G05
T1
X4.4213Y-3.2575
X4.4213Y-3.3008
X4.4429Y-3.2358
X4.4429Y-3.2791
X4.4429Y-3.3224
X4.4646Y-3.2575
X4.4646Y-3.3008
X4.4862Y-3.2358
X4.4862Y-3.2791
X4.4862Y-3.3224
X4.5079Y-3.2575
X4.5079Y-3.3008
T2
X4.252Y-3.6811
X4.2795Y-3.0217
X4.4291Y-2.8642
X4.5669Y-2.8925
X4.7539Y-3.6614
X4.7933Y-3.3858
X4.7933Y-3.7087
X4.8819Y-3.6811
X4.9508Y-3.2677
X4.9705Y-2.8642
X4.9902Y-3.248
X5.1083Y-3.1791
X5.1969Y-3.2579
X5.2264Y-3.4154
X5.2264Y-3.5335
X5.2919Y-3.2218
X5.3642Y-3.1791
X5.7087Y-3.6713
X5.7972Y-3.3169
X5.8563Y-3.1594
X5.8661Y-3.6909
T4
X5.374Y-3.565
X5.374Y-3.615
X5.3858Y-3.3711
X5.3858Y-3.4211
T5
X4.7343Y-2.8445
X4.813Y-2.8445
X4.8917Y-2.8445
X5.8563Y-2.9232
X5.8563Y-3.002
X5.8563Y-3.0807
T6
X4.3504Y-2.8445
T7
X5.6201Y-2.9035
X5.6201Y-3.1004
T3
G00X5.0661Y-2.9429
M15
G01X5.0661Y-2.9193
M16
G05
G00X5.0661Y-3.1173
M15
G01X5.0661Y-3.074
M16
G05
G00X5.4063Y-2.9429
M15
G01X5.4063Y-2.9193
M16
G05
G00X5.4063Y-3.1173
M15
G01X5.4063Y-3.074
M16
G05
M30
