%TF.GenerationSoftware,KiCad,Pcbnew,9.0.3*%
%TF.CreationDate,2025-08-07T15:13:13-05:00*%
%TF.ProjectId,Battle_Bot_Mind,42617474-6c65-45f4-926f-745f4d696e64,rev?*%
%TF.SameCoordinates,Original*%
%TF.FileFunction,Legend,Bot*%
%TF.FilePolarity,Positive*%
%FSLAX46Y46*%
G04 Gerber Fmt 4.6, Leading zero omitted, Abs format (unit mm)*
G04 Created by KiCad (PCBNEW 9.0.3) date 2025-08-07 15:13:13*
%MOMM*%
%LPD*%
G01*
G04 APERTURE LIST*
G04 Aperture macros list*
%AMRoundRect*
0 Rectangle with rounded corners*
0 $1 Rounding radius*
0 $2 $3 $4 $5 $6 $7 $8 $9 X,Y pos of 4 corners*
0 Add a 4 corners polygon primitive as box body*
4,1,4,$2,$3,$4,$5,$6,$7,$8,$9,$2,$3,0*
0 Add four circle primitives for the rounded corners*
1,1,$1+$1,$2,$3*
1,1,$1+$1,$4,$5*
1,1,$1+$1,$6,$7*
1,1,$1+$1,$8,$9*
0 Add four rect primitives between the rounded corners*
20,1,$1+$1,$2,$3,$4,$5,0*
20,1,$1+$1,$4,$5,$6,$7,0*
20,1,$1+$1,$6,$7,$8,$9,0*
20,1,$1+$1,$8,$9,$2,$3,0*%
G04 Aperture macros list end*
%ADD10C,0.100000*%
%ADD11C,0.050000*%
%ADD12C,0.187500*%
%ADD13C,0.125000*%
%ADD14C,0.200000*%
%ADD15C,0.118750*%
%ADD16C,0.150000*%
%ADD17C,0.250000*%
%ADD18RoundRect,0.760000X-1.140000X1.140000X-1.140000X-1.140000X1.140000X-1.140000X1.140000X1.140000X0*%
%ADD19C,4.000000*%
%ADD20R,1.700000X1.700000*%
%ADD21R,1.350000X1.350000*%
%ADD22C,1.350000*%
%ADD23R,1.000000X1.000000*%
%ADD24C,1.000000*%
%ADD25C,0.650000*%
%ADD26O,1.000000X2.100000*%
%ADD27O,1.000000X1.600000*%
G04 APERTURE END LIST*
D10*
X134012500Y-81030000D02*
X131792500Y-81030000D01*
X145850000Y-72350000D02*
X144550000Y-70650000D01*
X151650000Y-82900000D02*
X142850000Y-82900000D01*
X109230000Y-70980000D02*
X111750000Y-71000000D01*
X144550000Y-70650000D02*
X140950000Y-70650000D01*
X121890000Y-77568000D02*
X124110000Y-77568000D01*
X124110000Y-78508000D01*
X121890000Y-78508000D01*
X121890000Y-77568000D01*
X115530000Y-71305000D02*
X116470000Y-71305000D01*
X116470000Y-73165000D01*
X115530000Y-73165000D01*
X115530000Y-71305000D01*
X116780000Y-71280000D02*
X117720000Y-71280000D01*
X117720000Y-73140000D01*
X116780000Y-73140000D01*
X116780000Y-71280000D01*
X139650000Y-72350000D02*
X139650000Y-81850000D01*
X145750000Y-90770000D02*
X142350000Y-90770000D01*
X135250000Y-88000000D02*
X138350000Y-88035000D01*
X138050000Y-89410000D02*
X138050000Y-92960000D01*
X131792500Y-81030000D02*
X131792500Y-81970000D01*
X140950000Y-70650000D02*
X139650000Y-72350000D01*
X111750000Y-71000000D02*
X111750000Y-73500000D01*
X139650000Y-81850000D02*
X145850000Y-81850000D01*
X132250000Y-83775000D02*
X122750000Y-83775000D01*
X139650000Y-72350000D02*
X139650000Y-81850000D01*
X114280000Y-71280000D02*
X115220000Y-71280000D01*
X115220000Y-73140000D01*
X114280000Y-73140000D01*
X114280000Y-71280000D01*
X138350000Y-84485000D02*
X135250000Y-84485000D01*
X135250000Y-84485000D02*
X135250000Y-88000000D01*
X139650000Y-81850000D02*
X145850000Y-81850000D01*
X142350000Y-90770000D02*
X142350000Y-92730000D01*
X140950000Y-70650000D02*
X139650000Y-72350000D01*
X121890000Y-76318000D02*
X124110000Y-76318000D01*
X124110000Y-77258000D01*
X121890000Y-77258000D01*
X121890000Y-76318000D01*
X145750000Y-92750000D02*
X145750000Y-90750000D01*
X142350000Y-92730000D02*
X145750000Y-92750000D01*
X100250000Y-74500000D02*
X120350000Y-74500000D01*
X120350000Y-94000000D01*
X100250000Y-94000000D01*
X100250000Y-74500000D01*
X113030000Y-71305000D02*
X113970000Y-71305000D01*
X113970000Y-73165000D01*
X113030000Y-73165000D01*
X113030000Y-71305000D01*
X145850000Y-81850000D02*
X145850000Y-72350000D01*
X147250000Y-72750000D02*
X150250000Y-72750000D01*
X150250000Y-79750000D01*
X147250000Y-79750000D01*
X147250000Y-72750000D01*
X122750000Y-92775000D02*
X132250000Y-92775000D01*
X109230000Y-73520000D02*
X111750000Y-73520000D01*
X122750000Y-83775000D02*
X122750000Y-92750000D01*
X132390000Y-82310000D02*
X134610000Y-82310000D01*
X134610000Y-83250000D01*
X132390000Y-83250000D01*
X132390000Y-82310000D01*
X145850000Y-81850000D02*
X145850000Y-72350000D01*
X132250000Y-92775000D02*
X132250000Y-83775000D01*
X148300000Y-91020000D02*
X151700000Y-91020000D01*
X151700000Y-92980000D01*
X148300000Y-92980000D01*
X148300000Y-91020000D01*
X151650000Y-90100000D02*
X142850000Y-90100000D01*
X134950000Y-89410000D02*
X138050000Y-89410000D01*
X145850000Y-72350000D02*
X144550000Y-70650000D01*
X144550000Y-70650000D02*
X140950000Y-70650000D01*
X134950000Y-92960000D02*
X134950000Y-89410000D01*
X138350000Y-88035000D02*
X138350000Y-84485000D01*
X127680000Y-71350000D02*
X138320000Y-71350000D01*
X138320000Y-80770000D01*
X127680000Y-80770000D01*
X127680000Y-71350000D01*
X109230000Y-70980000D02*
X109230000Y-73520000D01*
X138050000Y-92960000D02*
X134950000Y-92960000D01*
X134012500Y-81970000D02*
X134012500Y-81030000D01*
X151650000Y-82900000D02*
X151650000Y-90100000D01*
X142850000Y-90100000D02*
X142850000Y-82900000D01*
X131792500Y-81970000D02*
X134012500Y-81970000D01*
X124770000Y-78250000D02*
X126730000Y-78250000D01*
X126730000Y-81650000D01*
X124770000Y-81650000D01*
X124770000Y-78250000D01*
X118750000Y-70750000D02*
X125750000Y-70750000D01*
X125750000Y-73750000D01*
X118750000Y-73750000D01*
X118750000Y-70750000D01*
D11*
X135324248Y-82772923D02*
X135419486Y-82772923D01*
X135419486Y-82772923D02*
X135429010Y-82868161D01*
X135429010Y-82868161D02*
X135419486Y-82858638D01*
X135419486Y-82858638D02*
X135400439Y-82849114D01*
X135400439Y-82849114D02*
X135352820Y-82849114D01*
X135352820Y-82849114D02*
X135333772Y-82858638D01*
X135333772Y-82858638D02*
X135324248Y-82868161D01*
X135324248Y-82868161D02*
X135314725Y-82887209D01*
X135314725Y-82887209D02*
X135314725Y-82934828D01*
X135314725Y-82934828D02*
X135324248Y-82953876D01*
X135324248Y-82953876D02*
X135333772Y-82963400D01*
X135333772Y-82963400D02*
X135352820Y-82972923D01*
X135352820Y-82972923D02*
X135400439Y-82972923D01*
X135400439Y-82972923D02*
X135419486Y-82963400D01*
X135419486Y-82963400D02*
X135429010Y-82953876D01*
X135229010Y-82953876D02*
X135219487Y-82963400D01*
X135219487Y-82963400D02*
X135229010Y-82972923D01*
X135229010Y-82972923D02*
X135238534Y-82963400D01*
X135238534Y-82963400D02*
X135229010Y-82953876D01*
X135229010Y-82953876D02*
X135229010Y-82972923D01*
X135029011Y-82972923D02*
X135143296Y-82972923D01*
X135086153Y-82972923D02*
X135086153Y-82772923D01*
X135086153Y-82772923D02*
X135105201Y-82801495D01*
X135105201Y-82801495D02*
X135124249Y-82820542D01*
X135124249Y-82820542D02*
X135143296Y-82830066D01*
X134943296Y-82972923D02*
X134943296Y-82772923D01*
X134924249Y-82896733D02*
X134867106Y-82972923D01*
X134867106Y-82839590D02*
X134943296Y-82915780D01*
D12*
X150769502Y-85398464D02*
X151019502Y-85041321D01*
X151198073Y-85398464D02*
X151198073Y-84648464D01*
X151198073Y-84648464D02*
X150912359Y-84648464D01*
X150912359Y-84648464D02*
X150840930Y-84684178D01*
X150840930Y-84684178D02*
X150805216Y-84719892D01*
X150805216Y-84719892D02*
X150769502Y-84791321D01*
X150769502Y-84791321D02*
X150769502Y-84898464D01*
X150769502Y-84898464D02*
X150805216Y-84969892D01*
X150805216Y-84969892D02*
X150840930Y-85005607D01*
X150840930Y-85005607D02*
X150912359Y-85041321D01*
X150912359Y-85041321D02*
X151198073Y-85041321D01*
X150162359Y-85362750D02*
X150233787Y-85398464D01*
X150233787Y-85398464D02*
X150376645Y-85398464D01*
X150376645Y-85398464D02*
X150448073Y-85362750D01*
X150448073Y-85362750D02*
X150483787Y-85291321D01*
X150483787Y-85291321D02*
X150483787Y-85005607D01*
X150483787Y-85005607D02*
X150448073Y-84934178D01*
X150448073Y-84934178D02*
X150376645Y-84898464D01*
X150376645Y-84898464D02*
X150233787Y-84898464D01*
X150233787Y-84898464D02*
X150162359Y-84934178D01*
X150162359Y-84934178D02*
X150126645Y-85005607D01*
X150126645Y-85005607D02*
X150126645Y-85077035D01*
X150126645Y-85077035D02*
X150483787Y-85148464D01*
X149483788Y-84898464D02*
X149483788Y-85505607D01*
X149483788Y-85505607D02*
X149519502Y-85577035D01*
X149519502Y-85577035D02*
X149555216Y-85612750D01*
X149555216Y-85612750D02*
X149626645Y-85648464D01*
X149626645Y-85648464D02*
X149733788Y-85648464D01*
X149733788Y-85648464D02*
X149805216Y-85612750D01*
X149483788Y-85362750D02*
X149555216Y-85398464D01*
X149555216Y-85398464D02*
X149698073Y-85398464D01*
X149698073Y-85398464D02*
X149769502Y-85362750D01*
X149769502Y-85362750D02*
X149805216Y-85327035D01*
X149805216Y-85327035D02*
X149840930Y-85255607D01*
X149840930Y-85255607D02*
X149840930Y-85041321D01*
X149840930Y-85041321D02*
X149805216Y-84969892D01*
X149805216Y-84969892D02*
X149769502Y-84934178D01*
X149769502Y-84934178D02*
X149698073Y-84898464D01*
X149698073Y-84898464D02*
X149555216Y-84898464D01*
X149555216Y-84898464D02*
X149483788Y-84934178D01*
X148805217Y-84898464D02*
X148805217Y-85398464D01*
X149126645Y-84898464D02*
X149126645Y-85291321D01*
X149126645Y-85291321D02*
X149090931Y-85362750D01*
X149090931Y-85362750D02*
X149019502Y-85398464D01*
X149019502Y-85398464D02*
X148912359Y-85398464D01*
X148912359Y-85398464D02*
X148840931Y-85362750D01*
X148840931Y-85362750D02*
X148805217Y-85327035D01*
X148340931Y-85398464D02*
X148412360Y-85362750D01*
X148412360Y-85362750D02*
X148448074Y-85291321D01*
X148448074Y-85291321D02*
X148448074Y-84648464D01*
X147733789Y-85398464D02*
X147733789Y-85005607D01*
X147733789Y-85005607D02*
X147769503Y-84934178D01*
X147769503Y-84934178D02*
X147840931Y-84898464D01*
X147840931Y-84898464D02*
X147983789Y-84898464D01*
X147983789Y-84898464D02*
X148055217Y-84934178D01*
X147733789Y-85362750D02*
X147805217Y-85398464D01*
X147805217Y-85398464D02*
X147983789Y-85398464D01*
X147983789Y-85398464D02*
X148055217Y-85362750D01*
X148055217Y-85362750D02*
X148090931Y-85291321D01*
X148090931Y-85291321D02*
X148090931Y-85219892D01*
X148090931Y-85219892D02*
X148055217Y-85148464D01*
X148055217Y-85148464D02*
X147983789Y-85112750D01*
X147983789Y-85112750D02*
X147805217Y-85112750D01*
X147805217Y-85112750D02*
X147733789Y-85077035D01*
X147483789Y-84898464D02*
X147198075Y-84898464D01*
X147376646Y-84648464D02*
X147376646Y-85291321D01*
X147376646Y-85291321D02*
X147340932Y-85362750D01*
X147340932Y-85362750D02*
X147269503Y-85398464D01*
X147269503Y-85398464D02*
X147198075Y-85398464D01*
X146840932Y-85398464D02*
X146912361Y-85362750D01*
X146912361Y-85362750D02*
X146948075Y-85327035D01*
X146948075Y-85327035D02*
X146983789Y-85255607D01*
X146983789Y-85255607D02*
X146983789Y-85041321D01*
X146983789Y-85041321D02*
X146948075Y-84969892D01*
X146948075Y-84969892D02*
X146912361Y-84934178D01*
X146912361Y-84934178D02*
X146840932Y-84898464D01*
X146840932Y-84898464D02*
X146733789Y-84898464D01*
X146733789Y-84898464D02*
X146662361Y-84934178D01*
X146662361Y-84934178D02*
X146626647Y-84969892D01*
X146626647Y-84969892D02*
X146590932Y-85041321D01*
X146590932Y-85041321D02*
X146590932Y-85255607D01*
X146590932Y-85255607D02*
X146626647Y-85327035D01*
X146626647Y-85327035D02*
X146662361Y-85362750D01*
X146662361Y-85362750D02*
X146733789Y-85398464D01*
X146733789Y-85398464D02*
X146840932Y-85398464D01*
X146269504Y-85398464D02*
X146269504Y-84898464D01*
X146269504Y-85041321D02*
X146233790Y-84969892D01*
X146233790Y-84969892D02*
X146198076Y-84934178D01*
X146198076Y-84934178D02*
X146126647Y-84898464D01*
X146126647Y-84898464D02*
X146055218Y-84898464D01*
D10*
X150921704Y-71601503D02*
X150945514Y-71672931D01*
X150945514Y-71672931D02*
X150969323Y-71696741D01*
X150969323Y-71696741D02*
X151016942Y-71720550D01*
X151016942Y-71720550D02*
X151088371Y-71720550D01*
X151088371Y-71720550D02*
X151135990Y-71696741D01*
X151135990Y-71696741D02*
X151159800Y-71672931D01*
X151159800Y-71672931D02*
X151183609Y-71625312D01*
X151183609Y-71625312D02*
X151183609Y-71434836D01*
X151183609Y-71434836D02*
X150683609Y-71434836D01*
X150683609Y-71434836D02*
X150683609Y-71601503D01*
X150683609Y-71601503D02*
X150707419Y-71649122D01*
X150707419Y-71649122D02*
X150731228Y-71672931D01*
X150731228Y-71672931D02*
X150778847Y-71696741D01*
X150778847Y-71696741D02*
X150826466Y-71696741D01*
X150826466Y-71696741D02*
X150874085Y-71672931D01*
X150874085Y-71672931D02*
X150897895Y-71649122D01*
X150897895Y-71649122D02*
X150921704Y-71601503D01*
X150921704Y-71601503D02*
X150921704Y-71434836D01*
X151183609Y-71934836D02*
X150850276Y-71934836D01*
X150945514Y-71934836D02*
X150897895Y-71958646D01*
X150897895Y-71958646D02*
X150874085Y-71982455D01*
X150874085Y-71982455D02*
X150850276Y-72030074D01*
X150850276Y-72030074D02*
X150850276Y-72077693D01*
X150850276Y-72458646D02*
X151183609Y-72458646D01*
X150850276Y-72244360D02*
X151112180Y-72244360D01*
X151112180Y-72244360D02*
X151159800Y-72268170D01*
X151159800Y-72268170D02*
X151183609Y-72315789D01*
X151183609Y-72315789D02*
X151183609Y-72387217D01*
X151183609Y-72387217D02*
X151159800Y-72434836D01*
X151159800Y-72434836D02*
X151135990Y-72458646D01*
X151159800Y-72672932D02*
X151183609Y-72720551D01*
X151183609Y-72720551D02*
X151183609Y-72815789D01*
X151183609Y-72815789D02*
X151159800Y-72863408D01*
X151159800Y-72863408D02*
X151112180Y-72887217D01*
X151112180Y-72887217D02*
X151088371Y-72887217D01*
X151088371Y-72887217D02*
X151040752Y-72863408D01*
X151040752Y-72863408D02*
X151016942Y-72815789D01*
X151016942Y-72815789D02*
X151016942Y-72744360D01*
X151016942Y-72744360D02*
X150993133Y-72696741D01*
X150993133Y-72696741D02*
X150945514Y-72672932D01*
X150945514Y-72672932D02*
X150921704Y-72672932D01*
X150921704Y-72672932D02*
X150874085Y-72696741D01*
X150874085Y-72696741D02*
X150850276Y-72744360D01*
X150850276Y-72744360D02*
X150850276Y-72815789D01*
X150850276Y-72815789D02*
X150874085Y-72863408D01*
X151183609Y-73101503D02*
X150683609Y-73101503D01*
X151183609Y-73315789D02*
X150921704Y-73315789D01*
X150921704Y-73315789D02*
X150874085Y-73291979D01*
X150874085Y-73291979D02*
X150850276Y-73244360D01*
X150850276Y-73244360D02*
X150850276Y-73172932D01*
X150850276Y-73172932D02*
X150874085Y-73125313D01*
X150874085Y-73125313D02*
X150897895Y-73101503D01*
X151183609Y-73625313D02*
X151159800Y-73577694D01*
X151159800Y-73577694D02*
X151112180Y-73553884D01*
X151112180Y-73553884D02*
X150683609Y-73553884D01*
X151159800Y-74006265D02*
X151183609Y-73958646D01*
X151183609Y-73958646D02*
X151183609Y-73863408D01*
X151183609Y-73863408D02*
X151159800Y-73815789D01*
X151159800Y-73815789D02*
X151112180Y-73791980D01*
X151112180Y-73791980D02*
X150921704Y-73791980D01*
X150921704Y-73791980D02*
X150874085Y-73815789D01*
X150874085Y-73815789D02*
X150850276Y-73863408D01*
X150850276Y-73863408D02*
X150850276Y-73958646D01*
X150850276Y-73958646D02*
X150874085Y-74006265D01*
X150874085Y-74006265D02*
X150921704Y-74030075D01*
X150921704Y-74030075D02*
X150969323Y-74030075D01*
X150969323Y-74030075D02*
X151016942Y-73791980D01*
X151159800Y-74220551D02*
X151183609Y-74268170D01*
X151183609Y-74268170D02*
X151183609Y-74363408D01*
X151183609Y-74363408D02*
X151159800Y-74411027D01*
X151159800Y-74411027D02*
X151112180Y-74434836D01*
X151112180Y-74434836D02*
X151088371Y-74434836D01*
X151088371Y-74434836D02*
X151040752Y-74411027D01*
X151040752Y-74411027D02*
X151016942Y-74363408D01*
X151016942Y-74363408D02*
X151016942Y-74291979D01*
X151016942Y-74291979D02*
X150993133Y-74244360D01*
X150993133Y-74244360D02*
X150945514Y-74220551D01*
X150945514Y-74220551D02*
X150921704Y-74220551D01*
X150921704Y-74220551D02*
X150874085Y-74244360D01*
X150874085Y-74244360D02*
X150850276Y-74291979D01*
X150850276Y-74291979D02*
X150850276Y-74363408D01*
X150850276Y-74363408D02*
X150874085Y-74411027D01*
X151159800Y-74625313D02*
X151183609Y-74672932D01*
X151183609Y-74672932D02*
X151183609Y-74768170D01*
X151183609Y-74768170D02*
X151159800Y-74815789D01*
X151159800Y-74815789D02*
X151112180Y-74839598D01*
X151112180Y-74839598D02*
X151088371Y-74839598D01*
X151088371Y-74839598D02*
X151040752Y-74815789D01*
X151040752Y-74815789D02*
X151016942Y-74768170D01*
X151016942Y-74768170D02*
X151016942Y-74696741D01*
X151016942Y-74696741D02*
X150993133Y-74649122D01*
X150993133Y-74649122D02*
X150945514Y-74625313D01*
X150945514Y-74625313D02*
X150921704Y-74625313D01*
X150921704Y-74625313D02*
X150874085Y-74649122D01*
X150874085Y-74649122D02*
X150850276Y-74696741D01*
X150850276Y-74696741D02*
X150850276Y-74768170D01*
X150850276Y-74768170D02*
X150874085Y-74815789D01*
X151159800Y-75411027D02*
X151183609Y-75482455D01*
X151183609Y-75482455D02*
X151183609Y-75601503D01*
X151183609Y-75601503D02*
X151159800Y-75649122D01*
X151159800Y-75649122D02*
X151135990Y-75672931D01*
X151135990Y-75672931D02*
X151088371Y-75696741D01*
X151088371Y-75696741D02*
X151040752Y-75696741D01*
X151040752Y-75696741D02*
X150993133Y-75672931D01*
X150993133Y-75672931D02*
X150969323Y-75649122D01*
X150969323Y-75649122D02*
X150945514Y-75601503D01*
X150945514Y-75601503D02*
X150921704Y-75506265D01*
X150921704Y-75506265D02*
X150897895Y-75458646D01*
X150897895Y-75458646D02*
X150874085Y-75434836D01*
X150874085Y-75434836D02*
X150826466Y-75411027D01*
X150826466Y-75411027D02*
X150778847Y-75411027D01*
X150778847Y-75411027D02*
X150731228Y-75434836D01*
X150731228Y-75434836D02*
X150707419Y-75458646D01*
X150707419Y-75458646D02*
X150683609Y-75506265D01*
X150683609Y-75506265D02*
X150683609Y-75625312D01*
X150683609Y-75625312D02*
X150707419Y-75696741D01*
X150850276Y-75911026D02*
X151350276Y-75911026D01*
X150874085Y-75911026D02*
X150850276Y-75958645D01*
X150850276Y-75958645D02*
X150850276Y-76053883D01*
X150850276Y-76053883D02*
X150874085Y-76101502D01*
X150874085Y-76101502D02*
X150897895Y-76125312D01*
X150897895Y-76125312D02*
X150945514Y-76149121D01*
X150945514Y-76149121D02*
X151088371Y-76149121D01*
X151088371Y-76149121D02*
X151135990Y-76125312D01*
X151135990Y-76125312D02*
X151159800Y-76101502D01*
X151159800Y-76101502D02*
X151183609Y-76053883D01*
X151183609Y-76053883D02*
X151183609Y-75958645D01*
X151183609Y-75958645D02*
X151159800Y-75911026D01*
X151159800Y-76553883D02*
X151183609Y-76506264D01*
X151183609Y-76506264D02*
X151183609Y-76411026D01*
X151183609Y-76411026D02*
X151159800Y-76363407D01*
X151159800Y-76363407D02*
X151112180Y-76339598D01*
X151112180Y-76339598D02*
X150921704Y-76339598D01*
X150921704Y-76339598D02*
X150874085Y-76363407D01*
X150874085Y-76363407D02*
X150850276Y-76411026D01*
X150850276Y-76411026D02*
X150850276Y-76506264D01*
X150850276Y-76506264D02*
X150874085Y-76553883D01*
X150874085Y-76553883D02*
X150921704Y-76577693D01*
X150921704Y-76577693D02*
X150969323Y-76577693D01*
X150969323Y-76577693D02*
X151016942Y-76339598D01*
X151159800Y-76982454D02*
X151183609Y-76934835D01*
X151183609Y-76934835D02*
X151183609Y-76839597D01*
X151183609Y-76839597D02*
X151159800Y-76791978D01*
X151159800Y-76791978D02*
X151112180Y-76768169D01*
X151112180Y-76768169D02*
X150921704Y-76768169D01*
X150921704Y-76768169D02*
X150874085Y-76791978D01*
X150874085Y-76791978D02*
X150850276Y-76839597D01*
X150850276Y-76839597D02*
X150850276Y-76934835D01*
X150850276Y-76934835D02*
X150874085Y-76982454D01*
X150874085Y-76982454D02*
X150921704Y-77006264D01*
X150921704Y-77006264D02*
X150969323Y-77006264D01*
X150969323Y-77006264D02*
X151016942Y-76768169D01*
X151183609Y-77434835D02*
X150683609Y-77434835D01*
X151159800Y-77434835D02*
X151183609Y-77387216D01*
X151183609Y-77387216D02*
X151183609Y-77291978D01*
X151183609Y-77291978D02*
X151159800Y-77244359D01*
X151159800Y-77244359D02*
X151135990Y-77220549D01*
X151135990Y-77220549D02*
X151088371Y-77196740D01*
X151088371Y-77196740D02*
X150945514Y-77196740D01*
X150945514Y-77196740D02*
X150897895Y-77220549D01*
X150897895Y-77220549D02*
X150874085Y-77244359D01*
X150874085Y-77244359D02*
X150850276Y-77291978D01*
X150850276Y-77291978D02*
X150850276Y-77387216D01*
X150850276Y-77387216D02*
X150874085Y-77434835D01*
X151135990Y-78339596D02*
X151159800Y-78315787D01*
X151159800Y-78315787D02*
X151183609Y-78244358D01*
X151183609Y-78244358D02*
X151183609Y-78196739D01*
X151183609Y-78196739D02*
X151159800Y-78125311D01*
X151159800Y-78125311D02*
X151112180Y-78077692D01*
X151112180Y-78077692D02*
X151064561Y-78053882D01*
X151064561Y-78053882D02*
X150969323Y-78030073D01*
X150969323Y-78030073D02*
X150897895Y-78030073D01*
X150897895Y-78030073D02*
X150802657Y-78053882D01*
X150802657Y-78053882D02*
X150755038Y-78077692D01*
X150755038Y-78077692D02*
X150707419Y-78125311D01*
X150707419Y-78125311D02*
X150683609Y-78196739D01*
X150683609Y-78196739D02*
X150683609Y-78244358D01*
X150683609Y-78244358D02*
X150707419Y-78315787D01*
X150707419Y-78315787D02*
X150731228Y-78339596D01*
X151183609Y-78625311D02*
X151159800Y-78577692D01*
X151159800Y-78577692D02*
X151135990Y-78553882D01*
X151135990Y-78553882D02*
X151088371Y-78530073D01*
X151088371Y-78530073D02*
X150945514Y-78530073D01*
X150945514Y-78530073D02*
X150897895Y-78553882D01*
X150897895Y-78553882D02*
X150874085Y-78577692D01*
X150874085Y-78577692D02*
X150850276Y-78625311D01*
X150850276Y-78625311D02*
X150850276Y-78696739D01*
X150850276Y-78696739D02*
X150874085Y-78744358D01*
X150874085Y-78744358D02*
X150897895Y-78768168D01*
X150897895Y-78768168D02*
X150945514Y-78791977D01*
X150945514Y-78791977D02*
X151088371Y-78791977D01*
X151088371Y-78791977D02*
X151135990Y-78768168D01*
X151135990Y-78768168D02*
X151159800Y-78744358D01*
X151159800Y-78744358D02*
X151183609Y-78696739D01*
X151183609Y-78696739D02*
X151183609Y-78625311D01*
X150850276Y-79006263D02*
X151183609Y-79006263D01*
X150897895Y-79006263D02*
X150874085Y-79030073D01*
X150874085Y-79030073D02*
X150850276Y-79077692D01*
X150850276Y-79077692D02*
X150850276Y-79149120D01*
X150850276Y-79149120D02*
X150874085Y-79196739D01*
X150874085Y-79196739D02*
X150921704Y-79220549D01*
X150921704Y-79220549D02*
X151183609Y-79220549D01*
X150850276Y-79387216D02*
X150850276Y-79577692D01*
X150683609Y-79458644D02*
X151112180Y-79458644D01*
X151112180Y-79458644D02*
X151159800Y-79482454D01*
X151159800Y-79482454D02*
X151183609Y-79530073D01*
X151183609Y-79530073D02*
X151183609Y-79577692D01*
X151183609Y-79744358D02*
X150850276Y-79744358D01*
X150945514Y-79744358D02*
X150897895Y-79768168D01*
X150897895Y-79768168D02*
X150874085Y-79791977D01*
X150874085Y-79791977D02*
X150850276Y-79839596D01*
X150850276Y-79839596D02*
X150850276Y-79887215D01*
X151183609Y-80125311D02*
X151159800Y-80077692D01*
X151159800Y-80077692D02*
X151135990Y-80053882D01*
X151135990Y-80053882D02*
X151088371Y-80030073D01*
X151088371Y-80030073D02*
X150945514Y-80030073D01*
X150945514Y-80030073D02*
X150897895Y-80053882D01*
X150897895Y-80053882D02*
X150874085Y-80077692D01*
X150874085Y-80077692D02*
X150850276Y-80125311D01*
X150850276Y-80125311D02*
X150850276Y-80196739D01*
X150850276Y-80196739D02*
X150874085Y-80244358D01*
X150874085Y-80244358D02*
X150897895Y-80268168D01*
X150897895Y-80268168D02*
X150945514Y-80291977D01*
X150945514Y-80291977D02*
X151088371Y-80291977D01*
X151088371Y-80291977D02*
X151135990Y-80268168D01*
X151135990Y-80268168D02*
X151159800Y-80244358D01*
X151159800Y-80244358D02*
X151183609Y-80196739D01*
X151183609Y-80196739D02*
X151183609Y-80125311D01*
X151183609Y-80577692D02*
X151159800Y-80530073D01*
X151159800Y-80530073D02*
X151112180Y-80506263D01*
X151112180Y-80506263D02*
X150683609Y-80506263D01*
X151183609Y-80839597D02*
X151159800Y-80791978D01*
X151159800Y-80791978D02*
X151112180Y-80768168D01*
X151112180Y-80768168D02*
X150683609Y-80768168D01*
X151159800Y-81220549D02*
X151183609Y-81172930D01*
X151183609Y-81172930D02*
X151183609Y-81077692D01*
X151183609Y-81077692D02*
X151159800Y-81030073D01*
X151159800Y-81030073D02*
X151112180Y-81006264D01*
X151112180Y-81006264D02*
X150921704Y-81006264D01*
X150921704Y-81006264D02*
X150874085Y-81030073D01*
X150874085Y-81030073D02*
X150850276Y-81077692D01*
X150850276Y-81077692D02*
X150850276Y-81172930D01*
X150850276Y-81172930D02*
X150874085Y-81220549D01*
X150874085Y-81220549D02*
X150921704Y-81244359D01*
X150921704Y-81244359D02*
X150969323Y-81244359D01*
X150969323Y-81244359D02*
X151016942Y-81006264D01*
X151183609Y-81458644D02*
X150850276Y-81458644D01*
X150945514Y-81458644D02*
X150897895Y-81482454D01*
X150897895Y-81482454D02*
X150874085Y-81506263D01*
X150874085Y-81506263D02*
X150850276Y-81553882D01*
X150850276Y-81553882D02*
X150850276Y-81601501D01*
X125565163Y-71433609D02*
X125565163Y-70933609D01*
X125565163Y-70933609D02*
X125446115Y-70933609D01*
X125446115Y-70933609D02*
X125374687Y-70957419D01*
X125374687Y-70957419D02*
X125327068Y-71005038D01*
X125327068Y-71005038D02*
X125303258Y-71052657D01*
X125303258Y-71052657D02*
X125279449Y-71147895D01*
X125279449Y-71147895D02*
X125279449Y-71219323D01*
X125279449Y-71219323D02*
X125303258Y-71314561D01*
X125303258Y-71314561D02*
X125327068Y-71362180D01*
X125327068Y-71362180D02*
X125374687Y-71409800D01*
X125374687Y-71409800D02*
X125446115Y-71433609D01*
X125446115Y-71433609D02*
X125565163Y-71433609D01*
X124874687Y-71409800D02*
X124922306Y-71433609D01*
X124922306Y-71433609D02*
X125017544Y-71433609D01*
X125017544Y-71433609D02*
X125065163Y-71409800D01*
X125065163Y-71409800D02*
X125088972Y-71362180D01*
X125088972Y-71362180D02*
X125088972Y-71171704D01*
X125088972Y-71171704D02*
X125065163Y-71124085D01*
X125065163Y-71124085D02*
X125017544Y-71100276D01*
X125017544Y-71100276D02*
X124922306Y-71100276D01*
X124922306Y-71100276D02*
X124874687Y-71124085D01*
X124874687Y-71124085D02*
X124850877Y-71171704D01*
X124850877Y-71171704D02*
X124850877Y-71219323D01*
X124850877Y-71219323D02*
X125088972Y-71266942D01*
X124636592Y-71433609D02*
X124636592Y-70933609D01*
X124636592Y-71124085D02*
X124588973Y-71100276D01*
X124588973Y-71100276D02*
X124493735Y-71100276D01*
X124493735Y-71100276D02*
X124446116Y-71124085D01*
X124446116Y-71124085D02*
X124422306Y-71147895D01*
X124422306Y-71147895D02*
X124398497Y-71195514D01*
X124398497Y-71195514D02*
X124398497Y-71338371D01*
X124398497Y-71338371D02*
X124422306Y-71385990D01*
X124422306Y-71385990D02*
X124446116Y-71409800D01*
X124446116Y-71409800D02*
X124493735Y-71433609D01*
X124493735Y-71433609D02*
X124588973Y-71433609D01*
X124588973Y-71433609D02*
X124636592Y-71409800D01*
X123969925Y-71100276D02*
X123969925Y-71433609D01*
X124184211Y-71100276D02*
X124184211Y-71362180D01*
X124184211Y-71362180D02*
X124160401Y-71409800D01*
X124160401Y-71409800D02*
X124112782Y-71433609D01*
X124112782Y-71433609D02*
X124041354Y-71433609D01*
X124041354Y-71433609D02*
X123993735Y-71409800D01*
X123993735Y-71409800D02*
X123969925Y-71385990D01*
X123517544Y-71100276D02*
X123517544Y-71505038D01*
X123517544Y-71505038D02*
X123541354Y-71552657D01*
X123541354Y-71552657D02*
X123565163Y-71576466D01*
X123565163Y-71576466D02*
X123612782Y-71600276D01*
X123612782Y-71600276D02*
X123684211Y-71600276D01*
X123684211Y-71600276D02*
X123731830Y-71576466D01*
X123517544Y-71409800D02*
X123565163Y-71433609D01*
X123565163Y-71433609D02*
X123660401Y-71433609D01*
X123660401Y-71433609D02*
X123708020Y-71409800D01*
X123708020Y-71409800D02*
X123731830Y-71385990D01*
X123731830Y-71385990D02*
X123755639Y-71338371D01*
X123755639Y-71338371D02*
X123755639Y-71195514D01*
X123755639Y-71195514D02*
X123731830Y-71147895D01*
X123731830Y-71147895D02*
X123708020Y-71124085D01*
X123708020Y-71124085D02*
X123660401Y-71100276D01*
X123660401Y-71100276D02*
X123565163Y-71100276D01*
X123565163Y-71100276D02*
X123517544Y-71124085D01*
X123065163Y-71100276D02*
X123065163Y-71505038D01*
X123065163Y-71505038D02*
X123088973Y-71552657D01*
X123088973Y-71552657D02*
X123112782Y-71576466D01*
X123112782Y-71576466D02*
X123160401Y-71600276D01*
X123160401Y-71600276D02*
X123231830Y-71600276D01*
X123231830Y-71600276D02*
X123279449Y-71576466D01*
X123065163Y-71409800D02*
X123112782Y-71433609D01*
X123112782Y-71433609D02*
X123208020Y-71433609D01*
X123208020Y-71433609D02*
X123255639Y-71409800D01*
X123255639Y-71409800D02*
X123279449Y-71385990D01*
X123279449Y-71385990D02*
X123303258Y-71338371D01*
X123303258Y-71338371D02*
X123303258Y-71195514D01*
X123303258Y-71195514D02*
X123279449Y-71147895D01*
X123279449Y-71147895D02*
X123255639Y-71124085D01*
X123255639Y-71124085D02*
X123208020Y-71100276D01*
X123208020Y-71100276D02*
X123112782Y-71100276D01*
X123112782Y-71100276D02*
X123065163Y-71124085D01*
X122636592Y-71409800D02*
X122684211Y-71433609D01*
X122684211Y-71433609D02*
X122779449Y-71433609D01*
X122779449Y-71433609D02*
X122827068Y-71409800D01*
X122827068Y-71409800D02*
X122850877Y-71362180D01*
X122850877Y-71362180D02*
X122850877Y-71171704D01*
X122850877Y-71171704D02*
X122827068Y-71124085D01*
X122827068Y-71124085D02*
X122779449Y-71100276D01*
X122779449Y-71100276D02*
X122684211Y-71100276D01*
X122684211Y-71100276D02*
X122636592Y-71124085D01*
X122636592Y-71124085D02*
X122612782Y-71171704D01*
X122612782Y-71171704D02*
X122612782Y-71219323D01*
X122612782Y-71219323D02*
X122850877Y-71266942D01*
X122398497Y-71433609D02*
X122398497Y-71100276D01*
X122398497Y-71195514D02*
X122374687Y-71147895D01*
X122374687Y-71147895D02*
X122350878Y-71124085D01*
X122350878Y-71124085D02*
X122303259Y-71100276D01*
X122303259Y-71100276D02*
X122255640Y-71100276D01*
D11*
X134824248Y-81522923D02*
X134919486Y-81522923D01*
X134919486Y-81522923D02*
X134929010Y-81618161D01*
X134929010Y-81618161D02*
X134919486Y-81608638D01*
X134919486Y-81608638D02*
X134900439Y-81599114D01*
X134900439Y-81599114D02*
X134852820Y-81599114D01*
X134852820Y-81599114D02*
X134833772Y-81608638D01*
X134833772Y-81608638D02*
X134824248Y-81618161D01*
X134824248Y-81618161D02*
X134814725Y-81637209D01*
X134814725Y-81637209D02*
X134814725Y-81684828D01*
X134814725Y-81684828D02*
X134824248Y-81703876D01*
X134824248Y-81703876D02*
X134833772Y-81713400D01*
X134833772Y-81713400D02*
X134852820Y-81722923D01*
X134852820Y-81722923D02*
X134900439Y-81722923D01*
X134900439Y-81722923D02*
X134919486Y-81713400D01*
X134919486Y-81713400D02*
X134929010Y-81703876D01*
X134729010Y-81703876D02*
X134719487Y-81713400D01*
X134719487Y-81713400D02*
X134729010Y-81722923D01*
X134729010Y-81722923D02*
X134738534Y-81713400D01*
X134738534Y-81713400D02*
X134729010Y-81703876D01*
X134729010Y-81703876D02*
X134729010Y-81722923D01*
X134529011Y-81722923D02*
X134643296Y-81722923D01*
X134586153Y-81722923D02*
X134586153Y-81522923D01*
X134586153Y-81522923D02*
X134605201Y-81551495D01*
X134605201Y-81551495D02*
X134624249Y-81570542D01*
X134624249Y-81570542D02*
X134643296Y-81580066D01*
X134443296Y-81722923D02*
X134443296Y-81522923D01*
X134424249Y-81646733D02*
X134367106Y-81722923D01*
X134367106Y-81589590D02*
X134443296Y-81665780D01*
D10*
X151269925Y-92646871D02*
X151291353Y-92668300D01*
X151291353Y-92668300D02*
X151355639Y-92689728D01*
X151355639Y-92689728D02*
X151398496Y-92689728D01*
X151398496Y-92689728D02*
X151462782Y-92668300D01*
X151462782Y-92668300D02*
X151505639Y-92625442D01*
X151505639Y-92625442D02*
X151527068Y-92582585D01*
X151527068Y-92582585D02*
X151548496Y-92496871D01*
X151548496Y-92496871D02*
X151548496Y-92432585D01*
X151548496Y-92432585D02*
X151527068Y-92346871D01*
X151527068Y-92346871D02*
X151505639Y-92304014D01*
X151505639Y-92304014D02*
X151462782Y-92261157D01*
X151462782Y-92261157D02*
X151398496Y-92239728D01*
X151398496Y-92239728D02*
X151355639Y-92239728D01*
X151355639Y-92239728D02*
X151291353Y-92261157D01*
X151291353Y-92261157D02*
X151269925Y-92282585D01*
X150884211Y-92689728D02*
X150884211Y-92454014D01*
X150884211Y-92454014D02*
X150905639Y-92411157D01*
X150905639Y-92411157D02*
X150948496Y-92389728D01*
X150948496Y-92389728D02*
X151034211Y-92389728D01*
X151034211Y-92389728D02*
X151077068Y-92411157D01*
X150884211Y-92668300D02*
X150927068Y-92689728D01*
X150927068Y-92689728D02*
X151034211Y-92689728D01*
X151034211Y-92689728D02*
X151077068Y-92668300D01*
X151077068Y-92668300D02*
X151098496Y-92625442D01*
X151098496Y-92625442D02*
X151098496Y-92582585D01*
X151098496Y-92582585D02*
X151077068Y-92539728D01*
X151077068Y-92539728D02*
X151034211Y-92518300D01*
X151034211Y-92518300D02*
X150927068Y-92518300D01*
X150927068Y-92518300D02*
X150884211Y-92496871D01*
X150669925Y-92389728D02*
X150669925Y-92839728D01*
X150669925Y-92411157D02*
X150627068Y-92389728D01*
X150627068Y-92389728D02*
X150541353Y-92389728D01*
X150541353Y-92389728D02*
X150498496Y-92411157D01*
X150498496Y-92411157D02*
X150477068Y-92432585D01*
X150477068Y-92432585D02*
X150455639Y-92475442D01*
X150455639Y-92475442D02*
X150455639Y-92604014D01*
X150455639Y-92604014D02*
X150477068Y-92646871D01*
X150477068Y-92646871D02*
X150498496Y-92668300D01*
X150498496Y-92668300D02*
X150541353Y-92689728D01*
X150541353Y-92689728D02*
X150627068Y-92689728D01*
X150627068Y-92689728D02*
X150669925Y-92668300D01*
X150069925Y-92689728D02*
X150069925Y-92454014D01*
X150069925Y-92454014D02*
X150091353Y-92411157D01*
X150091353Y-92411157D02*
X150134210Y-92389728D01*
X150134210Y-92389728D02*
X150219925Y-92389728D01*
X150219925Y-92389728D02*
X150262782Y-92411157D01*
X150069925Y-92668300D02*
X150112782Y-92689728D01*
X150112782Y-92689728D02*
X150219925Y-92689728D01*
X150219925Y-92689728D02*
X150262782Y-92668300D01*
X150262782Y-92668300D02*
X150284210Y-92625442D01*
X150284210Y-92625442D02*
X150284210Y-92582585D01*
X150284210Y-92582585D02*
X150262782Y-92539728D01*
X150262782Y-92539728D02*
X150219925Y-92518300D01*
X150219925Y-92518300D02*
X150112782Y-92518300D01*
X150112782Y-92518300D02*
X150069925Y-92496871D01*
X149662782Y-92668300D02*
X149705639Y-92689728D01*
X149705639Y-92689728D02*
X149791353Y-92689728D01*
X149791353Y-92689728D02*
X149834210Y-92668300D01*
X149834210Y-92668300D02*
X149855639Y-92646871D01*
X149855639Y-92646871D02*
X149877067Y-92604014D01*
X149877067Y-92604014D02*
X149877067Y-92475442D01*
X149877067Y-92475442D02*
X149855639Y-92432585D01*
X149855639Y-92432585D02*
X149834210Y-92411157D01*
X149834210Y-92411157D02*
X149791353Y-92389728D01*
X149791353Y-92389728D02*
X149705639Y-92389728D01*
X149705639Y-92389728D02*
X149662782Y-92411157D01*
X149469925Y-92689728D02*
X149469925Y-92389728D01*
X149469925Y-92239728D02*
X149491353Y-92261157D01*
X149491353Y-92261157D02*
X149469925Y-92282585D01*
X149469925Y-92282585D02*
X149448496Y-92261157D01*
X149448496Y-92261157D02*
X149469925Y-92239728D01*
X149469925Y-92239728D02*
X149469925Y-92282585D01*
X149319924Y-92389728D02*
X149148496Y-92389728D01*
X149255639Y-92239728D02*
X149255639Y-92625442D01*
X149255639Y-92625442D02*
X149234210Y-92668300D01*
X149234210Y-92668300D02*
X149191353Y-92689728D01*
X149191353Y-92689728D02*
X149148496Y-92689728D01*
X148934210Y-92689728D02*
X148977067Y-92668300D01*
X148977067Y-92668300D02*
X148998496Y-92646871D01*
X148998496Y-92646871D02*
X149019924Y-92604014D01*
X149019924Y-92604014D02*
X149019924Y-92475442D01*
X149019924Y-92475442D02*
X148998496Y-92432585D01*
X148998496Y-92432585D02*
X148977067Y-92411157D01*
X148977067Y-92411157D02*
X148934210Y-92389728D01*
X148934210Y-92389728D02*
X148869924Y-92389728D01*
X148869924Y-92389728D02*
X148827067Y-92411157D01*
X148827067Y-92411157D02*
X148805639Y-92432585D01*
X148805639Y-92432585D02*
X148784210Y-92475442D01*
X148784210Y-92475442D02*
X148784210Y-92604014D01*
X148784210Y-92604014D02*
X148805639Y-92646871D01*
X148805639Y-92646871D02*
X148827067Y-92668300D01*
X148827067Y-92668300D02*
X148869924Y-92689728D01*
X148869924Y-92689728D02*
X148934210Y-92689728D01*
X148591353Y-92689728D02*
X148591353Y-92389728D01*
X148591353Y-92475442D02*
X148569924Y-92432585D01*
X148569924Y-92432585D02*
X148548496Y-92411157D01*
X148548496Y-92411157D02*
X148505638Y-92389728D01*
X148505638Y-92389728D02*
X148462781Y-92389728D01*
X126146871Y-78680074D02*
X126168300Y-78658646D01*
X126168300Y-78658646D02*
X126189728Y-78594360D01*
X126189728Y-78594360D02*
X126189728Y-78551503D01*
X126189728Y-78551503D02*
X126168300Y-78487217D01*
X126168300Y-78487217D02*
X126125442Y-78444360D01*
X126125442Y-78444360D02*
X126082585Y-78422931D01*
X126082585Y-78422931D02*
X125996871Y-78401503D01*
X125996871Y-78401503D02*
X125932585Y-78401503D01*
X125932585Y-78401503D02*
X125846871Y-78422931D01*
X125846871Y-78422931D02*
X125804014Y-78444360D01*
X125804014Y-78444360D02*
X125761157Y-78487217D01*
X125761157Y-78487217D02*
X125739728Y-78551503D01*
X125739728Y-78551503D02*
X125739728Y-78594360D01*
X125739728Y-78594360D02*
X125761157Y-78658646D01*
X125761157Y-78658646D02*
X125782585Y-78680074D01*
X126189728Y-79065789D02*
X125954014Y-79065789D01*
X125954014Y-79065789D02*
X125911157Y-79044360D01*
X125911157Y-79044360D02*
X125889728Y-79001503D01*
X125889728Y-79001503D02*
X125889728Y-78915789D01*
X125889728Y-78915789D02*
X125911157Y-78872931D01*
X126168300Y-79065789D02*
X126189728Y-79022931D01*
X126189728Y-79022931D02*
X126189728Y-78915789D01*
X126189728Y-78915789D02*
X126168300Y-78872931D01*
X126168300Y-78872931D02*
X126125442Y-78851503D01*
X126125442Y-78851503D02*
X126082585Y-78851503D01*
X126082585Y-78851503D02*
X126039728Y-78872931D01*
X126039728Y-78872931D02*
X126018300Y-78915789D01*
X126018300Y-78915789D02*
X126018300Y-79022931D01*
X126018300Y-79022931D02*
X125996871Y-79065789D01*
X125889728Y-79280074D02*
X126339728Y-79280074D01*
X125911157Y-79280074D02*
X125889728Y-79322932D01*
X125889728Y-79322932D02*
X125889728Y-79408646D01*
X125889728Y-79408646D02*
X125911157Y-79451503D01*
X125911157Y-79451503D02*
X125932585Y-79472932D01*
X125932585Y-79472932D02*
X125975442Y-79494360D01*
X125975442Y-79494360D02*
X126104014Y-79494360D01*
X126104014Y-79494360D02*
X126146871Y-79472932D01*
X126146871Y-79472932D02*
X126168300Y-79451503D01*
X126168300Y-79451503D02*
X126189728Y-79408646D01*
X126189728Y-79408646D02*
X126189728Y-79322932D01*
X126189728Y-79322932D02*
X126168300Y-79280074D01*
X126189728Y-79880075D02*
X125954014Y-79880075D01*
X125954014Y-79880075D02*
X125911157Y-79858646D01*
X125911157Y-79858646D02*
X125889728Y-79815789D01*
X125889728Y-79815789D02*
X125889728Y-79730075D01*
X125889728Y-79730075D02*
X125911157Y-79687217D01*
X126168300Y-79880075D02*
X126189728Y-79837217D01*
X126189728Y-79837217D02*
X126189728Y-79730075D01*
X126189728Y-79730075D02*
X126168300Y-79687217D01*
X126168300Y-79687217D02*
X126125442Y-79665789D01*
X126125442Y-79665789D02*
X126082585Y-79665789D01*
X126082585Y-79665789D02*
X126039728Y-79687217D01*
X126039728Y-79687217D02*
X126018300Y-79730075D01*
X126018300Y-79730075D02*
X126018300Y-79837217D01*
X126018300Y-79837217D02*
X125996871Y-79880075D01*
X126168300Y-80287218D02*
X126189728Y-80244360D01*
X126189728Y-80244360D02*
X126189728Y-80158646D01*
X126189728Y-80158646D02*
X126168300Y-80115789D01*
X126168300Y-80115789D02*
X126146871Y-80094360D01*
X126146871Y-80094360D02*
X126104014Y-80072932D01*
X126104014Y-80072932D02*
X125975442Y-80072932D01*
X125975442Y-80072932D02*
X125932585Y-80094360D01*
X125932585Y-80094360D02*
X125911157Y-80115789D01*
X125911157Y-80115789D02*
X125889728Y-80158646D01*
X125889728Y-80158646D02*
X125889728Y-80244360D01*
X125889728Y-80244360D02*
X125911157Y-80287218D01*
X126189728Y-80480074D02*
X125889728Y-80480074D01*
X125739728Y-80480074D02*
X125761157Y-80458646D01*
X125761157Y-80458646D02*
X125782585Y-80480074D01*
X125782585Y-80480074D02*
X125761157Y-80501503D01*
X125761157Y-80501503D02*
X125739728Y-80480074D01*
X125739728Y-80480074D02*
X125782585Y-80480074D01*
X125889728Y-80630075D02*
X125889728Y-80801503D01*
X125739728Y-80694360D02*
X126125442Y-80694360D01*
X126125442Y-80694360D02*
X126168300Y-80715789D01*
X126168300Y-80715789D02*
X126189728Y-80758646D01*
X126189728Y-80758646D02*
X126189728Y-80801503D01*
X126189728Y-81015789D02*
X126168300Y-80972932D01*
X126168300Y-80972932D02*
X126146871Y-80951503D01*
X126146871Y-80951503D02*
X126104014Y-80930075D01*
X126104014Y-80930075D02*
X125975442Y-80930075D01*
X125975442Y-80930075D02*
X125932585Y-80951503D01*
X125932585Y-80951503D02*
X125911157Y-80972932D01*
X125911157Y-80972932D02*
X125889728Y-81015789D01*
X125889728Y-81015789D02*
X125889728Y-81080075D01*
X125889728Y-81080075D02*
X125911157Y-81122932D01*
X125911157Y-81122932D02*
X125932585Y-81144361D01*
X125932585Y-81144361D02*
X125975442Y-81165789D01*
X125975442Y-81165789D02*
X126104014Y-81165789D01*
X126104014Y-81165789D02*
X126146871Y-81144361D01*
X126146871Y-81144361D02*
X126168300Y-81122932D01*
X126168300Y-81122932D02*
X126189728Y-81080075D01*
X126189728Y-81080075D02*
X126189728Y-81015789D01*
X126189728Y-81358646D02*
X125889728Y-81358646D01*
X125975442Y-81358646D02*
X125932585Y-81380075D01*
X125932585Y-81380075D02*
X125911157Y-81401504D01*
X125911157Y-81401504D02*
X125889728Y-81444361D01*
X125889728Y-81444361D02*
X125889728Y-81487218D01*
D13*
X111132049Y-73920404D02*
X111060621Y-73944214D01*
X111060621Y-73944214D02*
X111036811Y-73968023D01*
X111036811Y-73968023D02*
X111013002Y-74015642D01*
X111013002Y-74015642D02*
X111013002Y-74087071D01*
X111013002Y-74087071D02*
X111036811Y-74134690D01*
X111036811Y-74134690D02*
X111060621Y-74158500D01*
X111060621Y-74158500D02*
X111108240Y-74182309D01*
X111108240Y-74182309D02*
X111298716Y-74182309D01*
X111298716Y-74182309D02*
X111298716Y-73682309D01*
X111298716Y-73682309D02*
X111132049Y-73682309D01*
X111132049Y-73682309D02*
X111084430Y-73706119D01*
X111084430Y-73706119D02*
X111060621Y-73729928D01*
X111060621Y-73729928D02*
X111036811Y-73777547D01*
X111036811Y-73777547D02*
X111036811Y-73825166D01*
X111036811Y-73825166D02*
X111060621Y-73872785D01*
X111060621Y-73872785D02*
X111084430Y-73896595D01*
X111084430Y-73896595D02*
X111132049Y-73920404D01*
X111132049Y-73920404D02*
X111298716Y-73920404D01*
X110703478Y-73682309D02*
X110608240Y-73682309D01*
X110608240Y-73682309D02*
X110560621Y-73706119D01*
X110560621Y-73706119D02*
X110513002Y-73753738D01*
X110513002Y-73753738D02*
X110489192Y-73848976D01*
X110489192Y-73848976D02*
X110489192Y-74015642D01*
X110489192Y-74015642D02*
X110513002Y-74110880D01*
X110513002Y-74110880D02*
X110560621Y-74158500D01*
X110560621Y-74158500D02*
X110608240Y-74182309D01*
X110608240Y-74182309D02*
X110703478Y-74182309D01*
X110703478Y-74182309D02*
X110751097Y-74158500D01*
X110751097Y-74158500D02*
X110798716Y-74110880D01*
X110798716Y-74110880D02*
X110822525Y-74015642D01*
X110822525Y-74015642D02*
X110822525Y-73848976D01*
X110822525Y-73848976D02*
X110798716Y-73753738D01*
X110798716Y-73753738D02*
X110751097Y-73706119D01*
X110751097Y-73706119D02*
X110703478Y-73682309D01*
X110179668Y-73682309D02*
X110084430Y-73682309D01*
X110084430Y-73682309D02*
X110036811Y-73706119D01*
X110036811Y-73706119D02*
X109989192Y-73753738D01*
X109989192Y-73753738D02*
X109965382Y-73848976D01*
X109965382Y-73848976D02*
X109965382Y-74015642D01*
X109965382Y-74015642D02*
X109989192Y-74110880D01*
X109989192Y-74110880D02*
X110036811Y-74158500D01*
X110036811Y-74158500D02*
X110084430Y-74182309D01*
X110084430Y-74182309D02*
X110179668Y-74182309D01*
X110179668Y-74182309D02*
X110227287Y-74158500D01*
X110227287Y-74158500D02*
X110274906Y-74110880D01*
X110274906Y-74110880D02*
X110298715Y-74015642D01*
X110298715Y-74015642D02*
X110298715Y-73848976D01*
X110298715Y-73848976D02*
X110274906Y-73753738D01*
X110274906Y-73753738D02*
X110227287Y-73706119D01*
X110227287Y-73706119D02*
X110179668Y-73682309D01*
X109822524Y-73682309D02*
X109536810Y-73682309D01*
X109679667Y-74182309D02*
X109679667Y-73682309D01*
D12*
X151305216Y-83398464D02*
X151055216Y-84148464D01*
X151055216Y-84148464D02*
X150805216Y-83398464D01*
X150448073Y-84148464D02*
X150519502Y-84112750D01*
X150519502Y-84112750D02*
X150555216Y-84077035D01*
X150555216Y-84077035D02*
X150590930Y-84005607D01*
X150590930Y-84005607D02*
X150590930Y-83791321D01*
X150590930Y-83791321D02*
X150555216Y-83719892D01*
X150555216Y-83719892D02*
X150519502Y-83684178D01*
X150519502Y-83684178D02*
X150448073Y-83648464D01*
X150448073Y-83648464D02*
X150340930Y-83648464D01*
X150340930Y-83648464D02*
X150269502Y-83684178D01*
X150269502Y-83684178D02*
X150233788Y-83719892D01*
X150233788Y-83719892D02*
X150198073Y-83791321D01*
X150198073Y-83791321D02*
X150198073Y-84005607D01*
X150198073Y-84005607D02*
X150233788Y-84077035D01*
X150233788Y-84077035D02*
X150269502Y-84112750D01*
X150269502Y-84112750D02*
X150340930Y-84148464D01*
X150340930Y-84148464D02*
X150448073Y-84148464D01*
X149769502Y-84148464D02*
X149840931Y-84112750D01*
X149840931Y-84112750D02*
X149876645Y-84041321D01*
X149876645Y-84041321D02*
X149876645Y-83398464D01*
X149590931Y-83648464D02*
X149305217Y-83648464D01*
X149483788Y-83398464D02*
X149483788Y-84041321D01*
X149483788Y-84041321D02*
X149448074Y-84112750D01*
X149448074Y-84112750D02*
X149376645Y-84148464D01*
X149376645Y-84148464D02*
X149305217Y-84148464D01*
X148733789Y-84148464D02*
X148733789Y-83755607D01*
X148733789Y-83755607D02*
X148769503Y-83684178D01*
X148769503Y-83684178D02*
X148840931Y-83648464D01*
X148840931Y-83648464D02*
X148983789Y-83648464D01*
X148983789Y-83648464D02*
X149055217Y-83684178D01*
X148733789Y-84112750D02*
X148805217Y-84148464D01*
X148805217Y-84148464D02*
X148983789Y-84148464D01*
X148983789Y-84148464D02*
X149055217Y-84112750D01*
X149055217Y-84112750D02*
X149090931Y-84041321D01*
X149090931Y-84041321D02*
X149090931Y-83969892D01*
X149090931Y-83969892D02*
X149055217Y-83898464D01*
X149055217Y-83898464D02*
X148983789Y-83862750D01*
X148983789Y-83862750D02*
X148805217Y-83862750D01*
X148805217Y-83862750D02*
X148733789Y-83827035D01*
X148055218Y-83648464D02*
X148055218Y-84255607D01*
X148055218Y-84255607D02*
X148090932Y-84327035D01*
X148090932Y-84327035D02*
X148126646Y-84362750D01*
X148126646Y-84362750D02*
X148198075Y-84398464D01*
X148198075Y-84398464D02*
X148305218Y-84398464D01*
X148305218Y-84398464D02*
X148376646Y-84362750D01*
X148055218Y-84112750D02*
X148126646Y-84148464D01*
X148126646Y-84148464D02*
X148269503Y-84148464D01*
X148269503Y-84148464D02*
X148340932Y-84112750D01*
X148340932Y-84112750D02*
X148376646Y-84077035D01*
X148376646Y-84077035D02*
X148412360Y-84005607D01*
X148412360Y-84005607D02*
X148412360Y-83791321D01*
X148412360Y-83791321D02*
X148376646Y-83719892D01*
X148376646Y-83719892D02*
X148340932Y-83684178D01*
X148340932Y-83684178D02*
X148269503Y-83648464D01*
X148269503Y-83648464D02*
X148126646Y-83648464D01*
X148126646Y-83648464D02*
X148055218Y-83684178D01*
X147412361Y-84112750D02*
X147483789Y-84148464D01*
X147483789Y-84148464D02*
X147626647Y-84148464D01*
X147626647Y-84148464D02*
X147698075Y-84112750D01*
X147698075Y-84112750D02*
X147733789Y-84041321D01*
X147733789Y-84041321D02*
X147733789Y-83755607D01*
X147733789Y-83755607D02*
X147698075Y-83684178D01*
X147698075Y-83684178D02*
X147626647Y-83648464D01*
X147626647Y-83648464D02*
X147483789Y-83648464D01*
X147483789Y-83648464D02*
X147412361Y-83684178D01*
X147412361Y-83684178D02*
X147376647Y-83755607D01*
X147376647Y-83755607D02*
X147376647Y-83827035D01*
X147376647Y-83827035D02*
X147733789Y-83898464D01*
D14*
X137130326Y-89257275D02*
X137130326Y-88257275D01*
X137130326Y-88257275D02*
X136796993Y-88971560D01*
X136796993Y-88971560D02*
X136463660Y-88257275D01*
X136463660Y-88257275D02*
X136463660Y-89257275D01*
X136035088Y-88352513D02*
X135987469Y-88304894D01*
X135987469Y-88304894D02*
X135892231Y-88257275D01*
X135892231Y-88257275D02*
X135654136Y-88257275D01*
X135654136Y-88257275D02*
X135558898Y-88304894D01*
X135558898Y-88304894D02*
X135511279Y-88352513D01*
X135511279Y-88352513D02*
X135463660Y-88447751D01*
X135463660Y-88447751D02*
X135463660Y-88542989D01*
X135463660Y-88542989D02*
X135511279Y-88685846D01*
X135511279Y-88685846D02*
X136082707Y-89257275D01*
X136082707Y-89257275D02*
X135463660Y-89257275D01*
D15*
X131900446Y-84186884D02*
X131832589Y-84209503D01*
X131832589Y-84209503D02*
X131809970Y-84232122D01*
X131809970Y-84232122D02*
X131787351Y-84277360D01*
X131787351Y-84277360D02*
X131787351Y-84345217D01*
X131787351Y-84345217D02*
X131809970Y-84390455D01*
X131809970Y-84390455D02*
X131832589Y-84413075D01*
X131832589Y-84413075D02*
X131877827Y-84435694D01*
X131877827Y-84435694D02*
X132058779Y-84435694D01*
X132058779Y-84435694D02*
X132058779Y-83960694D01*
X132058779Y-83960694D02*
X131900446Y-83960694D01*
X131900446Y-83960694D02*
X131855208Y-83983313D01*
X131855208Y-83983313D02*
X131832589Y-84005932D01*
X131832589Y-84005932D02*
X131809970Y-84051170D01*
X131809970Y-84051170D02*
X131809970Y-84096408D01*
X131809970Y-84096408D02*
X131832589Y-84141646D01*
X131832589Y-84141646D02*
X131855208Y-84164265D01*
X131855208Y-84164265D02*
X131900446Y-84186884D01*
X131900446Y-84186884D02*
X132058779Y-84186884D01*
X131583779Y-84435694D02*
X131583779Y-84119027D01*
X131583779Y-84209503D02*
X131561160Y-84164265D01*
X131561160Y-84164265D02*
X131538541Y-84141646D01*
X131538541Y-84141646D02*
X131493303Y-84119027D01*
X131493303Y-84119027D02*
X131448065Y-84119027D01*
X131086160Y-84119027D02*
X131086160Y-84435694D01*
X131289731Y-84119027D02*
X131289731Y-84367836D01*
X131289731Y-84367836D02*
X131267112Y-84413075D01*
X131267112Y-84413075D02*
X131221874Y-84435694D01*
X131221874Y-84435694D02*
X131154017Y-84435694D01*
X131154017Y-84435694D02*
X131108779Y-84413075D01*
X131108779Y-84413075D02*
X131086160Y-84390455D01*
X130882588Y-84413075D02*
X130837350Y-84435694D01*
X130837350Y-84435694D02*
X130746874Y-84435694D01*
X130746874Y-84435694D02*
X130701636Y-84413075D01*
X130701636Y-84413075D02*
X130679017Y-84367836D01*
X130679017Y-84367836D02*
X130679017Y-84345217D01*
X130679017Y-84345217D02*
X130701636Y-84299979D01*
X130701636Y-84299979D02*
X130746874Y-84277360D01*
X130746874Y-84277360D02*
X130814731Y-84277360D01*
X130814731Y-84277360D02*
X130859969Y-84254741D01*
X130859969Y-84254741D02*
X130882588Y-84209503D01*
X130882588Y-84209503D02*
X130882588Y-84186884D01*
X130882588Y-84186884D02*
X130859969Y-84141646D01*
X130859969Y-84141646D02*
X130814731Y-84119027D01*
X130814731Y-84119027D02*
X130746874Y-84119027D01*
X130746874Y-84119027D02*
X130701636Y-84141646D01*
X130475445Y-84435694D02*
X130475445Y-83960694D01*
X130271874Y-84435694D02*
X130271874Y-84186884D01*
X130271874Y-84186884D02*
X130294493Y-84141646D01*
X130294493Y-84141646D02*
X130339731Y-84119027D01*
X130339731Y-84119027D02*
X130407588Y-84119027D01*
X130407588Y-84119027D02*
X130452826Y-84141646D01*
X130452826Y-84141646D02*
X130475445Y-84164265D01*
X129864731Y-84413075D02*
X129909969Y-84435694D01*
X129909969Y-84435694D02*
X130000445Y-84435694D01*
X130000445Y-84435694D02*
X130045683Y-84413075D01*
X130045683Y-84413075D02*
X130068302Y-84367836D01*
X130068302Y-84367836D02*
X130068302Y-84186884D01*
X130068302Y-84186884D02*
X130045683Y-84141646D01*
X130045683Y-84141646D02*
X130000445Y-84119027D01*
X130000445Y-84119027D02*
X129909969Y-84119027D01*
X129909969Y-84119027D02*
X129864731Y-84141646D01*
X129864731Y-84141646D02*
X129842112Y-84186884D01*
X129842112Y-84186884D02*
X129842112Y-84232122D01*
X129842112Y-84232122D02*
X130068302Y-84277360D01*
X129434969Y-84435694D02*
X129434969Y-83960694D01*
X129434969Y-84413075D02*
X129480207Y-84435694D01*
X129480207Y-84435694D02*
X129570683Y-84435694D01*
X129570683Y-84435694D02*
X129615921Y-84413075D01*
X129615921Y-84413075D02*
X129638540Y-84390455D01*
X129638540Y-84390455D02*
X129661159Y-84345217D01*
X129661159Y-84345217D02*
X129661159Y-84209503D01*
X129661159Y-84209503D02*
X129638540Y-84164265D01*
X129638540Y-84164265D02*
X129615921Y-84141646D01*
X129615921Y-84141646D02*
X129570683Y-84119027D01*
X129570683Y-84119027D02*
X129480207Y-84119027D01*
X129480207Y-84119027D02*
X129434969Y-84141646D01*
X128869492Y-84413075D02*
X128801635Y-84435694D01*
X128801635Y-84435694D02*
X128688540Y-84435694D01*
X128688540Y-84435694D02*
X128643302Y-84413075D01*
X128643302Y-84413075D02*
X128620683Y-84390455D01*
X128620683Y-84390455D02*
X128598064Y-84345217D01*
X128598064Y-84345217D02*
X128598064Y-84299979D01*
X128598064Y-84299979D02*
X128620683Y-84254741D01*
X128620683Y-84254741D02*
X128643302Y-84232122D01*
X128643302Y-84232122D02*
X128688540Y-84209503D01*
X128688540Y-84209503D02*
X128779016Y-84186884D01*
X128779016Y-84186884D02*
X128824254Y-84164265D01*
X128824254Y-84164265D02*
X128846873Y-84141646D01*
X128846873Y-84141646D02*
X128869492Y-84096408D01*
X128869492Y-84096408D02*
X128869492Y-84051170D01*
X128869492Y-84051170D02*
X128846873Y-84005932D01*
X128846873Y-84005932D02*
X128824254Y-83983313D01*
X128824254Y-83983313D02*
X128779016Y-83960694D01*
X128779016Y-83960694D02*
X128665921Y-83960694D01*
X128665921Y-83960694D02*
X128598064Y-83983313D01*
X128394492Y-84119027D02*
X128394492Y-84594027D01*
X128394492Y-84141646D02*
X128349254Y-84119027D01*
X128349254Y-84119027D02*
X128258778Y-84119027D01*
X128258778Y-84119027D02*
X128213540Y-84141646D01*
X128213540Y-84141646D02*
X128190921Y-84164265D01*
X128190921Y-84164265D02*
X128168302Y-84209503D01*
X128168302Y-84209503D02*
X128168302Y-84345217D01*
X128168302Y-84345217D02*
X128190921Y-84390455D01*
X128190921Y-84390455D02*
X128213540Y-84413075D01*
X128213540Y-84413075D02*
X128258778Y-84435694D01*
X128258778Y-84435694D02*
X128349254Y-84435694D01*
X128349254Y-84435694D02*
X128394492Y-84413075D01*
X127783778Y-84413075D02*
X127829016Y-84435694D01*
X127829016Y-84435694D02*
X127919492Y-84435694D01*
X127919492Y-84435694D02*
X127964730Y-84413075D01*
X127964730Y-84413075D02*
X127987349Y-84367836D01*
X127987349Y-84367836D02*
X127987349Y-84186884D01*
X127987349Y-84186884D02*
X127964730Y-84141646D01*
X127964730Y-84141646D02*
X127919492Y-84119027D01*
X127919492Y-84119027D02*
X127829016Y-84119027D01*
X127829016Y-84119027D02*
X127783778Y-84141646D01*
X127783778Y-84141646D02*
X127761159Y-84186884D01*
X127761159Y-84186884D02*
X127761159Y-84232122D01*
X127761159Y-84232122D02*
X127987349Y-84277360D01*
X127376635Y-84413075D02*
X127421873Y-84435694D01*
X127421873Y-84435694D02*
X127512349Y-84435694D01*
X127512349Y-84435694D02*
X127557587Y-84413075D01*
X127557587Y-84413075D02*
X127580206Y-84367836D01*
X127580206Y-84367836D02*
X127580206Y-84186884D01*
X127580206Y-84186884D02*
X127557587Y-84141646D01*
X127557587Y-84141646D02*
X127512349Y-84119027D01*
X127512349Y-84119027D02*
X127421873Y-84119027D01*
X127421873Y-84119027D02*
X127376635Y-84141646D01*
X127376635Y-84141646D02*
X127354016Y-84186884D01*
X127354016Y-84186884D02*
X127354016Y-84232122D01*
X127354016Y-84232122D02*
X127580206Y-84277360D01*
X126946873Y-84435694D02*
X126946873Y-83960694D01*
X126946873Y-84413075D02*
X126992111Y-84435694D01*
X126992111Y-84435694D02*
X127082587Y-84435694D01*
X127082587Y-84435694D02*
X127127825Y-84413075D01*
X127127825Y-84413075D02*
X127150444Y-84390455D01*
X127150444Y-84390455D02*
X127173063Y-84345217D01*
X127173063Y-84345217D02*
X127173063Y-84209503D01*
X127173063Y-84209503D02*
X127150444Y-84164265D01*
X127150444Y-84164265D02*
X127127825Y-84141646D01*
X127127825Y-84141646D02*
X127082587Y-84119027D01*
X127082587Y-84119027D02*
X126992111Y-84119027D01*
X126992111Y-84119027D02*
X126946873Y-84141646D01*
X126087349Y-84390455D02*
X126109968Y-84413075D01*
X126109968Y-84413075D02*
X126177825Y-84435694D01*
X126177825Y-84435694D02*
X126223063Y-84435694D01*
X126223063Y-84435694D02*
X126290920Y-84413075D01*
X126290920Y-84413075D02*
X126336158Y-84367836D01*
X126336158Y-84367836D02*
X126358777Y-84322598D01*
X126358777Y-84322598D02*
X126381396Y-84232122D01*
X126381396Y-84232122D02*
X126381396Y-84164265D01*
X126381396Y-84164265D02*
X126358777Y-84073789D01*
X126358777Y-84073789D02*
X126336158Y-84028551D01*
X126336158Y-84028551D02*
X126290920Y-83983313D01*
X126290920Y-83983313D02*
X126223063Y-83960694D01*
X126223063Y-83960694D02*
X126177825Y-83960694D01*
X126177825Y-83960694D02*
X126109968Y-83983313D01*
X126109968Y-83983313D02*
X126087349Y-84005932D01*
X125815920Y-84435694D02*
X125861158Y-84413075D01*
X125861158Y-84413075D02*
X125883777Y-84390455D01*
X125883777Y-84390455D02*
X125906396Y-84345217D01*
X125906396Y-84345217D02*
X125906396Y-84209503D01*
X125906396Y-84209503D02*
X125883777Y-84164265D01*
X125883777Y-84164265D02*
X125861158Y-84141646D01*
X125861158Y-84141646D02*
X125815920Y-84119027D01*
X125815920Y-84119027D02*
X125748063Y-84119027D01*
X125748063Y-84119027D02*
X125702825Y-84141646D01*
X125702825Y-84141646D02*
X125680206Y-84164265D01*
X125680206Y-84164265D02*
X125657587Y-84209503D01*
X125657587Y-84209503D02*
X125657587Y-84345217D01*
X125657587Y-84345217D02*
X125680206Y-84390455D01*
X125680206Y-84390455D02*
X125702825Y-84413075D01*
X125702825Y-84413075D02*
X125748063Y-84435694D01*
X125748063Y-84435694D02*
X125815920Y-84435694D01*
X125454015Y-84119027D02*
X125454015Y-84435694D01*
X125454015Y-84164265D02*
X125431396Y-84141646D01*
X125431396Y-84141646D02*
X125386158Y-84119027D01*
X125386158Y-84119027D02*
X125318301Y-84119027D01*
X125318301Y-84119027D02*
X125273063Y-84141646D01*
X125273063Y-84141646D02*
X125250444Y-84186884D01*
X125250444Y-84186884D02*
X125250444Y-84435694D01*
X125092110Y-84119027D02*
X124911158Y-84119027D01*
X125024253Y-83960694D02*
X125024253Y-84367836D01*
X125024253Y-84367836D02*
X125001634Y-84413075D01*
X125001634Y-84413075D02*
X124956396Y-84435694D01*
X124956396Y-84435694D02*
X124911158Y-84435694D01*
X124752824Y-84435694D02*
X124752824Y-84119027D01*
X124752824Y-84209503D02*
X124730205Y-84164265D01*
X124730205Y-84164265D02*
X124707586Y-84141646D01*
X124707586Y-84141646D02*
X124662348Y-84119027D01*
X124662348Y-84119027D02*
X124617110Y-84119027D01*
X124390919Y-84435694D02*
X124436157Y-84413075D01*
X124436157Y-84413075D02*
X124458776Y-84390455D01*
X124458776Y-84390455D02*
X124481395Y-84345217D01*
X124481395Y-84345217D02*
X124481395Y-84209503D01*
X124481395Y-84209503D02*
X124458776Y-84164265D01*
X124458776Y-84164265D02*
X124436157Y-84141646D01*
X124436157Y-84141646D02*
X124390919Y-84119027D01*
X124390919Y-84119027D02*
X124323062Y-84119027D01*
X124323062Y-84119027D02*
X124277824Y-84141646D01*
X124277824Y-84141646D02*
X124255205Y-84164265D01*
X124255205Y-84164265D02*
X124232586Y-84209503D01*
X124232586Y-84209503D02*
X124232586Y-84345217D01*
X124232586Y-84345217D02*
X124255205Y-84390455D01*
X124255205Y-84390455D02*
X124277824Y-84413075D01*
X124277824Y-84413075D02*
X124323062Y-84435694D01*
X124323062Y-84435694D02*
X124390919Y-84435694D01*
X123961157Y-84435694D02*
X124006395Y-84413075D01*
X124006395Y-84413075D02*
X124029014Y-84367836D01*
X124029014Y-84367836D02*
X124029014Y-83960694D01*
X123712347Y-84435694D02*
X123757585Y-84413075D01*
X123757585Y-84413075D02*
X123780204Y-84367836D01*
X123780204Y-84367836D02*
X123780204Y-83960694D01*
X123350442Y-84413075D02*
X123395680Y-84435694D01*
X123395680Y-84435694D02*
X123486156Y-84435694D01*
X123486156Y-84435694D02*
X123531394Y-84413075D01*
X123531394Y-84413075D02*
X123554013Y-84367836D01*
X123554013Y-84367836D02*
X123554013Y-84186884D01*
X123554013Y-84186884D02*
X123531394Y-84141646D01*
X123531394Y-84141646D02*
X123486156Y-84119027D01*
X123486156Y-84119027D02*
X123395680Y-84119027D01*
X123395680Y-84119027D02*
X123350442Y-84141646D01*
X123350442Y-84141646D02*
X123327823Y-84186884D01*
X123327823Y-84186884D02*
X123327823Y-84232122D01*
X123327823Y-84232122D02*
X123554013Y-84277360D01*
X123124251Y-84435694D02*
X123124251Y-84119027D01*
X123124251Y-84209503D02*
X123101632Y-84164265D01*
X123101632Y-84164265D02*
X123079013Y-84141646D01*
X123079013Y-84141646D02*
X123033775Y-84119027D01*
X123033775Y-84119027D02*
X122988537Y-84119027D01*
D12*
X132055216Y-84648464D02*
X131626645Y-84648464D01*
X131840930Y-85398464D02*
X131840930Y-84648464D01*
X131126644Y-85005607D02*
X131019501Y-85041321D01*
X131019501Y-85041321D02*
X130983787Y-85077035D01*
X130983787Y-85077035D02*
X130948073Y-85148464D01*
X130948073Y-85148464D02*
X130948073Y-85255607D01*
X130948073Y-85255607D02*
X130983787Y-85327035D01*
X130983787Y-85327035D02*
X131019501Y-85362750D01*
X131019501Y-85362750D02*
X131090930Y-85398464D01*
X131090930Y-85398464D02*
X131376644Y-85398464D01*
X131376644Y-85398464D02*
X131376644Y-84648464D01*
X131376644Y-84648464D02*
X131126644Y-84648464D01*
X131126644Y-84648464D02*
X131055216Y-84684178D01*
X131055216Y-84684178D02*
X131019501Y-84719892D01*
X131019501Y-84719892D02*
X130983787Y-84791321D01*
X130983787Y-84791321D02*
X130983787Y-84862750D01*
X130983787Y-84862750D02*
X131019501Y-84934178D01*
X131019501Y-84934178D02*
X131055216Y-84969892D01*
X131055216Y-84969892D02*
X131126644Y-85005607D01*
X131126644Y-85005607D02*
X131376644Y-85005607D01*
X130305216Y-84648464D02*
X130448073Y-84648464D01*
X130448073Y-84648464D02*
X130519501Y-84684178D01*
X130519501Y-84684178D02*
X130555216Y-84719892D01*
X130555216Y-84719892D02*
X130626644Y-84827035D01*
X130626644Y-84827035D02*
X130662358Y-84969892D01*
X130662358Y-84969892D02*
X130662358Y-85255607D01*
X130662358Y-85255607D02*
X130626644Y-85327035D01*
X130626644Y-85327035D02*
X130590930Y-85362750D01*
X130590930Y-85362750D02*
X130519501Y-85398464D01*
X130519501Y-85398464D02*
X130376644Y-85398464D01*
X130376644Y-85398464D02*
X130305216Y-85362750D01*
X130305216Y-85362750D02*
X130269501Y-85327035D01*
X130269501Y-85327035D02*
X130233787Y-85255607D01*
X130233787Y-85255607D02*
X130233787Y-85077035D01*
X130233787Y-85077035D02*
X130269501Y-85005607D01*
X130269501Y-85005607D02*
X130305216Y-84969892D01*
X130305216Y-84969892D02*
X130376644Y-84934178D01*
X130376644Y-84934178D02*
X130519501Y-84934178D01*
X130519501Y-84934178D02*
X130590930Y-84969892D01*
X130590930Y-84969892D02*
X130626644Y-85005607D01*
X130626644Y-85005607D02*
X130662358Y-85077035D01*
X129590930Y-84648464D02*
X129733787Y-84648464D01*
X129733787Y-84648464D02*
X129805215Y-84684178D01*
X129805215Y-84684178D02*
X129840930Y-84719892D01*
X129840930Y-84719892D02*
X129912358Y-84827035D01*
X129912358Y-84827035D02*
X129948072Y-84969892D01*
X129948072Y-84969892D02*
X129948072Y-85255607D01*
X129948072Y-85255607D02*
X129912358Y-85327035D01*
X129912358Y-85327035D02*
X129876644Y-85362750D01*
X129876644Y-85362750D02*
X129805215Y-85398464D01*
X129805215Y-85398464D02*
X129662358Y-85398464D01*
X129662358Y-85398464D02*
X129590930Y-85362750D01*
X129590930Y-85362750D02*
X129555215Y-85327035D01*
X129555215Y-85327035D02*
X129519501Y-85255607D01*
X129519501Y-85255607D02*
X129519501Y-85077035D01*
X129519501Y-85077035D02*
X129555215Y-85005607D01*
X129555215Y-85005607D02*
X129590930Y-84969892D01*
X129590930Y-84969892D02*
X129662358Y-84934178D01*
X129662358Y-84934178D02*
X129805215Y-84934178D01*
X129805215Y-84934178D02*
X129876644Y-84969892D01*
X129876644Y-84969892D02*
X129912358Y-85005607D01*
X129912358Y-85005607D02*
X129948072Y-85077035D01*
X128805215Y-85398464D02*
X129233786Y-85398464D01*
X129019501Y-85398464D02*
X129019501Y-84648464D01*
X129019501Y-84648464D02*
X129090929Y-84755607D01*
X129090929Y-84755607D02*
X129162358Y-84827035D01*
X129162358Y-84827035D02*
X129233786Y-84862750D01*
X128519500Y-84719892D02*
X128483786Y-84684178D01*
X128483786Y-84684178D02*
X128412358Y-84648464D01*
X128412358Y-84648464D02*
X128233786Y-84648464D01*
X128233786Y-84648464D02*
X128162358Y-84684178D01*
X128162358Y-84684178D02*
X128126643Y-84719892D01*
X128126643Y-84719892D02*
X128090929Y-84791321D01*
X128090929Y-84791321D02*
X128090929Y-84862750D01*
X128090929Y-84862750D02*
X128126643Y-84969892D01*
X128126643Y-84969892D02*
X128555215Y-85398464D01*
X128555215Y-85398464D02*
X128090929Y-85398464D01*
X127519500Y-85005607D02*
X127769500Y-85005607D01*
X127769500Y-85398464D02*
X127769500Y-84648464D01*
X127769500Y-84648464D02*
X127412357Y-84648464D01*
X127126643Y-85398464D02*
X127126643Y-84648464D01*
X127126643Y-84648464D02*
X126698072Y-85398464D01*
X126698072Y-85398464D02*
X126698072Y-84648464D01*
X125948072Y-84684178D02*
X126019501Y-84648464D01*
X126019501Y-84648464D02*
X126126643Y-84648464D01*
X126126643Y-84648464D02*
X126233786Y-84684178D01*
X126233786Y-84684178D02*
X126305215Y-84755607D01*
X126305215Y-84755607D02*
X126340929Y-84827035D01*
X126340929Y-84827035D02*
X126376643Y-84969892D01*
X126376643Y-84969892D02*
X126376643Y-85077035D01*
X126376643Y-85077035D02*
X126340929Y-85219892D01*
X126340929Y-85219892D02*
X126305215Y-85291321D01*
X126305215Y-85291321D02*
X126233786Y-85362750D01*
X126233786Y-85362750D02*
X126126643Y-85398464D01*
X126126643Y-85398464D02*
X126055215Y-85398464D01*
X126055215Y-85398464D02*
X125948072Y-85362750D01*
X125948072Y-85362750D02*
X125912358Y-85327035D01*
X125912358Y-85327035D02*
X125912358Y-85077035D01*
X125912358Y-85077035D02*
X126055215Y-85077035D01*
D11*
X123514725Y-78216804D02*
X123598058Y-78097757D01*
X123657582Y-78216804D02*
X123657582Y-77966804D01*
X123657582Y-77966804D02*
X123562344Y-77966804D01*
X123562344Y-77966804D02*
X123538534Y-77978709D01*
X123538534Y-77978709D02*
X123526629Y-77990614D01*
X123526629Y-77990614D02*
X123514725Y-78014423D01*
X123514725Y-78014423D02*
X123514725Y-78050138D01*
X123514725Y-78050138D02*
X123526629Y-78073947D01*
X123526629Y-78073947D02*
X123538534Y-78085852D01*
X123538534Y-78085852D02*
X123562344Y-78097757D01*
X123562344Y-78097757D02*
X123657582Y-78097757D01*
X123312344Y-78204900D02*
X123336153Y-78216804D01*
X123336153Y-78216804D02*
X123383772Y-78216804D01*
X123383772Y-78216804D02*
X123407582Y-78204900D01*
X123407582Y-78204900D02*
X123419486Y-78181090D01*
X123419486Y-78181090D02*
X123419486Y-78085852D01*
X123419486Y-78085852D02*
X123407582Y-78062042D01*
X123407582Y-78062042D02*
X123383772Y-78050138D01*
X123383772Y-78050138D02*
X123336153Y-78050138D01*
X123336153Y-78050138D02*
X123312344Y-78062042D01*
X123312344Y-78062042D02*
X123300439Y-78085852D01*
X123300439Y-78085852D02*
X123300439Y-78109661D01*
X123300439Y-78109661D02*
X123419486Y-78133471D01*
X123205200Y-78204900D02*
X123181391Y-78216804D01*
X123181391Y-78216804D02*
X123133772Y-78216804D01*
X123133772Y-78216804D02*
X123109962Y-78204900D01*
X123109962Y-78204900D02*
X123098058Y-78181090D01*
X123098058Y-78181090D02*
X123098058Y-78169185D01*
X123098058Y-78169185D02*
X123109962Y-78145376D01*
X123109962Y-78145376D02*
X123133772Y-78133471D01*
X123133772Y-78133471D02*
X123169486Y-78133471D01*
X123169486Y-78133471D02*
X123193296Y-78121566D01*
X123193296Y-78121566D02*
X123205200Y-78097757D01*
X123205200Y-78097757D02*
X123205200Y-78085852D01*
X123205200Y-78085852D02*
X123193296Y-78062042D01*
X123193296Y-78062042D02*
X123169486Y-78050138D01*
X123169486Y-78050138D02*
X123133772Y-78050138D01*
X123133772Y-78050138D02*
X123109962Y-78062042D01*
X122990915Y-78216804D02*
X122990915Y-78050138D01*
X122990915Y-77966804D02*
X123002819Y-77978709D01*
X123002819Y-77978709D02*
X122990915Y-77990614D01*
X122990915Y-77990614D02*
X122979010Y-77978709D01*
X122979010Y-77978709D02*
X122990915Y-77966804D01*
X122990915Y-77966804D02*
X122990915Y-77990614D01*
X122883771Y-78204900D02*
X122859962Y-78216804D01*
X122859962Y-78216804D02*
X122812343Y-78216804D01*
X122812343Y-78216804D02*
X122788533Y-78204900D01*
X122788533Y-78204900D02*
X122776629Y-78181090D01*
X122776629Y-78181090D02*
X122776629Y-78169185D01*
X122776629Y-78169185D02*
X122788533Y-78145376D01*
X122788533Y-78145376D02*
X122812343Y-78133471D01*
X122812343Y-78133471D02*
X122848057Y-78133471D01*
X122848057Y-78133471D02*
X122871867Y-78121566D01*
X122871867Y-78121566D02*
X122883771Y-78097757D01*
X122883771Y-78097757D02*
X122883771Y-78085852D01*
X122883771Y-78085852D02*
X122871867Y-78062042D01*
X122871867Y-78062042D02*
X122848057Y-78050138D01*
X122848057Y-78050138D02*
X122812343Y-78050138D01*
X122812343Y-78050138D02*
X122788533Y-78062042D01*
X122705200Y-78050138D02*
X122609962Y-78050138D01*
X122669486Y-77966804D02*
X122669486Y-78181090D01*
X122669486Y-78181090D02*
X122657581Y-78204900D01*
X122657581Y-78204900D02*
X122633771Y-78216804D01*
X122633771Y-78216804D02*
X122609962Y-78216804D01*
X122490914Y-78216804D02*
X122514724Y-78204900D01*
X122514724Y-78204900D02*
X122526629Y-78192995D01*
X122526629Y-78192995D02*
X122538533Y-78169185D01*
X122538533Y-78169185D02*
X122538533Y-78097757D01*
X122538533Y-78097757D02*
X122526629Y-78073947D01*
X122526629Y-78073947D02*
X122514724Y-78062042D01*
X122514724Y-78062042D02*
X122490914Y-78050138D01*
X122490914Y-78050138D02*
X122455200Y-78050138D01*
X122455200Y-78050138D02*
X122431391Y-78062042D01*
X122431391Y-78062042D02*
X122419486Y-78073947D01*
X122419486Y-78073947D02*
X122407581Y-78097757D01*
X122407581Y-78097757D02*
X122407581Y-78169185D01*
X122407581Y-78169185D02*
X122419486Y-78192995D01*
X122419486Y-78192995D02*
X122431391Y-78204900D01*
X122431391Y-78204900D02*
X122455200Y-78216804D01*
X122455200Y-78216804D02*
X122490914Y-78216804D01*
X122300439Y-78216804D02*
X122300439Y-78050138D01*
X122300439Y-78097757D02*
X122288534Y-78073947D01*
X122288534Y-78073947D02*
X122276629Y-78062042D01*
X122276629Y-78062042D02*
X122252820Y-78050138D01*
X122252820Y-78050138D02*
X122229010Y-78050138D01*
X121541971Y-78108989D02*
X121532447Y-78118513D01*
X121532447Y-78118513D02*
X121522923Y-78137560D01*
X121522923Y-78137560D02*
X121522923Y-78185179D01*
X121522923Y-78185179D02*
X121532447Y-78204227D01*
X121532447Y-78204227D02*
X121541971Y-78213751D01*
X121541971Y-78213751D02*
X121561019Y-78223274D01*
X121561019Y-78223274D02*
X121580066Y-78223274D01*
X121580066Y-78223274D02*
X121608638Y-78213751D01*
X121608638Y-78213751D02*
X121722923Y-78099465D01*
X121722923Y-78099465D02*
X121722923Y-78223274D01*
X121541971Y-78299465D02*
X121532447Y-78308989D01*
X121532447Y-78308989D02*
X121522923Y-78328036D01*
X121522923Y-78328036D02*
X121522923Y-78375655D01*
X121522923Y-78375655D02*
X121532447Y-78394703D01*
X121532447Y-78394703D02*
X121541971Y-78404227D01*
X121541971Y-78404227D02*
X121561019Y-78413750D01*
X121561019Y-78413750D02*
X121580066Y-78413750D01*
X121580066Y-78413750D02*
X121608638Y-78404227D01*
X121608638Y-78404227D02*
X121722923Y-78289941D01*
X121722923Y-78289941D02*
X121722923Y-78413750D01*
X121722923Y-78499465D02*
X121589590Y-78499465D01*
X121627685Y-78499465D02*
X121608638Y-78508988D01*
X121608638Y-78508988D02*
X121599114Y-78518512D01*
X121599114Y-78518512D02*
X121589590Y-78537560D01*
X121589590Y-78537560D02*
X121589590Y-78556607D01*
X123514725Y-76966804D02*
X123598058Y-76847757D01*
X123657582Y-76966804D02*
X123657582Y-76716804D01*
X123657582Y-76716804D02*
X123562344Y-76716804D01*
X123562344Y-76716804D02*
X123538534Y-76728709D01*
X123538534Y-76728709D02*
X123526629Y-76740614D01*
X123526629Y-76740614D02*
X123514725Y-76764423D01*
X123514725Y-76764423D02*
X123514725Y-76800138D01*
X123514725Y-76800138D02*
X123526629Y-76823947D01*
X123526629Y-76823947D02*
X123538534Y-76835852D01*
X123538534Y-76835852D02*
X123562344Y-76847757D01*
X123562344Y-76847757D02*
X123657582Y-76847757D01*
X123312344Y-76954900D02*
X123336153Y-76966804D01*
X123336153Y-76966804D02*
X123383772Y-76966804D01*
X123383772Y-76966804D02*
X123407582Y-76954900D01*
X123407582Y-76954900D02*
X123419486Y-76931090D01*
X123419486Y-76931090D02*
X123419486Y-76835852D01*
X123419486Y-76835852D02*
X123407582Y-76812042D01*
X123407582Y-76812042D02*
X123383772Y-76800138D01*
X123383772Y-76800138D02*
X123336153Y-76800138D01*
X123336153Y-76800138D02*
X123312344Y-76812042D01*
X123312344Y-76812042D02*
X123300439Y-76835852D01*
X123300439Y-76835852D02*
X123300439Y-76859661D01*
X123300439Y-76859661D02*
X123419486Y-76883471D01*
X123205200Y-76954900D02*
X123181391Y-76966804D01*
X123181391Y-76966804D02*
X123133772Y-76966804D01*
X123133772Y-76966804D02*
X123109962Y-76954900D01*
X123109962Y-76954900D02*
X123098058Y-76931090D01*
X123098058Y-76931090D02*
X123098058Y-76919185D01*
X123098058Y-76919185D02*
X123109962Y-76895376D01*
X123109962Y-76895376D02*
X123133772Y-76883471D01*
X123133772Y-76883471D02*
X123169486Y-76883471D01*
X123169486Y-76883471D02*
X123193296Y-76871566D01*
X123193296Y-76871566D02*
X123205200Y-76847757D01*
X123205200Y-76847757D02*
X123205200Y-76835852D01*
X123205200Y-76835852D02*
X123193296Y-76812042D01*
X123193296Y-76812042D02*
X123169486Y-76800138D01*
X123169486Y-76800138D02*
X123133772Y-76800138D01*
X123133772Y-76800138D02*
X123109962Y-76812042D01*
X122990915Y-76966804D02*
X122990915Y-76800138D01*
X122990915Y-76716804D02*
X123002819Y-76728709D01*
X123002819Y-76728709D02*
X122990915Y-76740614D01*
X122990915Y-76740614D02*
X122979010Y-76728709D01*
X122979010Y-76728709D02*
X122990915Y-76716804D01*
X122990915Y-76716804D02*
X122990915Y-76740614D01*
X122883771Y-76954900D02*
X122859962Y-76966804D01*
X122859962Y-76966804D02*
X122812343Y-76966804D01*
X122812343Y-76966804D02*
X122788533Y-76954900D01*
X122788533Y-76954900D02*
X122776629Y-76931090D01*
X122776629Y-76931090D02*
X122776629Y-76919185D01*
X122776629Y-76919185D02*
X122788533Y-76895376D01*
X122788533Y-76895376D02*
X122812343Y-76883471D01*
X122812343Y-76883471D02*
X122848057Y-76883471D01*
X122848057Y-76883471D02*
X122871867Y-76871566D01*
X122871867Y-76871566D02*
X122883771Y-76847757D01*
X122883771Y-76847757D02*
X122883771Y-76835852D01*
X122883771Y-76835852D02*
X122871867Y-76812042D01*
X122871867Y-76812042D02*
X122848057Y-76800138D01*
X122848057Y-76800138D02*
X122812343Y-76800138D01*
X122812343Y-76800138D02*
X122788533Y-76812042D01*
X122705200Y-76800138D02*
X122609962Y-76800138D01*
X122669486Y-76716804D02*
X122669486Y-76931090D01*
X122669486Y-76931090D02*
X122657581Y-76954900D01*
X122657581Y-76954900D02*
X122633771Y-76966804D01*
X122633771Y-76966804D02*
X122609962Y-76966804D01*
X122490914Y-76966804D02*
X122514724Y-76954900D01*
X122514724Y-76954900D02*
X122526629Y-76942995D01*
X122526629Y-76942995D02*
X122538533Y-76919185D01*
X122538533Y-76919185D02*
X122538533Y-76847757D01*
X122538533Y-76847757D02*
X122526629Y-76823947D01*
X122526629Y-76823947D02*
X122514724Y-76812042D01*
X122514724Y-76812042D02*
X122490914Y-76800138D01*
X122490914Y-76800138D02*
X122455200Y-76800138D01*
X122455200Y-76800138D02*
X122431391Y-76812042D01*
X122431391Y-76812042D02*
X122419486Y-76823947D01*
X122419486Y-76823947D02*
X122407581Y-76847757D01*
X122407581Y-76847757D02*
X122407581Y-76919185D01*
X122407581Y-76919185D02*
X122419486Y-76942995D01*
X122419486Y-76942995D02*
X122431391Y-76954900D01*
X122431391Y-76954900D02*
X122455200Y-76966804D01*
X122455200Y-76966804D02*
X122490914Y-76966804D01*
X122300439Y-76966804D02*
X122300439Y-76800138D01*
X122300439Y-76847757D02*
X122288534Y-76823947D01*
X122288534Y-76823947D02*
X122276629Y-76812042D01*
X122276629Y-76812042D02*
X122252820Y-76800138D01*
X122252820Y-76800138D02*
X122229010Y-76800138D01*
X113574248Y-71192923D02*
X113669486Y-71192923D01*
X113669486Y-71192923D02*
X113669486Y-70992923D01*
X113507581Y-71088161D02*
X113440915Y-71088161D01*
X113412343Y-71192923D02*
X113507581Y-71192923D01*
X113507581Y-71192923D02*
X113507581Y-70992923D01*
X113507581Y-70992923D02*
X113412343Y-70992923D01*
X113326629Y-71192923D02*
X113326629Y-70992923D01*
X113326629Y-70992923D02*
X113279010Y-70992923D01*
X113279010Y-70992923D02*
X113250439Y-71002447D01*
X113250439Y-71002447D02*
X113231391Y-71021495D01*
X113231391Y-71021495D02*
X113221868Y-71040542D01*
X113221868Y-71040542D02*
X113212344Y-71078638D01*
X113212344Y-71078638D02*
X113212344Y-71107209D01*
X113212344Y-71107209D02*
X113221868Y-71145304D01*
X113221868Y-71145304D02*
X113231391Y-71164352D01*
X113231391Y-71164352D02*
X113250439Y-71183400D01*
X113250439Y-71183400D02*
X113279010Y-71192923D01*
X113279010Y-71192923D02*
X113326629Y-71192923D01*
X114966804Y-71705274D02*
X114847757Y-71621941D01*
X114966804Y-71562417D02*
X114716804Y-71562417D01*
X114716804Y-71562417D02*
X114716804Y-71657655D01*
X114716804Y-71657655D02*
X114728709Y-71681465D01*
X114728709Y-71681465D02*
X114740614Y-71693370D01*
X114740614Y-71693370D02*
X114764423Y-71705274D01*
X114764423Y-71705274D02*
X114800138Y-71705274D01*
X114800138Y-71705274D02*
X114823947Y-71693370D01*
X114823947Y-71693370D02*
X114835852Y-71681465D01*
X114835852Y-71681465D02*
X114847757Y-71657655D01*
X114847757Y-71657655D02*
X114847757Y-71562417D01*
X114954900Y-71907655D02*
X114966804Y-71883846D01*
X114966804Y-71883846D02*
X114966804Y-71836227D01*
X114966804Y-71836227D02*
X114954900Y-71812417D01*
X114954900Y-71812417D02*
X114931090Y-71800513D01*
X114931090Y-71800513D02*
X114835852Y-71800513D01*
X114835852Y-71800513D02*
X114812042Y-71812417D01*
X114812042Y-71812417D02*
X114800138Y-71836227D01*
X114800138Y-71836227D02*
X114800138Y-71883846D01*
X114800138Y-71883846D02*
X114812042Y-71907655D01*
X114812042Y-71907655D02*
X114835852Y-71919560D01*
X114835852Y-71919560D02*
X114859661Y-71919560D01*
X114859661Y-71919560D02*
X114883471Y-71800513D01*
X114954900Y-72014799D02*
X114966804Y-72038608D01*
X114966804Y-72038608D02*
X114966804Y-72086227D01*
X114966804Y-72086227D02*
X114954900Y-72110037D01*
X114954900Y-72110037D02*
X114931090Y-72121941D01*
X114931090Y-72121941D02*
X114919185Y-72121941D01*
X114919185Y-72121941D02*
X114895376Y-72110037D01*
X114895376Y-72110037D02*
X114883471Y-72086227D01*
X114883471Y-72086227D02*
X114883471Y-72050513D01*
X114883471Y-72050513D02*
X114871566Y-72026703D01*
X114871566Y-72026703D02*
X114847757Y-72014799D01*
X114847757Y-72014799D02*
X114835852Y-72014799D01*
X114835852Y-72014799D02*
X114812042Y-72026703D01*
X114812042Y-72026703D02*
X114800138Y-72050513D01*
X114800138Y-72050513D02*
X114800138Y-72086227D01*
X114800138Y-72086227D02*
X114812042Y-72110037D01*
X114966804Y-72229084D02*
X114800138Y-72229084D01*
X114716804Y-72229084D02*
X114728709Y-72217180D01*
X114728709Y-72217180D02*
X114740614Y-72229084D01*
X114740614Y-72229084D02*
X114728709Y-72240989D01*
X114728709Y-72240989D02*
X114716804Y-72229084D01*
X114716804Y-72229084D02*
X114740614Y-72229084D01*
X114954900Y-72336228D02*
X114966804Y-72360037D01*
X114966804Y-72360037D02*
X114966804Y-72407656D01*
X114966804Y-72407656D02*
X114954900Y-72431466D01*
X114954900Y-72431466D02*
X114931090Y-72443370D01*
X114931090Y-72443370D02*
X114919185Y-72443370D01*
X114919185Y-72443370D02*
X114895376Y-72431466D01*
X114895376Y-72431466D02*
X114883471Y-72407656D01*
X114883471Y-72407656D02*
X114883471Y-72371942D01*
X114883471Y-72371942D02*
X114871566Y-72348132D01*
X114871566Y-72348132D02*
X114847757Y-72336228D01*
X114847757Y-72336228D02*
X114835852Y-72336228D01*
X114835852Y-72336228D02*
X114812042Y-72348132D01*
X114812042Y-72348132D02*
X114800138Y-72371942D01*
X114800138Y-72371942D02*
X114800138Y-72407656D01*
X114800138Y-72407656D02*
X114812042Y-72431466D01*
X114800138Y-72514799D02*
X114800138Y-72610037D01*
X114716804Y-72550513D02*
X114931090Y-72550513D01*
X114931090Y-72550513D02*
X114954900Y-72562418D01*
X114954900Y-72562418D02*
X114966804Y-72586228D01*
X114966804Y-72586228D02*
X114966804Y-72610037D01*
X114966804Y-72729085D02*
X114954900Y-72705275D01*
X114954900Y-72705275D02*
X114942995Y-72693370D01*
X114942995Y-72693370D02*
X114919185Y-72681466D01*
X114919185Y-72681466D02*
X114847757Y-72681466D01*
X114847757Y-72681466D02*
X114823947Y-72693370D01*
X114823947Y-72693370D02*
X114812042Y-72705275D01*
X114812042Y-72705275D02*
X114800138Y-72729085D01*
X114800138Y-72729085D02*
X114800138Y-72764799D01*
X114800138Y-72764799D02*
X114812042Y-72788608D01*
X114812042Y-72788608D02*
X114823947Y-72800513D01*
X114823947Y-72800513D02*
X114847757Y-72812418D01*
X114847757Y-72812418D02*
X114919185Y-72812418D01*
X114919185Y-72812418D02*
X114942995Y-72800513D01*
X114942995Y-72800513D02*
X114954900Y-72788608D01*
X114954900Y-72788608D02*
X114966804Y-72764799D01*
X114966804Y-72764799D02*
X114966804Y-72729085D01*
X114966804Y-72919560D02*
X114800138Y-72919560D01*
X114847757Y-72919560D02*
X114823947Y-72931465D01*
X114823947Y-72931465D02*
X114812042Y-72943370D01*
X114812042Y-72943370D02*
X114800138Y-72967179D01*
X114800138Y-72967179D02*
X114800138Y-72990989D01*
D13*
X151060621Y-86432309D02*
X151298716Y-86432309D01*
X151298716Y-86432309D02*
X151298716Y-85932309D01*
X150893954Y-86432309D02*
X150893954Y-85932309D01*
X150893954Y-85932309D02*
X150774906Y-85932309D01*
X150774906Y-85932309D02*
X150703478Y-85956119D01*
X150703478Y-85956119D02*
X150655859Y-86003738D01*
X150655859Y-86003738D02*
X150632049Y-86051357D01*
X150632049Y-86051357D02*
X150608240Y-86146595D01*
X150608240Y-86146595D02*
X150608240Y-86218023D01*
X150608240Y-86218023D02*
X150632049Y-86313261D01*
X150632049Y-86313261D02*
X150655859Y-86360880D01*
X150655859Y-86360880D02*
X150703478Y-86408500D01*
X150703478Y-86408500D02*
X150774906Y-86432309D01*
X150774906Y-86432309D02*
X150893954Y-86432309D01*
X150132049Y-86432309D02*
X150417763Y-86432309D01*
X150274906Y-86432309D02*
X150274906Y-85932309D01*
X150274906Y-85932309D02*
X150322525Y-86003738D01*
X150322525Y-86003738D02*
X150370144Y-86051357D01*
X150370144Y-86051357D02*
X150417763Y-86075166D01*
X149655859Y-86432309D02*
X149941573Y-86432309D01*
X149798716Y-86432309D02*
X149798716Y-85932309D01*
X149798716Y-85932309D02*
X149846335Y-86003738D01*
X149846335Y-86003738D02*
X149893954Y-86051357D01*
X149893954Y-86051357D02*
X149941573Y-86075166D01*
X149179669Y-86432309D02*
X149465383Y-86432309D01*
X149322526Y-86432309D02*
X149322526Y-85932309D01*
X149322526Y-85932309D02*
X149370145Y-86003738D01*
X149370145Y-86003738D02*
X149417764Y-86051357D01*
X149417764Y-86051357D02*
X149465383Y-86075166D01*
X149013003Y-85932309D02*
X148679670Y-85932309D01*
X148679670Y-85932309D02*
X148893955Y-86432309D01*
X148513003Y-86408500D02*
X148441575Y-86432309D01*
X148441575Y-86432309D02*
X148322527Y-86432309D01*
X148322527Y-86432309D02*
X148274908Y-86408500D01*
X148274908Y-86408500D02*
X148251099Y-86384690D01*
X148251099Y-86384690D02*
X148227289Y-86337071D01*
X148227289Y-86337071D02*
X148227289Y-86289452D01*
X148227289Y-86289452D02*
X148251099Y-86241833D01*
X148251099Y-86241833D02*
X148274908Y-86218023D01*
X148274908Y-86218023D02*
X148322527Y-86194214D01*
X148322527Y-86194214D02*
X148417765Y-86170404D01*
X148417765Y-86170404D02*
X148465384Y-86146595D01*
X148465384Y-86146595D02*
X148489194Y-86122785D01*
X148489194Y-86122785D02*
X148513003Y-86075166D01*
X148513003Y-86075166D02*
X148513003Y-86027547D01*
X148513003Y-86027547D02*
X148489194Y-85979928D01*
X148489194Y-85979928D02*
X148465384Y-85956119D01*
X148465384Y-85956119D02*
X148417765Y-85932309D01*
X148417765Y-85932309D02*
X148298718Y-85932309D01*
X148298718Y-85932309D02*
X148227289Y-85956119D01*
X148060623Y-85932309D02*
X147751099Y-85932309D01*
X147751099Y-85932309D02*
X147917766Y-86122785D01*
X147917766Y-86122785D02*
X147846337Y-86122785D01*
X147846337Y-86122785D02*
X147798718Y-86146595D01*
X147798718Y-86146595D02*
X147774909Y-86170404D01*
X147774909Y-86170404D02*
X147751099Y-86218023D01*
X147751099Y-86218023D02*
X147751099Y-86337071D01*
X147751099Y-86337071D02*
X147774909Y-86384690D01*
X147774909Y-86384690D02*
X147798718Y-86408500D01*
X147798718Y-86408500D02*
X147846337Y-86432309D01*
X147846337Y-86432309D02*
X147989194Y-86432309D01*
X147989194Y-86432309D02*
X148036813Y-86408500D01*
X148036813Y-86408500D02*
X148060623Y-86384690D01*
X147584433Y-85932309D02*
X147274909Y-85932309D01*
X147274909Y-85932309D02*
X147441576Y-86122785D01*
X147441576Y-86122785D02*
X147370147Y-86122785D01*
X147370147Y-86122785D02*
X147322528Y-86146595D01*
X147322528Y-86146595D02*
X147298719Y-86170404D01*
X147298719Y-86170404D02*
X147274909Y-86218023D01*
X147274909Y-86218023D02*
X147274909Y-86337071D01*
X147274909Y-86337071D02*
X147298719Y-86384690D01*
X147298719Y-86384690D02*
X147322528Y-86408500D01*
X147322528Y-86408500D02*
X147370147Y-86432309D01*
X147370147Y-86432309D02*
X147513004Y-86432309D01*
X147513004Y-86432309D02*
X147560623Y-86408500D01*
X147560623Y-86408500D02*
X147584433Y-86384690D01*
X147132052Y-85932309D02*
X146846338Y-85932309D01*
X146989195Y-86432309D02*
X146989195Y-85932309D01*
X146393958Y-86432309D02*
X146560624Y-86194214D01*
X146679672Y-86432309D02*
X146679672Y-85932309D01*
X146679672Y-85932309D02*
X146489196Y-85932309D01*
X146489196Y-85932309D02*
X146441577Y-85956119D01*
X146441577Y-85956119D02*
X146417767Y-85979928D01*
X146417767Y-85979928D02*
X146393958Y-86027547D01*
X146393958Y-86027547D02*
X146393958Y-86098976D01*
X146393958Y-86098976D02*
X146417767Y-86146595D01*
X146417767Y-86146595D02*
X146441577Y-86170404D01*
X146441577Y-86170404D02*
X146489196Y-86194214D01*
X146489196Y-86194214D02*
X146679672Y-86194214D01*
X146298720Y-86479928D02*
X145917767Y-86479928D01*
X145822529Y-86408500D02*
X145751101Y-86432309D01*
X145751101Y-86432309D02*
X145632053Y-86432309D01*
X145632053Y-86432309D02*
X145584434Y-86408500D01*
X145584434Y-86408500D02*
X145560625Y-86384690D01*
X145560625Y-86384690D02*
X145536815Y-86337071D01*
X145536815Y-86337071D02*
X145536815Y-86289452D01*
X145536815Y-86289452D02*
X145560625Y-86241833D01*
X145560625Y-86241833D02*
X145584434Y-86218023D01*
X145584434Y-86218023D02*
X145632053Y-86194214D01*
X145632053Y-86194214D02*
X145727291Y-86170404D01*
X145727291Y-86170404D02*
X145774910Y-86146595D01*
X145774910Y-86146595D02*
X145798720Y-86122785D01*
X145798720Y-86122785D02*
X145822529Y-86075166D01*
X145822529Y-86075166D02*
X145822529Y-86027547D01*
X145822529Y-86027547D02*
X145798720Y-85979928D01*
X145798720Y-85979928D02*
X145774910Y-85956119D01*
X145774910Y-85956119D02*
X145727291Y-85932309D01*
X145727291Y-85932309D02*
X145608244Y-85932309D01*
X145608244Y-85932309D02*
X145536815Y-85956119D01*
X145227292Y-85932309D02*
X145132054Y-85932309D01*
X145132054Y-85932309D02*
X145084435Y-85956119D01*
X145084435Y-85956119D02*
X145036816Y-86003738D01*
X145036816Y-86003738D02*
X145013006Y-86098976D01*
X145013006Y-86098976D02*
X145013006Y-86265642D01*
X145013006Y-86265642D02*
X145036816Y-86360880D01*
X145036816Y-86360880D02*
X145084435Y-86408500D01*
X145084435Y-86408500D02*
X145132054Y-86432309D01*
X145132054Y-86432309D02*
X145227292Y-86432309D01*
X145227292Y-86432309D02*
X145274911Y-86408500D01*
X145274911Y-86408500D02*
X145322530Y-86360880D01*
X145322530Y-86360880D02*
X145346339Y-86265642D01*
X145346339Y-86265642D02*
X145346339Y-86098976D01*
X145346339Y-86098976D02*
X145322530Y-86003738D01*
X145322530Y-86003738D02*
X145274911Y-85956119D01*
X145274911Y-85956119D02*
X145227292Y-85932309D01*
X144870148Y-85932309D02*
X144584434Y-85932309D01*
X144727291Y-86432309D02*
X144727291Y-85932309D01*
X144441577Y-85979928D02*
X144417768Y-85956119D01*
X144417768Y-85956119D02*
X144370149Y-85932309D01*
X144370149Y-85932309D02*
X144251101Y-85932309D01*
X144251101Y-85932309D02*
X144203482Y-85956119D01*
X144203482Y-85956119D02*
X144179673Y-85979928D01*
X144179673Y-85979928D02*
X144155863Y-86027547D01*
X144155863Y-86027547D02*
X144155863Y-86075166D01*
X144155863Y-86075166D02*
X144179673Y-86146595D01*
X144179673Y-86146595D02*
X144465387Y-86432309D01*
X144465387Y-86432309D02*
X144155863Y-86432309D01*
X143965387Y-85979928D02*
X143941578Y-85956119D01*
X143941578Y-85956119D02*
X143893959Y-85932309D01*
X143893959Y-85932309D02*
X143774911Y-85932309D01*
X143774911Y-85932309D02*
X143727292Y-85956119D01*
X143727292Y-85956119D02*
X143703483Y-85979928D01*
X143703483Y-85979928D02*
X143679673Y-86027547D01*
X143679673Y-86027547D02*
X143679673Y-86075166D01*
X143679673Y-86075166D02*
X143703483Y-86146595D01*
X143703483Y-86146595D02*
X143989197Y-86432309D01*
X143989197Y-86432309D02*
X143679673Y-86432309D01*
X143513007Y-85932309D02*
X143203483Y-85932309D01*
X143203483Y-85932309D02*
X143370150Y-86122785D01*
X143370150Y-86122785D02*
X143298721Y-86122785D01*
X143298721Y-86122785D02*
X143251102Y-86146595D01*
X143251102Y-86146595D02*
X143227293Y-86170404D01*
X143227293Y-86170404D02*
X143203483Y-86218023D01*
X143203483Y-86218023D02*
X143203483Y-86337071D01*
X143203483Y-86337071D02*
X143227293Y-86384690D01*
X143227293Y-86384690D02*
X143251102Y-86408500D01*
X143251102Y-86408500D02*
X143298721Y-86432309D01*
X143298721Y-86432309D02*
X143441578Y-86432309D01*
X143441578Y-86432309D02*
X143489197Y-86408500D01*
X143489197Y-86408500D02*
X143513007Y-86384690D01*
D11*
X146208028Y-92179010D02*
X146217552Y-92169486D01*
X146217552Y-92169486D02*
X146227076Y-92150439D01*
X146227076Y-92150439D02*
X146227076Y-92102820D01*
X146227076Y-92102820D02*
X146217552Y-92083772D01*
X146217552Y-92083772D02*
X146208028Y-92074248D01*
X146208028Y-92074248D02*
X146188980Y-92064725D01*
X146188980Y-92064725D02*
X146169933Y-92064725D01*
X146169933Y-92064725D02*
X146141361Y-92074248D01*
X146141361Y-92074248D02*
X146027076Y-92188534D01*
X146027076Y-92188534D02*
X146027076Y-92064725D01*
X146046123Y-91979010D02*
X146036600Y-91969487D01*
X146036600Y-91969487D02*
X146027076Y-91979010D01*
X146027076Y-91979010D02*
X146036600Y-91988534D01*
X146036600Y-91988534D02*
X146046123Y-91979010D01*
X146046123Y-91979010D02*
X146027076Y-91979010D01*
X146208028Y-91893296D02*
X146217552Y-91883772D01*
X146217552Y-91883772D02*
X146227076Y-91864725D01*
X146227076Y-91864725D02*
X146227076Y-91817106D01*
X146227076Y-91817106D02*
X146217552Y-91798058D01*
X146217552Y-91798058D02*
X146208028Y-91788534D01*
X146208028Y-91788534D02*
X146188980Y-91779011D01*
X146188980Y-91779011D02*
X146169933Y-91779011D01*
X146169933Y-91779011D02*
X146141361Y-91788534D01*
X146141361Y-91788534D02*
X146027076Y-91902820D01*
X146027076Y-91902820D02*
X146027076Y-91779011D01*
X146160409Y-91607582D02*
X146027076Y-91607582D01*
X146160409Y-91693296D02*
X146055647Y-91693296D01*
X146055647Y-91693296D02*
X146036600Y-91683773D01*
X146036600Y-91683773D02*
X146027076Y-91664725D01*
X146027076Y-91664725D02*
X146027076Y-91636154D01*
X146027076Y-91636154D02*
X146036600Y-91617106D01*
X146036600Y-91617106D02*
X146046123Y-91607582D01*
D16*
X144472744Y-76257557D02*
X144365601Y-76293271D01*
X144365601Y-76293271D02*
X144329887Y-76328985D01*
X144329887Y-76328985D02*
X144294173Y-76400414D01*
X144294173Y-76400414D02*
X144294173Y-76507557D01*
X144294173Y-76507557D02*
X144329887Y-76578985D01*
X144329887Y-76578985D02*
X144365601Y-76614700D01*
X144365601Y-76614700D02*
X144437030Y-76650414D01*
X144437030Y-76650414D02*
X144722744Y-76650414D01*
X144722744Y-76650414D02*
X144722744Y-75900414D01*
X144722744Y-75900414D02*
X144472744Y-75900414D01*
X144472744Y-75900414D02*
X144401316Y-75936128D01*
X144401316Y-75936128D02*
X144365601Y-75971842D01*
X144365601Y-75971842D02*
X144329887Y-76043271D01*
X144329887Y-76043271D02*
X144329887Y-76114700D01*
X144329887Y-76114700D02*
X144365601Y-76186128D01*
X144365601Y-76186128D02*
X144401316Y-76221842D01*
X144401316Y-76221842D02*
X144472744Y-76257557D01*
X144472744Y-76257557D02*
X144722744Y-76257557D01*
X143651316Y-76650414D02*
X143651316Y-76257557D01*
X143651316Y-76257557D02*
X143687030Y-76186128D01*
X143687030Y-76186128D02*
X143758458Y-76150414D01*
X143758458Y-76150414D02*
X143901316Y-76150414D01*
X143901316Y-76150414D02*
X143972744Y-76186128D01*
X143651316Y-76614700D02*
X143722744Y-76650414D01*
X143722744Y-76650414D02*
X143901316Y-76650414D01*
X143901316Y-76650414D02*
X143972744Y-76614700D01*
X143972744Y-76614700D02*
X144008458Y-76543271D01*
X144008458Y-76543271D02*
X144008458Y-76471842D01*
X144008458Y-76471842D02*
X143972744Y-76400414D01*
X143972744Y-76400414D02*
X143901316Y-76364700D01*
X143901316Y-76364700D02*
X143722744Y-76364700D01*
X143722744Y-76364700D02*
X143651316Y-76328985D01*
X143401316Y-76150414D02*
X143115602Y-76150414D01*
X143294173Y-75900414D02*
X143294173Y-76543271D01*
X143294173Y-76543271D02*
X143258459Y-76614700D01*
X143258459Y-76614700D02*
X143187030Y-76650414D01*
X143187030Y-76650414D02*
X143115602Y-76650414D01*
X142972745Y-76150414D02*
X142687031Y-76150414D01*
X142865602Y-75900414D02*
X142865602Y-76543271D01*
X142865602Y-76543271D02*
X142829888Y-76614700D01*
X142829888Y-76614700D02*
X142758459Y-76650414D01*
X142758459Y-76650414D02*
X142687031Y-76650414D01*
X142151317Y-76614700D02*
X142222745Y-76650414D01*
X142222745Y-76650414D02*
X142365603Y-76650414D01*
X142365603Y-76650414D02*
X142437031Y-76614700D01*
X142437031Y-76614700D02*
X142472745Y-76543271D01*
X142472745Y-76543271D02*
X142472745Y-76257557D01*
X142472745Y-76257557D02*
X142437031Y-76186128D01*
X142437031Y-76186128D02*
X142365603Y-76150414D01*
X142365603Y-76150414D02*
X142222745Y-76150414D01*
X142222745Y-76150414D02*
X142151317Y-76186128D01*
X142151317Y-76186128D02*
X142115603Y-76257557D01*
X142115603Y-76257557D02*
X142115603Y-76328985D01*
X142115603Y-76328985D02*
X142472745Y-76400414D01*
X141794174Y-76650414D02*
X141794174Y-76150414D01*
X141794174Y-76293271D02*
X141758460Y-76221842D01*
X141758460Y-76221842D02*
X141722746Y-76186128D01*
X141722746Y-76186128D02*
X141651317Y-76150414D01*
X141651317Y-76150414D02*
X141579888Y-76150414D01*
X141401317Y-76150414D02*
X141222745Y-76650414D01*
X141044174Y-76150414D02*
X141222745Y-76650414D01*
X141222745Y-76650414D02*
X141294174Y-76828985D01*
X141294174Y-76828985D02*
X141329888Y-76864700D01*
X141329888Y-76864700D02*
X141401317Y-76900414D01*
D11*
X114938534Y-70992923D02*
X114814725Y-70992923D01*
X114814725Y-70992923D02*
X114881391Y-71069114D01*
X114881391Y-71069114D02*
X114852820Y-71069114D01*
X114852820Y-71069114D02*
X114833772Y-71078638D01*
X114833772Y-71078638D02*
X114824248Y-71088161D01*
X114824248Y-71088161D02*
X114814725Y-71107209D01*
X114814725Y-71107209D02*
X114814725Y-71154828D01*
X114814725Y-71154828D02*
X114824248Y-71173876D01*
X114824248Y-71173876D02*
X114833772Y-71183400D01*
X114833772Y-71183400D02*
X114852820Y-71192923D01*
X114852820Y-71192923D02*
X114909963Y-71192923D01*
X114909963Y-71192923D02*
X114929010Y-71183400D01*
X114929010Y-71183400D02*
X114938534Y-71173876D01*
X114748058Y-70992923D02*
X114624249Y-70992923D01*
X114624249Y-70992923D02*
X114690915Y-71069114D01*
X114690915Y-71069114D02*
X114662344Y-71069114D01*
X114662344Y-71069114D02*
X114643296Y-71078638D01*
X114643296Y-71078638D02*
X114633772Y-71088161D01*
X114633772Y-71088161D02*
X114624249Y-71107209D01*
X114624249Y-71107209D02*
X114624249Y-71154828D01*
X114624249Y-71154828D02*
X114633772Y-71173876D01*
X114633772Y-71173876D02*
X114643296Y-71183400D01*
X114643296Y-71183400D02*
X114662344Y-71192923D01*
X114662344Y-71192923D02*
X114719487Y-71192923D01*
X114719487Y-71192923D02*
X114738534Y-71183400D01*
X114738534Y-71183400D02*
X114748058Y-71173876D01*
X114500439Y-70992923D02*
X114481392Y-70992923D01*
X114481392Y-70992923D02*
X114462344Y-71002447D01*
X114462344Y-71002447D02*
X114452820Y-71011971D01*
X114452820Y-71011971D02*
X114443296Y-71031019D01*
X114443296Y-71031019D02*
X114433773Y-71069114D01*
X114433773Y-71069114D02*
X114433773Y-71116733D01*
X114433773Y-71116733D02*
X114443296Y-71154828D01*
X114443296Y-71154828D02*
X114452820Y-71173876D01*
X114452820Y-71173876D02*
X114462344Y-71183400D01*
X114462344Y-71183400D02*
X114481392Y-71192923D01*
X114481392Y-71192923D02*
X114500439Y-71192923D01*
X114500439Y-71192923D02*
X114519487Y-71183400D01*
X114519487Y-71183400D02*
X114529011Y-71173876D01*
X114529011Y-71173876D02*
X114538534Y-71154828D01*
X114538534Y-71154828D02*
X114548058Y-71116733D01*
X114548058Y-71116733D02*
X114548058Y-71069114D01*
X114548058Y-71069114D02*
X114538534Y-71031019D01*
X114538534Y-71031019D02*
X114529011Y-71011971D01*
X114529011Y-71011971D02*
X114519487Y-71002447D01*
X114519487Y-71002447D02*
X114500439Y-70992923D01*
X114348058Y-71192923D02*
X114348058Y-71059590D01*
X114348058Y-71097685D02*
X114338535Y-71078638D01*
X114338535Y-71078638D02*
X114329011Y-71069114D01*
X114329011Y-71069114D02*
X114309963Y-71059590D01*
X114309963Y-71059590D02*
X114290916Y-71059590D01*
X117466804Y-71705274D02*
X117347757Y-71621941D01*
X117466804Y-71562417D02*
X117216804Y-71562417D01*
X117216804Y-71562417D02*
X117216804Y-71657655D01*
X117216804Y-71657655D02*
X117228709Y-71681465D01*
X117228709Y-71681465D02*
X117240614Y-71693370D01*
X117240614Y-71693370D02*
X117264423Y-71705274D01*
X117264423Y-71705274D02*
X117300138Y-71705274D01*
X117300138Y-71705274D02*
X117323947Y-71693370D01*
X117323947Y-71693370D02*
X117335852Y-71681465D01*
X117335852Y-71681465D02*
X117347757Y-71657655D01*
X117347757Y-71657655D02*
X117347757Y-71562417D01*
X117454900Y-71907655D02*
X117466804Y-71883846D01*
X117466804Y-71883846D02*
X117466804Y-71836227D01*
X117466804Y-71836227D02*
X117454900Y-71812417D01*
X117454900Y-71812417D02*
X117431090Y-71800513D01*
X117431090Y-71800513D02*
X117335852Y-71800513D01*
X117335852Y-71800513D02*
X117312042Y-71812417D01*
X117312042Y-71812417D02*
X117300138Y-71836227D01*
X117300138Y-71836227D02*
X117300138Y-71883846D01*
X117300138Y-71883846D02*
X117312042Y-71907655D01*
X117312042Y-71907655D02*
X117335852Y-71919560D01*
X117335852Y-71919560D02*
X117359661Y-71919560D01*
X117359661Y-71919560D02*
X117383471Y-71800513D01*
X117454900Y-72014799D02*
X117466804Y-72038608D01*
X117466804Y-72038608D02*
X117466804Y-72086227D01*
X117466804Y-72086227D02*
X117454900Y-72110037D01*
X117454900Y-72110037D02*
X117431090Y-72121941D01*
X117431090Y-72121941D02*
X117419185Y-72121941D01*
X117419185Y-72121941D02*
X117395376Y-72110037D01*
X117395376Y-72110037D02*
X117383471Y-72086227D01*
X117383471Y-72086227D02*
X117383471Y-72050513D01*
X117383471Y-72050513D02*
X117371566Y-72026703D01*
X117371566Y-72026703D02*
X117347757Y-72014799D01*
X117347757Y-72014799D02*
X117335852Y-72014799D01*
X117335852Y-72014799D02*
X117312042Y-72026703D01*
X117312042Y-72026703D02*
X117300138Y-72050513D01*
X117300138Y-72050513D02*
X117300138Y-72086227D01*
X117300138Y-72086227D02*
X117312042Y-72110037D01*
X117466804Y-72229084D02*
X117300138Y-72229084D01*
X117216804Y-72229084D02*
X117228709Y-72217180D01*
X117228709Y-72217180D02*
X117240614Y-72229084D01*
X117240614Y-72229084D02*
X117228709Y-72240989D01*
X117228709Y-72240989D02*
X117216804Y-72229084D01*
X117216804Y-72229084D02*
X117240614Y-72229084D01*
X117454900Y-72336228D02*
X117466804Y-72360037D01*
X117466804Y-72360037D02*
X117466804Y-72407656D01*
X117466804Y-72407656D02*
X117454900Y-72431466D01*
X117454900Y-72431466D02*
X117431090Y-72443370D01*
X117431090Y-72443370D02*
X117419185Y-72443370D01*
X117419185Y-72443370D02*
X117395376Y-72431466D01*
X117395376Y-72431466D02*
X117383471Y-72407656D01*
X117383471Y-72407656D02*
X117383471Y-72371942D01*
X117383471Y-72371942D02*
X117371566Y-72348132D01*
X117371566Y-72348132D02*
X117347757Y-72336228D01*
X117347757Y-72336228D02*
X117335852Y-72336228D01*
X117335852Y-72336228D02*
X117312042Y-72348132D01*
X117312042Y-72348132D02*
X117300138Y-72371942D01*
X117300138Y-72371942D02*
X117300138Y-72407656D01*
X117300138Y-72407656D02*
X117312042Y-72431466D01*
X117300138Y-72514799D02*
X117300138Y-72610037D01*
X117216804Y-72550513D02*
X117431090Y-72550513D01*
X117431090Y-72550513D02*
X117454900Y-72562418D01*
X117454900Y-72562418D02*
X117466804Y-72586228D01*
X117466804Y-72586228D02*
X117466804Y-72610037D01*
X117466804Y-72729085D02*
X117454900Y-72705275D01*
X117454900Y-72705275D02*
X117442995Y-72693370D01*
X117442995Y-72693370D02*
X117419185Y-72681466D01*
X117419185Y-72681466D02*
X117347757Y-72681466D01*
X117347757Y-72681466D02*
X117323947Y-72693370D01*
X117323947Y-72693370D02*
X117312042Y-72705275D01*
X117312042Y-72705275D02*
X117300138Y-72729085D01*
X117300138Y-72729085D02*
X117300138Y-72764799D01*
X117300138Y-72764799D02*
X117312042Y-72788608D01*
X117312042Y-72788608D02*
X117323947Y-72800513D01*
X117323947Y-72800513D02*
X117347757Y-72812418D01*
X117347757Y-72812418D02*
X117419185Y-72812418D01*
X117419185Y-72812418D02*
X117442995Y-72800513D01*
X117442995Y-72800513D02*
X117454900Y-72788608D01*
X117454900Y-72788608D02*
X117466804Y-72764799D01*
X117466804Y-72764799D02*
X117466804Y-72729085D01*
X117466804Y-72919560D02*
X117300138Y-72919560D01*
X117347757Y-72919560D02*
X117323947Y-72931465D01*
X117323947Y-72931465D02*
X117312042Y-72943370D01*
X117312042Y-72943370D02*
X117300138Y-72967179D01*
X117300138Y-72967179D02*
X117300138Y-72990989D01*
X113716804Y-71848132D02*
X113704900Y-71824322D01*
X113704900Y-71824322D02*
X113681090Y-71812417D01*
X113681090Y-71812417D02*
X113466804Y-71812417D01*
X113716804Y-71943369D02*
X113550138Y-71943369D01*
X113466804Y-71943369D02*
X113478709Y-71931465D01*
X113478709Y-71931465D02*
X113490614Y-71943369D01*
X113490614Y-71943369D02*
X113478709Y-71955274D01*
X113478709Y-71955274D02*
X113466804Y-71943369D01*
X113466804Y-71943369D02*
X113490614Y-71943369D01*
X113550138Y-72169560D02*
X113752519Y-72169560D01*
X113752519Y-72169560D02*
X113776328Y-72157655D01*
X113776328Y-72157655D02*
X113788233Y-72145751D01*
X113788233Y-72145751D02*
X113800138Y-72121941D01*
X113800138Y-72121941D02*
X113800138Y-72086227D01*
X113800138Y-72086227D02*
X113788233Y-72062417D01*
X113704900Y-72169560D02*
X113716804Y-72145751D01*
X113716804Y-72145751D02*
X113716804Y-72098132D01*
X113716804Y-72098132D02*
X113704900Y-72074322D01*
X113704900Y-72074322D02*
X113692995Y-72062417D01*
X113692995Y-72062417D02*
X113669185Y-72050513D01*
X113669185Y-72050513D02*
X113597757Y-72050513D01*
X113597757Y-72050513D02*
X113573947Y-72062417D01*
X113573947Y-72062417D02*
X113562042Y-72074322D01*
X113562042Y-72074322D02*
X113550138Y-72098132D01*
X113550138Y-72098132D02*
X113550138Y-72145751D01*
X113550138Y-72145751D02*
X113562042Y-72169560D01*
X113716804Y-72288607D02*
X113466804Y-72288607D01*
X113716804Y-72395750D02*
X113585852Y-72395750D01*
X113585852Y-72395750D02*
X113562042Y-72383845D01*
X113562042Y-72383845D02*
X113550138Y-72360036D01*
X113550138Y-72360036D02*
X113550138Y-72324322D01*
X113550138Y-72324322D02*
X113562042Y-72300512D01*
X113562042Y-72300512D02*
X113573947Y-72288607D01*
X113550138Y-72479083D02*
X113550138Y-72574321D01*
X113466804Y-72514797D02*
X113681090Y-72514797D01*
X113681090Y-72514797D02*
X113704900Y-72526702D01*
X113704900Y-72526702D02*
X113716804Y-72550512D01*
X113716804Y-72550512D02*
X113716804Y-72574321D01*
X124458028Y-76929010D02*
X124467552Y-76919486D01*
X124467552Y-76919486D02*
X124477076Y-76900439D01*
X124477076Y-76900439D02*
X124477076Y-76852820D01*
X124477076Y-76852820D02*
X124467552Y-76833772D01*
X124467552Y-76833772D02*
X124458028Y-76824248D01*
X124458028Y-76824248D02*
X124438980Y-76814725D01*
X124438980Y-76814725D02*
X124419933Y-76814725D01*
X124419933Y-76814725D02*
X124391361Y-76824248D01*
X124391361Y-76824248D02*
X124277076Y-76938534D01*
X124277076Y-76938534D02*
X124277076Y-76814725D01*
X124458028Y-76738534D02*
X124467552Y-76729010D01*
X124467552Y-76729010D02*
X124477076Y-76709963D01*
X124477076Y-76709963D02*
X124477076Y-76662344D01*
X124477076Y-76662344D02*
X124467552Y-76643296D01*
X124467552Y-76643296D02*
X124458028Y-76633772D01*
X124458028Y-76633772D02*
X124438980Y-76624249D01*
X124438980Y-76624249D02*
X124419933Y-76624249D01*
X124419933Y-76624249D02*
X124391361Y-76633772D01*
X124391361Y-76633772D02*
X124277076Y-76748058D01*
X124277076Y-76748058D02*
X124277076Y-76624249D01*
X124277076Y-76538534D02*
X124410409Y-76538534D01*
X124372314Y-76538534D02*
X124391361Y-76529011D01*
X124391361Y-76529011D02*
X124400885Y-76519487D01*
X124400885Y-76519487D02*
X124410409Y-76500439D01*
X124410409Y-76500439D02*
X124410409Y-76481392D01*
D14*
X119630326Y-76117219D02*
X119630326Y-75117219D01*
X119630326Y-75117219D02*
X119296993Y-75831504D01*
X119296993Y-75831504D02*
X118963660Y-75117219D01*
X118963660Y-75117219D02*
X118963660Y-76117219D01*
X118487469Y-76117219D02*
X118487469Y-75450552D01*
X118487469Y-75117219D02*
X118535088Y-75164838D01*
X118535088Y-75164838D02*
X118487469Y-75212457D01*
X118487469Y-75212457D02*
X118439850Y-75164838D01*
X118439850Y-75164838D02*
X118487469Y-75117219D01*
X118487469Y-75117219D02*
X118487469Y-75212457D01*
X117582708Y-76069600D02*
X117677946Y-76117219D01*
X117677946Y-76117219D02*
X117868422Y-76117219D01*
X117868422Y-76117219D02*
X117963660Y-76069600D01*
X117963660Y-76069600D02*
X118011279Y-76021980D01*
X118011279Y-76021980D02*
X118058898Y-75926742D01*
X118058898Y-75926742D02*
X118058898Y-75641028D01*
X118058898Y-75641028D02*
X118011279Y-75545790D01*
X118011279Y-75545790D02*
X117963660Y-75498171D01*
X117963660Y-75498171D02*
X117868422Y-75450552D01*
X117868422Y-75450552D02*
X117677946Y-75450552D01*
X117677946Y-75450552D02*
X117582708Y-75498171D01*
X117154136Y-76117219D02*
X117154136Y-75450552D01*
X117154136Y-75641028D02*
X117106517Y-75545790D01*
X117106517Y-75545790D02*
X117058898Y-75498171D01*
X117058898Y-75498171D02*
X116963660Y-75450552D01*
X116963660Y-75450552D02*
X116868422Y-75450552D01*
X116392231Y-76117219D02*
X116487469Y-76069600D01*
X116487469Y-76069600D02*
X116535088Y-76021980D01*
X116535088Y-76021980D02*
X116582707Y-75926742D01*
X116582707Y-75926742D02*
X116582707Y-75641028D01*
X116582707Y-75641028D02*
X116535088Y-75545790D01*
X116535088Y-75545790D02*
X116487469Y-75498171D01*
X116487469Y-75498171D02*
X116392231Y-75450552D01*
X116392231Y-75450552D02*
X116249374Y-75450552D01*
X116249374Y-75450552D02*
X116154136Y-75498171D01*
X116154136Y-75498171D02*
X116106517Y-75545790D01*
X116106517Y-75545790D02*
X116058898Y-75641028D01*
X116058898Y-75641028D02*
X116058898Y-75926742D01*
X116058898Y-75926742D02*
X116106517Y-76021980D01*
X116106517Y-76021980D02*
X116154136Y-76069600D01*
X116154136Y-76069600D02*
X116249374Y-76117219D01*
X116249374Y-76117219D02*
X116392231Y-76117219D01*
X115201755Y-76069600D02*
X115296993Y-76117219D01*
X115296993Y-76117219D02*
X115487469Y-76117219D01*
X115487469Y-76117219D02*
X115582707Y-76069600D01*
X115582707Y-76069600D02*
X115630326Y-76021980D01*
X115630326Y-76021980D02*
X115677945Y-75926742D01*
X115677945Y-75926742D02*
X115677945Y-75641028D01*
X115677945Y-75641028D02*
X115630326Y-75545790D01*
X115630326Y-75545790D02*
X115582707Y-75498171D01*
X115582707Y-75498171D02*
X115487469Y-75450552D01*
X115487469Y-75450552D02*
X115296993Y-75450552D01*
X115296993Y-75450552D02*
X115201755Y-75498171D01*
X114630326Y-76117219D02*
X114725564Y-76069600D01*
X114725564Y-76069600D02*
X114773183Y-76021980D01*
X114773183Y-76021980D02*
X114820802Y-75926742D01*
X114820802Y-75926742D02*
X114820802Y-75641028D01*
X114820802Y-75641028D02*
X114773183Y-75545790D01*
X114773183Y-75545790D02*
X114725564Y-75498171D01*
X114725564Y-75498171D02*
X114630326Y-75450552D01*
X114630326Y-75450552D02*
X114487469Y-75450552D01*
X114487469Y-75450552D02*
X114392231Y-75498171D01*
X114392231Y-75498171D02*
X114344612Y-75545790D01*
X114344612Y-75545790D02*
X114296993Y-75641028D01*
X114296993Y-75641028D02*
X114296993Y-75926742D01*
X114296993Y-75926742D02*
X114344612Y-76021980D01*
X114344612Y-76021980D02*
X114392231Y-76069600D01*
X114392231Y-76069600D02*
X114487469Y-76117219D01*
X114487469Y-76117219D02*
X114630326Y-76117219D01*
X113868421Y-75450552D02*
X113868421Y-76117219D01*
X113868421Y-75545790D02*
X113820802Y-75498171D01*
X113820802Y-75498171D02*
X113725564Y-75450552D01*
X113725564Y-75450552D02*
X113582707Y-75450552D01*
X113582707Y-75450552D02*
X113487469Y-75498171D01*
X113487469Y-75498171D02*
X113439850Y-75593409D01*
X113439850Y-75593409D02*
X113439850Y-76117219D01*
X113106516Y-75450552D02*
X112725564Y-75450552D01*
X112963659Y-75117219D02*
X112963659Y-75974361D01*
X112963659Y-75974361D02*
X112916040Y-76069600D01*
X112916040Y-76069600D02*
X112820802Y-76117219D01*
X112820802Y-76117219D02*
X112725564Y-76117219D01*
X112392230Y-76117219D02*
X112392230Y-75450552D01*
X112392230Y-75641028D02*
X112344611Y-75545790D01*
X112344611Y-75545790D02*
X112296992Y-75498171D01*
X112296992Y-75498171D02*
X112201754Y-75450552D01*
X112201754Y-75450552D02*
X112106516Y-75450552D01*
X111630325Y-76117219D02*
X111725563Y-76069600D01*
X111725563Y-76069600D02*
X111773182Y-76021980D01*
X111773182Y-76021980D02*
X111820801Y-75926742D01*
X111820801Y-75926742D02*
X111820801Y-75641028D01*
X111820801Y-75641028D02*
X111773182Y-75545790D01*
X111773182Y-75545790D02*
X111725563Y-75498171D01*
X111725563Y-75498171D02*
X111630325Y-75450552D01*
X111630325Y-75450552D02*
X111487468Y-75450552D01*
X111487468Y-75450552D02*
X111392230Y-75498171D01*
X111392230Y-75498171D02*
X111344611Y-75545790D01*
X111344611Y-75545790D02*
X111296992Y-75641028D01*
X111296992Y-75641028D02*
X111296992Y-75926742D01*
X111296992Y-75926742D02*
X111344611Y-76021980D01*
X111344611Y-76021980D02*
X111392230Y-76069600D01*
X111392230Y-76069600D02*
X111487468Y-76117219D01*
X111487468Y-76117219D02*
X111630325Y-76117219D01*
X110725563Y-76117219D02*
X110820801Y-76069600D01*
X110820801Y-76069600D02*
X110868420Y-75974361D01*
X110868420Y-75974361D02*
X110868420Y-75117219D01*
X110201753Y-76117219D02*
X110296991Y-76069600D01*
X110296991Y-76069600D02*
X110344610Y-75974361D01*
X110344610Y-75974361D02*
X110344610Y-75117219D01*
X109439848Y-76069600D02*
X109535086Y-76117219D01*
X109535086Y-76117219D02*
X109725562Y-76117219D01*
X109725562Y-76117219D02*
X109820800Y-76069600D01*
X109820800Y-76069600D02*
X109868419Y-75974361D01*
X109868419Y-75974361D02*
X109868419Y-75593409D01*
X109868419Y-75593409D02*
X109820800Y-75498171D01*
X109820800Y-75498171D02*
X109725562Y-75450552D01*
X109725562Y-75450552D02*
X109535086Y-75450552D01*
X109535086Y-75450552D02*
X109439848Y-75498171D01*
X109439848Y-75498171D02*
X109392229Y-75593409D01*
X109392229Y-75593409D02*
X109392229Y-75688647D01*
X109392229Y-75688647D02*
X109868419Y-75783885D01*
X108963657Y-76117219D02*
X108963657Y-75450552D01*
X108963657Y-75641028D02*
X108916038Y-75545790D01*
X108916038Y-75545790D02*
X108868419Y-75498171D01*
X108868419Y-75498171D02*
X108773181Y-75450552D01*
X108773181Y-75450552D02*
X108677943Y-75450552D01*
D11*
X126544725Y-77972923D02*
X126659010Y-77972923D01*
X126601867Y-77972923D02*
X126601867Y-77772923D01*
X126601867Y-77772923D02*
X126620915Y-77801495D01*
X126620915Y-77801495D02*
X126639963Y-77820542D01*
X126639963Y-77820542D02*
X126659010Y-77830066D01*
X126420915Y-77772923D02*
X126401868Y-77772923D01*
X126401868Y-77772923D02*
X126382820Y-77782447D01*
X126382820Y-77782447D02*
X126373296Y-77791971D01*
X126373296Y-77791971D02*
X126363772Y-77811019D01*
X126363772Y-77811019D02*
X126354249Y-77849114D01*
X126354249Y-77849114D02*
X126354249Y-77896733D01*
X126354249Y-77896733D02*
X126363772Y-77934828D01*
X126363772Y-77934828D02*
X126373296Y-77953876D01*
X126373296Y-77953876D02*
X126382820Y-77963400D01*
X126382820Y-77963400D02*
X126401868Y-77972923D01*
X126401868Y-77972923D02*
X126420915Y-77972923D01*
X126420915Y-77972923D02*
X126439963Y-77963400D01*
X126439963Y-77963400D02*
X126449487Y-77953876D01*
X126449487Y-77953876D02*
X126459010Y-77934828D01*
X126459010Y-77934828D02*
X126468534Y-77896733D01*
X126468534Y-77896733D02*
X126468534Y-77849114D01*
X126468534Y-77849114D02*
X126459010Y-77811019D01*
X126459010Y-77811019D02*
X126449487Y-77791971D01*
X126449487Y-77791971D02*
X126439963Y-77782447D01*
X126439963Y-77782447D02*
X126420915Y-77772923D01*
X126182820Y-77839590D02*
X126182820Y-77972923D01*
X126268534Y-77839590D02*
X126268534Y-77944352D01*
X126268534Y-77944352D02*
X126259011Y-77963400D01*
X126259011Y-77963400D02*
X126239963Y-77972923D01*
X126239963Y-77972923D02*
X126211392Y-77972923D01*
X126211392Y-77972923D02*
X126192344Y-77963400D01*
X126192344Y-77963400D02*
X126182820Y-77953876D01*
X117438534Y-70992923D02*
X117314725Y-70992923D01*
X117314725Y-70992923D02*
X117381391Y-71069114D01*
X117381391Y-71069114D02*
X117352820Y-71069114D01*
X117352820Y-71069114D02*
X117333772Y-71078638D01*
X117333772Y-71078638D02*
X117324248Y-71088161D01*
X117324248Y-71088161D02*
X117314725Y-71107209D01*
X117314725Y-71107209D02*
X117314725Y-71154828D01*
X117314725Y-71154828D02*
X117324248Y-71173876D01*
X117324248Y-71173876D02*
X117333772Y-71183400D01*
X117333772Y-71183400D02*
X117352820Y-71192923D01*
X117352820Y-71192923D02*
X117409963Y-71192923D01*
X117409963Y-71192923D02*
X117429010Y-71183400D01*
X117429010Y-71183400D02*
X117438534Y-71173876D01*
X117248058Y-70992923D02*
X117124249Y-70992923D01*
X117124249Y-70992923D02*
X117190915Y-71069114D01*
X117190915Y-71069114D02*
X117162344Y-71069114D01*
X117162344Y-71069114D02*
X117143296Y-71078638D01*
X117143296Y-71078638D02*
X117133772Y-71088161D01*
X117133772Y-71088161D02*
X117124249Y-71107209D01*
X117124249Y-71107209D02*
X117124249Y-71154828D01*
X117124249Y-71154828D02*
X117133772Y-71173876D01*
X117133772Y-71173876D02*
X117143296Y-71183400D01*
X117143296Y-71183400D02*
X117162344Y-71192923D01*
X117162344Y-71192923D02*
X117219487Y-71192923D01*
X117219487Y-71192923D02*
X117238534Y-71183400D01*
X117238534Y-71183400D02*
X117248058Y-71173876D01*
X117000439Y-70992923D02*
X116981392Y-70992923D01*
X116981392Y-70992923D02*
X116962344Y-71002447D01*
X116962344Y-71002447D02*
X116952820Y-71011971D01*
X116952820Y-71011971D02*
X116943296Y-71031019D01*
X116943296Y-71031019D02*
X116933773Y-71069114D01*
X116933773Y-71069114D02*
X116933773Y-71116733D01*
X116933773Y-71116733D02*
X116943296Y-71154828D01*
X116943296Y-71154828D02*
X116952820Y-71173876D01*
X116952820Y-71173876D02*
X116962344Y-71183400D01*
X116962344Y-71183400D02*
X116981392Y-71192923D01*
X116981392Y-71192923D02*
X117000439Y-71192923D01*
X117000439Y-71192923D02*
X117019487Y-71183400D01*
X117019487Y-71183400D02*
X117029011Y-71173876D01*
X117029011Y-71173876D02*
X117038534Y-71154828D01*
X117038534Y-71154828D02*
X117048058Y-71116733D01*
X117048058Y-71116733D02*
X117048058Y-71069114D01*
X117048058Y-71069114D02*
X117038534Y-71031019D01*
X117038534Y-71031019D02*
X117029011Y-71011971D01*
X117029011Y-71011971D02*
X117019487Y-71002447D01*
X117019487Y-71002447D02*
X117000439Y-70992923D01*
X116848058Y-71192923D02*
X116848058Y-71059590D01*
X116848058Y-71097685D02*
X116838535Y-71078638D01*
X116838535Y-71078638D02*
X116829011Y-71069114D01*
X116829011Y-71069114D02*
X116809963Y-71059590D01*
X116809963Y-71059590D02*
X116790916Y-71059590D01*
D16*
X137972744Y-71650414D02*
X137972744Y-72257557D01*
X137972744Y-72257557D02*
X137937030Y-72328985D01*
X137937030Y-72328985D02*
X137901316Y-72364700D01*
X137901316Y-72364700D02*
X137829887Y-72400414D01*
X137829887Y-72400414D02*
X137687030Y-72400414D01*
X137687030Y-72400414D02*
X137615601Y-72364700D01*
X137615601Y-72364700D02*
X137579887Y-72328985D01*
X137579887Y-72328985D02*
X137544173Y-72257557D01*
X137544173Y-72257557D02*
X137544173Y-71650414D01*
X137222744Y-72364700D02*
X137115602Y-72400414D01*
X137115602Y-72400414D02*
X136937030Y-72400414D01*
X136937030Y-72400414D02*
X136865602Y-72364700D01*
X136865602Y-72364700D02*
X136829887Y-72328985D01*
X136829887Y-72328985D02*
X136794173Y-72257557D01*
X136794173Y-72257557D02*
X136794173Y-72186128D01*
X136794173Y-72186128D02*
X136829887Y-72114700D01*
X136829887Y-72114700D02*
X136865602Y-72078985D01*
X136865602Y-72078985D02*
X136937030Y-72043271D01*
X136937030Y-72043271D02*
X137079887Y-72007557D01*
X137079887Y-72007557D02*
X137151316Y-71971842D01*
X137151316Y-71971842D02*
X137187030Y-71936128D01*
X137187030Y-71936128D02*
X137222744Y-71864700D01*
X137222744Y-71864700D02*
X137222744Y-71793271D01*
X137222744Y-71793271D02*
X137187030Y-71721842D01*
X137187030Y-71721842D02*
X137151316Y-71686128D01*
X137151316Y-71686128D02*
X137079887Y-71650414D01*
X137079887Y-71650414D02*
X136901316Y-71650414D01*
X136901316Y-71650414D02*
X136794173Y-71686128D01*
X136222744Y-72007557D02*
X136115601Y-72043271D01*
X136115601Y-72043271D02*
X136079887Y-72078985D01*
X136079887Y-72078985D02*
X136044173Y-72150414D01*
X136044173Y-72150414D02*
X136044173Y-72257557D01*
X136044173Y-72257557D02*
X136079887Y-72328985D01*
X136079887Y-72328985D02*
X136115601Y-72364700D01*
X136115601Y-72364700D02*
X136187030Y-72400414D01*
X136187030Y-72400414D02*
X136472744Y-72400414D01*
X136472744Y-72400414D02*
X136472744Y-71650414D01*
X136472744Y-71650414D02*
X136222744Y-71650414D01*
X136222744Y-71650414D02*
X136151316Y-71686128D01*
X136151316Y-71686128D02*
X136115601Y-71721842D01*
X136115601Y-71721842D02*
X136079887Y-71793271D01*
X136079887Y-71793271D02*
X136079887Y-71864700D01*
X136079887Y-71864700D02*
X136115601Y-71936128D01*
X136115601Y-71936128D02*
X136151316Y-71971842D01*
X136151316Y-71971842D02*
X136222744Y-72007557D01*
X136222744Y-72007557D02*
X136472744Y-72007557D01*
X135722744Y-72114700D02*
X135151316Y-72114700D01*
X134365602Y-72328985D02*
X134401316Y-72364700D01*
X134401316Y-72364700D02*
X134508459Y-72400414D01*
X134508459Y-72400414D02*
X134579887Y-72400414D01*
X134579887Y-72400414D02*
X134687030Y-72364700D01*
X134687030Y-72364700D02*
X134758459Y-72293271D01*
X134758459Y-72293271D02*
X134794173Y-72221842D01*
X134794173Y-72221842D02*
X134829887Y-72078985D01*
X134829887Y-72078985D02*
X134829887Y-71971842D01*
X134829887Y-71971842D02*
X134794173Y-71828985D01*
X134794173Y-71828985D02*
X134758459Y-71757557D01*
X134758459Y-71757557D02*
X134687030Y-71686128D01*
X134687030Y-71686128D02*
X134579887Y-71650414D01*
X134579887Y-71650414D02*
X134508459Y-71650414D01*
X134508459Y-71650414D02*
X134401316Y-71686128D01*
X134401316Y-71686128D02*
X134365602Y-71721842D01*
X133044173Y-72328985D02*
X133079887Y-72364700D01*
X133079887Y-72364700D02*
X133187030Y-72400414D01*
X133187030Y-72400414D02*
X133258458Y-72400414D01*
X133258458Y-72400414D02*
X133365601Y-72364700D01*
X133365601Y-72364700D02*
X133437030Y-72293271D01*
X133437030Y-72293271D02*
X133472744Y-72221842D01*
X133472744Y-72221842D02*
X133508458Y-72078985D01*
X133508458Y-72078985D02*
X133508458Y-71971842D01*
X133508458Y-71971842D02*
X133472744Y-71828985D01*
X133472744Y-71828985D02*
X133437030Y-71757557D01*
X133437030Y-71757557D02*
X133365601Y-71686128D01*
X133365601Y-71686128D02*
X133258458Y-71650414D01*
X133258458Y-71650414D02*
X133187030Y-71650414D01*
X133187030Y-71650414D02*
X133079887Y-71686128D01*
X133079887Y-71686128D02*
X133044173Y-71721842D01*
X132615601Y-72400414D02*
X132687030Y-72364700D01*
X132687030Y-72364700D02*
X132722744Y-72328985D01*
X132722744Y-72328985D02*
X132758458Y-72257557D01*
X132758458Y-72257557D02*
X132758458Y-72043271D01*
X132758458Y-72043271D02*
X132722744Y-71971842D01*
X132722744Y-71971842D02*
X132687030Y-71936128D01*
X132687030Y-71936128D02*
X132615601Y-71900414D01*
X132615601Y-71900414D02*
X132508458Y-71900414D01*
X132508458Y-71900414D02*
X132437030Y-71936128D01*
X132437030Y-71936128D02*
X132401316Y-71971842D01*
X132401316Y-71971842D02*
X132365601Y-72043271D01*
X132365601Y-72043271D02*
X132365601Y-72257557D01*
X132365601Y-72257557D02*
X132401316Y-72328985D01*
X132401316Y-72328985D02*
X132437030Y-72364700D01*
X132437030Y-72364700D02*
X132508458Y-72400414D01*
X132508458Y-72400414D02*
X132615601Y-72400414D01*
X132044173Y-71900414D02*
X132044173Y-72400414D01*
X132044173Y-71971842D02*
X132008459Y-71936128D01*
X132008459Y-71936128D02*
X131937030Y-71900414D01*
X131937030Y-71900414D02*
X131829887Y-71900414D01*
X131829887Y-71900414D02*
X131758459Y-71936128D01*
X131758459Y-71936128D02*
X131722745Y-72007557D01*
X131722745Y-72007557D02*
X131722745Y-72400414D01*
X131365602Y-71900414D02*
X131365602Y-72400414D01*
X131365602Y-71971842D02*
X131329888Y-71936128D01*
X131329888Y-71936128D02*
X131258459Y-71900414D01*
X131258459Y-71900414D02*
X131151316Y-71900414D01*
X131151316Y-71900414D02*
X131079888Y-71936128D01*
X131079888Y-71936128D02*
X131044174Y-72007557D01*
X131044174Y-72007557D02*
X131044174Y-72400414D01*
X130401317Y-72364700D02*
X130472745Y-72400414D01*
X130472745Y-72400414D02*
X130615603Y-72400414D01*
X130615603Y-72400414D02*
X130687031Y-72364700D01*
X130687031Y-72364700D02*
X130722745Y-72293271D01*
X130722745Y-72293271D02*
X130722745Y-72007557D01*
X130722745Y-72007557D02*
X130687031Y-71936128D01*
X130687031Y-71936128D02*
X130615603Y-71900414D01*
X130615603Y-71900414D02*
X130472745Y-71900414D01*
X130472745Y-71900414D02*
X130401317Y-71936128D01*
X130401317Y-71936128D02*
X130365603Y-72007557D01*
X130365603Y-72007557D02*
X130365603Y-72078985D01*
X130365603Y-72078985D02*
X130722745Y-72150414D01*
X129722746Y-72364700D02*
X129794174Y-72400414D01*
X129794174Y-72400414D02*
X129937031Y-72400414D01*
X129937031Y-72400414D02*
X130008460Y-72364700D01*
X130008460Y-72364700D02*
X130044174Y-72328985D01*
X130044174Y-72328985D02*
X130079888Y-72257557D01*
X130079888Y-72257557D02*
X130079888Y-72043271D01*
X130079888Y-72043271D02*
X130044174Y-71971842D01*
X130044174Y-71971842D02*
X130008460Y-71936128D01*
X130008460Y-71936128D02*
X129937031Y-71900414D01*
X129937031Y-71900414D02*
X129794174Y-71900414D01*
X129794174Y-71900414D02*
X129722746Y-71936128D01*
X129508460Y-71900414D02*
X129222746Y-71900414D01*
X129401317Y-71650414D02*
X129401317Y-72293271D01*
X129401317Y-72293271D02*
X129365603Y-72364700D01*
X129365603Y-72364700D02*
X129294174Y-72400414D01*
X129294174Y-72400414D02*
X129222746Y-72400414D01*
X128865603Y-72400414D02*
X128937032Y-72364700D01*
X128937032Y-72364700D02*
X128972746Y-72328985D01*
X128972746Y-72328985D02*
X129008460Y-72257557D01*
X129008460Y-72257557D02*
X129008460Y-72043271D01*
X129008460Y-72043271D02*
X128972746Y-71971842D01*
X128972746Y-71971842D02*
X128937032Y-71936128D01*
X128937032Y-71936128D02*
X128865603Y-71900414D01*
X128865603Y-71900414D02*
X128758460Y-71900414D01*
X128758460Y-71900414D02*
X128687032Y-71936128D01*
X128687032Y-71936128D02*
X128651318Y-71971842D01*
X128651318Y-71971842D02*
X128615603Y-72043271D01*
X128615603Y-72043271D02*
X128615603Y-72257557D01*
X128615603Y-72257557D02*
X128651318Y-72328985D01*
X128651318Y-72328985D02*
X128687032Y-72364700D01*
X128687032Y-72364700D02*
X128758460Y-72400414D01*
X128758460Y-72400414D02*
X128865603Y-72400414D01*
X128294175Y-72400414D02*
X128294175Y-71900414D01*
X128294175Y-72043271D02*
X128258461Y-71971842D01*
X128258461Y-71971842D02*
X128222747Y-71936128D01*
X128222747Y-71936128D02*
X128151318Y-71900414D01*
X128151318Y-71900414D02*
X128079889Y-71900414D01*
D11*
X116074248Y-71192923D02*
X116169486Y-71192923D01*
X116169486Y-71192923D02*
X116169486Y-70992923D01*
X116007581Y-71088161D02*
X115940915Y-71088161D01*
X115912343Y-71192923D02*
X116007581Y-71192923D01*
X116007581Y-71192923D02*
X116007581Y-70992923D01*
X116007581Y-70992923D02*
X115912343Y-70992923D01*
X115826629Y-71192923D02*
X115826629Y-70992923D01*
X115826629Y-70992923D02*
X115779010Y-70992923D01*
X115779010Y-70992923D02*
X115750439Y-71002447D01*
X115750439Y-71002447D02*
X115731391Y-71021495D01*
X115731391Y-71021495D02*
X115721868Y-71040542D01*
X115721868Y-71040542D02*
X115712344Y-71078638D01*
X115712344Y-71078638D02*
X115712344Y-71107209D01*
X115712344Y-71107209D02*
X115721868Y-71145304D01*
X115721868Y-71145304D02*
X115731391Y-71164352D01*
X115731391Y-71164352D02*
X115750439Y-71183400D01*
X115750439Y-71183400D02*
X115779010Y-71192923D01*
X115779010Y-71192923D02*
X115826629Y-71192923D01*
D10*
X145319925Y-92396871D02*
X145341353Y-92418300D01*
X145341353Y-92418300D02*
X145405639Y-92439728D01*
X145405639Y-92439728D02*
X145448496Y-92439728D01*
X145448496Y-92439728D02*
X145512782Y-92418300D01*
X145512782Y-92418300D02*
X145555639Y-92375442D01*
X145555639Y-92375442D02*
X145577068Y-92332585D01*
X145577068Y-92332585D02*
X145598496Y-92246871D01*
X145598496Y-92246871D02*
X145598496Y-92182585D01*
X145598496Y-92182585D02*
X145577068Y-92096871D01*
X145577068Y-92096871D02*
X145555639Y-92054014D01*
X145555639Y-92054014D02*
X145512782Y-92011157D01*
X145512782Y-92011157D02*
X145448496Y-91989728D01*
X145448496Y-91989728D02*
X145405639Y-91989728D01*
X145405639Y-91989728D02*
X145341353Y-92011157D01*
X145341353Y-92011157D02*
X145319925Y-92032585D01*
X144934211Y-92439728D02*
X144934211Y-92204014D01*
X144934211Y-92204014D02*
X144955639Y-92161157D01*
X144955639Y-92161157D02*
X144998496Y-92139728D01*
X144998496Y-92139728D02*
X145084211Y-92139728D01*
X145084211Y-92139728D02*
X145127068Y-92161157D01*
X144934211Y-92418300D02*
X144977068Y-92439728D01*
X144977068Y-92439728D02*
X145084211Y-92439728D01*
X145084211Y-92439728D02*
X145127068Y-92418300D01*
X145127068Y-92418300D02*
X145148496Y-92375442D01*
X145148496Y-92375442D02*
X145148496Y-92332585D01*
X145148496Y-92332585D02*
X145127068Y-92289728D01*
X145127068Y-92289728D02*
X145084211Y-92268300D01*
X145084211Y-92268300D02*
X144977068Y-92268300D01*
X144977068Y-92268300D02*
X144934211Y-92246871D01*
X144719925Y-92139728D02*
X144719925Y-92589728D01*
X144719925Y-92161157D02*
X144677068Y-92139728D01*
X144677068Y-92139728D02*
X144591353Y-92139728D01*
X144591353Y-92139728D02*
X144548496Y-92161157D01*
X144548496Y-92161157D02*
X144527068Y-92182585D01*
X144527068Y-92182585D02*
X144505639Y-92225442D01*
X144505639Y-92225442D02*
X144505639Y-92354014D01*
X144505639Y-92354014D02*
X144527068Y-92396871D01*
X144527068Y-92396871D02*
X144548496Y-92418300D01*
X144548496Y-92418300D02*
X144591353Y-92439728D01*
X144591353Y-92439728D02*
X144677068Y-92439728D01*
X144677068Y-92439728D02*
X144719925Y-92418300D01*
X144119925Y-92439728D02*
X144119925Y-92204014D01*
X144119925Y-92204014D02*
X144141353Y-92161157D01*
X144141353Y-92161157D02*
X144184210Y-92139728D01*
X144184210Y-92139728D02*
X144269925Y-92139728D01*
X144269925Y-92139728D02*
X144312782Y-92161157D01*
X144119925Y-92418300D02*
X144162782Y-92439728D01*
X144162782Y-92439728D02*
X144269925Y-92439728D01*
X144269925Y-92439728D02*
X144312782Y-92418300D01*
X144312782Y-92418300D02*
X144334210Y-92375442D01*
X144334210Y-92375442D02*
X144334210Y-92332585D01*
X144334210Y-92332585D02*
X144312782Y-92289728D01*
X144312782Y-92289728D02*
X144269925Y-92268300D01*
X144269925Y-92268300D02*
X144162782Y-92268300D01*
X144162782Y-92268300D02*
X144119925Y-92246871D01*
X143712782Y-92418300D02*
X143755639Y-92439728D01*
X143755639Y-92439728D02*
X143841353Y-92439728D01*
X143841353Y-92439728D02*
X143884210Y-92418300D01*
X143884210Y-92418300D02*
X143905639Y-92396871D01*
X143905639Y-92396871D02*
X143927067Y-92354014D01*
X143927067Y-92354014D02*
X143927067Y-92225442D01*
X143927067Y-92225442D02*
X143905639Y-92182585D01*
X143905639Y-92182585D02*
X143884210Y-92161157D01*
X143884210Y-92161157D02*
X143841353Y-92139728D01*
X143841353Y-92139728D02*
X143755639Y-92139728D01*
X143755639Y-92139728D02*
X143712782Y-92161157D01*
X143519925Y-92439728D02*
X143519925Y-92139728D01*
X143519925Y-91989728D02*
X143541353Y-92011157D01*
X143541353Y-92011157D02*
X143519925Y-92032585D01*
X143519925Y-92032585D02*
X143498496Y-92011157D01*
X143498496Y-92011157D02*
X143519925Y-91989728D01*
X143519925Y-91989728D02*
X143519925Y-92032585D01*
X143369924Y-92139728D02*
X143198496Y-92139728D01*
X143305639Y-91989728D02*
X143305639Y-92375442D01*
X143305639Y-92375442D02*
X143284210Y-92418300D01*
X143284210Y-92418300D02*
X143241353Y-92439728D01*
X143241353Y-92439728D02*
X143198496Y-92439728D01*
X142984210Y-92439728D02*
X143027067Y-92418300D01*
X143027067Y-92418300D02*
X143048496Y-92396871D01*
X143048496Y-92396871D02*
X143069924Y-92354014D01*
X143069924Y-92354014D02*
X143069924Y-92225442D01*
X143069924Y-92225442D02*
X143048496Y-92182585D01*
X143048496Y-92182585D02*
X143027067Y-92161157D01*
X143027067Y-92161157D02*
X142984210Y-92139728D01*
X142984210Y-92139728D02*
X142919924Y-92139728D01*
X142919924Y-92139728D02*
X142877067Y-92161157D01*
X142877067Y-92161157D02*
X142855639Y-92182585D01*
X142855639Y-92182585D02*
X142834210Y-92225442D01*
X142834210Y-92225442D02*
X142834210Y-92354014D01*
X142834210Y-92354014D02*
X142855639Y-92396871D01*
X142855639Y-92396871D02*
X142877067Y-92418300D01*
X142877067Y-92418300D02*
X142919924Y-92439728D01*
X142919924Y-92439728D02*
X142984210Y-92439728D01*
X142641353Y-92439728D02*
X142641353Y-92139728D01*
X142641353Y-92225442D02*
X142619924Y-92182585D01*
X142619924Y-92182585D02*
X142598496Y-92161157D01*
X142598496Y-92161157D02*
X142555638Y-92139728D01*
X142555638Y-92139728D02*
X142512781Y-92139728D01*
D17*
X119597431Y-77090809D02*
X119264098Y-77090809D01*
X119121241Y-77614619D02*
X119597431Y-77614619D01*
X119597431Y-77614619D02*
X119597431Y-76614619D01*
X119597431Y-76614619D02*
X119121241Y-76614619D01*
X118740288Y-77567000D02*
X118597431Y-77614619D01*
X118597431Y-77614619D02*
X118359336Y-77614619D01*
X118359336Y-77614619D02*
X118264098Y-77567000D01*
X118264098Y-77567000D02*
X118216479Y-77519380D01*
X118216479Y-77519380D02*
X118168860Y-77424142D01*
X118168860Y-77424142D02*
X118168860Y-77328904D01*
X118168860Y-77328904D02*
X118216479Y-77233666D01*
X118216479Y-77233666D02*
X118264098Y-77186047D01*
X118264098Y-77186047D02*
X118359336Y-77138428D01*
X118359336Y-77138428D02*
X118549812Y-77090809D01*
X118549812Y-77090809D02*
X118645050Y-77043190D01*
X118645050Y-77043190D02*
X118692669Y-76995571D01*
X118692669Y-76995571D02*
X118740288Y-76900333D01*
X118740288Y-76900333D02*
X118740288Y-76805095D01*
X118740288Y-76805095D02*
X118692669Y-76709857D01*
X118692669Y-76709857D02*
X118645050Y-76662238D01*
X118645050Y-76662238D02*
X118549812Y-76614619D01*
X118549812Y-76614619D02*
X118311717Y-76614619D01*
X118311717Y-76614619D02*
X118168860Y-76662238D01*
X117740288Y-77614619D02*
X117740288Y-76614619D01*
X117740288Y-76614619D02*
X117359336Y-76614619D01*
X117359336Y-76614619D02*
X117264098Y-76662238D01*
X117264098Y-76662238D02*
X117216479Y-76709857D01*
X117216479Y-76709857D02*
X117168860Y-76805095D01*
X117168860Y-76805095D02*
X117168860Y-76947952D01*
X117168860Y-76947952D02*
X117216479Y-77043190D01*
X117216479Y-77043190D02*
X117264098Y-77090809D01*
X117264098Y-77090809D02*
X117359336Y-77138428D01*
X117359336Y-77138428D02*
X117740288Y-77138428D01*
X116835526Y-76614619D02*
X116216479Y-76614619D01*
X116216479Y-76614619D02*
X116549812Y-76995571D01*
X116549812Y-76995571D02*
X116406955Y-76995571D01*
X116406955Y-76995571D02*
X116311717Y-77043190D01*
X116311717Y-77043190D02*
X116264098Y-77090809D01*
X116264098Y-77090809D02*
X116216479Y-77186047D01*
X116216479Y-77186047D02*
X116216479Y-77424142D01*
X116216479Y-77424142D02*
X116264098Y-77519380D01*
X116264098Y-77519380D02*
X116311717Y-77567000D01*
X116311717Y-77567000D02*
X116406955Y-77614619D01*
X116406955Y-77614619D02*
X116692669Y-77614619D01*
X116692669Y-77614619D02*
X116787907Y-77567000D01*
X116787907Y-77567000D02*
X116835526Y-77519380D01*
X115835526Y-76709857D02*
X115787907Y-76662238D01*
X115787907Y-76662238D02*
X115692669Y-76614619D01*
X115692669Y-76614619D02*
X115454574Y-76614619D01*
X115454574Y-76614619D02*
X115359336Y-76662238D01*
X115359336Y-76662238D02*
X115311717Y-76709857D01*
X115311717Y-76709857D02*
X115264098Y-76805095D01*
X115264098Y-76805095D02*
X115264098Y-76900333D01*
X115264098Y-76900333D02*
X115311717Y-77043190D01*
X115311717Y-77043190D02*
X115883145Y-77614619D01*
X115883145Y-77614619D02*
X115264098Y-77614619D01*
X114835526Y-77233666D02*
X114073622Y-77233666D01*
X113026003Y-77519380D02*
X113073622Y-77567000D01*
X113073622Y-77567000D02*
X113216479Y-77614619D01*
X113216479Y-77614619D02*
X113311717Y-77614619D01*
X113311717Y-77614619D02*
X113454574Y-77567000D01*
X113454574Y-77567000D02*
X113549812Y-77471761D01*
X113549812Y-77471761D02*
X113597431Y-77376523D01*
X113597431Y-77376523D02*
X113645050Y-77186047D01*
X113645050Y-77186047D02*
X113645050Y-77043190D01*
X113645050Y-77043190D02*
X113597431Y-76852714D01*
X113597431Y-76852714D02*
X113549812Y-76757476D01*
X113549812Y-76757476D02*
X113454574Y-76662238D01*
X113454574Y-76662238D02*
X113311717Y-76614619D01*
X113311717Y-76614619D02*
X113216479Y-76614619D01*
X113216479Y-76614619D02*
X113073622Y-76662238D01*
X113073622Y-76662238D02*
X113026003Y-76709857D01*
X112692669Y-76614619D02*
X112073622Y-76614619D01*
X112073622Y-76614619D02*
X112406955Y-76995571D01*
X112406955Y-76995571D02*
X112264098Y-76995571D01*
X112264098Y-76995571D02*
X112168860Y-77043190D01*
X112168860Y-77043190D02*
X112121241Y-77090809D01*
X112121241Y-77090809D02*
X112073622Y-77186047D01*
X112073622Y-77186047D02*
X112073622Y-77424142D01*
X112073622Y-77424142D02*
X112121241Y-77519380D01*
X112121241Y-77519380D02*
X112168860Y-77567000D01*
X112168860Y-77567000D02*
X112264098Y-77614619D01*
X112264098Y-77614619D02*
X112549812Y-77614619D01*
X112549812Y-77614619D02*
X112645050Y-77567000D01*
X112645050Y-77567000D02*
X112692669Y-77519380D01*
X111645050Y-77233666D02*
X110883146Y-77233666D01*
X110502193Y-76614619D02*
X110264098Y-77614619D01*
X110264098Y-77614619D02*
X110073622Y-76900333D01*
X110073622Y-76900333D02*
X109883146Y-77614619D01*
X109883146Y-77614619D02*
X109645051Y-76614619D01*
X108692670Y-77614619D02*
X109026003Y-77138428D01*
X109264098Y-77614619D02*
X109264098Y-76614619D01*
X109264098Y-76614619D02*
X108883146Y-76614619D01*
X108883146Y-76614619D02*
X108787908Y-76662238D01*
X108787908Y-76662238D02*
X108740289Y-76709857D01*
X108740289Y-76709857D02*
X108692670Y-76805095D01*
X108692670Y-76805095D02*
X108692670Y-76947952D01*
X108692670Y-76947952D02*
X108740289Y-77043190D01*
X108740289Y-77043190D02*
X108787908Y-77090809D01*
X108787908Y-77090809D02*
X108883146Y-77138428D01*
X108883146Y-77138428D02*
X109264098Y-77138428D01*
X108073622Y-76614619D02*
X107883146Y-76614619D01*
X107883146Y-76614619D02*
X107787908Y-76662238D01*
X107787908Y-76662238D02*
X107692670Y-76757476D01*
X107692670Y-76757476D02*
X107645051Y-76947952D01*
X107645051Y-76947952D02*
X107645051Y-77281285D01*
X107645051Y-77281285D02*
X107692670Y-77471761D01*
X107692670Y-77471761D02*
X107787908Y-77567000D01*
X107787908Y-77567000D02*
X107883146Y-77614619D01*
X107883146Y-77614619D02*
X108073622Y-77614619D01*
X108073622Y-77614619D02*
X108168860Y-77567000D01*
X108168860Y-77567000D02*
X108264098Y-77471761D01*
X108264098Y-77471761D02*
X108311717Y-77281285D01*
X108311717Y-77281285D02*
X108311717Y-76947952D01*
X108311717Y-76947952D02*
X108264098Y-76757476D01*
X108264098Y-76757476D02*
X108168860Y-76662238D01*
X108168860Y-76662238D02*
X108073622Y-76614619D01*
X107026003Y-76614619D02*
X106835527Y-76614619D01*
X106835527Y-76614619D02*
X106740289Y-76662238D01*
X106740289Y-76662238D02*
X106645051Y-76757476D01*
X106645051Y-76757476D02*
X106597432Y-76947952D01*
X106597432Y-76947952D02*
X106597432Y-77281285D01*
X106597432Y-77281285D02*
X106645051Y-77471761D01*
X106645051Y-77471761D02*
X106740289Y-77567000D01*
X106740289Y-77567000D02*
X106835527Y-77614619D01*
X106835527Y-77614619D02*
X107026003Y-77614619D01*
X107026003Y-77614619D02*
X107121241Y-77567000D01*
X107121241Y-77567000D02*
X107216479Y-77471761D01*
X107216479Y-77471761D02*
X107264098Y-77281285D01*
X107264098Y-77281285D02*
X107264098Y-76947952D01*
X107264098Y-76947952D02*
X107216479Y-76757476D01*
X107216479Y-76757476D02*
X107121241Y-76662238D01*
X107121241Y-76662238D02*
X107026003Y-76614619D01*
X106168860Y-77614619D02*
X106168860Y-76614619D01*
X106168860Y-76614619D02*
X105835527Y-77328904D01*
X105835527Y-77328904D02*
X105502194Y-76614619D01*
X105502194Y-76614619D02*
X105502194Y-77614619D01*
X105026003Y-77233666D02*
X104264099Y-77233666D01*
X103597432Y-76614619D02*
X103502194Y-76614619D01*
X103502194Y-76614619D02*
X103406956Y-76662238D01*
X103406956Y-76662238D02*
X103359337Y-76709857D01*
X103359337Y-76709857D02*
X103311718Y-76805095D01*
X103311718Y-76805095D02*
X103264099Y-76995571D01*
X103264099Y-76995571D02*
X103264099Y-77233666D01*
X103264099Y-77233666D02*
X103311718Y-77424142D01*
X103311718Y-77424142D02*
X103359337Y-77519380D01*
X103359337Y-77519380D02*
X103406956Y-77567000D01*
X103406956Y-77567000D02*
X103502194Y-77614619D01*
X103502194Y-77614619D02*
X103597432Y-77614619D01*
X103597432Y-77614619D02*
X103692670Y-77567000D01*
X103692670Y-77567000D02*
X103740289Y-77519380D01*
X103740289Y-77519380D02*
X103787908Y-77424142D01*
X103787908Y-77424142D02*
X103835527Y-77233666D01*
X103835527Y-77233666D02*
X103835527Y-76995571D01*
X103835527Y-76995571D02*
X103787908Y-76805095D01*
X103787908Y-76805095D02*
X103740289Y-76709857D01*
X103740289Y-76709857D02*
X103692670Y-76662238D01*
X103692670Y-76662238D02*
X103597432Y-76614619D01*
X102883146Y-76709857D02*
X102835527Y-76662238D01*
X102835527Y-76662238D02*
X102740289Y-76614619D01*
X102740289Y-76614619D02*
X102502194Y-76614619D01*
X102502194Y-76614619D02*
X102406956Y-76662238D01*
X102406956Y-76662238D02*
X102359337Y-76709857D01*
X102359337Y-76709857D02*
X102311718Y-76805095D01*
X102311718Y-76805095D02*
X102311718Y-76900333D01*
X102311718Y-76900333D02*
X102359337Y-77043190D01*
X102359337Y-77043190D02*
X102930765Y-77614619D01*
X102930765Y-77614619D02*
X102311718Y-77614619D01*
D11*
X116216804Y-71848132D02*
X116204900Y-71824322D01*
X116204900Y-71824322D02*
X116181090Y-71812417D01*
X116181090Y-71812417D02*
X115966804Y-71812417D01*
X116216804Y-71943369D02*
X116050138Y-71943369D01*
X115966804Y-71943369D02*
X115978709Y-71931465D01*
X115978709Y-71931465D02*
X115990614Y-71943369D01*
X115990614Y-71943369D02*
X115978709Y-71955274D01*
X115978709Y-71955274D02*
X115966804Y-71943369D01*
X115966804Y-71943369D02*
X115990614Y-71943369D01*
X116050138Y-72169560D02*
X116252519Y-72169560D01*
X116252519Y-72169560D02*
X116276328Y-72157655D01*
X116276328Y-72157655D02*
X116288233Y-72145751D01*
X116288233Y-72145751D02*
X116300138Y-72121941D01*
X116300138Y-72121941D02*
X116300138Y-72086227D01*
X116300138Y-72086227D02*
X116288233Y-72062417D01*
X116204900Y-72169560D02*
X116216804Y-72145751D01*
X116216804Y-72145751D02*
X116216804Y-72098132D01*
X116216804Y-72098132D02*
X116204900Y-72074322D01*
X116204900Y-72074322D02*
X116192995Y-72062417D01*
X116192995Y-72062417D02*
X116169185Y-72050513D01*
X116169185Y-72050513D02*
X116097757Y-72050513D01*
X116097757Y-72050513D02*
X116073947Y-72062417D01*
X116073947Y-72062417D02*
X116062042Y-72074322D01*
X116062042Y-72074322D02*
X116050138Y-72098132D01*
X116050138Y-72098132D02*
X116050138Y-72145751D01*
X116050138Y-72145751D02*
X116062042Y-72169560D01*
X116216804Y-72288607D02*
X115966804Y-72288607D01*
X116216804Y-72395750D02*
X116085852Y-72395750D01*
X116085852Y-72395750D02*
X116062042Y-72383845D01*
X116062042Y-72383845D02*
X116050138Y-72360036D01*
X116050138Y-72360036D02*
X116050138Y-72324322D01*
X116050138Y-72324322D02*
X116062042Y-72300512D01*
X116062042Y-72300512D02*
X116073947Y-72288607D01*
X116050138Y-72479083D02*
X116050138Y-72574321D01*
X115966804Y-72514797D02*
X116181090Y-72514797D01*
X116181090Y-72514797D02*
X116204900Y-72526702D01*
X116204900Y-72526702D02*
X116216804Y-72550512D01*
X116216804Y-72550512D02*
X116216804Y-72574321D01*
X133514725Y-81716804D02*
X133598058Y-81597757D01*
X133657582Y-81716804D02*
X133657582Y-81466804D01*
X133657582Y-81466804D02*
X133562344Y-81466804D01*
X133562344Y-81466804D02*
X133538534Y-81478709D01*
X133538534Y-81478709D02*
X133526629Y-81490614D01*
X133526629Y-81490614D02*
X133514725Y-81514423D01*
X133514725Y-81514423D02*
X133514725Y-81550138D01*
X133514725Y-81550138D02*
X133526629Y-81573947D01*
X133526629Y-81573947D02*
X133538534Y-81585852D01*
X133538534Y-81585852D02*
X133562344Y-81597757D01*
X133562344Y-81597757D02*
X133657582Y-81597757D01*
X133312344Y-81704900D02*
X133336153Y-81716804D01*
X133336153Y-81716804D02*
X133383772Y-81716804D01*
X133383772Y-81716804D02*
X133407582Y-81704900D01*
X133407582Y-81704900D02*
X133419486Y-81681090D01*
X133419486Y-81681090D02*
X133419486Y-81585852D01*
X133419486Y-81585852D02*
X133407582Y-81562042D01*
X133407582Y-81562042D02*
X133383772Y-81550138D01*
X133383772Y-81550138D02*
X133336153Y-81550138D01*
X133336153Y-81550138D02*
X133312344Y-81562042D01*
X133312344Y-81562042D02*
X133300439Y-81585852D01*
X133300439Y-81585852D02*
X133300439Y-81609661D01*
X133300439Y-81609661D02*
X133419486Y-81633471D01*
X133205200Y-81704900D02*
X133181391Y-81716804D01*
X133181391Y-81716804D02*
X133133772Y-81716804D01*
X133133772Y-81716804D02*
X133109962Y-81704900D01*
X133109962Y-81704900D02*
X133098058Y-81681090D01*
X133098058Y-81681090D02*
X133098058Y-81669185D01*
X133098058Y-81669185D02*
X133109962Y-81645376D01*
X133109962Y-81645376D02*
X133133772Y-81633471D01*
X133133772Y-81633471D02*
X133169486Y-81633471D01*
X133169486Y-81633471D02*
X133193296Y-81621566D01*
X133193296Y-81621566D02*
X133205200Y-81597757D01*
X133205200Y-81597757D02*
X133205200Y-81585852D01*
X133205200Y-81585852D02*
X133193296Y-81562042D01*
X133193296Y-81562042D02*
X133169486Y-81550138D01*
X133169486Y-81550138D02*
X133133772Y-81550138D01*
X133133772Y-81550138D02*
X133109962Y-81562042D01*
X132990915Y-81716804D02*
X132990915Y-81550138D01*
X132990915Y-81466804D02*
X133002819Y-81478709D01*
X133002819Y-81478709D02*
X132990915Y-81490614D01*
X132990915Y-81490614D02*
X132979010Y-81478709D01*
X132979010Y-81478709D02*
X132990915Y-81466804D01*
X132990915Y-81466804D02*
X132990915Y-81490614D01*
X132883771Y-81704900D02*
X132859962Y-81716804D01*
X132859962Y-81716804D02*
X132812343Y-81716804D01*
X132812343Y-81716804D02*
X132788533Y-81704900D01*
X132788533Y-81704900D02*
X132776629Y-81681090D01*
X132776629Y-81681090D02*
X132776629Y-81669185D01*
X132776629Y-81669185D02*
X132788533Y-81645376D01*
X132788533Y-81645376D02*
X132812343Y-81633471D01*
X132812343Y-81633471D02*
X132848057Y-81633471D01*
X132848057Y-81633471D02*
X132871867Y-81621566D01*
X132871867Y-81621566D02*
X132883771Y-81597757D01*
X132883771Y-81597757D02*
X132883771Y-81585852D01*
X132883771Y-81585852D02*
X132871867Y-81562042D01*
X132871867Y-81562042D02*
X132848057Y-81550138D01*
X132848057Y-81550138D02*
X132812343Y-81550138D01*
X132812343Y-81550138D02*
X132788533Y-81562042D01*
X132705200Y-81550138D02*
X132609962Y-81550138D01*
X132669486Y-81466804D02*
X132669486Y-81681090D01*
X132669486Y-81681090D02*
X132657581Y-81704900D01*
X132657581Y-81704900D02*
X132633771Y-81716804D01*
X132633771Y-81716804D02*
X132609962Y-81716804D01*
X132490914Y-81716804D02*
X132514724Y-81704900D01*
X132514724Y-81704900D02*
X132526629Y-81692995D01*
X132526629Y-81692995D02*
X132538533Y-81669185D01*
X132538533Y-81669185D02*
X132538533Y-81597757D01*
X132538533Y-81597757D02*
X132526629Y-81573947D01*
X132526629Y-81573947D02*
X132514724Y-81562042D01*
X132514724Y-81562042D02*
X132490914Y-81550138D01*
X132490914Y-81550138D02*
X132455200Y-81550138D01*
X132455200Y-81550138D02*
X132431391Y-81562042D01*
X132431391Y-81562042D02*
X132419486Y-81573947D01*
X132419486Y-81573947D02*
X132407581Y-81597757D01*
X132407581Y-81597757D02*
X132407581Y-81669185D01*
X132407581Y-81669185D02*
X132419486Y-81692995D01*
X132419486Y-81692995D02*
X132431391Y-81704900D01*
X132431391Y-81704900D02*
X132455200Y-81716804D01*
X132455200Y-81716804D02*
X132490914Y-81716804D01*
X132300439Y-81716804D02*
X132300439Y-81550138D01*
X132300439Y-81597757D02*
X132288534Y-81573947D01*
X132288534Y-81573947D02*
X132276629Y-81562042D01*
X132276629Y-81562042D02*
X132252820Y-81550138D01*
X132252820Y-81550138D02*
X132229010Y-81550138D01*
X134112225Y-83026804D02*
X134195558Y-82907757D01*
X134255082Y-83026804D02*
X134255082Y-82776804D01*
X134255082Y-82776804D02*
X134159844Y-82776804D01*
X134159844Y-82776804D02*
X134136034Y-82788709D01*
X134136034Y-82788709D02*
X134124129Y-82800614D01*
X134124129Y-82800614D02*
X134112225Y-82824423D01*
X134112225Y-82824423D02*
X134112225Y-82860138D01*
X134112225Y-82860138D02*
X134124129Y-82883947D01*
X134124129Y-82883947D02*
X134136034Y-82895852D01*
X134136034Y-82895852D02*
X134159844Y-82907757D01*
X134159844Y-82907757D02*
X134255082Y-82907757D01*
X133909844Y-83014900D02*
X133933653Y-83026804D01*
X133933653Y-83026804D02*
X133981272Y-83026804D01*
X133981272Y-83026804D02*
X134005082Y-83014900D01*
X134005082Y-83014900D02*
X134016986Y-82991090D01*
X134016986Y-82991090D02*
X134016986Y-82895852D01*
X134016986Y-82895852D02*
X134005082Y-82872042D01*
X134005082Y-82872042D02*
X133981272Y-82860138D01*
X133981272Y-82860138D02*
X133933653Y-82860138D01*
X133933653Y-82860138D02*
X133909844Y-82872042D01*
X133909844Y-82872042D02*
X133897939Y-82895852D01*
X133897939Y-82895852D02*
X133897939Y-82919661D01*
X133897939Y-82919661D02*
X134016986Y-82943471D01*
X133802700Y-83014900D02*
X133778891Y-83026804D01*
X133778891Y-83026804D02*
X133731272Y-83026804D01*
X133731272Y-83026804D02*
X133707462Y-83014900D01*
X133707462Y-83014900D02*
X133695558Y-82991090D01*
X133695558Y-82991090D02*
X133695558Y-82979185D01*
X133695558Y-82979185D02*
X133707462Y-82955376D01*
X133707462Y-82955376D02*
X133731272Y-82943471D01*
X133731272Y-82943471D02*
X133766986Y-82943471D01*
X133766986Y-82943471D02*
X133790796Y-82931566D01*
X133790796Y-82931566D02*
X133802700Y-82907757D01*
X133802700Y-82907757D02*
X133802700Y-82895852D01*
X133802700Y-82895852D02*
X133790796Y-82872042D01*
X133790796Y-82872042D02*
X133766986Y-82860138D01*
X133766986Y-82860138D02*
X133731272Y-82860138D01*
X133731272Y-82860138D02*
X133707462Y-82872042D01*
X133588415Y-83026804D02*
X133588415Y-82860138D01*
X133588415Y-82776804D02*
X133600319Y-82788709D01*
X133600319Y-82788709D02*
X133588415Y-82800614D01*
X133588415Y-82800614D02*
X133576510Y-82788709D01*
X133576510Y-82788709D02*
X133588415Y-82776804D01*
X133588415Y-82776804D02*
X133588415Y-82800614D01*
X133481271Y-83014900D02*
X133457462Y-83026804D01*
X133457462Y-83026804D02*
X133409843Y-83026804D01*
X133409843Y-83026804D02*
X133386033Y-83014900D01*
X133386033Y-83014900D02*
X133374129Y-82991090D01*
X133374129Y-82991090D02*
X133374129Y-82979185D01*
X133374129Y-82979185D02*
X133386033Y-82955376D01*
X133386033Y-82955376D02*
X133409843Y-82943471D01*
X133409843Y-82943471D02*
X133445557Y-82943471D01*
X133445557Y-82943471D02*
X133469367Y-82931566D01*
X133469367Y-82931566D02*
X133481271Y-82907757D01*
X133481271Y-82907757D02*
X133481271Y-82895852D01*
X133481271Y-82895852D02*
X133469367Y-82872042D01*
X133469367Y-82872042D02*
X133445557Y-82860138D01*
X133445557Y-82860138D02*
X133409843Y-82860138D01*
X133409843Y-82860138D02*
X133386033Y-82872042D01*
X133302700Y-82860138D02*
X133207462Y-82860138D01*
X133266986Y-82776804D02*
X133266986Y-82991090D01*
X133266986Y-82991090D02*
X133255081Y-83014900D01*
X133255081Y-83014900D02*
X133231271Y-83026804D01*
X133231271Y-83026804D02*
X133207462Y-83026804D01*
X133088414Y-83026804D02*
X133112224Y-83014900D01*
X133112224Y-83014900D02*
X133124129Y-83002995D01*
X133124129Y-83002995D02*
X133136033Y-82979185D01*
X133136033Y-82979185D02*
X133136033Y-82907757D01*
X133136033Y-82907757D02*
X133124129Y-82883947D01*
X133124129Y-82883947D02*
X133112224Y-82872042D01*
X133112224Y-82872042D02*
X133088414Y-82860138D01*
X133088414Y-82860138D02*
X133052700Y-82860138D01*
X133052700Y-82860138D02*
X133028891Y-82872042D01*
X133028891Y-82872042D02*
X133016986Y-82883947D01*
X133016986Y-82883947D02*
X133005081Y-82907757D01*
X133005081Y-82907757D02*
X133005081Y-82979185D01*
X133005081Y-82979185D02*
X133016986Y-83002995D01*
X133016986Y-83002995D02*
X133028891Y-83014900D01*
X133028891Y-83014900D02*
X133052700Y-83026804D01*
X133052700Y-83026804D02*
X133088414Y-83026804D01*
X132897939Y-83026804D02*
X132897939Y-82860138D01*
X132897939Y-82907757D02*
X132886034Y-82883947D01*
X132886034Y-82883947D02*
X132874129Y-82872042D01*
X132874129Y-82872042D02*
X132850320Y-82860138D01*
X132850320Y-82860138D02*
X132826510Y-82860138D01*
X147972923Y-91935274D02*
X147972923Y-91820989D01*
X147972923Y-91878132D02*
X147772923Y-91878132D01*
X147772923Y-91878132D02*
X147801495Y-91859084D01*
X147801495Y-91859084D02*
X147820542Y-91840036D01*
X147820542Y-91840036D02*
X147830066Y-91820989D01*
X147772923Y-92059084D02*
X147772923Y-92078131D01*
X147772923Y-92078131D02*
X147782447Y-92097179D01*
X147782447Y-92097179D02*
X147791971Y-92106703D01*
X147791971Y-92106703D02*
X147811019Y-92116227D01*
X147811019Y-92116227D02*
X147849114Y-92125750D01*
X147849114Y-92125750D02*
X147896733Y-92125750D01*
X147896733Y-92125750D02*
X147934828Y-92116227D01*
X147934828Y-92116227D02*
X147953876Y-92106703D01*
X147953876Y-92106703D02*
X147963400Y-92097179D01*
X147963400Y-92097179D02*
X147972923Y-92078131D01*
X147972923Y-92078131D02*
X147972923Y-92059084D01*
X147972923Y-92059084D02*
X147963400Y-92040036D01*
X147963400Y-92040036D02*
X147953876Y-92030512D01*
X147953876Y-92030512D02*
X147934828Y-92020989D01*
X147934828Y-92020989D02*
X147896733Y-92011465D01*
X147896733Y-92011465D02*
X147849114Y-92011465D01*
X147849114Y-92011465D02*
X147811019Y-92020989D01*
X147811019Y-92020989D02*
X147791971Y-92030512D01*
X147791971Y-92030512D02*
X147782447Y-92040036D01*
X147782447Y-92040036D02*
X147772923Y-92059084D01*
X147839590Y-92297179D02*
X147972923Y-92297179D01*
X147839590Y-92211465D02*
X147944352Y-92211465D01*
X147944352Y-92211465D02*
X147963400Y-92220988D01*
X147963400Y-92220988D02*
X147972923Y-92240036D01*
X147972923Y-92240036D02*
X147972923Y-92268607D01*
X147972923Y-92268607D02*
X147963400Y-92287655D01*
X147963400Y-92287655D02*
X147953876Y-92297179D01*
D14*
X137630326Y-84367219D02*
X137630326Y-83367219D01*
X137630326Y-83367219D02*
X137296993Y-84081504D01*
X137296993Y-84081504D02*
X136963660Y-83367219D01*
X136963660Y-83367219D02*
X136963660Y-84367219D01*
X135963660Y-84367219D02*
X136535088Y-84367219D01*
X136249374Y-84367219D02*
X136249374Y-83367219D01*
X136249374Y-83367219D02*
X136344612Y-83510076D01*
X136344612Y-83510076D02*
X136439850Y-83605314D01*
X136439850Y-83605314D02*
X136535088Y-83652933D01*
%LPC*%
D18*
%TO.C,J2*%
X142750000Y-73750000D03*
D19*
X142750000Y-78750000D03*
%TD*%
D20*
%TO.C,J4*%
X110500000Y-72250000D03*
%TD*%
D21*
%TO.C,DBG1*%
X120250000Y-72250000D03*
D22*
X122250000Y-72250000D03*
X124250000Y-72250000D03*
%TD*%
D23*
%TO.C,M2*%
X136500000Y-90550000D03*
D24*
X136500000Y-91820000D03*
%TD*%
D25*
%TO.C,J1*%
X135890000Y-78100000D03*
X130110000Y-78100000D03*
D26*
X137320000Y-78630000D03*
D27*
X137320000Y-74450000D03*
D26*
X128680000Y-78630000D03*
D27*
X128680000Y-74450000D03*
%TD*%
D23*
%TO.C,M1*%
X136800000Y-85625000D03*
D24*
X136800000Y-86895000D03*
%TD*%
D21*
%TO.C,J3*%
X148750000Y-74250000D03*
D22*
X148750000Y-76250000D03*
X148750000Y-78250000D03*
%TD*%
%LPD*%
M02*
