G04 #@! TF.GenerationSoftware,KiCad,Pcbnew,9.0.3*
G04 #@! TF.CreationDate,2025-08-05T23:13:50-05:00*
G04 #@! TF.ProjectId,Battle_Bot_Mind,42617474-6c65-45f4-926f-745f4d696e64,rev?*
G04 #@! TF.SameCoordinates,Original*
G04 #@! TF.FileFunction,Copper,L2,Bot*
G04 #@! TF.FilePolarity,Positive*
%FSLAX46Y46*%
G04 Gerber Fmt 4.6, Leading zero omitted, Abs format (unit mm)*
G04 Created by KiCad (PCBNEW 9.0.3) date 2025-08-05 23:13:50*
%MOMM*%
%LPD*%
G01*
G04 APERTURE LIST*
G04 Aperture macros list*
%AMRoundRect*
0 Rectangle with rounded corners*
0 $1 Rounding radius*
0 $2 $3 $4 $5 $6 $7 $8 $9 X,Y pos of 4 corners*
0 Add a 4 corners polygon primitive as box body*
4,1,4,$2,$3,$4,$5,$6,$7,$8,$9,$2,$3,0*
0 Add four circle primitives for the rounded corners*
1,1,$1+$1,$2,$3*
1,1,$1+$1,$4,$5*
1,1,$1+$1,$6,$7*
1,1,$1+$1,$8,$9*
0 Add four rect primitives between the rounded corners*
20,1,$1+$1,$2,$3,$4,$5,0*
20,1,$1+$1,$4,$5,$6,$7,0*
20,1,$1+$1,$6,$7,$8,$9,0*
20,1,$1+$1,$8,$9,$2,$3,0*%
G04 Aperture macros list end*
G04 #@! TA.AperFunction,ComponentPad*
%ADD10RoundRect,0.760000X-1.140000X1.140000X-1.140000X-1.140000X1.140000X-1.140000X1.140000X1.140000X0*%
G04 #@! TD*
G04 #@! TA.AperFunction,ComponentPad*
%ADD11C,4.000000*%
G04 #@! TD*
G04 #@! TA.AperFunction,HeatsinkPad*
%ADD12C,0.600000*%
G04 #@! TD*
G04 #@! TA.AperFunction,ComponentPad*
%ADD13R,1.700000X1.700000*%
G04 #@! TD*
G04 #@! TA.AperFunction,ComponentPad*
%ADD14R,1.350000X1.350000*%
G04 #@! TD*
G04 #@! TA.AperFunction,ComponentPad*
%ADD15C,1.350000*%
G04 #@! TD*
G04 #@! TA.AperFunction,ComponentPad*
%ADD16R,1.000000X1.000000*%
G04 #@! TD*
G04 #@! TA.AperFunction,ComponentPad*
%ADD17C,1.000000*%
G04 #@! TD*
G04 #@! TA.AperFunction,HeatsinkPad*
%ADD18O,1.000000X2.100000*%
G04 #@! TD*
G04 #@! TA.AperFunction,HeatsinkPad*
%ADD19O,1.000000X1.600000*%
G04 #@! TD*
G04 #@! TA.AperFunction,ViaPad*
%ADD20C,0.600000*%
G04 #@! TD*
G04 #@! TA.AperFunction,Conductor*
%ADD21C,0.500000*%
G04 #@! TD*
G04 #@! TA.AperFunction,Conductor*
%ADD22C,0.300000*%
G04 #@! TD*
G04 APERTURE END LIST*
D10*
G04 #@! TO.P,J2,1,Pin_1*
G04 #@! TO.N,GND*
X142750000Y-73750000D03*
D11*
G04 #@! TO.P,J2,2,Pin_2*
G04 #@! TO.N,+BATT*
X142750000Y-78750000D03*
G04 #@! TD*
D12*
G04 #@! TO.P,U1,19,GND*
G04 #@! TO.N,GND*
X112850000Y-84390000D03*
X113950000Y-84390000D03*
X112300000Y-83840000D03*
X113400000Y-83840000D03*
X114500000Y-83840000D03*
X112850000Y-83290000D03*
X113950000Y-83290000D03*
X112300000Y-82740000D03*
X113400000Y-82740000D03*
X114500000Y-82740000D03*
X112850000Y-82190000D03*
X113950000Y-82190000D03*
G04 #@! TD*
D13*
G04 #@! TO.P,J4,1,Pin_1*
G04 #@! TO.N,/BOOT*
X110500000Y-72250000D03*
G04 #@! TD*
D14*
G04 #@! TO.P,DBG1,1,Pin_1*
G04 #@! TO.N,Net-(DBG1-Pin_1)*
X120250000Y-72250000D03*
D15*
G04 #@! TO.P,DBG1,2,Pin_2*
G04 #@! TO.N,GND*
X122250000Y-72250000D03*
G04 #@! TO.P,DBG1,3,Pin_3*
G04 #@! TO.N,Net-(DBG1-Pin_3)*
X124250000Y-72250000D03*
G04 #@! TD*
D16*
G04 #@! TO.P,M2,1,Pin_1*
G04 #@! TO.N,Net-(M2-Pin_1)*
X136500000Y-90550000D03*
D17*
G04 #@! TO.P,M2,2,Pin_2*
G04 #@! TO.N,Net-(M2-Pin_2)*
X136500000Y-91820000D03*
G04 #@! TD*
D18*
G04 #@! TO.P,J1,S1,SHIELD*
G04 #@! TO.N,GND*
X137320000Y-78630000D03*
D19*
X137320000Y-74450000D03*
D18*
X128680000Y-78630000D03*
D19*
X128680000Y-74450000D03*
G04 #@! TD*
D16*
G04 #@! TO.P,M1,1,Pin_1*
G04 #@! TO.N,Net-(M1-Pin_1)*
X136800000Y-85625000D03*
D17*
G04 #@! TO.P,M1,2,Pin_2*
G04 #@! TO.N,Net-(M1-Pin_2)*
X136800000Y-86895000D03*
G04 #@! TD*
D14*
G04 #@! TO.P,J3,1,Pin_1*
G04 #@! TO.N,/ESC_PWM*
X148750000Y-74250000D03*
D15*
G04 #@! TO.P,J3,2,Pin_2*
G04 #@! TO.N,+BATT*
X148750000Y-76250000D03*
G04 #@! TO.P,J3,3,Pin_3*
G04 #@! TO.N,GND*
X148750000Y-78250000D03*
G04 #@! TD*
D20*
G04 #@! TO.N,GND*
X116000000Y-73470000D03*
X129750000Y-80750000D03*
X148750000Y-80250000D03*
X120750000Y-93000000D03*
X136250000Y-80750000D03*
X147250000Y-84250000D03*
X132000000Y-82750000D03*
X134415380Y-81834620D03*
X132750000Y-86750000D03*
X132750000Y-89750000D03*
X145000000Y-93250000D03*
X112500000Y-72750000D03*
X126250000Y-72750000D03*
X149000000Y-93750000D03*
X126750000Y-82500000D03*
G04 #@! TO.N,+3V3*
X121750000Y-94200000D03*
X108000000Y-93500000D03*
G04 #@! TO.N,+BATT*
X125750000Y-83000000D03*
X124000000Y-93499000D03*
G04 #@! TO.N,/PWM_B*
X121750000Y-86000000D03*
X108700000Y-76750000D03*
G04 #@! TD*
D21*
G04 #@! TO.N,GND*
X125624000Y-73376000D02*
X126250000Y-72750000D01*
X122250000Y-72250000D02*
X123376000Y-73376000D01*
X123376000Y-73376000D02*
X125624000Y-73376000D01*
G04 #@! TO.N,+3V3*
X108250000Y-93750000D02*
X108000000Y-93500000D01*
X121749000Y-94249000D02*
X121250000Y-93750000D01*
X121250000Y-93750000D02*
X108250000Y-93750000D01*
G04 #@! TO.N,+BATT*
X128500000Y-85500000D02*
X128500000Y-91500000D01*
X142000000Y-82500000D02*
X142750000Y-81750000D01*
X140202000Y-93548000D02*
X142000000Y-91750000D01*
X130500000Y-93548000D02*
X124049000Y-93548000D01*
X128500000Y-91500000D02*
X130500000Y-93500000D01*
X130500000Y-93548000D02*
X140202000Y-93548000D01*
X124049000Y-93548000D02*
X124000000Y-93499000D01*
X126000000Y-83000000D02*
X128500000Y-85500000D01*
X142000000Y-91750000D02*
X142000000Y-82500000D01*
X130500000Y-93500000D02*
X130500000Y-93548000D01*
X142750000Y-81750000D02*
X142750000Y-78750000D01*
D22*
X142750000Y-80250000D02*
X142750000Y-78750000D01*
D21*
X125750000Y-83000000D02*
X126000000Y-83000000D01*
D22*
G04 #@! TO.N,/PWM_B*
X115001000Y-79251000D02*
X121750000Y-86000000D01*
X108750000Y-76800000D02*
X108700000Y-76750000D01*
X108700000Y-77120654D02*
X108700000Y-76750000D01*
X110830346Y-79251000D02*
X108700000Y-77120654D01*
X115000000Y-79251000D02*
X115001000Y-79251000D01*
X115000000Y-79251000D02*
X110830346Y-79251000D01*
G04 #@! TD*
G04 #@! TA.AperFunction,Conductor*
G04 #@! TO.N,GND*
G36*
X109153270Y-71020185D02*
G01*
X109199025Y-71072989D01*
X109208969Y-71142147D01*
X109202413Y-71167833D01*
X109155908Y-71292517D01*
X109149501Y-71352116D01*
X109149501Y-71352123D01*
X109149500Y-71352135D01*
X109149500Y-73147870D01*
X109149501Y-73147876D01*
X109155908Y-73207483D01*
X109206202Y-73342328D01*
X109206206Y-73342335D01*
X109292452Y-73457544D01*
X109292455Y-73457547D01*
X109407664Y-73543793D01*
X109407671Y-73543797D01*
X109542517Y-73594091D01*
X109542516Y-73594091D01*
X109549444Y-73594835D01*
X109602127Y-73600500D01*
X111397872Y-73600499D01*
X111457483Y-73594091D01*
X111592331Y-73543796D01*
X111707546Y-73457546D01*
X111793796Y-73342331D01*
X111844091Y-73207483D01*
X111850500Y-73147873D01*
X111850499Y-71352128D01*
X111844091Y-71292517D01*
X111826227Y-71244622D01*
X111797587Y-71167833D01*
X111792603Y-71098141D01*
X111826088Y-71036818D01*
X111887411Y-71003334D01*
X111913769Y-71000500D01*
X119135046Y-71000500D01*
X119202085Y-71020185D01*
X119247840Y-71072989D01*
X119257784Y-71142147D01*
X119228759Y-71205703D01*
X119222727Y-71212181D01*
X119217452Y-71217455D01*
X119131206Y-71332664D01*
X119131202Y-71332671D01*
X119080908Y-71467517D01*
X119074501Y-71527116D01*
X119074500Y-71527135D01*
X119074500Y-72972870D01*
X119074501Y-72972876D01*
X119080908Y-73032483D01*
X119131202Y-73167328D01*
X119131206Y-73167335D01*
X119217452Y-73282544D01*
X119217455Y-73282547D01*
X119332664Y-73368793D01*
X119332671Y-73368797D01*
X119467517Y-73419091D01*
X119467516Y-73419091D01*
X119474444Y-73419835D01*
X119527127Y-73425500D01*
X120972872Y-73425499D01*
X121032483Y-73419091D01*
X121167331Y-73368796D01*
X121282546Y-73282546D01*
X121346541Y-73197059D01*
X121402473Y-73155190D01*
X121472165Y-73150206D01*
X121518691Y-73171054D01*
X121634161Y-73254947D01*
X121798956Y-73338915D01*
X121798959Y-73338916D01*
X121974852Y-73396066D01*
X122157527Y-73425000D01*
X122342473Y-73425000D01*
X122525147Y-73396066D01*
X122701040Y-73338916D01*
X122701043Y-73338915D01*
X122865836Y-73254947D01*
X122865845Y-73254942D01*
X122886430Y-73239984D01*
X122886430Y-73239983D01*
X122296447Y-72650000D01*
X122302661Y-72650000D01*
X122404394Y-72622741D01*
X122495606Y-72570080D01*
X122570080Y-72495606D01*
X122622741Y-72404394D01*
X122650000Y-72302661D01*
X122650000Y-72296448D01*
X123264238Y-72910686D01*
X123299162Y-72941165D01*
X123322202Y-72972876D01*
X123353379Y-73015787D01*
X123484213Y-73146621D01*
X123633904Y-73255378D01*
X123687224Y-73282546D01*
X123798764Y-73339379D01*
X123798767Y-73339380D01*
X123886750Y-73367967D01*
X123974736Y-73396555D01*
X124157486Y-73425500D01*
X124157487Y-73425500D01*
X124342513Y-73425500D01*
X124342514Y-73425500D01*
X124525264Y-73396555D01*
X124701235Y-73339379D01*
X124866096Y-73255378D01*
X125015787Y-73146621D01*
X125146621Y-73015787D01*
X125255378Y-72866096D01*
X125339379Y-72701235D01*
X125396555Y-72525264D01*
X125401253Y-72495606D01*
X125425500Y-72342513D01*
X125425500Y-72157486D01*
X125396555Y-71974736D01*
X125339379Y-71798765D01*
X125339379Y-71798764D01*
X125296577Y-71714763D01*
X125255378Y-71633904D01*
X125146621Y-71484213D01*
X125015787Y-71353379D01*
X124866096Y-71244622D01*
X124847181Y-71234984D01*
X124796386Y-71187011D01*
X124779591Y-71119190D01*
X124802128Y-71053055D01*
X124856843Y-71009603D01*
X124903477Y-71000500D01*
X151375500Y-71000500D01*
X151442539Y-71020185D01*
X151488294Y-71072989D01*
X151499500Y-71124500D01*
X151499500Y-94375500D01*
X151479815Y-94442539D01*
X151427011Y-94488294D01*
X151375500Y-94499500D01*
X140489415Y-94499500D01*
X140422376Y-94479815D01*
X140376621Y-94427011D01*
X140366677Y-94357853D01*
X140395702Y-94294297D01*
X140441963Y-94260939D01*
X140477855Y-94246072D01*
X140557495Y-94213084D01*
X140614368Y-94175083D01*
X140680416Y-94130952D01*
X142582952Y-92228416D01*
X142632186Y-92154729D01*
X142665084Y-92105495D01*
X142721658Y-91968913D01*
X142750500Y-91823918D01*
X142750500Y-82862229D01*
X142770185Y-82795190D01*
X142786819Y-82774548D01*
X143332948Y-82228419D01*
X143332951Y-82228416D01*
X143415084Y-82105495D01*
X143471658Y-81968913D01*
X143500500Y-81823918D01*
X143500500Y-81676083D01*
X143500500Y-81224533D01*
X143520185Y-81157494D01*
X143572989Y-81111739D01*
X143583526Y-81107498D01*
X143708408Y-81063801D01*
X143961445Y-80941945D01*
X144199248Y-80792523D01*
X144418825Y-80617416D01*
X144617416Y-80418825D01*
X144792523Y-80199248D01*
X144941945Y-79961445D01*
X145063801Y-79708408D01*
X145156560Y-79443318D01*
X145219055Y-79169509D01*
X145250500Y-78890425D01*
X145250500Y-78609575D01*
X145232900Y-78453366D01*
X145219057Y-78330505D01*
X145219054Y-78330487D01*
X145184763Y-78180246D01*
X145156559Y-78056678D01*
X145156556Y-78056670D01*
X145127926Y-77974852D01*
X145063801Y-77791592D01*
X144941945Y-77538555D01*
X144792523Y-77300752D01*
X144617416Y-77081175D01*
X144418825Y-76882584D01*
X144199248Y-76707477D01*
X143961445Y-76558055D01*
X143961442Y-76558053D01*
X143708411Y-76436200D01*
X143579355Y-76391041D01*
X143522579Y-76350319D01*
X143496832Y-76285367D01*
X143510288Y-76216805D01*
X143558676Y-76166402D01*
X143620310Y-76150000D01*
X143954706Y-76150000D01*
X143954719Y-76149999D01*
X144087906Y-76139517D01*
X144087912Y-76139516D01*
X144307829Y-76084101D01*
X144307832Y-76084100D01*
X144514330Y-75990304D01*
X144514336Y-75990301D01*
X144700758Y-75861148D01*
X144700770Y-75861138D01*
X144861138Y-75700770D01*
X144861148Y-75700758D01*
X144990301Y-75514336D01*
X144990304Y-75514330D01*
X145084100Y-75307832D01*
X145084101Y-75307829D01*
X145139516Y-75087912D01*
X145139517Y-75087906D01*
X145149999Y-74954719D01*
X145150000Y-74954706D01*
X145150000Y-74000000D01*
X144077231Y-74000000D01*
X144100000Y-73856247D01*
X144100000Y-73643753D01*
X144081529Y-73527135D01*
X147574500Y-73527135D01*
X147574500Y-74972870D01*
X147574501Y-74972876D01*
X147580908Y-75032483D01*
X147631202Y-75167328D01*
X147631206Y-75167335D01*
X147717452Y-75282544D01*
X147717453Y-75282544D01*
X147717454Y-75282546D01*
X147751228Y-75307829D01*
X147802539Y-75346241D01*
X147844409Y-75402175D01*
X147849393Y-75471867D01*
X147828545Y-75518392D01*
X147744624Y-75633900D01*
X147660620Y-75798764D01*
X147660619Y-75798767D01*
X147603445Y-75974734D01*
X147586123Y-76084100D01*
X147574500Y-76157486D01*
X147574500Y-76342514D01*
X147578984Y-76370827D01*
X147603445Y-76525265D01*
X147660619Y-76701232D01*
X147660620Y-76701235D01*
X147663801Y-76707477D01*
X147744622Y-76866096D01*
X147853379Y-77015787D01*
X147984213Y-77146621D01*
X147984216Y-77146623D01*
X148058831Y-77200834D01*
X148073806Y-77220254D01*
X148703554Y-77850000D01*
X148697339Y-77850000D01*
X148595606Y-77877259D01*
X148504394Y-77929920D01*
X148429920Y-78004394D01*
X148377259Y-78095606D01*
X148350000Y-78197339D01*
X148350000Y-78203553D01*
X147760015Y-77613568D01*
X147745049Y-77634167D01*
X147661084Y-77798956D01*
X147661083Y-77798959D01*
X147603933Y-77974852D01*
X147575000Y-78157526D01*
X147575000Y-78342473D01*
X147603933Y-78525147D01*
X147661083Y-78701040D01*
X147661084Y-78701043D01*
X147745050Y-78865834D01*
X147760015Y-78886430D01*
X147760016Y-78886431D01*
X148350000Y-78296447D01*
X148350000Y-78302661D01*
X148377259Y-78404394D01*
X148429920Y-78495606D01*
X148504394Y-78570080D01*
X148595606Y-78622741D01*
X148697339Y-78650000D01*
X148703553Y-78650000D01*
X148113568Y-79239983D01*
X148113568Y-79239984D01*
X148134165Y-79254949D01*
X148298956Y-79338915D01*
X148298959Y-79338916D01*
X148474852Y-79396066D01*
X148657527Y-79425000D01*
X148842473Y-79425000D01*
X149025147Y-79396066D01*
X149201040Y-79338916D01*
X149201043Y-79338915D01*
X149365836Y-79254947D01*
X149365845Y-79254942D01*
X149386430Y-79239984D01*
X149386431Y-79239983D01*
X148796448Y-78650000D01*
X148802661Y-78650000D01*
X148904394Y-78622741D01*
X148995606Y-78570080D01*
X149070080Y-78495606D01*
X149122741Y-78404394D01*
X149150000Y-78302661D01*
X149150000Y-78296447D01*
X149739983Y-78886430D01*
X149739984Y-78886430D01*
X149754942Y-78865845D01*
X149754947Y-78865836D01*
X149838915Y-78701043D01*
X149838916Y-78701040D01*
X149896066Y-78525147D01*
X149925000Y-78342473D01*
X149925000Y-78157526D01*
X149896066Y-77974852D01*
X149838916Y-77798959D01*
X149838915Y-77798956D01*
X149754949Y-77634165D01*
X149739983Y-77613568D01*
X149150000Y-78203551D01*
X149150000Y-78197339D01*
X149122741Y-78095606D01*
X149070080Y-78004394D01*
X148995606Y-77929920D01*
X148904394Y-77877259D01*
X148802661Y-77850000D01*
X148796447Y-77850000D01*
X149410675Y-77235771D01*
X149441165Y-77200836D01*
X149515787Y-77146621D01*
X149646621Y-77015787D01*
X149755378Y-76866096D01*
X149839379Y-76701235D01*
X149896555Y-76525264D01*
X149925500Y-76342514D01*
X149925500Y-76157486D01*
X149896555Y-75974736D01*
X149839379Y-75798765D01*
X149839379Y-75798764D01*
X149789442Y-75700758D01*
X149755378Y-75633904D01*
X149671453Y-75518392D01*
X149647974Y-75452586D01*
X149663799Y-75384532D01*
X149697459Y-75346241D01*
X149782546Y-75282546D01*
X149868796Y-75167331D01*
X149919091Y-75032483D01*
X149925500Y-74972873D01*
X149925499Y-73527128D01*
X149919091Y-73467517D01*
X149915372Y-73457547D01*
X149868797Y-73332671D01*
X149868793Y-73332664D01*
X149782547Y-73217455D01*
X149782544Y-73217452D01*
X149667335Y-73131206D01*
X149667328Y-73131202D01*
X149532482Y-73080908D01*
X149532483Y-73080908D01*
X149472883Y-73074501D01*
X149472881Y-73074500D01*
X149472873Y-73074500D01*
X149472864Y-73074500D01*
X148027129Y-73074500D01*
X148027123Y-73074501D01*
X147967516Y-73080908D01*
X147832671Y-73131202D01*
X147832664Y-73131206D01*
X147717455Y-73217452D01*
X147717452Y-73217455D01*
X147631206Y-73332664D01*
X147631202Y-73332671D01*
X147580908Y-73467517D01*
X147574501Y-73527116D01*
X147574501Y-73527123D01*
X147574500Y-73527135D01*
X144081529Y-73527135D01*
X144077231Y-73500000D01*
X145150000Y-73500000D01*
X145150000Y-72545293D01*
X145149999Y-72545280D01*
X145139517Y-72412093D01*
X145139516Y-72412087D01*
X145084101Y-72192170D01*
X145084100Y-72192167D01*
X144990304Y-71985669D01*
X144990301Y-71985663D01*
X144861148Y-71799241D01*
X144861138Y-71799229D01*
X144700770Y-71638861D01*
X144700758Y-71638851D01*
X144514336Y-71509698D01*
X144514330Y-71509695D01*
X144307832Y-71415899D01*
X144307829Y-71415898D01*
X144087912Y-71360483D01*
X144087906Y-71360482D01*
X143954719Y-71350000D01*
X143000000Y-71350000D01*
X143000000Y-72422768D01*
X142856247Y-72400000D01*
X142643753Y-72400000D01*
X142500000Y-72422768D01*
X142500000Y-71350000D01*
X141545280Y-71350000D01*
X141412093Y-71360482D01*
X141412087Y-71360483D01*
X141192170Y-71415898D01*
X141192167Y-71415899D01*
X140985669Y-71509695D01*
X140985663Y-71509698D01*
X140799241Y-71638851D01*
X140799229Y-71638861D01*
X140638861Y-71799229D01*
X140638851Y-71799241D01*
X140509698Y-71985663D01*
X140509695Y-71985669D01*
X140415899Y-72192167D01*
X140415898Y-72192170D01*
X140360483Y-72412087D01*
X140360482Y-72412093D01*
X140350000Y-72545280D01*
X140350000Y-73500000D01*
X141422769Y-73500000D01*
X141400000Y-73643753D01*
X141400000Y-73856247D01*
X141422769Y-74000000D01*
X140350000Y-74000000D01*
X140350000Y-74954719D01*
X140360482Y-75087906D01*
X140360483Y-75087912D01*
X140415898Y-75307829D01*
X140415899Y-75307832D01*
X140509695Y-75514330D01*
X140509698Y-75514336D01*
X140638851Y-75700758D01*
X140638861Y-75700770D01*
X140799229Y-75861138D01*
X140799241Y-75861148D01*
X140985663Y-75990301D01*
X140985669Y-75990304D01*
X141192167Y-76084100D01*
X141192170Y-76084101D01*
X141412087Y-76139516D01*
X141412093Y-76139517D01*
X141545280Y-76149999D01*
X141545294Y-76150000D01*
X141879690Y-76150000D01*
X141946729Y-76169685D01*
X141992484Y-76222489D01*
X142002428Y-76291647D01*
X141973403Y-76355203D01*
X141920645Y-76391041D01*
X141791588Y-76436200D01*
X141538557Y-76558053D01*
X141300753Y-76707476D01*
X141081175Y-76882583D01*
X140882583Y-77081175D01*
X140707477Y-77300752D01*
X140558053Y-77538557D01*
X140436200Y-77791588D01*
X140343443Y-78056670D01*
X140343439Y-78056682D01*
X140280945Y-78330487D01*
X140280942Y-78330505D01*
X140249500Y-78609568D01*
X140249500Y-78890431D01*
X140280942Y-79169494D01*
X140280945Y-79169512D01*
X140343439Y-79443317D01*
X140343443Y-79443329D01*
X140436200Y-79708411D01*
X140558053Y-79961442D01*
X140558055Y-79961445D01*
X140707477Y-80199248D01*
X140882584Y-80418825D01*
X141081175Y-80617416D01*
X141300752Y-80792523D01*
X141538555Y-80941945D01*
X141538557Y-80941946D01*
X141791583Y-81063797D01*
X141791585Y-81063797D01*
X141791592Y-81063801D01*
X141916456Y-81107492D01*
X141935444Y-81121111D01*
X141956703Y-81130820D01*
X141963305Y-81141094D01*
X141973231Y-81148213D01*
X141981843Y-81169939D01*
X141994477Y-81189598D01*
X141997232Y-81208762D01*
X141998978Y-81213166D01*
X141999500Y-81224533D01*
X141999500Y-81387769D01*
X141979815Y-81454808D01*
X141963181Y-81475450D01*
X141417050Y-82021580D01*
X141417044Y-82021588D01*
X141367812Y-82095268D01*
X141367813Y-82095269D01*
X141334921Y-82144496D01*
X141334914Y-82144508D01*
X141278342Y-82281086D01*
X141278340Y-82281092D01*
X141249500Y-82426079D01*
X141249500Y-91387770D01*
X141229815Y-91454809D01*
X141213181Y-91475451D01*
X139927451Y-92761181D01*
X139866128Y-92794666D01*
X139839770Y-92797500D01*
X137236784Y-92797500D01*
X137169745Y-92777815D01*
X137123990Y-92725011D01*
X137114046Y-92655853D01*
X137143071Y-92592297D01*
X137149103Y-92585819D01*
X137277136Y-92457785D01*
X137277139Y-92457782D01*
X137386632Y-92293914D01*
X137462051Y-92111835D01*
X137488590Y-91978416D01*
X137500500Y-91918543D01*
X137500500Y-91721456D01*
X137462052Y-91528170D01*
X137462051Y-91528169D01*
X137462051Y-91528165D01*
X137419680Y-91425873D01*
X137412212Y-91356407D01*
X137434977Y-91304111D01*
X137443796Y-91292331D01*
X137494091Y-91157483D01*
X137500500Y-91097873D01*
X137500499Y-90002128D01*
X137494091Y-89942517D01*
X137443796Y-89807669D01*
X137443795Y-89807668D01*
X137443793Y-89807664D01*
X137357547Y-89692455D01*
X137357544Y-89692452D01*
X137242335Y-89606206D01*
X137242328Y-89606202D01*
X137107482Y-89555908D01*
X137107483Y-89555908D01*
X137047883Y-89549501D01*
X137047881Y-89549500D01*
X137047873Y-89549500D01*
X137047864Y-89549500D01*
X135952129Y-89549500D01*
X135952123Y-89549501D01*
X135892516Y-89555908D01*
X135757671Y-89606202D01*
X135757664Y-89606206D01*
X135642455Y-89692452D01*
X135642452Y-89692455D01*
X135556206Y-89807664D01*
X135556202Y-89807671D01*
X135505908Y-89942517D01*
X135499501Y-90002116D01*
X135499501Y-90002123D01*
X135499500Y-90002135D01*
X135499500Y-91097870D01*
X135499501Y-91097876D01*
X135505908Y-91157483D01*
X135556202Y-91292328D01*
X135556206Y-91292335D01*
X135565023Y-91304113D01*
X135589440Y-91369578D01*
X135580318Y-91425874D01*
X135574827Y-91439132D01*
X135537950Y-91528164D01*
X135537948Y-91528168D01*
X135537947Y-91528171D01*
X135499500Y-91721456D01*
X135499500Y-91721459D01*
X135499500Y-91918541D01*
X135499500Y-91918543D01*
X135499499Y-91918543D01*
X135537947Y-92111829D01*
X135537950Y-92111839D01*
X135613364Y-92293907D01*
X135613371Y-92293920D01*
X135722860Y-92457781D01*
X135722863Y-92457785D01*
X135850897Y-92585819D01*
X135884382Y-92647142D01*
X135879398Y-92716834D01*
X135837526Y-92772767D01*
X135772062Y-92797184D01*
X135763216Y-92797500D01*
X130910229Y-92797500D01*
X130843190Y-92777815D01*
X130822548Y-92761181D01*
X129286819Y-91225451D01*
X129253334Y-91164128D01*
X129250500Y-91137770D01*
X129250500Y-86993543D01*
X135799499Y-86993543D01*
X135837947Y-87186829D01*
X135837950Y-87186839D01*
X135913364Y-87368907D01*
X135913371Y-87368920D01*
X136022860Y-87532781D01*
X136022863Y-87532785D01*
X136162214Y-87672136D01*
X136162218Y-87672139D01*
X136326079Y-87781628D01*
X136326092Y-87781635D01*
X136508160Y-87857049D01*
X136508165Y-87857051D01*
X136508169Y-87857051D01*
X136508170Y-87857052D01*
X136701456Y-87895500D01*
X136701459Y-87895500D01*
X136898543Y-87895500D01*
X137028582Y-87869632D01*
X137091835Y-87857051D01*
X137273914Y-87781632D01*
X137437782Y-87672139D01*
X137577139Y-87532782D01*
X137686632Y-87368914D01*
X137762051Y-87186835D01*
X137800500Y-86993541D01*
X137800500Y-86796459D01*
X137800500Y-86796456D01*
X137762052Y-86603170D01*
X137762051Y-86603169D01*
X137762051Y-86603165D01*
X137719680Y-86500873D01*
X137712212Y-86431407D01*
X137734977Y-86379111D01*
X137743796Y-86367331D01*
X137794091Y-86232483D01*
X137800500Y-86172873D01*
X137800499Y-85077128D01*
X137794091Y-85017517D01*
X137743796Y-84882669D01*
X137743795Y-84882668D01*
X137743793Y-84882664D01*
X137657547Y-84767455D01*
X137657544Y-84767452D01*
X137542335Y-84681206D01*
X137542328Y-84681202D01*
X137407482Y-84630908D01*
X137407483Y-84630908D01*
X137347883Y-84624501D01*
X137347881Y-84624500D01*
X137347873Y-84624500D01*
X137347864Y-84624500D01*
X136252129Y-84624500D01*
X136252123Y-84624501D01*
X136192516Y-84630908D01*
X136057671Y-84681202D01*
X136057664Y-84681206D01*
X135942455Y-84767452D01*
X135942452Y-84767455D01*
X135856206Y-84882664D01*
X135856202Y-84882671D01*
X135805908Y-85017517D01*
X135799501Y-85077116D01*
X135799500Y-85077127D01*
X135799500Y-86172870D01*
X135799501Y-86172876D01*
X135805908Y-86232483D01*
X135856202Y-86367328D01*
X135856206Y-86367335D01*
X135865023Y-86379113D01*
X135889440Y-86444578D01*
X135880318Y-86500874D01*
X135876417Y-86510292D01*
X135837950Y-86603164D01*
X135837948Y-86603168D01*
X135837947Y-86603171D01*
X135799500Y-86796456D01*
X135799500Y-86796459D01*
X135799500Y-86993541D01*
X135799500Y-86993543D01*
X135799499Y-86993543D01*
X129250500Y-86993543D01*
X129250500Y-85426079D01*
X129221659Y-85281092D01*
X129221658Y-85281091D01*
X129221658Y-85281087D01*
X129221656Y-85281082D01*
X129165086Y-85144508D01*
X129163875Y-85142696D01*
X129120064Y-85077127D01*
X129120064Y-85077126D01*
X129082950Y-85021581D01*
X126478421Y-82417052D01*
X126478414Y-82417046D01*
X126404729Y-82367812D01*
X126404729Y-82367813D01*
X126355491Y-82334913D01*
X126218917Y-82278343D01*
X126218907Y-82278340D01*
X126073920Y-82249500D01*
X126073918Y-82249500D01*
X126054604Y-82249500D01*
X126007155Y-82240062D01*
X125983497Y-82230263D01*
X125983493Y-82230262D01*
X125983488Y-82230260D01*
X125828845Y-82199500D01*
X125828842Y-82199500D01*
X125671158Y-82199500D01*
X125671155Y-82199500D01*
X125516510Y-82230261D01*
X125516498Y-82230264D01*
X125370827Y-82290602D01*
X125370814Y-82290609D01*
X125239711Y-82378210D01*
X125239707Y-82378213D01*
X125128213Y-82489707D01*
X125128210Y-82489711D01*
X125040609Y-82620814D01*
X125040602Y-82620827D01*
X124980264Y-82766498D01*
X124980261Y-82766510D01*
X124949500Y-82921153D01*
X124949500Y-83078846D01*
X124980261Y-83233489D01*
X124980264Y-83233501D01*
X125040602Y-83379172D01*
X125040609Y-83379185D01*
X125128210Y-83510288D01*
X125128213Y-83510292D01*
X125239707Y-83621786D01*
X125239711Y-83621789D01*
X125370814Y-83709390D01*
X125370827Y-83709397D01*
X125516498Y-83769735D01*
X125516503Y-83769737D01*
X125671153Y-83800499D01*
X125671156Y-83800500D01*
X125671158Y-83800500D01*
X125687770Y-83800500D01*
X125754809Y-83820185D01*
X125775451Y-83836819D01*
X127713181Y-85774549D01*
X127746666Y-85835872D01*
X127749500Y-85862230D01*
X127749500Y-91573918D01*
X127749500Y-91573920D01*
X127749499Y-91573920D01*
X127778340Y-91718907D01*
X127778343Y-91718917D01*
X127821836Y-91823918D01*
X127834916Y-91855495D01*
X127865525Y-91901305D01*
X127865524Y-91901305D01*
X127917046Y-91978414D01*
X127917052Y-91978421D01*
X128524451Y-92585819D01*
X128557936Y-92647142D01*
X128552952Y-92716833D01*
X128511081Y-92772767D01*
X128445616Y-92797184D01*
X128436770Y-92797500D01*
X124422902Y-92797500D01*
X124375450Y-92788061D01*
X124233501Y-92729264D01*
X124233489Y-92729261D01*
X124078845Y-92698500D01*
X124078842Y-92698500D01*
X123921158Y-92698500D01*
X123921155Y-92698500D01*
X123766510Y-92729261D01*
X123766498Y-92729264D01*
X123620827Y-92789602D01*
X123620814Y-92789609D01*
X123489711Y-92877210D01*
X123489707Y-92877213D01*
X123378213Y-92988707D01*
X123378210Y-92988711D01*
X123290609Y-93119814D01*
X123290602Y-93119827D01*
X123230264Y-93265498D01*
X123230261Y-93265510D01*
X123199500Y-93420153D01*
X123199500Y-93577846D01*
X123230261Y-93732489D01*
X123230264Y-93732501D01*
X123290602Y-93878172D01*
X123290609Y-93878185D01*
X123378210Y-94009288D01*
X123378213Y-94009292D01*
X123489707Y-94120786D01*
X123489711Y-94120789D01*
X123620814Y-94208390D01*
X123620827Y-94208397D01*
X123747676Y-94260939D01*
X123802080Y-94304780D01*
X123824145Y-94371074D01*
X123806866Y-94438773D01*
X123755729Y-94486384D01*
X123700224Y-94499500D01*
X122657703Y-94499500D01*
X122590664Y-94479815D01*
X122544909Y-94427011D01*
X122534965Y-94357853D01*
X122536086Y-94351309D01*
X122550499Y-94278846D01*
X122550500Y-94278844D01*
X122550500Y-94121155D01*
X122550499Y-94121153D01*
X122528447Y-94010292D01*
X122519737Y-93966503D01*
X122483569Y-93879185D01*
X122459397Y-93820827D01*
X122459390Y-93820814D01*
X122371789Y-93689711D01*
X122371786Y-93689707D01*
X122260292Y-93578213D01*
X122260288Y-93578210D01*
X122129185Y-93490609D01*
X122129176Y-93490604D01*
X122020168Y-93445452D01*
X121979940Y-93418572D01*
X121728421Y-93167052D01*
X121728414Y-93167046D01*
X121654729Y-93117812D01*
X121654729Y-93117813D01*
X121605491Y-93084913D01*
X121468917Y-93028343D01*
X121468907Y-93028340D01*
X121323920Y-92999500D01*
X121323918Y-92999500D01*
X108682940Y-92999500D01*
X108615901Y-92979815D01*
X108595263Y-92963185D01*
X108510289Y-92878211D01*
X108510288Y-92878210D01*
X108510287Y-92878209D01*
X108379185Y-92790609D01*
X108379172Y-92790602D01*
X108233501Y-92730264D01*
X108233489Y-92730261D01*
X108078845Y-92699500D01*
X108078842Y-92699500D01*
X107921158Y-92699500D01*
X107921155Y-92699500D01*
X107766510Y-92730261D01*
X107766498Y-92730264D01*
X107620827Y-92790602D01*
X107620814Y-92790609D01*
X107489711Y-92878210D01*
X107489707Y-92878213D01*
X107378213Y-92989707D01*
X107378210Y-92989711D01*
X107290609Y-93120814D01*
X107290602Y-93120827D01*
X107230264Y-93266498D01*
X107230261Y-93266510D01*
X107199500Y-93421153D01*
X107199500Y-93578846D01*
X107230261Y-93733489D01*
X107230264Y-93733501D01*
X107290602Y-93879172D01*
X107290609Y-93879185D01*
X107378210Y-94010288D01*
X107378213Y-94010292D01*
X107489707Y-94121786D01*
X107489711Y-94121789D01*
X107620817Y-94209392D01*
X107620819Y-94209393D01*
X107620821Y-94209394D01*
X107644476Y-94219192D01*
X107651408Y-94223824D01*
X107656450Y-94224921D01*
X107684704Y-94246072D01*
X107726451Y-94287819D01*
X107759936Y-94349142D01*
X107754952Y-94418834D01*
X107713080Y-94474767D01*
X107647616Y-94499184D01*
X107638770Y-94499500D01*
X106221503Y-94499500D01*
X106154464Y-94479815D01*
X106108709Y-94427011D01*
X106097504Y-94375996D01*
X106096834Y-94208397D01*
X106093234Y-93308622D01*
X106100000Y-93285235D01*
X106100000Y-76671153D01*
X107899500Y-76671153D01*
X107899500Y-76828846D01*
X107930261Y-76983489D01*
X107930264Y-76983501D01*
X107990604Y-77129177D01*
X107990606Y-77129181D01*
X108045028Y-77210629D01*
X108063543Y-77255325D01*
X108072579Y-77300749D01*
X108074498Y-77310396D01*
X108074499Y-77310399D01*
X108123533Y-77428779D01*
X108132726Y-77442537D01*
X108187491Y-77524500D01*
X108194726Y-77535327D01*
X108194727Y-77535328D01*
X110325070Y-79665669D01*
X110415677Y-79756276D01*
X110415678Y-79756277D01*
X110522212Y-79827461D01*
X110522218Y-79827464D01*
X110522219Y-79827465D01*
X110640602Y-79876501D01*
X110640606Y-79876501D01*
X110640607Y-79876502D01*
X110766274Y-79901500D01*
X110766277Y-79901500D01*
X114680192Y-79901500D01*
X114747231Y-79921185D01*
X114767873Y-79937819D01*
X120932984Y-86102930D01*
X120966469Y-86164253D01*
X120966920Y-86166420D01*
X120980261Y-86233489D01*
X120980264Y-86233501D01*
X121040602Y-86379172D01*
X121040609Y-86379185D01*
X121128210Y-86510288D01*
X121128213Y-86510292D01*
X121239707Y-86621786D01*
X121239711Y-86621789D01*
X121370814Y-86709390D01*
X121370827Y-86709397D01*
X121516498Y-86769735D01*
X121516503Y-86769737D01*
X121650828Y-86796456D01*
X121671153Y-86800499D01*
X121671156Y-86800500D01*
X121671158Y-86800500D01*
X121828844Y-86800500D01*
X121828845Y-86800499D01*
X121983497Y-86769737D01*
X122129179Y-86709394D01*
X122260289Y-86621789D01*
X122371789Y-86510289D01*
X122459394Y-86379179D01*
X122519737Y-86233497D01*
X122550500Y-86078842D01*
X122550500Y-85921158D01*
X122550500Y-85921155D01*
X122550499Y-85921153D01*
X122519738Y-85766510D01*
X122519737Y-85766503D01*
X122519735Y-85766498D01*
X122459397Y-85620827D01*
X122459390Y-85620814D01*
X122371789Y-85489711D01*
X122371786Y-85489707D01*
X122260292Y-85378213D01*
X122260288Y-85378210D01*
X122129185Y-85290609D01*
X122129172Y-85290602D01*
X121983501Y-85230264D01*
X121983489Y-85230261D01*
X121916420Y-85216920D01*
X121854509Y-85184535D01*
X121852930Y-85182984D01*
X115586266Y-78916319D01*
X115415673Y-78745726D01*
X115415669Y-78745723D01*
X115309127Y-78674535D01*
X115249894Y-78650000D01*
X115190744Y-78625499D01*
X115190738Y-78625497D01*
X115065071Y-78600500D01*
X115065069Y-78600500D01*
X115064069Y-78600500D01*
X111151153Y-78600500D01*
X111084114Y-78580815D01*
X111063472Y-78564181D01*
X110562389Y-78063098D01*
X110480795Y-77981504D01*
X127680000Y-77981504D01*
X127680000Y-78380000D01*
X128380000Y-78380000D01*
X128380000Y-78880000D01*
X127680000Y-78880000D01*
X127680000Y-79278495D01*
X127718427Y-79471681D01*
X127718430Y-79471693D01*
X127793807Y-79653671D01*
X127793814Y-79653684D01*
X127903248Y-79817462D01*
X127903251Y-79817466D01*
X128042533Y-79956748D01*
X128042537Y-79956751D01*
X128206315Y-80066185D01*
X128206328Y-80066192D01*
X128388308Y-80141569D01*
X128430000Y-80149862D01*
X128430000Y-79346988D01*
X128439940Y-79364205D01*
X128495795Y-79420060D01*
X128564204Y-79459556D01*
X128640504Y-79480000D01*
X128719496Y-79480000D01*
X128795796Y-79459556D01*
X128864205Y-79420060D01*
X128920060Y-79364205D01*
X128930000Y-79346988D01*
X128930000Y-80149862D01*
X128971690Y-80141569D01*
X128971692Y-80141569D01*
X129153671Y-80066192D01*
X129153684Y-80066185D01*
X129317462Y-79956751D01*
X129317466Y-79956748D01*
X129456748Y-79817466D01*
X129456751Y-79817462D01*
X129566185Y-79653684D01*
X129566192Y-79653671D01*
X129641569Y-79471693D01*
X129641572Y-79471681D01*
X129679999Y-79278495D01*
X129680000Y-79278492D01*
X129680000Y-78880000D01*
X128980000Y-78880000D01*
X128980000Y-78380000D01*
X129535536Y-78380000D01*
X129602575Y-78399685D01*
X129642923Y-78442000D01*
X129649482Y-78453361D01*
X129649484Y-78453364D01*
X129649485Y-78453365D01*
X129756635Y-78560515D01*
X129887865Y-78636281D01*
X130034234Y-78675500D01*
X130034236Y-78675500D01*
X130185764Y-78675500D01*
X130185766Y-78675500D01*
X130332135Y-78636281D01*
X130463365Y-78560515D01*
X130570515Y-78453365D01*
X130646281Y-78322135D01*
X130685500Y-78175766D01*
X130685500Y-78024234D01*
X135314500Y-78024234D01*
X135314500Y-78175766D01*
X135334109Y-78248950D01*
X135353719Y-78322136D01*
X135391602Y-78387750D01*
X135429485Y-78453365D01*
X135536635Y-78560515D01*
X135667865Y-78636281D01*
X135814234Y-78675500D01*
X135814236Y-78675500D01*
X135965764Y-78675500D01*
X135965766Y-78675500D01*
X136112135Y-78636281D01*
X136243365Y-78560515D01*
X136350515Y-78453365D01*
X136357077Y-78442000D01*
X136407644Y-78393784D01*
X136464464Y-78380000D01*
X137020000Y-78380000D01*
X137020000Y-78880000D01*
X136320000Y-78880000D01*
X136320000Y-79278495D01*
X136358427Y-79471681D01*
X136358430Y-79471693D01*
X136433807Y-79653671D01*
X136433814Y-79653684D01*
X136543248Y-79817462D01*
X136543251Y-79817466D01*
X136682533Y-79956748D01*
X136682537Y-79956751D01*
X136846315Y-80066185D01*
X136846328Y-80066192D01*
X137028308Y-80141569D01*
X137070000Y-80149862D01*
X137070000Y-79346988D01*
X137079940Y-79364205D01*
X137135795Y-79420060D01*
X137204204Y-79459556D01*
X137280504Y-79480000D01*
X137359496Y-79480000D01*
X137435796Y-79459556D01*
X137504205Y-79420060D01*
X137560060Y-79364205D01*
X137570000Y-79346988D01*
X137570000Y-80149862D01*
X137611690Y-80141569D01*
X137611692Y-80141569D01*
X137793671Y-80066192D01*
X137793684Y-80066185D01*
X137957462Y-79956751D01*
X137957466Y-79956748D01*
X138096748Y-79817466D01*
X138096751Y-79817462D01*
X138206185Y-79653684D01*
X138206192Y-79653671D01*
X138281569Y-79471693D01*
X138281572Y-79471681D01*
X138319999Y-79278495D01*
X138320000Y-79278492D01*
X138320000Y-78880000D01*
X137620000Y-78880000D01*
X137620000Y-78380000D01*
X138320000Y-78380000D01*
X138320000Y-77981508D01*
X138319999Y-77981504D01*
X138281572Y-77788318D01*
X138281569Y-77788306D01*
X138206192Y-77606328D01*
X138206185Y-77606315D01*
X138096751Y-77442537D01*
X138096748Y-77442533D01*
X137957466Y-77303251D01*
X137957462Y-77303248D01*
X137793684Y-77193814D01*
X137793671Y-77193807D01*
X137611691Y-77118429D01*
X137611683Y-77118427D01*
X137570000Y-77110135D01*
X137570000Y-77913011D01*
X137560060Y-77895795D01*
X137504205Y-77839940D01*
X137435796Y-77800444D01*
X137359496Y-77780000D01*
X137280504Y-77780000D01*
X137204204Y-77800444D01*
X137135795Y-77839940D01*
X137079940Y-77895795D01*
X137070000Y-77913011D01*
X137070000Y-77110136D01*
X137069999Y-77110135D01*
X137028316Y-77118427D01*
X137028308Y-77118429D01*
X136846328Y-77193807D01*
X136846315Y-77193814D01*
X136682537Y-77303248D01*
X136682533Y-77303251D01*
X136543248Y-77442536D01*
X136430427Y-77611387D01*
X136429003Y-77610435D01*
X136385742Y-77654451D01*
X136317600Y-77669892D01*
X136251927Y-77646041D01*
X136249907Y-77644306D01*
X136249811Y-77644432D01*
X136243367Y-77639487D01*
X136243365Y-77639485D01*
X136177750Y-77601602D01*
X136112136Y-77563719D01*
X136018228Y-77538557D01*
X135965766Y-77524500D01*
X135814234Y-77524500D01*
X135667863Y-77563719D01*
X135536635Y-77639485D01*
X135536632Y-77639487D01*
X135429487Y-77746632D01*
X135429485Y-77746635D01*
X135353719Y-77877863D01*
X135348740Y-77896446D01*
X135314500Y-78024234D01*
X130685500Y-78024234D01*
X130646281Y-77877865D01*
X130570515Y-77746635D01*
X130463365Y-77639485D01*
X130397750Y-77601602D01*
X130332136Y-77563719D01*
X130238228Y-77538557D01*
X130185766Y-77524500D01*
X130034234Y-77524500D01*
X129887863Y-77563719D01*
X129756635Y-77639485D01*
X129750189Y-77644432D01*
X129748099Y-77641709D01*
X129700217Y-77667466D01*
X129630558Y-77662043D01*
X129574888Y-77619821D01*
X129569299Y-77610976D01*
X129456751Y-77442537D01*
X129456748Y-77442533D01*
X129317466Y-77303251D01*
X129317462Y-77303248D01*
X129153684Y-77193814D01*
X129153671Y-77193807D01*
X128971691Y-77118429D01*
X128971683Y-77118427D01*
X128930000Y-77110135D01*
X128930000Y-77913011D01*
X128920060Y-77895795D01*
X128864205Y-77839940D01*
X128795796Y-77800444D01*
X128719496Y-77780000D01*
X128640504Y-77780000D01*
X128564204Y-77800444D01*
X128495795Y-77839940D01*
X128439940Y-77895795D01*
X128430000Y-77913011D01*
X128430000Y-77110136D01*
X128429999Y-77110135D01*
X128388316Y-77118427D01*
X128388308Y-77118429D01*
X128206328Y-77193807D01*
X128206315Y-77193814D01*
X128042537Y-77303248D01*
X128042533Y-77303251D01*
X127903251Y-77442533D01*
X127903248Y-77442537D01*
X127793814Y-77606315D01*
X127793807Y-77606328D01*
X127718430Y-77788306D01*
X127718427Y-77788318D01*
X127680000Y-77981504D01*
X110480795Y-77981504D01*
X110279291Y-77780000D01*
X109518769Y-77019477D01*
X109485284Y-76958154D01*
X109484833Y-76907604D01*
X109500500Y-76828844D01*
X109500500Y-76671155D01*
X109500499Y-76671153D01*
X109471480Y-76525265D01*
X109469737Y-76516503D01*
X109436475Y-76436200D01*
X109409397Y-76370827D01*
X109409390Y-76370814D01*
X109321789Y-76239711D01*
X109321786Y-76239707D01*
X109210292Y-76128213D01*
X109210288Y-76128210D01*
X109079185Y-76040609D01*
X109079172Y-76040602D01*
X108933501Y-75980264D01*
X108933489Y-75980261D01*
X108778845Y-75949500D01*
X108778842Y-75949500D01*
X108621158Y-75949500D01*
X108621155Y-75949500D01*
X108466510Y-75980261D01*
X108466498Y-75980264D01*
X108320827Y-76040602D01*
X108320814Y-76040609D01*
X108189711Y-76128210D01*
X108189707Y-76128213D01*
X108078213Y-76239707D01*
X108078210Y-76239711D01*
X107990609Y-76370814D01*
X107990602Y-76370827D01*
X107930264Y-76516498D01*
X107930261Y-76516510D01*
X107899500Y-76671153D01*
X106100000Y-76671153D01*
X106100000Y-75250000D01*
X106081499Y-75231499D01*
X106077466Y-75230315D01*
X106031711Y-75177511D01*
X106020506Y-75126496D01*
X106018597Y-74649134D01*
X106016206Y-74051504D01*
X127680000Y-74051504D01*
X127680000Y-74200000D01*
X128380000Y-74200000D01*
X128380000Y-74700000D01*
X127680000Y-74700000D01*
X127680000Y-74848495D01*
X127718427Y-75041681D01*
X127718430Y-75041693D01*
X127793807Y-75223671D01*
X127793814Y-75223684D01*
X127903248Y-75387462D01*
X127903251Y-75387466D01*
X128042533Y-75526748D01*
X128042537Y-75526751D01*
X128206315Y-75636185D01*
X128206328Y-75636192D01*
X128388308Y-75711569D01*
X128430000Y-75719862D01*
X128430000Y-74916988D01*
X128439940Y-74934205D01*
X128495795Y-74990060D01*
X128564204Y-75029556D01*
X128640504Y-75050000D01*
X128719496Y-75050000D01*
X128795796Y-75029556D01*
X128864205Y-74990060D01*
X128920060Y-74934205D01*
X128930000Y-74916988D01*
X128930000Y-75719862D01*
X128971690Y-75711569D01*
X128971692Y-75711569D01*
X129153671Y-75636192D01*
X129153684Y-75636185D01*
X129317462Y-75526751D01*
X129317466Y-75526748D01*
X129456748Y-75387466D01*
X129456751Y-75387462D01*
X129566185Y-75223684D01*
X129566192Y-75223671D01*
X129641569Y-75041693D01*
X129641572Y-75041681D01*
X129679999Y-74848495D01*
X129680000Y-74848492D01*
X129680000Y-74700000D01*
X128980000Y-74700000D01*
X128980000Y-74200000D01*
X129680000Y-74200000D01*
X129680000Y-74051508D01*
X129679999Y-74051504D01*
X136320000Y-74051504D01*
X136320000Y-74200000D01*
X137020000Y-74200000D01*
X137020000Y-74700000D01*
X136320000Y-74700000D01*
X136320000Y-74848495D01*
X136358427Y-75041681D01*
X136358430Y-75041693D01*
X136433807Y-75223671D01*
X136433814Y-75223684D01*
X136543248Y-75387462D01*
X136543251Y-75387466D01*
X136682533Y-75526748D01*
X136682537Y-75526751D01*
X136846315Y-75636185D01*
X136846328Y-75636192D01*
X137028308Y-75711569D01*
X137070000Y-75719862D01*
X137070000Y-74916988D01*
X137079940Y-74934205D01*
X137135795Y-74990060D01*
X137204204Y-75029556D01*
X137280504Y-75050000D01*
X137359496Y-75050000D01*
X137435796Y-75029556D01*
X137504205Y-74990060D01*
X137560060Y-74934205D01*
X137570000Y-74916988D01*
X137570000Y-75719862D01*
X137611690Y-75711569D01*
X137611692Y-75711569D01*
X137793671Y-75636192D01*
X137793684Y-75636185D01*
X137957462Y-75526751D01*
X137957466Y-75526748D01*
X138096748Y-75387466D01*
X138096751Y-75387462D01*
X138206185Y-75223684D01*
X138206192Y-75223671D01*
X138281569Y-75041693D01*
X138281572Y-75041681D01*
X138319999Y-74848495D01*
X138320000Y-74848492D01*
X138320000Y-74700000D01*
X137620000Y-74700000D01*
X137620000Y-74200000D01*
X138320000Y-74200000D01*
X138320000Y-74051508D01*
X138319999Y-74051504D01*
X138281572Y-73858318D01*
X138281569Y-73858306D01*
X138206192Y-73676328D01*
X138206185Y-73676315D01*
X138096751Y-73512537D01*
X138096748Y-73512533D01*
X137957466Y-73373251D01*
X137957462Y-73373248D01*
X137793684Y-73263814D01*
X137793671Y-73263807D01*
X137611691Y-73188429D01*
X137611683Y-73188427D01*
X137570000Y-73180135D01*
X137570000Y-73983011D01*
X137560060Y-73965795D01*
X137504205Y-73909940D01*
X137435796Y-73870444D01*
X137359496Y-73850000D01*
X137280504Y-73850000D01*
X137204204Y-73870444D01*
X137135795Y-73909940D01*
X137079940Y-73965795D01*
X137070000Y-73983011D01*
X137070000Y-73180136D01*
X137069999Y-73180135D01*
X137028316Y-73188427D01*
X137028308Y-73188429D01*
X136846328Y-73263807D01*
X136846315Y-73263814D01*
X136682537Y-73373248D01*
X136682533Y-73373251D01*
X136543251Y-73512533D01*
X136543248Y-73512537D01*
X136433814Y-73676315D01*
X136433807Y-73676328D01*
X136358430Y-73858306D01*
X136358427Y-73858318D01*
X136320000Y-74051504D01*
X129679999Y-74051504D01*
X129641572Y-73858318D01*
X129641569Y-73858306D01*
X129566192Y-73676328D01*
X129566185Y-73676315D01*
X129456751Y-73512537D01*
X129456748Y-73512533D01*
X129317466Y-73373251D01*
X129317462Y-73373248D01*
X129153684Y-73263814D01*
X129153671Y-73263807D01*
X128971691Y-73188429D01*
X128971683Y-73188427D01*
X128930000Y-73180135D01*
X128930000Y-73983011D01*
X128920060Y-73965795D01*
X128864205Y-73909940D01*
X128795796Y-73870444D01*
X128719496Y-73850000D01*
X128640504Y-73850000D01*
X128564204Y-73870444D01*
X128495795Y-73909940D01*
X128439940Y-73965795D01*
X128430000Y-73983011D01*
X128430000Y-73180136D01*
X128429999Y-73180135D01*
X128388316Y-73188427D01*
X128388308Y-73188429D01*
X128206328Y-73263807D01*
X128206315Y-73263814D01*
X128042537Y-73373248D01*
X128042533Y-73373251D01*
X127903251Y-73512533D01*
X127903248Y-73512537D01*
X127793814Y-73676315D01*
X127793807Y-73676328D01*
X127718430Y-73858306D01*
X127718427Y-73858318D01*
X127680000Y-74051504D01*
X106016206Y-74051504D01*
X106016184Y-74045913D01*
X106004500Y-71124996D01*
X106023916Y-71057878D01*
X106076537Y-71011913D01*
X106128499Y-71000500D01*
X109086231Y-71000500D01*
X109153270Y-71020185D01*
G37*
G04 #@! TD.AperFunction*
G04 #@! TA.AperFunction,Conductor*
G36*
X123663562Y-71020185D02*
G01*
X123709317Y-71072989D01*
X123719261Y-71142147D01*
X123690236Y-71205703D01*
X123652818Y-71234985D01*
X123633903Y-71244622D01*
X123567982Y-71292517D01*
X123484213Y-71353379D01*
X123484211Y-71353381D01*
X123484210Y-71353381D01*
X123353378Y-71484213D01*
X123299163Y-71558833D01*
X123279745Y-71573805D01*
X122650000Y-72203551D01*
X122650000Y-72197339D01*
X122622741Y-72095606D01*
X122570080Y-72004394D01*
X122495606Y-71929920D01*
X122404394Y-71877259D01*
X122302661Y-71850000D01*
X122296446Y-71850000D01*
X122886430Y-71260015D01*
X122865834Y-71245050D01*
X122846080Y-71234985D01*
X122795284Y-71187011D01*
X122778489Y-71119190D01*
X122801026Y-71053055D01*
X122855741Y-71009603D01*
X122902375Y-71000500D01*
X123596523Y-71000500D01*
X123663562Y-71020185D01*
G37*
G04 #@! TD.AperFunction*
G04 #@! TD*
M02*
