%TF.GenerationSoftware,KiCad,Pcbnew,9.0.3*%
%TF.CreationDate,2025-07-29T11:21:32-06:00*%
%TF.ProjectId,Battle_Bot_Mind,42617474-6c65-45f4-926f-745f4d696e64,rev?*%
%TF.SameCoordinates,Original*%
%TF.FileFunction,Soldermask,Top*%
%TF.FilePolarity,Negative*%
%FSLAX46Y46*%
G04 Gerber Fmt 4.6, Leading zero omitted, Abs format (unit mm)*
G04 Created by KiCad (PCBNEW 9.0.3) date 2025-07-29 11:21:32*
%MOMM*%
%LPD*%
G01*
G04 APERTURE LIST*
G04 Aperture macros list*
%AMRoundRect*
0 Rectangle with rounded corners*
0 $1 Rounding radius*
0 $2 $3 $4 $5 $6 $7 $8 $9 X,Y pos of 4 corners*
0 Add a 4 corners polygon primitive as box body*
4,1,4,$2,$3,$4,$5,$6,$7,$8,$9,$2,$3,0*
0 Add four circle primitives for the rounded corners*
1,1,$1+$1,$2,$3*
1,1,$1+$1,$4,$5*
1,1,$1+$1,$6,$7*
1,1,$1+$1,$8,$9*
0 Add four rect primitives between the rounded corners*
20,1,$1+$1,$2,$3,$4,$5,0*
20,1,$1+$1,$4,$5,$6,$7,0*
20,1,$1+$1,$6,$7,$8,$9,0*
20,1,$1+$1,$8,$9,$2,$3,0*%
G04 Aperture macros list end*
%ADD10RoundRect,0.760000X-1.140000X1.140000X-1.140000X-1.140000X1.140000X-1.140000X1.140000X1.140000X0*%
%ADD11C,4.000000*%
%ADD12R,0.900000X1.500000*%
%ADD13C,0.600000*%
%ADD14R,2.900000X2.900000*%
%ADD15R,1.700000X1.700000*%
%ADD16RoundRect,0.160000X0.197500X0.160000X-0.197500X0.160000X-0.197500X-0.160000X0.197500X-0.160000X0*%
%ADD17R,1.350000X1.350000*%
%ADD18C,1.350000*%
%ADD19RoundRect,0.160000X0.160000X-0.197500X0.160000X0.197500X-0.160000X0.197500X-0.160000X-0.197500X0*%
%ADD20C,0.650000*%
%ADD21R,0.600000X1.450000*%
%ADD22R,0.300000X1.450000*%
%ADD23O,1.000000X2.100000*%
%ADD24O,1.000000X1.600000*%
%ADD25RoundRect,0.147500X0.172500X-0.147500X0.172500X0.147500X-0.172500X0.147500X-0.172500X-0.147500X0*%
%ADD26RoundRect,0.250000X-0.475000X0.250000X-0.475000X-0.250000X0.475000X-0.250000X0.475000X0.250000X0*%
%ADD27RoundRect,0.135000X0.185000X-0.135000X0.185000X0.135000X-0.185000X0.135000X-0.185000X-0.135000X0*%
%ADD28RoundRect,0.375000X-0.625000X-0.375000X0.625000X-0.375000X0.625000X0.375000X-0.625000X0.375000X0*%
%ADD29RoundRect,0.500000X-0.500000X-1.400000X0.500000X-1.400000X0.500000X1.400000X-0.500000X1.400000X0*%
%ADD30RoundRect,0.140000X-0.170000X0.140000X-0.170000X-0.140000X0.170000X-0.140000X0.170000X0.140000X0*%
%ADD31RoundRect,0.150000X-0.625000X0.150000X-0.625000X-0.150000X0.625000X-0.150000X0.625000X0.150000X0*%
%ADD32RoundRect,0.250000X-0.650000X0.350000X-0.650000X-0.350000X0.650000X-0.350000X0.650000X0.350000X0*%
%ADD33RoundRect,0.062500X0.062500X-0.325000X0.062500X0.325000X-0.062500X0.325000X-0.062500X-0.325000X0*%
%ADD34RoundRect,0.062500X0.325000X-0.062500X0.325000X0.062500X-0.325000X0.062500X-0.325000X-0.062500X0*%
%ADD35R,1.800000X1.800000*%
%ADD36RoundRect,0.250000X-0.250000X-0.475000X0.250000X-0.475000X0.250000X0.475000X-0.250000X0.475000X0*%
%ADD37RoundRect,0.250000X0.250000X0.475000X-0.250000X0.475000X-0.250000X-0.475000X0.250000X-0.475000X0*%
G04 APERTURE END LIST*
D10*
%TO.C,J2*%
X142750000Y-73750000D03*
D11*
X142750000Y-78750000D03*
%TD*%
D12*
%TO.C,U1*%
X107200000Y-93000000D03*
X108700000Y-93000000D03*
X110200000Y-93000000D03*
X111700000Y-93000000D03*
X113200000Y-93000000D03*
X114700000Y-93000000D03*
X116200000Y-93000000D03*
X117700000Y-93000000D03*
X119200000Y-93000000D03*
X119200000Y-75500000D03*
X117700000Y-75500000D03*
X116200000Y-75500000D03*
X114700000Y-75500000D03*
X113200000Y-75500000D03*
X111700000Y-75500000D03*
X110200000Y-75500000D03*
X108700000Y-75500000D03*
X107200000Y-75500000D03*
D13*
X112850000Y-84390000D03*
X113950000Y-84390000D03*
X112300000Y-83840000D03*
X113400000Y-83840000D03*
X114500000Y-83840000D03*
X112850000Y-83290000D03*
D14*
X113400000Y-83290000D03*
D13*
X113950000Y-83290000D03*
X112300000Y-82740000D03*
X113400000Y-82740000D03*
X114500000Y-82740000D03*
X112850000Y-82190000D03*
X113950000Y-82190000D03*
%TD*%
D15*
%TO.C,J4*%
X107750000Y-72500000D03*
%TD*%
D16*
%TO.C,R6*%
X123597500Y-76788000D03*
X122402500Y-76788000D03*
%TD*%
D17*
%TO.C,DBG1*%
X115250000Y-72250000D03*
D18*
X117250000Y-72250000D03*
X119250000Y-72250000D03*
%TD*%
D16*
%TO.C,R5*%
X123597500Y-78038000D03*
X122402500Y-78038000D03*
%TD*%
D19*
%TO.C,R1*%
X136000000Y-83695000D03*
X136000000Y-82500000D03*
%TD*%
D20*
%TO.C,J1*%
X135890000Y-78100000D03*
X130110000Y-78100000D03*
D21*
X136250000Y-79545000D03*
X135450000Y-79545000D03*
D22*
X134250000Y-79545000D03*
X133250000Y-79545000D03*
X132750000Y-79545000D03*
X131750000Y-79545000D03*
D21*
X130550000Y-79545000D03*
X129750000Y-79545000D03*
X129750000Y-79545000D03*
X130550000Y-79545000D03*
D22*
X131250000Y-79545000D03*
X132250000Y-79545000D03*
X133750000Y-79545000D03*
X134750000Y-79545000D03*
D21*
X135450000Y-79545000D03*
X136250000Y-79545000D03*
D23*
X137320000Y-78630000D03*
D24*
X137320000Y-74450000D03*
D23*
X128680000Y-78630000D03*
D24*
X128680000Y-74450000D03*
%TD*%
D25*
%TO.C,D2*%
X110500000Y-72750000D03*
X110500000Y-71780000D03*
%TD*%
D26*
%TO.C,C1*%
X125750000Y-79000000D03*
X125750000Y-80900000D03*
%TD*%
D27*
%TO.C,R3*%
X111750000Y-72750000D03*
X111750000Y-71730000D03*
%TD*%
%TO.C,R8*%
X123500000Y-85500000D03*
X123500000Y-84480000D03*
%TD*%
D28*
%TO.C,U4*%
X144100000Y-84200000D03*
X144100000Y-86500000D03*
D29*
X150400000Y-86500000D03*
D28*
X144100000Y-88800000D03*
%TD*%
D30*
%TO.C,C9*%
X122270000Y-84510000D03*
X122270000Y-85470000D03*
%TD*%
D31*
%TO.C,M1*%
X129000000Y-85000000D03*
X129000000Y-86000000D03*
D32*
X131525000Y-83700000D03*
X131525000Y-87300000D03*
%TD*%
D33*
%TO.C,U3*%
X124000000Y-89737500D03*
X124500000Y-89737500D03*
X125000000Y-89737500D03*
X125500000Y-89737500D03*
D34*
X126237500Y-89000000D03*
X126237500Y-88500000D03*
X126237500Y-88000000D03*
X126237500Y-87500000D03*
D33*
X125500000Y-86762500D03*
X125000000Y-86762500D03*
X124500000Y-86762500D03*
X124000000Y-86762500D03*
D34*
X123262500Y-87500000D03*
X123262500Y-88000000D03*
X123262500Y-88500000D03*
X123262500Y-89000000D03*
D35*
X124750000Y-88250000D03*
%TD*%
D36*
%TO.C,C6*%
X137590000Y-91250000D03*
X139490000Y-91250000D03*
%TD*%
D37*
%TO.C,C5*%
X148150000Y-92000000D03*
X146250000Y-92000000D03*
%TD*%
D19*
%TO.C,R2*%
X134750000Y-83695000D03*
X134750000Y-82500000D03*
%TD*%
D31*
%TO.C,M2*%
X129000000Y-91000000D03*
X129000000Y-92000000D03*
D32*
X131525000Y-89700000D03*
X131525000Y-93300000D03*
%TD*%
D17*
%TO.C,J3*%
X148750000Y-74250000D03*
D18*
X148750000Y-76250000D03*
X148750000Y-78250000D03*
%TD*%
M02*
