%TF.GenerationSoftware,KiCad,Pcbnew,9.0.3*%
%TF.CreationDate,2025-07-29T11:04:15-06:00*%
%TF.ProjectId,Battle_Bot_Mind,42617474-6c65-45f4-926f-745f4d696e64,rev?*%
%TF.SameCoordinates,Original*%
%TF.FileFunction,Copper,L2,Bot*%
%TF.FilePolarity,Positive*%
%FSLAX46Y46*%
G04 Gerber Fmt 4.6, Leading zero omitted, Abs format (unit mm)*
G04 Created by KiCad (PCBNEW 9.0.3) date 2025-07-29 11:04:15*
%MOMM*%
%LPD*%
G01*
G04 APERTURE LIST*
G04 Aperture macros list*
%AMRoundRect*
0 Rectangle with rounded corners*
0 $1 Rounding radius*
0 $2 $3 $4 $5 $6 $7 $8 $9 X,Y pos of 4 corners*
0 Add a 4 corners polygon primitive as box body*
4,1,4,$2,$3,$4,$5,$6,$7,$8,$9,$2,$3,0*
0 Add four circle primitives for the rounded corners*
1,1,$1+$1,$2,$3*
1,1,$1+$1,$4,$5*
1,1,$1+$1,$6,$7*
1,1,$1+$1,$8,$9*
0 Add four rect primitives between the rounded corners*
20,1,$1+$1,$2,$3,$4,$5,0*
20,1,$1+$1,$4,$5,$6,$7,0*
20,1,$1+$1,$6,$7,$8,$9,0*
20,1,$1+$1,$8,$9,$2,$3,0*%
G04 Aperture macros list end*
%TA.AperFunction,ComponentPad*%
%ADD10RoundRect,0.760000X-1.140000X1.140000X-1.140000X-1.140000X1.140000X-1.140000X1.140000X1.140000X0*%
%TD*%
%TA.AperFunction,ComponentPad*%
%ADD11C,4.000000*%
%TD*%
%TA.AperFunction,HeatsinkPad*%
%ADD12C,0.600000*%
%TD*%
%TA.AperFunction,ComponentPad*%
%ADD13R,1.700000X1.700000*%
%TD*%
%TA.AperFunction,ComponentPad*%
%ADD14R,1.350000X1.350000*%
%TD*%
%TA.AperFunction,ComponentPad*%
%ADD15C,1.350000*%
%TD*%
%TA.AperFunction,HeatsinkPad*%
%ADD16O,1.000000X2.100000*%
%TD*%
%TA.AperFunction,HeatsinkPad*%
%ADD17O,1.000000X1.600000*%
%TD*%
%TA.AperFunction,ViaPad*%
%ADD18C,0.600000*%
%TD*%
%TA.AperFunction,Conductor*%
%ADD19C,0.500000*%
%TD*%
%TA.AperFunction,Conductor*%
%ADD20C,0.300000*%
%TD*%
G04 APERTURE END LIST*
D10*
%TO.P,J2,1,Pin_1*%
%TO.N,GND*%
X142750000Y-73750000D03*
D11*
%TO.P,J2,2,Pin_2*%
%TO.N,+BATT*%
X142750000Y-78750000D03*
%TD*%
D12*
%TO.P,U1,19,GND*%
%TO.N,GND*%
X112850000Y-84390000D03*
X113950000Y-84390000D03*
X112300000Y-83840000D03*
X113400000Y-83840000D03*
X114500000Y-83840000D03*
X112850000Y-83290000D03*
X113950000Y-83290000D03*
X112300000Y-82740000D03*
X113400000Y-82740000D03*
X114500000Y-82740000D03*
X112850000Y-82190000D03*
X113950000Y-82190000D03*
%TD*%
D13*
%TO.P,J4,1,Pin_1*%
%TO.N,/BOOT*%
X107750000Y-72500000D03*
%TD*%
D14*
%TO.P,DBG1,1,Pin_1*%
%TO.N,Net-(DBG1-Pin_1)*%
X115250000Y-72250000D03*
D15*
%TO.P,DBG1,2,Pin_2*%
%TO.N,GND*%
X117250000Y-72250000D03*
%TO.P,DBG1,3,Pin_3*%
%TO.N,Net-(DBG1-Pin_3)*%
X119250000Y-72250000D03*
%TD*%
D16*
%TO.P,J1,S1,SHIELD*%
%TO.N,GND*%
X137320000Y-78630000D03*
D17*
X137320000Y-74450000D03*
D16*
X128680000Y-78630000D03*
D17*
X128680000Y-74450000D03*
%TD*%
D14*
%TO.P,J3,1,Pin_1*%
%TO.N,/ESC_PWM*%
X148750000Y-74250000D03*
D15*
%TO.P,J3,2,Pin_2*%
%TO.N,+BATT*%
X148750000Y-76250000D03*
%TO.P,J3,3,Pin_3*%
%TO.N,GND*%
X148750000Y-78250000D03*
%TD*%
D18*
%TO.N,+BATT*%
X129250000Y-89000000D03*
%TO.N,GND*%
X129250000Y-87500000D03*
X123500000Y-92000000D03*
X141000000Y-90250000D03*
X110500000Y-73500000D03*
X129750000Y-80750000D03*
X148750000Y-80250000D03*
X124750000Y-88250000D03*
X134750000Y-84500000D03*
X120750000Y-93000000D03*
X136250000Y-80750000D03*
X136000000Y-84500000D03*
X147250000Y-84250000D03*
X122250000Y-86250000D03*
X128250000Y-87500000D03*
X144750000Y-92000000D03*
X121250000Y-72750000D03*
X126750000Y-82500000D03*
%TO.N,+3V3*%
X147250000Y-86500000D03*
X125500000Y-84500000D03*
X108000000Y-93500000D03*
%TO.N,/ESC_PWM*%
X120500000Y-75500000D03*
%TO.N,/SENSE_A*%
X126500000Y-90500000D03*
X108700000Y-76750000D03*
%TO.N,/SENSE_B*%
X110250000Y-76750000D03*
X127000000Y-85650000D03*
%TO.N,+BATT*%
X128250000Y-89000000D03*
%TD*%
D19*
%TO.N,+BATT*%
X134250000Y-89000000D02*
X128250000Y-89000000D01*
X140250000Y-83000000D02*
X134250000Y-89000000D01*
X140250000Y-83000000D02*
X142750000Y-80500000D01*
X142750000Y-80500000D02*
X142750000Y-78750000D01*
X140000000Y-83250000D02*
X140250000Y-83000000D01*
%TO.N,GND*%
X120624000Y-73376000D02*
X121250000Y-72750000D01*
X117250000Y-72250000D02*
X118376000Y-73376000D01*
X118376000Y-73376000D02*
X120624000Y-73376000D01*
%TO.N,+3V3*%
X147250000Y-86500000D02*
X140000000Y-93750000D01*
X125000000Y-93750000D02*
X108250000Y-93750000D01*
X125501000Y-93249000D02*
X125000000Y-93750000D01*
X140000000Y-93750000D02*
X125000000Y-93750000D01*
X108250000Y-93750000D02*
X108000000Y-93500000D01*
X125500000Y-84500000D02*
X125500000Y-85500000D01*
X125500000Y-85500000D02*
X125501000Y-85501000D01*
X125501000Y-85501000D02*
X125501000Y-93249000D01*
D20*
%TO.N,+BATT*%
X142750000Y-80250000D02*
X142750000Y-78750000D01*
%TO.N,/ESC_PWM*%
X135625000Y-76250000D02*
X146750000Y-76250000D01*
X121750000Y-74250000D02*
X127000000Y-74250000D01*
X128250000Y-73000000D02*
X132375000Y-73000000D01*
X121750000Y-74250000D02*
X120500000Y-75500000D01*
X132375000Y-73000000D02*
X135625000Y-76250000D01*
X146750000Y-76250000D02*
X148750000Y-74250000D01*
X127000000Y-74250000D02*
X128250000Y-73000000D01*
%TO.N,/SENSE_A*%
X126349000Y-90349000D02*
X126349000Y-84057520D01*
X108750000Y-76800000D02*
X108700000Y-76750000D01*
X126500000Y-90500000D02*
X126349000Y-90349000D01*
X126349000Y-84057520D02*
X121542480Y-79251000D01*
X121542480Y-79251000D02*
X110830346Y-79251000D01*
X108700000Y-77120654D02*
X108700000Y-76750000D01*
X110830346Y-79251000D02*
X108700000Y-77120654D01*
%TO.N,/SENSE_B*%
X127000000Y-84000000D02*
X127000000Y-85650000D01*
X110250000Y-77962134D02*
X111037866Y-78750000D01*
X121750000Y-78750000D02*
X127000000Y-84000000D01*
X111037866Y-78750000D02*
X121750000Y-78750000D01*
X110250000Y-76750000D02*
X110250000Y-77962134D01*
%TD*%
%TA.AperFunction,Conductor*%
%TO.N,GND*%
G36*
X106626936Y-71020185D02*
G01*
X106672691Y-71072989D01*
X106682635Y-71142147D01*
X106653610Y-71205703D01*
X106634208Y-71223766D01*
X106542455Y-71292452D01*
X106542452Y-71292455D01*
X106456206Y-71407664D01*
X106456202Y-71407671D01*
X106405908Y-71542517D01*
X106399501Y-71602116D01*
X106399501Y-71602123D01*
X106399500Y-71602135D01*
X106399500Y-73397870D01*
X106399501Y-73397876D01*
X106405908Y-73457483D01*
X106456202Y-73592328D01*
X106456206Y-73592335D01*
X106542452Y-73707544D01*
X106542455Y-73707547D01*
X106657664Y-73793793D01*
X106657671Y-73793797D01*
X106792517Y-73844091D01*
X106792516Y-73844091D01*
X106799444Y-73844835D01*
X106852127Y-73850500D01*
X108647872Y-73850499D01*
X108707483Y-73844091D01*
X108842331Y-73793796D01*
X108957546Y-73707546D01*
X109043796Y-73592331D01*
X109094091Y-73457483D01*
X109100500Y-73397873D01*
X109100499Y-71602128D01*
X109094091Y-71542517D01*
X109088351Y-71527128D01*
X109043797Y-71407671D01*
X109043793Y-71407664D01*
X108957547Y-71292455D01*
X108957544Y-71292452D01*
X108865792Y-71223766D01*
X108823921Y-71167832D01*
X108818937Y-71098141D01*
X108852423Y-71036818D01*
X108913746Y-71003334D01*
X108940103Y-71000500D01*
X114135046Y-71000500D01*
X114202085Y-71020185D01*
X114247840Y-71072989D01*
X114257784Y-71142147D01*
X114228759Y-71205703D01*
X114222727Y-71212181D01*
X114217452Y-71217455D01*
X114131206Y-71332664D01*
X114131202Y-71332671D01*
X114080908Y-71467517D01*
X114074501Y-71527116D01*
X114074500Y-71527135D01*
X114074500Y-72972870D01*
X114074501Y-72972876D01*
X114080908Y-73032483D01*
X114131202Y-73167328D01*
X114131206Y-73167335D01*
X114217452Y-73282544D01*
X114217455Y-73282547D01*
X114332664Y-73368793D01*
X114332671Y-73368797D01*
X114467517Y-73419091D01*
X114467516Y-73419091D01*
X114474444Y-73419835D01*
X114527127Y-73425500D01*
X115972872Y-73425499D01*
X116032483Y-73419091D01*
X116167331Y-73368796D01*
X116282546Y-73282546D01*
X116346541Y-73197059D01*
X116402473Y-73155190D01*
X116472165Y-73150206D01*
X116518691Y-73171054D01*
X116634161Y-73254947D01*
X116798956Y-73338915D01*
X116798959Y-73338916D01*
X116974852Y-73396066D01*
X117157527Y-73425000D01*
X117342473Y-73425000D01*
X117525147Y-73396066D01*
X117701040Y-73338916D01*
X117701043Y-73338915D01*
X117865836Y-73254947D01*
X117865845Y-73254942D01*
X117886430Y-73239984D01*
X117886430Y-73239983D01*
X117296447Y-72650000D01*
X117302661Y-72650000D01*
X117404394Y-72622741D01*
X117495606Y-72570080D01*
X117570080Y-72495606D01*
X117622741Y-72404394D01*
X117650000Y-72302661D01*
X117650000Y-72296447D01*
X118264238Y-72910686D01*
X118299162Y-72941165D01*
X118322202Y-72972876D01*
X118353379Y-73015787D01*
X118484213Y-73146621D01*
X118633904Y-73255378D01*
X118687224Y-73282546D01*
X118798764Y-73339379D01*
X118798767Y-73339380D01*
X118886750Y-73367967D01*
X118974736Y-73396555D01*
X119157486Y-73425500D01*
X119157487Y-73425500D01*
X119342513Y-73425500D01*
X119342514Y-73425500D01*
X119525264Y-73396555D01*
X119701235Y-73339379D01*
X119866096Y-73255378D01*
X120015787Y-73146621D01*
X120146621Y-73015787D01*
X120255378Y-72866096D01*
X120339379Y-72701235D01*
X120396555Y-72525264D01*
X120425500Y-72342514D01*
X120425500Y-72157486D01*
X120396555Y-71974736D01*
X120339379Y-71798765D01*
X120339379Y-71798764D01*
X120296577Y-71714763D01*
X120255378Y-71633904D01*
X120146621Y-71484213D01*
X120015787Y-71353379D01*
X119866096Y-71244622D01*
X119847181Y-71234984D01*
X119796386Y-71187011D01*
X119779591Y-71119190D01*
X119802128Y-71053055D01*
X119856843Y-71009603D01*
X119903477Y-71000500D01*
X151375500Y-71000500D01*
X151442539Y-71020185D01*
X151488294Y-71072989D01*
X151499500Y-71124500D01*
X151499500Y-94375500D01*
X151479815Y-94442539D01*
X151427011Y-94488294D01*
X151375500Y-94499500D01*
X140611230Y-94499500D01*
X140544191Y-94479815D01*
X140498436Y-94427011D01*
X140488492Y-94357853D01*
X140517517Y-94294297D01*
X140523549Y-94287819D01*
X141690554Y-93120814D01*
X147565295Y-87246070D01*
X147605519Y-87219193D01*
X147629179Y-87209394D01*
X147760289Y-87121789D01*
X147871789Y-87010289D01*
X147959394Y-86879179D01*
X148019737Y-86733497D01*
X148050500Y-86578842D01*
X148050500Y-86421158D01*
X148050500Y-86421155D01*
X148050499Y-86421153D01*
X148020788Y-86271789D01*
X148019737Y-86266503D01*
X147985855Y-86184704D01*
X147959397Y-86120827D01*
X147959390Y-86120814D01*
X147871789Y-85989711D01*
X147871786Y-85989707D01*
X147760292Y-85878213D01*
X147760288Y-85878210D01*
X147629185Y-85790609D01*
X147629172Y-85790602D01*
X147483501Y-85730264D01*
X147483489Y-85730261D01*
X147328845Y-85699500D01*
X147328842Y-85699500D01*
X147171158Y-85699500D01*
X147171155Y-85699500D01*
X147016510Y-85730261D01*
X147016498Y-85730264D01*
X146870827Y-85790602D01*
X146870814Y-85790609D01*
X146739711Y-85878210D01*
X146739707Y-85878213D01*
X146628213Y-85989707D01*
X146628207Y-85989715D01*
X146540607Y-86120818D01*
X146540605Y-86120822D01*
X146530805Y-86144480D01*
X146503927Y-86184704D01*
X139725451Y-92963181D01*
X139664128Y-92996666D01*
X139637770Y-92999500D01*
X126375500Y-92999500D01*
X126308461Y-92979815D01*
X126262706Y-92927011D01*
X126251500Y-92875500D01*
X126251500Y-91417847D01*
X126271185Y-91350808D01*
X126323989Y-91305053D01*
X126393147Y-91295109D01*
X126399675Y-91296226D01*
X126421158Y-91300500D01*
X126578844Y-91300500D01*
X126578845Y-91300499D01*
X126733497Y-91269737D01*
X126879179Y-91209394D01*
X127010289Y-91121789D01*
X127121789Y-91010289D01*
X127209394Y-90879179D01*
X127269737Y-90733497D01*
X127300500Y-90578842D01*
X127300500Y-90421158D01*
X127300500Y-90421155D01*
X127300499Y-90421153D01*
X127269738Y-90266510D01*
X127269737Y-90266503D01*
X127269735Y-90266498D01*
X127209397Y-90120827D01*
X127209390Y-90120814D01*
X127121789Y-89989711D01*
X127121786Y-89989707D01*
X127035819Y-89903740D01*
X127002334Y-89842417D01*
X126999500Y-89816059D01*
X126999500Y-86568046D01*
X127019185Y-86501007D01*
X127071989Y-86455252D01*
X127099309Y-86446429D01*
X127128848Y-86440552D01*
X127233497Y-86419737D01*
X127379179Y-86359394D01*
X127510289Y-86271789D01*
X127621789Y-86160289D01*
X127709394Y-86029179D01*
X127769737Y-85883497D01*
X127800500Y-85728842D01*
X127800500Y-85571158D01*
X127800500Y-85571155D01*
X127800499Y-85571153D01*
X127769738Y-85416510D01*
X127769737Y-85416503D01*
X127709394Y-85270821D01*
X127671396Y-85213953D01*
X127650520Y-85147276D01*
X127650500Y-85145064D01*
X127650500Y-83935928D01*
X127625502Y-83810261D01*
X127625501Y-83810260D01*
X127625501Y-83810256D01*
X127576465Y-83691873D01*
X127576464Y-83691872D01*
X127576461Y-83691866D01*
X127505277Y-83585332D01*
X127502897Y-83582952D01*
X127414669Y-83494724D01*
X126441529Y-82521584D01*
X122836266Y-78916319D01*
X122164673Y-78244726D01*
X122164669Y-78244723D01*
X122058127Y-78173535D01*
X121939744Y-78124499D01*
X121939738Y-78124497D01*
X121814071Y-78099500D01*
X121814069Y-78099500D01*
X111358674Y-78099500D01*
X111329233Y-78090855D01*
X111299247Y-78084332D01*
X111294231Y-78080577D01*
X111291635Y-78079815D01*
X111270993Y-78063181D01*
X111189316Y-77981504D01*
X127680000Y-77981504D01*
X127680000Y-78380000D01*
X128380000Y-78380000D01*
X128380000Y-78880000D01*
X127680000Y-78880000D01*
X127680000Y-79278495D01*
X127718427Y-79471681D01*
X127718430Y-79471693D01*
X127793807Y-79653671D01*
X127793814Y-79653684D01*
X127903248Y-79817462D01*
X127903251Y-79817466D01*
X128042533Y-79956748D01*
X128042537Y-79956751D01*
X128206315Y-80066185D01*
X128206328Y-80066192D01*
X128388308Y-80141569D01*
X128430000Y-80149862D01*
X128430000Y-79346988D01*
X128439940Y-79364205D01*
X128495795Y-79420060D01*
X128564204Y-79459556D01*
X128640504Y-79480000D01*
X128719496Y-79480000D01*
X128795796Y-79459556D01*
X128864205Y-79420060D01*
X128920060Y-79364205D01*
X128930000Y-79346988D01*
X128930000Y-80149862D01*
X128971690Y-80141569D01*
X128971692Y-80141569D01*
X129153671Y-80066192D01*
X129153684Y-80066185D01*
X129317462Y-79956751D01*
X129317466Y-79956748D01*
X129456748Y-79817466D01*
X129456751Y-79817462D01*
X129566185Y-79653684D01*
X129566192Y-79653671D01*
X129641569Y-79471693D01*
X129641572Y-79471681D01*
X129679999Y-79278495D01*
X129680000Y-79278492D01*
X129680000Y-78880000D01*
X128980000Y-78880000D01*
X128980000Y-78380000D01*
X129535536Y-78380000D01*
X129602575Y-78399685D01*
X129642923Y-78442000D01*
X129649482Y-78453361D01*
X129649484Y-78453364D01*
X129649485Y-78453365D01*
X129756635Y-78560515D01*
X129887865Y-78636281D01*
X130034234Y-78675500D01*
X130034236Y-78675500D01*
X130185764Y-78675500D01*
X130185766Y-78675500D01*
X130332135Y-78636281D01*
X130463365Y-78560515D01*
X130570515Y-78453365D01*
X130646281Y-78322135D01*
X130685500Y-78175766D01*
X130685500Y-78024234D01*
X130646281Y-77877865D01*
X130570515Y-77746635D01*
X130463365Y-77639485D01*
X130397750Y-77601602D01*
X130332136Y-77563719D01*
X130238228Y-77538557D01*
X130185766Y-77524500D01*
X130034234Y-77524500D01*
X129887863Y-77563719D01*
X129756635Y-77639485D01*
X129750189Y-77644432D01*
X129748099Y-77641709D01*
X129700217Y-77667466D01*
X129630558Y-77662043D01*
X129574888Y-77619821D01*
X129569299Y-77610976D01*
X129456751Y-77442537D01*
X129456748Y-77442533D01*
X129317466Y-77303251D01*
X129317462Y-77303248D01*
X129153684Y-77193814D01*
X129153671Y-77193807D01*
X128971691Y-77118429D01*
X128971683Y-77118427D01*
X128930000Y-77110135D01*
X128930000Y-77913011D01*
X128920060Y-77895795D01*
X128864205Y-77839940D01*
X128795796Y-77800444D01*
X128719496Y-77780000D01*
X128640504Y-77780000D01*
X128564204Y-77800444D01*
X128495795Y-77839940D01*
X128439940Y-77895795D01*
X128430000Y-77913011D01*
X128430000Y-77110136D01*
X128429999Y-77110135D01*
X128388316Y-77118427D01*
X128388308Y-77118429D01*
X128206328Y-77193807D01*
X128206315Y-77193814D01*
X128042537Y-77303248D01*
X128042533Y-77303251D01*
X127903251Y-77442533D01*
X127903248Y-77442537D01*
X127793814Y-77606315D01*
X127793807Y-77606328D01*
X127718430Y-77788306D01*
X127718427Y-77788318D01*
X127680000Y-77981504D01*
X111189316Y-77981504D01*
X110936819Y-77729007D01*
X110903334Y-77667684D01*
X110900500Y-77641326D01*
X110900500Y-77254935D01*
X110920185Y-77187896D01*
X110921366Y-77186090D01*
X110959394Y-77129179D01*
X111019737Y-76983497D01*
X111050500Y-76828842D01*
X111050500Y-76671158D01*
X111050500Y-76671155D01*
X111050499Y-76671153D01*
X111019737Y-76516503D01*
X111019735Y-76516498D01*
X110959397Y-76370827D01*
X110959390Y-76370814D01*
X110871789Y-76239711D01*
X110871786Y-76239707D01*
X110760292Y-76128213D01*
X110760288Y-76128210D01*
X110629185Y-76040609D01*
X110629172Y-76040602D01*
X110483501Y-75980264D01*
X110483489Y-75980261D01*
X110328845Y-75949500D01*
X110328842Y-75949500D01*
X110171158Y-75949500D01*
X110171155Y-75949500D01*
X110016510Y-75980261D01*
X110016498Y-75980264D01*
X109870827Y-76040602D01*
X109870814Y-76040609D01*
X109739711Y-76128210D01*
X109739707Y-76128213D01*
X109628213Y-76239707D01*
X109628210Y-76239711D01*
X109578102Y-76314703D01*
X109524489Y-76359508D01*
X109455164Y-76368215D01*
X109392137Y-76338060D01*
X109371898Y-76314703D01*
X109321789Y-76239711D01*
X109321786Y-76239707D01*
X109210292Y-76128213D01*
X109210288Y-76128210D01*
X109079185Y-76040609D01*
X109079172Y-76040602D01*
X108933501Y-75980264D01*
X108933489Y-75980261D01*
X108778845Y-75949500D01*
X108778842Y-75949500D01*
X108621158Y-75949500D01*
X108621155Y-75949500D01*
X108466510Y-75980261D01*
X108466498Y-75980264D01*
X108320827Y-76040602D01*
X108320814Y-76040609D01*
X108189711Y-76128210D01*
X108189707Y-76128213D01*
X108078213Y-76239707D01*
X108078210Y-76239711D01*
X107990609Y-76370814D01*
X107990602Y-76370827D01*
X107930264Y-76516498D01*
X107930261Y-76516510D01*
X107899500Y-76671153D01*
X107899500Y-76828846D01*
X107930261Y-76983489D01*
X107930264Y-76983501D01*
X107990604Y-77129177D01*
X107990606Y-77129181D01*
X108045028Y-77210629D01*
X108063543Y-77255325D01*
X108072579Y-77300749D01*
X108074498Y-77310396D01*
X108074499Y-77310399D01*
X108123533Y-77428779D01*
X108132726Y-77442537D01*
X108187491Y-77524500D01*
X108194726Y-77535327D01*
X108194727Y-77535328D01*
X110325070Y-79665669D01*
X110415677Y-79756276D01*
X110415678Y-79756277D01*
X110522212Y-79827461D01*
X110522218Y-79827464D01*
X110522219Y-79827465D01*
X110640602Y-79876501D01*
X110640606Y-79876501D01*
X110640607Y-79876502D01*
X110766274Y-79901500D01*
X110766277Y-79901500D01*
X121221672Y-79901500D01*
X121288711Y-79921185D01*
X121309353Y-79937819D01*
X125038749Y-83667215D01*
X125072234Y-83728538D01*
X125067250Y-83798230D01*
X125025378Y-83854163D01*
X125019962Y-83857996D01*
X124989712Y-83878209D01*
X124989707Y-83878213D01*
X124878213Y-83989707D01*
X124878210Y-83989711D01*
X124790609Y-84120814D01*
X124790602Y-84120827D01*
X124730264Y-84266498D01*
X124730261Y-84266510D01*
X124699500Y-84421153D01*
X124699500Y-84578846D01*
X124730261Y-84733489D01*
X124730263Y-84733497D01*
X124740061Y-84757151D01*
X124749500Y-84804604D01*
X124749500Y-85573920D01*
X124749903Y-85578013D01*
X124750500Y-85590165D01*
X124750500Y-92875500D01*
X124730815Y-92942539D01*
X124678011Y-92988294D01*
X124626500Y-92999500D01*
X108682940Y-92999500D01*
X108615901Y-92979815D01*
X108595263Y-92963185D01*
X108510289Y-92878211D01*
X108510288Y-92878210D01*
X108510287Y-92878209D01*
X108379185Y-92790609D01*
X108379172Y-92790602D01*
X108233501Y-92730264D01*
X108233489Y-92730261D01*
X108078845Y-92699500D01*
X108078842Y-92699500D01*
X107921158Y-92699500D01*
X107921155Y-92699500D01*
X107766510Y-92730261D01*
X107766498Y-92730264D01*
X107620827Y-92790602D01*
X107620814Y-92790609D01*
X107489711Y-92878210D01*
X107489707Y-92878213D01*
X107378213Y-92989707D01*
X107378210Y-92989711D01*
X107290609Y-93120814D01*
X107290602Y-93120827D01*
X107230264Y-93266498D01*
X107230261Y-93266510D01*
X107199500Y-93421153D01*
X107199500Y-93578846D01*
X107230261Y-93733489D01*
X107230264Y-93733501D01*
X107290602Y-93879172D01*
X107290609Y-93879185D01*
X107378210Y-94010288D01*
X107378213Y-94010292D01*
X107489707Y-94121786D01*
X107489711Y-94121789D01*
X107620814Y-94209390D01*
X107620823Y-94209395D01*
X107644475Y-94219192D01*
X107651406Y-94223823D01*
X107656448Y-94224920D01*
X107684702Y-94246071D01*
X107726450Y-94287818D01*
X107759936Y-94349140D01*
X107754952Y-94418832D01*
X107713082Y-94474766D01*
X107647618Y-94499184D01*
X107638770Y-94499500D01*
X100374500Y-94499500D01*
X100307461Y-94479815D01*
X100261706Y-94427011D01*
X100250500Y-94375500D01*
X100250500Y-93374000D01*
X100270185Y-93306961D01*
X100322989Y-93261206D01*
X100374500Y-93250000D01*
X106100000Y-93250000D01*
X106100000Y-75421153D01*
X119699500Y-75421153D01*
X119699500Y-75578846D01*
X119730261Y-75733489D01*
X119730264Y-75733501D01*
X119790602Y-75879172D01*
X119790609Y-75879185D01*
X119878210Y-76010288D01*
X119878213Y-76010292D01*
X119989707Y-76121786D01*
X119989711Y-76121789D01*
X120120814Y-76209390D01*
X120120827Y-76209397D01*
X120194013Y-76239711D01*
X120266503Y-76269737D01*
X120421153Y-76300499D01*
X120421156Y-76300500D01*
X120421158Y-76300500D01*
X120578844Y-76300500D01*
X120578845Y-76300499D01*
X120733497Y-76269737D01*
X120879179Y-76209394D01*
X121010289Y-76121789D01*
X121121789Y-76010289D01*
X121209394Y-75879179D01*
X121269737Y-75733497D01*
X121283079Y-75666416D01*
X121315463Y-75604509D01*
X121316957Y-75602987D01*
X121983127Y-74936819D01*
X122044450Y-74903334D01*
X122070808Y-74900500D01*
X127064071Y-74900500D01*
X127176125Y-74878210D01*
X127189744Y-74875501D01*
X127308127Y-74826465D01*
X127310836Y-74824654D01*
X127311772Y-74824030D01*
X127361790Y-74790609D01*
X127414669Y-74755277D01*
X127468318Y-74701628D01*
X127529641Y-74668142D01*
X127599333Y-74673126D01*
X127655266Y-74714997D01*
X127679684Y-74780461D01*
X127680000Y-74789308D01*
X127680000Y-74848495D01*
X127718427Y-75041681D01*
X127718430Y-75041693D01*
X127793807Y-75223671D01*
X127793814Y-75223684D01*
X127903248Y-75387462D01*
X127903251Y-75387466D01*
X128042533Y-75526748D01*
X128042537Y-75526751D01*
X128206315Y-75636185D01*
X128206328Y-75636192D01*
X128388308Y-75711569D01*
X128430000Y-75719862D01*
X128430000Y-74916988D01*
X128439940Y-74934205D01*
X128495795Y-74990060D01*
X128564204Y-75029556D01*
X128640504Y-75050000D01*
X128719496Y-75050000D01*
X128795796Y-75029556D01*
X128864205Y-74990060D01*
X128920060Y-74934205D01*
X128930000Y-74916988D01*
X128930000Y-75719862D01*
X128971690Y-75711569D01*
X128971692Y-75711569D01*
X129153671Y-75636192D01*
X129153684Y-75636185D01*
X129317462Y-75526751D01*
X129317466Y-75526748D01*
X129456748Y-75387466D01*
X129456751Y-75387462D01*
X129566185Y-75223684D01*
X129566192Y-75223671D01*
X129641569Y-75041693D01*
X129641572Y-75041681D01*
X129679999Y-74848495D01*
X129680000Y-74848492D01*
X129680000Y-74700000D01*
X128980000Y-74700000D01*
X128980000Y-74200000D01*
X129680000Y-74200000D01*
X129680000Y-74051508D01*
X129679999Y-74051504D01*
X129641572Y-73858318D01*
X129641569Y-73858306D01*
X129626511Y-73821952D01*
X129619042Y-73752483D01*
X129650317Y-73690004D01*
X129710406Y-73654352D01*
X129741072Y-73650500D01*
X132054192Y-73650500D01*
X132121231Y-73670185D01*
X132141873Y-73686819D01*
X135210325Y-76755272D01*
X135210328Y-76755275D01*
X135296014Y-76812528D01*
X135296013Y-76812528D01*
X135316871Y-76826464D01*
X135316872Y-76826464D01*
X135316873Y-76826465D01*
X135435256Y-76875501D01*
X135435260Y-76875501D01*
X135435261Y-76875502D01*
X135560928Y-76900500D01*
X135560931Y-76900500D01*
X136931048Y-76900500D01*
X136998087Y-76920185D01*
X137043842Y-76972989D01*
X137053786Y-77042147D01*
X137024761Y-77105703D01*
X136978500Y-77139061D01*
X136846328Y-77193807D01*
X136846315Y-77193814D01*
X136682537Y-77303248D01*
X136682533Y-77303251D01*
X136543248Y-77442536D01*
X136430427Y-77611387D01*
X136429003Y-77610435D01*
X136385742Y-77654451D01*
X136317600Y-77669892D01*
X136251927Y-77646041D01*
X136249907Y-77644306D01*
X136249811Y-77644432D01*
X136243367Y-77639487D01*
X136243365Y-77639485D01*
X136177750Y-77601602D01*
X136112136Y-77563719D01*
X136018228Y-77538557D01*
X135965766Y-77524500D01*
X135814234Y-77524500D01*
X135667863Y-77563719D01*
X135536635Y-77639485D01*
X135536632Y-77639487D01*
X135429487Y-77746632D01*
X135429485Y-77746635D01*
X135353719Y-77877863D01*
X135348740Y-77896446D01*
X135314500Y-78024234D01*
X135314500Y-78175766D01*
X135332977Y-78244723D01*
X135353719Y-78322136D01*
X135391602Y-78387750D01*
X135429485Y-78453365D01*
X135536635Y-78560515D01*
X135667865Y-78636281D01*
X135814234Y-78675500D01*
X135814236Y-78675500D01*
X135965764Y-78675500D01*
X135965766Y-78675500D01*
X136112135Y-78636281D01*
X136243365Y-78560515D01*
X136350515Y-78453365D01*
X136357077Y-78442000D01*
X136407644Y-78393784D01*
X136464464Y-78380000D01*
X137020000Y-78380000D01*
X137020000Y-78880000D01*
X136320000Y-78880000D01*
X136320000Y-79278495D01*
X136358427Y-79471681D01*
X136358430Y-79471693D01*
X136433807Y-79653671D01*
X136433814Y-79653684D01*
X136543248Y-79817462D01*
X136543251Y-79817466D01*
X136682533Y-79956748D01*
X136682537Y-79956751D01*
X136846315Y-80066185D01*
X136846328Y-80066192D01*
X137028308Y-80141569D01*
X137070000Y-80149862D01*
X137070000Y-79346988D01*
X137079940Y-79364205D01*
X137135795Y-79420060D01*
X137204204Y-79459556D01*
X137280504Y-79480000D01*
X137359496Y-79480000D01*
X137435796Y-79459556D01*
X137504205Y-79420060D01*
X137560060Y-79364205D01*
X137570000Y-79346988D01*
X137570000Y-80149862D01*
X137611690Y-80141569D01*
X137611692Y-80141569D01*
X137793671Y-80066192D01*
X137793684Y-80066185D01*
X137957462Y-79956751D01*
X137957466Y-79956748D01*
X138096748Y-79817466D01*
X138096751Y-79817462D01*
X138206185Y-79653684D01*
X138206192Y-79653671D01*
X138281569Y-79471693D01*
X138281572Y-79471681D01*
X138319999Y-79278495D01*
X138320000Y-79278492D01*
X138320000Y-78880000D01*
X137620000Y-78880000D01*
X137620000Y-78380000D01*
X138320000Y-78380000D01*
X138320000Y-77981508D01*
X138319999Y-77981504D01*
X138281572Y-77788318D01*
X138281569Y-77788306D01*
X138206192Y-77606328D01*
X138206185Y-77606315D01*
X138096751Y-77442537D01*
X138096748Y-77442533D01*
X137957466Y-77303251D01*
X137957462Y-77303248D01*
X137793684Y-77193814D01*
X137793671Y-77193807D01*
X137661500Y-77139061D01*
X137607096Y-77095220D01*
X137585031Y-77028926D01*
X137602310Y-76961227D01*
X137653447Y-76913616D01*
X137708952Y-76900500D01*
X140769179Y-76900500D01*
X140836218Y-76920185D01*
X140881973Y-76972989D01*
X140891917Y-77042147D01*
X140866126Y-77101812D01*
X140797477Y-77187896D01*
X140707477Y-77300752D01*
X140558053Y-77538557D01*
X140436200Y-77791588D01*
X140343443Y-78056670D01*
X140343439Y-78056682D01*
X140280945Y-78330487D01*
X140280942Y-78330505D01*
X140249500Y-78609568D01*
X140249500Y-78890431D01*
X140280942Y-79169494D01*
X140280945Y-79169512D01*
X140343439Y-79443317D01*
X140343443Y-79443329D01*
X140436200Y-79708411D01*
X140558053Y-79961442D01*
X140558055Y-79961445D01*
X140707477Y-80199248D01*
X140838113Y-80363060D01*
X140882583Y-80418824D01*
X141081175Y-80617416D01*
X141245318Y-80748316D01*
X141285458Y-80805504D01*
X141288308Y-80875316D01*
X141255686Y-80932944D01*
X139667048Y-82521584D01*
X133975451Y-88213181D01*
X133914128Y-88246666D01*
X133887770Y-88249500D01*
X129554604Y-88249500D01*
X129507155Y-88240062D01*
X129483497Y-88230263D01*
X129483493Y-88230262D01*
X129483488Y-88230260D01*
X129328845Y-88199500D01*
X129328842Y-88199500D01*
X129171158Y-88199500D01*
X129171155Y-88199500D01*
X129016511Y-88230260D01*
X129016506Y-88230262D01*
X129016504Y-88230262D01*
X129016503Y-88230263D01*
X128992844Y-88240062D01*
X128945396Y-88249500D01*
X128554604Y-88249500D01*
X128507155Y-88240062D01*
X128483497Y-88230263D01*
X128483493Y-88230262D01*
X128483488Y-88230260D01*
X128328845Y-88199500D01*
X128328842Y-88199500D01*
X128171158Y-88199500D01*
X128171155Y-88199500D01*
X128016510Y-88230261D01*
X128016498Y-88230264D01*
X127870827Y-88290602D01*
X127870814Y-88290609D01*
X127739711Y-88378210D01*
X127739707Y-88378213D01*
X127628213Y-88489707D01*
X127628210Y-88489711D01*
X127540609Y-88620814D01*
X127540602Y-88620827D01*
X127480264Y-88766498D01*
X127480261Y-88766510D01*
X127449500Y-88921153D01*
X127449500Y-89078846D01*
X127480261Y-89233489D01*
X127480264Y-89233501D01*
X127540602Y-89379172D01*
X127540609Y-89379185D01*
X127628210Y-89510288D01*
X127628213Y-89510292D01*
X127739707Y-89621786D01*
X127739711Y-89621789D01*
X127870814Y-89709390D01*
X127870827Y-89709397D01*
X127970060Y-89750500D01*
X128016503Y-89769737D01*
X128171153Y-89800499D01*
X128171156Y-89800500D01*
X128171158Y-89800500D01*
X128328844Y-89800500D01*
X128328845Y-89800499D01*
X128405152Y-89785320D01*
X128483488Y-89769739D01*
X128483489Y-89769738D01*
X128483497Y-89769737D01*
X128507155Y-89759937D01*
X128554604Y-89750500D01*
X128945396Y-89750500D01*
X128992844Y-89759937D01*
X129016503Y-89769737D01*
X129016508Y-89769738D01*
X129016511Y-89769739D01*
X129171153Y-89800499D01*
X129171156Y-89800500D01*
X129171158Y-89800500D01*
X129328844Y-89800500D01*
X129328845Y-89800499D01*
X129405152Y-89785320D01*
X129483488Y-89769739D01*
X129483489Y-89769738D01*
X129483497Y-89769737D01*
X129507155Y-89759937D01*
X129554604Y-89750500D01*
X134323920Y-89750500D01*
X134421462Y-89731096D01*
X134468913Y-89721658D01*
X134605495Y-89665084D01*
X134670291Y-89621789D01*
X134670294Y-89621786D01*
X134670296Y-89621786D01*
X134699547Y-89602240D01*
X134728416Y-89582952D01*
X140478413Y-83832953D01*
X140478416Y-83832952D01*
X140718206Y-83593159D01*
X140718210Y-83593157D01*
X140728414Y-83582952D01*
X140728416Y-83582952D01*
X143051830Y-81259536D01*
X143113151Y-81226053D01*
X143125609Y-81224001D01*
X143169509Y-81219055D01*
X143443318Y-81156560D01*
X143708408Y-81063801D01*
X143961445Y-80941945D01*
X144199248Y-80792523D01*
X144418825Y-80617416D01*
X144617416Y-80418825D01*
X144792523Y-80199248D01*
X144941945Y-79961445D01*
X145063801Y-79708408D01*
X145156560Y-79443318D01*
X145219055Y-79169509D01*
X145250500Y-78890425D01*
X145250500Y-78609575D01*
X145232900Y-78453366D01*
X145219057Y-78330505D01*
X145219054Y-78330487D01*
X145184763Y-78180246D01*
X145156559Y-78056678D01*
X145156556Y-78056670D01*
X145127926Y-77974852D01*
X145063801Y-77791592D01*
X144941945Y-77538555D01*
X144792523Y-77300752D01*
X144633873Y-77101812D01*
X144607465Y-77037126D01*
X144620222Y-76968431D01*
X144668092Y-76917537D01*
X144730821Y-76900500D01*
X146814071Y-76900500D01*
X146898615Y-76883682D01*
X146939744Y-76875501D01*
X147058127Y-76826465D01*
X147078987Y-76812527D01*
X147164669Y-76755277D01*
X147409165Y-76510779D01*
X147470487Y-76477295D01*
X147540179Y-76482279D01*
X147596113Y-76524150D01*
X147614777Y-76560143D01*
X147660619Y-76701232D01*
X147660620Y-76701235D01*
X147724428Y-76826464D01*
X147744622Y-76866096D01*
X147853379Y-77015787D01*
X147984213Y-77146621D01*
X147984216Y-77146623D01*
X148058831Y-77200834D01*
X148073806Y-77220254D01*
X148703554Y-77850000D01*
X148697339Y-77850000D01*
X148595606Y-77877259D01*
X148504394Y-77929920D01*
X148429920Y-78004394D01*
X148377259Y-78095606D01*
X148350000Y-78197339D01*
X148350000Y-78203553D01*
X147760015Y-77613568D01*
X147745049Y-77634167D01*
X147661084Y-77798956D01*
X147661083Y-77798959D01*
X147603933Y-77974852D01*
X147575000Y-78157526D01*
X147575000Y-78342473D01*
X147603933Y-78525147D01*
X147661083Y-78701040D01*
X147661084Y-78701043D01*
X147745050Y-78865834D01*
X147760015Y-78886430D01*
X147760016Y-78886431D01*
X148350000Y-78296447D01*
X148350000Y-78302661D01*
X148377259Y-78404394D01*
X148429920Y-78495606D01*
X148504394Y-78570080D01*
X148595606Y-78622741D01*
X148697339Y-78650000D01*
X148703553Y-78650000D01*
X148113568Y-79239983D01*
X148113568Y-79239984D01*
X148134165Y-79254949D01*
X148298956Y-79338915D01*
X148298959Y-79338916D01*
X148474852Y-79396066D01*
X148657527Y-79425000D01*
X148842473Y-79425000D01*
X149025147Y-79396066D01*
X149201040Y-79338916D01*
X149201043Y-79338915D01*
X149365836Y-79254947D01*
X149365845Y-79254942D01*
X149386430Y-79239984D01*
X149386431Y-79239983D01*
X148796448Y-78650000D01*
X148802661Y-78650000D01*
X148904394Y-78622741D01*
X148995606Y-78570080D01*
X149070080Y-78495606D01*
X149122741Y-78404394D01*
X149150000Y-78302661D01*
X149150000Y-78296447D01*
X149739983Y-78886430D01*
X149739984Y-78886430D01*
X149754942Y-78865845D01*
X149754947Y-78865836D01*
X149838915Y-78701043D01*
X149838916Y-78701040D01*
X149896066Y-78525147D01*
X149925000Y-78342473D01*
X149925000Y-78157526D01*
X149896066Y-77974852D01*
X149838916Y-77798959D01*
X149838915Y-77798956D01*
X149754949Y-77634165D01*
X149739983Y-77613568D01*
X149150000Y-78203551D01*
X149150000Y-78197339D01*
X149122741Y-78095606D01*
X149070080Y-78004394D01*
X148995606Y-77929920D01*
X148904394Y-77877259D01*
X148802661Y-77850000D01*
X148796447Y-77850000D01*
X149410675Y-77235771D01*
X149441165Y-77200836D01*
X149515787Y-77146621D01*
X149646621Y-77015787D01*
X149755378Y-76866096D01*
X149839379Y-76701235D01*
X149896555Y-76525264D01*
X149925500Y-76342514D01*
X149925500Y-76157486D01*
X149896555Y-75974736D01*
X149839379Y-75798765D01*
X149839379Y-75798764D01*
X149794950Y-75711569D01*
X149755378Y-75633904D01*
X149671453Y-75518392D01*
X149647974Y-75452586D01*
X149663799Y-75384532D01*
X149697459Y-75346241D01*
X149782546Y-75282546D01*
X149868796Y-75167331D01*
X149919091Y-75032483D01*
X149925500Y-74972873D01*
X149925499Y-73527128D01*
X149919091Y-73467517D01*
X149915348Y-73457482D01*
X149868797Y-73332671D01*
X149868793Y-73332664D01*
X149782547Y-73217455D01*
X149782544Y-73217452D01*
X149667335Y-73131206D01*
X149667328Y-73131202D01*
X149532482Y-73080908D01*
X149532483Y-73080908D01*
X149472883Y-73074501D01*
X149472881Y-73074500D01*
X149472873Y-73074500D01*
X149472864Y-73074500D01*
X148027129Y-73074500D01*
X148027123Y-73074501D01*
X147967516Y-73080908D01*
X147832671Y-73131202D01*
X147832664Y-73131206D01*
X147717455Y-73217452D01*
X147717452Y-73217455D01*
X147631206Y-73332664D01*
X147631202Y-73332671D01*
X147580908Y-73467517D01*
X147574501Y-73527116D01*
X147574501Y-73527123D01*
X147574500Y-73527135D01*
X147574500Y-74454191D01*
X147554815Y-74521230D01*
X147538181Y-74541872D01*
X146516873Y-75563181D01*
X146455550Y-75596666D01*
X146429192Y-75599500D01*
X145144135Y-75599500D01*
X145077096Y-75579815D01*
X145031341Y-75527011D01*
X145021397Y-75457853D01*
X145031236Y-75424219D01*
X145084100Y-75307832D01*
X145084101Y-75307829D01*
X145139516Y-75087912D01*
X145139517Y-75087906D01*
X145149999Y-74954719D01*
X145150000Y-74954706D01*
X145150000Y-74000000D01*
X144077231Y-74000000D01*
X144100000Y-73856247D01*
X144100000Y-73643753D01*
X144077231Y-73500000D01*
X145150000Y-73500000D01*
X145150000Y-72545293D01*
X145149999Y-72545280D01*
X145139517Y-72412093D01*
X145139516Y-72412087D01*
X145084101Y-72192170D01*
X145084100Y-72192167D01*
X144990304Y-71985669D01*
X144990301Y-71985663D01*
X144861148Y-71799241D01*
X144861138Y-71799229D01*
X144700770Y-71638861D01*
X144700758Y-71638851D01*
X144514336Y-71509698D01*
X144514330Y-71509695D01*
X144307832Y-71415899D01*
X144307829Y-71415898D01*
X144087912Y-71360483D01*
X144087906Y-71360482D01*
X143954719Y-71350000D01*
X143000000Y-71350000D01*
X143000000Y-72422768D01*
X142856247Y-72400000D01*
X142643753Y-72400000D01*
X142500000Y-72422768D01*
X142500000Y-71350000D01*
X141545280Y-71350000D01*
X141412093Y-71360482D01*
X141412087Y-71360483D01*
X141192170Y-71415898D01*
X141192167Y-71415899D01*
X140985669Y-71509695D01*
X140985663Y-71509698D01*
X140799241Y-71638851D01*
X140799229Y-71638861D01*
X140638861Y-71799229D01*
X140638851Y-71799241D01*
X140509698Y-71985663D01*
X140509695Y-71985669D01*
X140415899Y-72192167D01*
X140415898Y-72192170D01*
X140360483Y-72412087D01*
X140360482Y-72412093D01*
X140350000Y-72545280D01*
X140350000Y-73500000D01*
X141422769Y-73500000D01*
X141400000Y-73643753D01*
X141400000Y-73856247D01*
X141422769Y-74000000D01*
X140350000Y-74000000D01*
X140350000Y-74954719D01*
X140360482Y-75087906D01*
X140360483Y-75087912D01*
X140415898Y-75307829D01*
X140415899Y-75307832D01*
X140468764Y-75424219D01*
X140478567Y-75493398D01*
X140449412Y-75556894D01*
X140390557Y-75594548D01*
X140355865Y-75599500D01*
X138184077Y-75599500D01*
X138117038Y-75579815D01*
X138071283Y-75527011D01*
X138061339Y-75457853D01*
X138090364Y-75394297D01*
X138096396Y-75387819D01*
X138096748Y-75387466D01*
X138096751Y-75387462D01*
X138206185Y-75223684D01*
X138206192Y-75223671D01*
X138281569Y-75041693D01*
X138281572Y-75041681D01*
X138319999Y-74848495D01*
X138320000Y-74848492D01*
X138320000Y-74700000D01*
X137620000Y-74700000D01*
X137620000Y-74200000D01*
X138320000Y-74200000D01*
X138320000Y-74051508D01*
X138319999Y-74051504D01*
X138281572Y-73858318D01*
X138281569Y-73858306D01*
X138206192Y-73676328D01*
X138206185Y-73676315D01*
X138096751Y-73512537D01*
X138096748Y-73512533D01*
X137957466Y-73373251D01*
X137957462Y-73373248D01*
X137793684Y-73263814D01*
X137793671Y-73263807D01*
X137611691Y-73188429D01*
X137611683Y-73188427D01*
X137570000Y-73180135D01*
X137570000Y-73983011D01*
X137560060Y-73965795D01*
X137504205Y-73909940D01*
X137435796Y-73870444D01*
X137359496Y-73850000D01*
X137280504Y-73850000D01*
X137204204Y-73870444D01*
X137135795Y-73909940D01*
X137079940Y-73965795D01*
X137070000Y-73983011D01*
X137070000Y-73180136D01*
X137069999Y-73180135D01*
X137028316Y-73188427D01*
X137028308Y-73188429D01*
X136846328Y-73263807D01*
X136846315Y-73263814D01*
X136682537Y-73373248D01*
X136682533Y-73373251D01*
X136543251Y-73512533D01*
X136543248Y-73512537D01*
X136433814Y-73676315D01*
X136433807Y-73676328D01*
X136358430Y-73858306D01*
X136358427Y-73858318D01*
X136320000Y-74051504D01*
X136320000Y-74200000D01*
X137020000Y-74200000D01*
X137020000Y-74700000D01*
X136320000Y-74700000D01*
X136320000Y-74848495D01*
X136358427Y-75041681D01*
X136358430Y-75041693D01*
X136433807Y-75223671D01*
X136433814Y-75223684D01*
X136543248Y-75387462D01*
X136543251Y-75387466D01*
X136543604Y-75387819D01*
X136543729Y-75388049D01*
X136547114Y-75392173D01*
X136546331Y-75392814D01*
X136577089Y-75449142D01*
X136572105Y-75518834D01*
X136530233Y-75574767D01*
X136464769Y-75599184D01*
X136455923Y-75599500D01*
X135945808Y-75599500D01*
X135878769Y-75579815D01*
X135858127Y-75563181D01*
X134428044Y-74133098D01*
X132925479Y-72630532D01*
X132789673Y-72494726D01*
X132789669Y-72494723D01*
X132683127Y-72423535D01*
X132564744Y-72374499D01*
X132564738Y-72374497D01*
X132439071Y-72349500D01*
X132439069Y-72349500D01*
X128185931Y-72349500D01*
X128185929Y-72349500D01*
X128060261Y-72374497D01*
X128060255Y-72374499D01*
X127941874Y-72423534D01*
X127835326Y-72494726D01*
X127835325Y-72494727D01*
X126766873Y-73563181D01*
X126705550Y-73596666D01*
X126679192Y-73599500D01*
X121685929Y-73599500D01*
X121560261Y-73624497D01*
X121560255Y-73624499D01*
X121441874Y-73673534D01*
X121335326Y-73744726D01*
X120397068Y-74682984D01*
X120335745Y-74716469D01*
X120333579Y-74716920D01*
X120266508Y-74730261D01*
X120266498Y-74730264D01*
X120120827Y-74790602D01*
X120120814Y-74790609D01*
X119989711Y-74878210D01*
X119989707Y-74878213D01*
X119878213Y-74989707D01*
X119878210Y-74989711D01*
X119790609Y-75120814D01*
X119790602Y-75120827D01*
X119730264Y-75266498D01*
X119730261Y-75266510D01*
X119699500Y-75421153D01*
X106100000Y-75421153D01*
X106100000Y-75250000D01*
X100374500Y-75250000D01*
X100307461Y-75230315D01*
X100261706Y-75177511D01*
X100250500Y-75126000D01*
X100250500Y-71124500D01*
X100270185Y-71057461D01*
X100322989Y-71011706D01*
X100374500Y-71000500D01*
X106559897Y-71000500D01*
X106626936Y-71020185D01*
G37*
%TD.AperFunction*%
%TA.AperFunction,Conductor*%
G36*
X118663562Y-71020185D02*
G01*
X118709317Y-71072989D01*
X118719261Y-71142147D01*
X118690236Y-71205703D01*
X118652818Y-71234985D01*
X118633903Y-71244622D01*
X118548499Y-71306672D01*
X118484213Y-71353379D01*
X118484211Y-71353381D01*
X118484210Y-71353381D01*
X118353378Y-71484213D01*
X118299163Y-71558833D01*
X118279745Y-71573805D01*
X117650000Y-72203551D01*
X117650000Y-72197339D01*
X117622741Y-72095606D01*
X117570080Y-72004394D01*
X117495606Y-71929920D01*
X117404394Y-71877259D01*
X117302661Y-71850000D01*
X117296446Y-71850000D01*
X117886430Y-71260015D01*
X117865834Y-71245050D01*
X117846080Y-71234985D01*
X117795284Y-71187011D01*
X117778489Y-71119190D01*
X117801026Y-71053055D01*
X117855741Y-71009603D01*
X117902375Y-71000500D01*
X118596523Y-71000500D01*
X118663562Y-71020185D01*
G37*
%TD.AperFunction*%
%TD*%
M02*
