M48
; DRILL file {KiCad 9.0.3} date 2025-08-05T13:22:14-0500
; FORMAT={-:-/ absolute / metric / decimal}
; #@! TF.CreationDate,2025-08-05T13:22:14-05:00
; #@! TF.GenerationSoftware,Kicad,Pcbnew,9.0.3
; #@! TF.FileFunction,Plated,1,2,PTH
FMAT,2
METRIC
; #@! TA.AperFunction,Plated,PTH,ComponentDrill
T1C0.200
; #@! TA.AperFunction,Plated,PTH,ViaDrill
T2C0.300
; #@! TA.AperFunction,Plated,PTH,ComponentDrill
T3C0.600
; #@! TA.AperFunction,Plated,PTH,ComponentDrill
T4C0.650
; #@! TA.AperFunction,Plated,PTH,ComponentDrill
T5C0.800
; #@! TA.AperFunction,Plated,PTH,ComponentDrill
T6C1.000
; #@! TA.AperFunction,Plated,PTH,ComponentDrill
T7C2.700
%
G90
G05
T1
X112.3Y-82.74
X112.3Y-83.84
X112.85Y-82.19
X112.85Y-83.29
X112.85Y-84.39
X113.4Y-82.74
X113.4Y-83.84
X113.95Y-82.19
X113.95Y-83.29
X113.95Y-84.39
X114.5Y-82.74
X114.5Y-83.84
T2
X108.0Y-93.5
X108.7Y-76.75
X112.5Y-72.75
X116.0Y-73.47
X120.75Y-93.0
X121.75Y-86.0
X121.75Y-94.2
X124.0Y-93.499
X125.75Y-83.0
X126.25Y-72.75
X126.75Y-82.5
X129.75Y-80.75
X132.0Y-82.75
X132.75Y-86.75
X132.75Y-89.75
X134.415Y-81.835
X136.25Y-80.75
X145.0Y-93.25
X147.25Y-84.25
X148.75Y-80.25
X149.0Y-93.75
T4
X136.5Y-90.55
X136.5Y-91.82
X136.8Y-85.625
X136.8Y-86.895
T5
X120.25Y-72.25
X122.25Y-72.25
X124.25Y-72.25
X148.75Y-74.25
X148.75Y-76.25
X148.75Y-78.25
T6
X110.5Y-72.25
T7
X142.75Y-73.75
X142.75Y-78.75
T3
G00X128.68Y-74.75
M15
G01X128.68Y-74.15
M16
G05
G00X128.68Y-79.18
M15
G01X128.68Y-78.08
M16
G05
G00X137.32Y-74.75
M15
G01X137.32Y-74.15
M16
G05
G00X137.32Y-79.18
M15
G01X137.32Y-78.08
M16
G05
M30
