G04 #@! TF.GenerationSoftware,KiCad,Pcbnew,9.0.3*
G04 #@! TF.CreationDate,2025-08-05T23:13:50-05:00*
G04 #@! TF.ProjectId,Battle_Bot_Mind,42617474-6c65-45f4-926f-745f4d696e64,rev?*
G04 #@! TF.SameCoordinates,Original*
G04 #@! TF.FileFunction,Copper,L1,Top*
G04 #@! TF.FilePolarity,Positive*
%FSLAX46Y46*%
G04 Gerber Fmt 4.6, Leading zero omitted, Abs format (unit mm)*
G04 Created by KiCad (PCBNEW 9.0.3) date 2025-08-05 23:13:50*
%MOMM*%
%LPD*%
G01*
G04 APERTURE LIST*
G04 Aperture macros list*
%AMRoundRect*
0 Rectangle with rounded corners*
0 $1 Rounding radius*
0 $2 $3 $4 $5 $6 $7 $8 $9 X,Y pos of 4 corners*
0 Add a 4 corners polygon primitive as box body*
4,1,4,$2,$3,$4,$5,$6,$7,$8,$9,$2,$3,0*
0 Add four circle primitives for the rounded corners*
1,1,$1+$1,$2,$3*
1,1,$1+$1,$4,$5*
1,1,$1+$1,$6,$7*
1,1,$1+$1,$8,$9*
0 Add four rect primitives between the rounded corners*
20,1,$1+$1,$2,$3,$4,$5,0*
20,1,$1+$1,$4,$5,$6,$7,0*
20,1,$1+$1,$6,$7,$8,$9,0*
20,1,$1+$1,$8,$9,$2,$3,0*%
G04 Aperture macros list end*
G04 #@! TA.AperFunction,ComponentPad*
%ADD10RoundRect,0.760000X-1.140000X1.140000X-1.140000X-1.140000X1.140000X-1.140000X1.140000X1.140000X0*%
G04 #@! TD*
G04 #@! TA.AperFunction,ComponentPad*
%ADD11C,4.000000*%
G04 #@! TD*
G04 #@! TA.AperFunction,SMDPad,CuDef*
%ADD12R,0.900000X1.500000*%
G04 #@! TD*
G04 #@! TA.AperFunction,HeatsinkPad*
%ADD13C,0.600000*%
G04 #@! TD*
G04 #@! TA.AperFunction,HeatsinkPad*
%ADD14R,2.900000X2.900000*%
G04 #@! TD*
G04 #@! TA.AperFunction,ComponentPad*
%ADD15R,1.700000X1.700000*%
G04 #@! TD*
G04 #@! TA.AperFunction,SMDPad,CuDef*
%ADD16RoundRect,0.135000X0.185000X-0.135000X0.185000X0.135000X-0.185000X0.135000X-0.185000X-0.135000X0*%
G04 #@! TD*
G04 #@! TA.AperFunction,SMDPad,CuDef*
%ADD17RoundRect,0.160000X0.197500X0.160000X-0.197500X0.160000X-0.197500X-0.160000X0.197500X-0.160000X0*%
G04 #@! TD*
G04 #@! TA.AperFunction,ComponentPad*
%ADD18R,1.350000X1.350000*%
G04 #@! TD*
G04 #@! TA.AperFunction,ComponentPad*
%ADD19C,1.350000*%
G04 #@! TD*
G04 #@! TA.AperFunction,SMDPad,CuDef*
%ADD20RoundRect,0.160000X-0.197500X-0.160000X0.197500X-0.160000X0.197500X0.160000X-0.197500X0.160000X0*%
G04 #@! TD*
G04 #@! TA.AperFunction,ComponentPad*
%ADD21R,1.000000X1.000000*%
G04 #@! TD*
G04 #@! TA.AperFunction,ComponentPad*
%ADD22C,1.000000*%
G04 #@! TD*
G04 #@! TA.AperFunction,SMDPad,CuDef*
%ADD23R,0.600000X1.450000*%
G04 #@! TD*
G04 #@! TA.AperFunction,SMDPad,CuDef*
%ADD24R,0.300000X1.450000*%
G04 #@! TD*
G04 #@! TA.AperFunction,HeatsinkPad*
%ADD25O,1.000000X2.100000*%
G04 #@! TD*
G04 #@! TA.AperFunction,HeatsinkPad*
%ADD26O,1.000000X1.600000*%
G04 #@! TD*
G04 #@! TA.AperFunction,SMDPad,CuDef*
%ADD27RoundRect,0.147500X0.172500X-0.147500X0.172500X0.147500X-0.172500X0.147500X-0.172500X-0.147500X0*%
G04 #@! TD*
G04 #@! TA.AperFunction,SMDPad,CuDef*
%ADD28RoundRect,0.250000X-0.475000X0.250000X-0.475000X-0.250000X0.475000X-0.250000X0.475000X0.250000X0*%
G04 #@! TD*
G04 #@! TA.AperFunction,SMDPad,CuDef*
%ADD29R,1.750000X0.450000*%
G04 #@! TD*
G04 #@! TA.AperFunction,SMDPad,CuDef*
%ADD30RoundRect,0.375000X-0.625000X-0.375000X0.625000X-0.375000X0.625000X0.375000X-0.625000X0.375000X0*%
G04 #@! TD*
G04 #@! TA.AperFunction,SMDPad,CuDef*
%ADD31RoundRect,0.500000X-0.500000X-1.400000X0.500000X-1.400000X0.500000X1.400000X-0.500000X1.400000X0*%
G04 #@! TD*
G04 #@! TA.AperFunction,SMDPad,CuDef*
%ADD32RoundRect,0.250000X-0.250000X-0.475000X0.250000X-0.475000X0.250000X0.475000X-0.250000X0.475000X0*%
G04 #@! TD*
G04 #@! TA.AperFunction,SMDPad,CuDef*
%ADD33RoundRect,0.250000X0.250000X0.475000X-0.250000X0.475000X-0.250000X-0.475000X0.250000X-0.475000X0*%
G04 #@! TD*
G04 #@! TA.AperFunction,ViaPad*
%ADD34C,0.600000*%
G04 #@! TD*
G04 #@! TA.AperFunction,Conductor*
%ADD35C,0.300000*%
G04 #@! TD*
G04 #@! TA.AperFunction,Conductor*
%ADD36C,0.200000*%
G04 #@! TD*
G04 #@! TA.AperFunction,Conductor*
%ADD37C,0.500000*%
G04 #@! TD*
G04 #@! TA.AperFunction,Conductor*
%ADD38C,0.250000*%
G04 #@! TD*
G04 #@! TA.AperFunction,Conductor*
%ADD39C,0.450000*%
G04 #@! TD*
G04 #@! TA.AperFunction,Conductor*
%ADD40C,0.350000*%
G04 #@! TD*
G04 APERTURE END LIST*
D10*
G04 #@! TO.P,J2,1,Pin_1*
G04 #@! TO.N,GND*
X142750000Y-73750000D03*
D11*
G04 #@! TO.P,J2,2,Pin_2*
G04 #@! TO.N,+BATT*
X142750000Y-78750000D03*
G04 #@! TD*
D12*
G04 #@! TO.P,U1,1,3V3*
G04 #@! TO.N,+3V3*
X107200000Y-93000000D03*
G04 #@! TO.P,U1,2,EN*
X108700000Y-93000000D03*
G04 #@! TO.P,U1,3,IO4*
G04 #@! TO.N,/PWM_A*
X110200000Y-93000000D03*
G04 #@! TO.P,U1,4,IO5*
G04 #@! TO.N,/BIN2*
X111700000Y-93000000D03*
G04 #@! TO.P,U1,5,IO6*
G04 #@! TO.N,/BIN1*
X113200000Y-93000000D03*
G04 #@! TO.P,U1,6,IO7*
G04 #@! TO.N,/STBY*
X114700000Y-93000000D03*
G04 #@! TO.P,U1,7,IO8*
G04 #@! TO.N,/AIN1*
X116200000Y-93000000D03*
G04 #@! TO.P,U1,8,IO9*
G04 #@! TO.N,/AIN2*
X117700000Y-93000000D03*
G04 #@! TO.P,U1,9,GND*
G04 #@! TO.N,GND*
X119200000Y-93000000D03*
G04 #@! TO.P,U1,10,IO10*
G04 #@! TO.N,/ESC_PWM*
X119200000Y-75500000D03*
G04 #@! TO.P,U1,11,IO20/RXD*
G04 #@! TO.N,Net-(DBG1-Pin_3)*
X117700000Y-75500000D03*
G04 #@! TO.P,U1,12,IO21/TXD*
G04 #@! TO.N,Net-(DBG1-Pin_1)*
X116200000Y-75500000D03*
G04 #@! TO.P,U1,13,IO18*
G04 #@! TO.N,/USB_D-*
X114700000Y-75500000D03*
G04 #@! TO.P,U1,14,IO19*
G04 #@! TO.N,/USB_D+*
X113200000Y-75500000D03*
G04 #@! TO.P,U1,15,IO3*
G04 #@! TO.N,/L1*
X111700000Y-75500000D03*
G04 #@! TO.P,U1,16,IO2*
G04 #@! TO.N,/L2*
X110200000Y-75500000D03*
G04 #@! TO.P,U1,17,IO1*
G04 #@! TO.N,/PWM_B*
X108700000Y-75500000D03*
G04 #@! TO.P,U1,18,IO0*
G04 #@! TO.N,/BOOT*
X107200000Y-75500000D03*
D13*
G04 #@! TO.P,U1,19,GND*
G04 #@! TO.N,GND*
X112850000Y-84390000D03*
X113950000Y-84390000D03*
X112300000Y-83840000D03*
X113400000Y-83840000D03*
X114500000Y-83840000D03*
X112850000Y-83290000D03*
D14*
X113400000Y-83290000D03*
D13*
X113950000Y-83290000D03*
X112300000Y-82740000D03*
X113400000Y-82740000D03*
X114500000Y-82740000D03*
X112850000Y-82190000D03*
X113950000Y-82190000D03*
G04 #@! TD*
D15*
G04 #@! TO.P,J4,1,Pin_1*
G04 #@! TO.N,/BOOT*
X110500000Y-72250000D03*
G04 #@! TD*
D16*
G04 #@! TO.P,R4,1*
G04 #@! TO.N,/L2*
X114750000Y-72720000D03*
G04 #@! TO.P,R4,2*
G04 #@! TO.N,Net-(D2-A)*
X114750000Y-71700000D03*
G04 #@! TD*
D17*
G04 #@! TO.P,R6,1*
G04 #@! TO.N,Net-(J1-D--PadA7)*
X123597500Y-76788000D03*
G04 #@! TO.P,R6,2*
G04 #@! TO.N,/USB_D-*
X122402500Y-76788000D03*
G04 #@! TD*
D18*
G04 #@! TO.P,DBG1,1,Pin_1*
G04 #@! TO.N,Net-(DBG1-Pin_1)*
X120250000Y-72250000D03*
D19*
G04 #@! TO.P,DBG1,2,Pin_2*
G04 #@! TO.N,GND*
X122250000Y-72250000D03*
G04 #@! TO.P,DBG1,3,Pin_3*
G04 #@! TO.N,Net-(DBG1-Pin_3)*
X124250000Y-72250000D03*
G04 #@! TD*
D17*
G04 #@! TO.P,R5,1*
G04 #@! TO.N,Net-(J1-D+-PadA6)*
X123597500Y-78038000D03*
G04 #@! TO.P,R5,2*
G04 #@! TO.N,/USB_D+*
X122402500Y-78038000D03*
G04 #@! TD*
D20*
G04 #@! TO.P,R1,1*
G04 #@! TO.N,GND*
X132902500Y-82810000D03*
G04 #@! TO.P,R1,2*
G04 #@! TO.N,Net-(J1-CC1)*
X134097500Y-82810000D03*
G04 #@! TD*
D21*
G04 #@! TO.P,M2,1,Pin_1*
G04 #@! TO.N,Net-(M2-Pin_1)*
X136500000Y-90550000D03*
D22*
G04 #@! TO.P,M2,2,Pin_2*
G04 #@! TO.N,Net-(M2-Pin_2)*
X136500000Y-91820000D03*
G04 #@! TD*
D23*
G04 #@! TO.P,J1,A1,GND*
G04 #@! TO.N,GND*
X136250000Y-79545000D03*
G04 #@! TO.P,J1,A4,VBUS*
G04 #@! TO.N,VBUS*
X135450000Y-79545000D03*
D24*
G04 #@! TO.P,J1,A5,CC1*
G04 #@! TO.N,Net-(J1-CC1)*
X134250000Y-79545000D03*
G04 #@! TO.P,J1,A6,D+*
G04 #@! TO.N,Net-(J1-D+-PadA6)*
X133250000Y-79545000D03*
G04 #@! TO.P,J1,A7,D-*
G04 #@! TO.N,Net-(J1-D--PadA7)*
X132750000Y-79545000D03*
G04 #@! TO.P,J1,A8*
G04 #@! TO.N,N/C*
X131750000Y-79545000D03*
D23*
G04 #@! TO.P,J1,A9,VBUS*
G04 #@! TO.N,VBUS*
X130550000Y-79545000D03*
G04 #@! TO.P,J1,A12,GND*
G04 #@! TO.N,GND*
X129750000Y-79545000D03*
G04 #@! TO.P,J1,B1,GND*
X129750000Y-79545000D03*
G04 #@! TO.P,J1,B4,VBUS*
G04 #@! TO.N,VBUS*
X130550000Y-79545000D03*
D24*
G04 #@! TO.P,J1,B5,CC2*
G04 #@! TO.N,Net-(J1-CC2)*
X131250000Y-79545000D03*
G04 #@! TO.P,J1,B6,D+*
G04 #@! TO.N,Net-(J1-D+-PadA6)*
X132250000Y-79545000D03*
G04 #@! TO.P,J1,B7,D-*
G04 #@! TO.N,Net-(J1-D--PadA7)*
X133750000Y-79545000D03*
G04 #@! TO.P,J1,B8*
G04 #@! TO.N,N/C*
X134750000Y-79545000D03*
D23*
G04 #@! TO.P,J1,B9,VBUS*
G04 #@! TO.N,VBUS*
X135450000Y-79545000D03*
G04 #@! TO.P,J1,B12,GND*
G04 #@! TO.N,GND*
X136250000Y-79545000D03*
D25*
G04 #@! TO.P,J1,S1,SHIELD*
X137320000Y-78630000D03*
D26*
X137320000Y-74450000D03*
D25*
X128680000Y-78630000D03*
D26*
X128680000Y-74450000D03*
G04 #@! TD*
D21*
G04 #@! TO.P,M1,1,Pin_1*
G04 #@! TO.N,Net-(M1-Pin_1)*
X136800000Y-85625000D03*
D22*
G04 #@! TO.P,M1,2,Pin_2*
G04 #@! TO.N,Net-(M1-Pin_2)*
X136800000Y-86895000D03*
G04 #@! TD*
D27*
G04 #@! TO.P,D1,1,K*
G04 #@! TO.N,GND*
X116000000Y-72720000D03*
G04 #@! TO.P,D1,2,A*
G04 #@! TO.N,Net-(D1-A)*
X116000000Y-71750000D03*
G04 #@! TD*
D28*
G04 #@! TO.P,C1,1*
G04 #@! TO.N,VBUS*
X125750000Y-79000000D03*
G04 #@! TO.P,C1,2*
G04 #@! TO.N,GND*
X125750000Y-80900000D03*
G04 #@! TD*
D29*
G04 #@! TO.P,U2,1,AO1*
G04 #@! TO.N,Net-(M2-Pin_2)*
X131100000Y-91850000D03*
G04 #@! TO.P,U2,2,AO1*
X131100000Y-91200000D03*
G04 #@! TO.P,U2,3,PGND1*
G04 #@! TO.N,GND*
X131100000Y-90550000D03*
G04 #@! TO.P,U2,4,PGND1*
X131100000Y-89900000D03*
G04 #@! TO.P,U2,5,AO2*
G04 #@! TO.N,Net-(M2-Pin_1)*
X131100000Y-89250000D03*
G04 #@! TO.P,U2,6,AO2*
X131100000Y-88600000D03*
G04 #@! TO.P,U2,7,BO2*
G04 #@! TO.N,Net-(M1-Pin_2)*
X131100000Y-87950000D03*
G04 #@! TO.P,U2,8,BO2*
X131100000Y-87300000D03*
G04 #@! TO.P,U2,9,PGND2*
G04 #@! TO.N,GND*
X131100000Y-86650000D03*
G04 #@! TO.P,U2,10,PGND2*
X131100000Y-86000000D03*
G04 #@! TO.P,U2,11,BO1*
G04 #@! TO.N,Net-(M1-Pin_1)*
X131100000Y-85350000D03*
G04 #@! TO.P,U2,12,BO1*
X131100000Y-84700000D03*
G04 #@! TO.P,U2,13,VM2*
G04 #@! TO.N,+BATT*
X123900000Y-84700000D03*
G04 #@! TO.P,U2,14,VM3*
X123900000Y-85350000D03*
G04 #@! TO.P,U2,15,PWMB*
G04 #@! TO.N,/PWM_B*
X123900000Y-86000000D03*
G04 #@! TO.P,U2,16,BIN2*
G04 #@! TO.N,/BIN2*
X123900000Y-86650000D03*
G04 #@! TO.P,U2,17,BIN1*
G04 #@! TO.N,/BIN1*
X123900000Y-87300000D03*
G04 #@! TO.P,U2,18,GND*
G04 #@! TO.N,GND*
X123900000Y-87950000D03*
G04 #@! TO.P,U2,19,STBY*
G04 #@! TO.N,/STBY*
X123900000Y-88600000D03*
G04 #@! TO.P,U2,20,VCC*
G04 #@! TO.N,+3V3*
X123900000Y-89250000D03*
G04 #@! TO.P,U2,21,AIN1*
G04 #@! TO.N,/AIN1*
X123900000Y-89900000D03*
G04 #@! TO.P,U2,22,AIN2*
G04 #@! TO.N,/AIN2*
X123900000Y-90550000D03*
G04 #@! TO.P,U2,23,PWMA*
G04 #@! TO.N,/PWM_A*
X123900000Y-91200000D03*
G04 #@! TO.P,U2,24,VM1*
G04 #@! TO.N,+BATT*
X123900000Y-91850000D03*
G04 #@! TD*
D16*
G04 #@! TO.P,R3,1*
G04 #@! TO.N,/L1*
X117250000Y-72720000D03*
G04 #@! TO.P,R3,2*
G04 #@! TO.N,Net-(D1-A)*
X117250000Y-71700000D03*
G04 #@! TD*
D27*
G04 #@! TO.P,D2,1,K*
G04 #@! TO.N,GND*
X113500000Y-72720000D03*
G04 #@! TO.P,D2,2,A*
G04 #@! TO.N,Net-(D2-A)*
X113500000Y-71750000D03*
G04 #@! TD*
D30*
G04 #@! TO.P,U4,1,GND*
G04 #@! TO.N,GND*
X144100000Y-84200000D03*
G04 #@! TO.P,U4,2,VO*
G04 #@! TO.N,+3V3*
X144100000Y-86500000D03*
D31*
X150400000Y-86500000D03*
D30*
G04 #@! TO.P,U4,3,VI*
G04 #@! TO.N,+BATT*
X144100000Y-88800000D03*
G04 #@! TD*
D32*
G04 #@! TO.P,C6,1*
G04 #@! TO.N,+BATT*
X143100000Y-91750000D03*
G04 #@! TO.P,C6,2*
G04 #@! TO.N,GND*
X145000000Y-91750000D03*
G04 #@! TD*
D33*
G04 #@! TO.P,C5,1*
G04 #@! TO.N,+3V3*
X150950000Y-92000000D03*
G04 #@! TO.P,C5,2*
G04 #@! TO.N,GND*
X149050000Y-92000000D03*
G04 #@! TD*
D17*
G04 #@! TO.P,R2,1*
G04 #@! TO.N,GND*
X133500000Y-81500000D03*
G04 #@! TO.P,R2,2*
G04 #@! TO.N,Net-(J1-CC2)*
X132305000Y-81500000D03*
G04 #@! TD*
D18*
G04 #@! TO.P,J3,1,Pin_1*
G04 #@! TO.N,/ESC_PWM*
X148750000Y-74250000D03*
D19*
G04 #@! TO.P,J3,2,Pin_2*
G04 #@! TO.N,+BATT*
X148750000Y-76250000D03*
G04 #@! TO.P,J3,3,Pin_3*
G04 #@! TO.N,GND*
X148750000Y-78250000D03*
G04 #@! TD*
D34*
G04 #@! TO.N,GND*
X116000000Y-73470000D03*
X129750000Y-80750000D03*
X148750000Y-80250000D03*
X120750000Y-93000000D03*
X136250000Y-80750000D03*
X147250000Y-84250000D03*
X132000000Y-82750000D03*
X134415380Y-81834620D03*
X132750000Y-86750000D03*
X132750000Y-89750000D03*
X145000000Y-93250000D03*
X112500000Y-72750000D03*
X126250000Y-72750000D03*
X149000000Y-93750000D03*
X126750000Y-82500000D03*
G04 #@! TO.N,+3V3*
X121750000Y-94200000D03*
X108000000Y-93500000D03*
G04 #@! TO.N,+BATT*
X125750000Y-83000000D03*
X124000000Y-93499000D03*
G04 #@! TO.N,/PWM_B*
X121750000Y-86000000D03*
X108700000Y-76750000D03*
G04 #@! TD*
D35*
G04 #@! TO.N,VBUS*
X135750000Y-81500000D02*
X135450000Y-81200000D01*
X130550000Y-80950000D02*
X130550000Y-79545000D01*
X131750000Y-83500000D02*
X135000000Y-83500000D01*
X130550000Y-82300000D02*
X131750000Y-83500000D01*
X125750000Y-79000000D02*
X128250000Y-81500000D01*
X135750000Y-82750000D02*
X135750000Y-81500000D01*
X130000000Y-81500000D02*
X130375000Y-81125000D01*
X130375000Y-81125000D02*
X130274000Y-81226000D01*
X130375000Y-81125000D02*
X130550000Y-80950000D01*
D36*
X135450000Y-79545000D02*
X135517380Y-79612380D01*
D35*
X135450000Y-81200000D02*
X135450000Y-79545000D01*
X135000000Y-83500000D02*
X135750000Y-82750000D01*
X128250000Y-81500000D02*
X130000000Y-81500000D01*
X130550000Y-80950000D02*
X130550000Y-82300000D01*
G04 #@! TO.N,GND*
X119200000Y-93000000D02*
X120750000Y-93000000D01*
X131100000Y-89900000D02*
X132600000Y-89900000D01*
X131100000Y-86000000D02*
X131100000Y-86650000D01*
D36*
X116000000Y-72720000D02*
X116000000Y-73470000D01*
D37*
X125747070Y-80897070D02*
X125743889Y-80897070D01*
D35*
X131100000Y-90550000D02*
X131100000Y-89900000D01*
D36*
X132902500Y-82810000D02*
X132060000Y-82810000D01*
D35*
X131100000Y-86650000D02*
X132650000Y-86650000D01*
D37*
X125750000Y-80900000D02*
X125747070Y-80897070D01*
D36*
X134250000Y-81500000D02*
X134500000Y-81750000D01*
D37*
X149050000Y-92000000D02*
X149050000Y-93700000D01*
D35*
X129750000Y-79545000D02*
X129750000Y-80750000D01*
D36*
X134500000Y-81750000D02*
X134415380Y-81834620D01*
D37*
X147200000Y-84200000D02*
X147250000Y-84250000D01*
X125743889Y-80897070D02*
X125743889Y-81493889D01*
D35*
X132650000Y-86650000D02*
X132750000Y-86750000D01*
D36*
X132060000Y-82810000D02*
X132000000Y-82750000D01*
D37*
X145000000Y-91750000D02*
X145000000Y-93250000D01*
D38*
X112530000Y-72720000D02*
X112500000Y-72750000D01*
D37*
X148750000Y-78250000D02*
X148750000Y-80250000D01*
D35*
X132600000Y-89900000D02*
X132750000Y-89750000D01*
D37*
X125743889Y-81493889D02*
X126750000Y-82500000D01*
D36*
X133500000Y-81500000D02*
X134250000Y-81500000D01*
D37*
X144100000Y-84200000D02*
X147200000Y-84200000D01*
D38*
X113500000Y-72720000D02*
X112530000Y-72720000D01*
D37*
X149050000Y-93700000D02*
X149000000Y-93750000D01*
D35*
X136250000Y-79545000D02*
X136250000Y-80750000D01*
G04 #@! TO.N,Net-(J1-CC1)*
X134454999Y-82810000D02*
X134097500Y-82810000D01*
X134250000Y-80750000D02*
X134250000Y-79545000D01*
X135066380Y-82198619D02*
X134454999Y-82810000D01*
X135066380Y-81566380D02*
X135066380Y-82198619D01*
X134250000Y-80750000D02*
X135066380Y-81566380D01*
D36*
G04 #@! TO.N,Net-(J1-D--PadA7)*
X123597500Y-76788000D02*
X130970000Y-76788000D01*
X133750000Y-79545000D02*
X133750000Y-78500000D01*
X133750000Y-78500000D02*
X133500000Y-78250000D01*
X132750000Y-78568000D02*
X132750000Y-79545000D01*
X133068000Y-78250000D02*
X132750000Y-78568000D01*
X133500000Y-78250000D02*
X133068000Y-78250000D01*
X130970000Y-76788000D02*
X132750000Y-78568000D01*
G04 #@! TO.N,Net-(J1-D+-PadA6)*
X132201000Y-79496000D02*
X132201000Y-78586100D01*
X133250000Y-79545000D02*
X133250000Y-80522000D01*
X133250000Y-80522000D02*
X133022000Y-80750000D01*
X124446500Y-77189000D02*
X123597500Y-78038000D01*
X132250000Y-79545000D02*
X132201000Y-79496000D01*
X132250000Y-80500000D02*
X132250000Y-79545000D01*
X132500000Y-80750000D02*
X132250000Y-80500000D01*
X132201000Y-78586100D02*
X130803900Y-77189000D01*
X133022000Y-80750000D02*
X132500000Y-80750000D01*
X130803900Y-77189000D02*
X124446500Y-77189000D01*
D35*
G04 #@! TO.N,Net-(J1-CC2)*
X131750000Y-81500000D02*
X132305000Y-81500000D01*
X131250000Y-81000000D02*
X131750000Y-81500000D01*
X131250000Y-81000000D02*
X131250000Y-79545000D01*
D36*
G04 #@! TO.N,/USB_D+*
X113200000Y-75700000D02*
X114750000Y-77250000D01*
X113200000Y-75500000D02*
X113200000Y-75700000D01*
X114750000Y-77250000D02*
X121500000Y-77250000D01*
X122402500Y-78038000D02*
X122288000Y-78038000D01*
X122288000Y-78038000D02*
X121500000Y-77250000D01*
G04 #@! TO.N,/USB_D-*
X114700000Y-76488000D02*
X115000000Y-76788000D01*
X122402500Y-76788000D02*
X115000000Y-76788000D01*
X114700000Y-75500000D02*
X114700000Y-76488000D01*
D37*
G04 #@! TO.N,+3V3*
X144100000Y-86500000D02*
X147250000Y-86500000D01*
X108000000Y-93500000D02*
X108000000Y-93000000D01*
X147250000Y-86500000D02*
X150400000Y-86500000D01*
X130250000Y-94249000D02*
X130000000Y-94249000D01*
X150400000Y-91450000D02*
X150950000Y-92000000D01*
X147250000Y-93500000D02*
X146501000Y-94249000D01*
D35*
X108000000Y-93000000D02*
X108700000Y-93000000D01*
D37*
X121750000Y-94249000D02*
X121750000Y-94200000D01*
D39*
X125251000Y-89250000D02*
X130250000Y-94249000D01*
D37*
X130000000Y-94249000D02*
X126250000Y-94249000D01*
D35*
X107200000Y-93000000D02*
X108000000Y-93000000D01*
D37*
X126250000Y-94249000D02*
X121750000Y-94249000D01*
X150400000Y-86500000D02*
X150400000Y-91450000D01*
X146501000Y-94249000D02*
X130250000Y-94249000D01*
D39*
X123900000Y-89250000D02*
X125251000Y-89250000D01*
D37*
X147250000Y-86500000D02*
X147250000Y-93500000D01*
D40*
G04 #@! TO.N,+BATT*
X123900000Y-91850000D02*
X123900000Y-93400000D01*
D37*
X123900000Y-84700000D02*
X123900000Y-85324000D01*
X144100000Y-88800000D02*
X143050000Y-88800000D01*
X142750000Y-78750000D02*
X141250000Y-80250000D01*
X144100000Y-88800000D02*
X144100000Y-89400000D01*
D40*
X124000000Y-93500000D02*
X124000000Y-93499000D01*
D37*
X123900000Y-84700000D02*
X123900000Y-83600000D01*
X146250000Y-78750000D02*
X148750000Y-76250000D01*
D40*
X123900000Y-93400000D02*
X124000000Y-93500000D01*
D37*
X123900000Y-83600000D02*
X124500000Y-83000000D01*
X143100000Y-90400000D02*
X143100000Y-91750000D01*
X144100000Y-89400000D02*
X143100000Y-90400000D01*
X143050000Y-88800000D02*
X141250000Y-87000000D01*
X125750000Y-83000000D02*
X124500000Y-83000000D01*
X142750000Y-78750000D02*
X146250000Y-78750000D01*
X141250000Y-80250000D02*
X141250000Y-87000000D01*
D38*
G04 #@! TO.N,/BOOT*
X107200000Y-74550000D02*
X107200000Y-75500000D01*
X107500000Y-74250000D02*
X107200000Y-74550000D01*
D35*
X109950000Y-72300000D02*
X110000000Y-72250000D01*
D38*
X108250000Y-74250000D02*
X108500000Y-74250000D01*
X108250000Y-74250000D02*
X107500000Y-74250000D01*
X108500000Y-74250000D02*
X110500000Y-72250000D01*
D40*
G04 #@! TO.N,Net-(D2-A)*
X114750000Y-71700000D02*
X113550000Y-71700000D01*
X113550000Y-71700000D02*
X113500000Y-71750000D01*
D39*
G04 #@! TO.N,Net-(M1-Pin_2)*
X133300000Y-87950000D02*
X134355000Y-86895000D01*
X131100000Y-87300000D02*
X131100000Y-87950000D01*
X134355000Y-86895000D02*
X136800000Y-86895000D01*
X131100000Y-87950000D02*
X133300000Y-87950000D01*
G04 #@! TO.N,Net-(M1-Pin_1)*
X132350000Y-85350000D02*
X132625000Y-85625000D01*
X131100000Y-84700000D02*
X131100000Y-85350000D01*
X131100000Y-85350000D02*
X132350000Y-85350000D01*
X132625000Y-85625000D02*
X136800000Y-85625000D01*
G04 #@! TO.N,Net-(M2-Pin_2)*
X136470000Y-91850000D02*
X136500000Y-91820000D01*
X131100000Y-91200000D02*
X131100000Y-91850000D01*
X131100000Y-91850000D02*
X136470000Y-91850000D01*
G04 #@! TO.N,Net-(M2-Pin_1)*
X132626720Y-88600000D02*
X134500000Y-90473280D01*
X131100000Y-88600000D02*
X131100000Y-89250000D01*
X131100000Y-88600000D02*
X132626720Y-88600000D01*
X134500000Y-90500000D02*
X134550000Y-90550000D01*
X134500000Y-90473280D02*
X134500000Y-90500000D01*
X134550000Y-90550000D02*
X136500000Y-90550000D01*
D36*
G04 #@! TO.N,/L1*
X117250000Y-73069943D02*
X116069943Y-74250000D01*
X117250000Y-72720000D02*
X117250000Y-73069943D01*
X117200000Y-72770000D02*
X117250000Y-72720000D01*
X111700000Y-75369943D02*
X111700000Y-75500000D01*
X112819943Y-74250000D02*
X111700000Y-75369943D01*
X116069943Y-74250000D02*
X112819943Y-74250000D01*
D38*
G04 #@! TO.N,Net-(DBG1-Pin_1)*
X116200000Y-75500000D02*
X116200000Y-75200000D01*
X119150000Y-72250000D02*
X120250000Y-72250000D01*
X116200000Y-75200000D02*
X119150000Y-72250000D01*
D35*
G04 #@! TO.N,/ESC_PWM*
X148750000Y-74250000D02*
X146999000Y-76001000D01*
X146999000Y-76001000D02*
X121001000Y-76001000D01*
X120500000Y-75500000D02*
X119200000Y-75500000D01*
X121001000Y-76001000D02*
X120500000Y-75500000D01*
G04 #@! TO.N,/PWM_B*
X108700000Y-75500000D02*
X108700000Y-76750000D01*
X121750000Y-86000000D02*
X123900000Y-86000000D01*
G04 #@! TO.N,/PWM_A*
X120500000Y-94250000D02*
X110250000Y-94250000D01*
X123900000Y-91200000D02*
X122300000Y-91200000D01*
X110250000Y-94250000D02*
X110250000Y-92410000D01*
X121500000Y-93250000D02*
X120500000Y-94250000D01*
X122300000Y-91200000D02*
X121500000Y-92000000D01*
X121500000Y-92000000D02*
X121500000Y-93250000D01*
D36*
G04 #@! TO.N,Net-(DBG1-Pin_3)*
X124250000Y-72250000D02*
X122700000Y-73800000D01*
X119100000Y-73800000D02*
X117700000Y-75200000D01*
X117700000Y-75200000D02*
X117700000Y-75500000D01*
X122700000Y-73800000D02*
X119100000Y-73800000D01*
D35*
G04 #@! TO.N,/AIN2*
X122241480Y-90550000D02*
X121895740Y-90895740D01*
X123900000Y-90550000D02*
X122241480Y-90550000D01*
X121895740Y-90895740D02*
X121040479Y-91751000D01*
X117700000Y-92050000D02*
X117700000Y-93000000D01*
X122092480Y-90699000D02*
X121895740Y-90895740D01*
X117999000Y-91751000D02*
X117700000Y-92050000D01*
X121040479Y-91751000D02*
X117999000Y-91751000D01*
G04 #@! TO.N,/AIN1*
X116200000Y-93000000D02*
X116200000Y-91800000D01*
X116750000Y-91250000D02*
X120000000Y-91250000D01*
X123900000Y-89900000D02*
X121832958Y-89900000D01*
X116200000Y-91800000D02*
X116750000Y-91250000D01*
X121832958Y-89900000D02*
X121116479Y-90616479D01*
X120482959Y-91250000D02*
X120000000Y-91250000D01*
X121116479Y-90616479D02*
X120482959Y-91250000D01*
G04 #@! TO.N,/STBY*
X123900000Y-88600000D02*
X120583520Y-88600000D01*
X120583520Y-88600000D02*
X119716760Y-89466760D01*
X118433520Y-90750000D02*
X117500000Y-90750000D01*
X119716760Y-89466760D02*
X118433520Y-90750000D01*
X117500000Y-90750000D02*
X115250000Y-90750000D01*
X114700000Y-91300000D02*
X114700000Y-93000000D01*
X115250000Y-90750000D02*
X114700000Y-91300000D01*
G04 #@! TO.N,/BIN1*
X123900000Y-87300000D02*
X121175000Y-87300000D01*
X120737500Y-87737500D02*
X118225000Y-90250000D01*
X118225000Y-90250000D02*
X117500000Y-90250000D01*
X121175000Y-87300000D02*
X120737500Y-87737500D01*
X117500000Y-90250000D02*
X114250000Y-90250000D01*
X114250000Y-90250000D02*
X113200000Y-91300000D01*
X113200000Y-91300000D02*
X113200000Y-93000000D01*
G04 #@! TO.N,/BIN2*
X120850000Y-86650000D02*
X120250000Y-87250000D01*
X123900000Y-86650000D02*
X120850000Y-86650000D01*
X113250000Y-89750000D02*
X117750000Y-89750000D01*
X117750000Y-89750000D02*
X120250000Y-87250000D01*
X111700000Y-91300000D02*
X113250000Y-89750000D01*
X111700000Y-93000000D02*
X111700000Y-91300000D01*
D36*
G04 #@! TO.N,Net-(D1-A)*
X117250000Y-71700000D02*
X116050000Y-71700000D01*
X116050000Y-71700000D02*
X116000000Y-71750000D01*
G04 #@! TO.N,/L2*
X111200000Y-74200000D02*
X112302843Y-74200000D01*
D35*
X110250000Y-75550000D02*
X110200000Y-75500000D01*
D36*
X110200000Y-75500000D02*
X110200000Y-75050000D01*
X112302843Y-74200000D02*
X112752843Y-73750000D01*
X110200000Y-75200000D02*
X110200000Y-75500000D01*
X114750000Y-72750000D02*
X113750000Y-73750000D01*
X112752843Y-73750000D02*
X113000000Y-73750000D01*
X113750000Y-73750000D02*
X113000000Y-73750000D01*
D35*
X110200000Y-75500000D02*
X110200000Y-74950000D01*
D36*
X114750000Y-72720000D02*
X114750000Y-72750000D01*
X111200000Y-74200000D02*
X110200000Y-75200000D01*
G04 #@! TD*
G04 #@! TA.AperFunction,Conductor*
G04 #@! TO.N,GND*
G36*
X148842540Y-87270185D02*
G01*
X148888295Y-87322989D01*
X148899501Y-87374500D01*
X148899501Y-87958034D01*
X148910113Y-88077415D01*
X148966089Y-88273045D01*
X148966090Y-88273048D01*
X148966091Y-88273049D01*
X149060302Y-88453407D01*
X149060304Y-88453409D01*
X149188890Y-88611109D01*
X149281314Y-88686470D01*
X149346593Y-88739698D01*
X149526951Y-88833909D01*
X149559613Y-88843254D01*
X149618647Y-88880618D01*
X149648112Y-88943971D01*
X149649500Y-88962469D01*
X149649500Y-90678988D01*
X149629815Y-90746027D01*
X149577011Y-90791782D01*
X149507853Y-90801726D01*
X149486498Y-90796694D01*
X149452704Y-90785496D01*
X149452690Y-90785493D01*
X149349986Y-90775000D01*
X149300000Y-90775000D01*
X149300000Y-93224999D01*
X149349972Y-93224999D01*
X149349986Y-93224998D01*
X149452697Y-93214505D01*
X149619119Y-93159358D01*
X149619124Y-93159356D01*
X149768345Y-93067315D01*
X149892318Y-92943342D01*
X149894165Y-92940348D01*
X149895969Y-92938724D01*
X149896798Y-92937677D01*
X149896976Y-92937818D01*
X149946110Y-92893621D01*
X150015073Y-92882396D01*
X150079156Y-92910236D01*
X150105243Y-92940341D01*
X150107288Y-92943656D01*
X150231344Y-93067712D01*
X150380666Y-93159814D01*
X150547203Y-93214999D01*
X150649991Y-93225500D01*
X151250008Y-93225499D01*
X151250016Y-93225498D01*
X151250019Y-93225498D01*
X151359533Y-93214311D01*
X151359752Y-93216462D01*
X151419204Y-93220905D01*
X151475003Y-93262954D01*
X151499212Y-93328496D01*
X151499500Y-93336948D01*
X151499500Y-94375500D01*
X151479815Y-94442539D01*
X151427011Y-94488294D01*
X151375500Y-94499500D01*
X147611230Y-94499500D01*
X147544191Y-94479815D01*
X147498436Y-94427011D01*
X147488492Y-94357853D01*
X147517517Y-94294297D01*
X147523549Y-94287819D01*
X147832947Y-93978421D01*
X147832952Y-93978416D01*
X147851611Y-93950489D01*
X147889678Y-93893519D01*
X147889680Y-93893514D01*
X147889686Y-93893506D01*
X147915084Y-93855495D01*
X147971658Y-93718913D01*
X147981096Y-93671462D01*
X148000500Y-93573920D01*
X148000500Y-93035523D01*
X148020185Y-92968484D01*
X148072989Y-92922729D01*
X148142147Y-92912785D01*
X148205703Y-92941810D01*
X148212181Y-92947842D01*
X148331654Y-93067315D01*
X148480875Y-93159356D01*
X148480880Y-93159358D01*
X148647302Y-93214505D01*
X148647309Y-93214506D01*
X148750019Y-93224999D01*
X148799999Y-93224998D01*
X148800000Y-93224998D01*
X148800000Y-90775000D01*
X148799999Y-90774999D01*
X148750029Y-90775000D01*
X148750011Y-90775001D01*
X148647302Y-90785494D01*
X148480880Y-90840641D01*
X148480875Y-90840643D01*
X148331654Y-90932684D01*
X148212181Y-91052158D01*
X148150858Y-91085643D01*
X148081166Y-91080659D01*
X148025233Y-91038787D01*
X148000816Y-90973323D01*
X148000500Y-90964477D01*
X148000500Y-87374500D01*
X148020185Y-87307461D01*
X148072989Y-87261706D01*
X148124500Y-87250500D01*
X148775501Y-87250500D01*
X148842540Y-87270185D01*
G37*
G04 #@! TD.AperFunction*
G04 #@! TA.AperFunction,Conductor*
G36*
X120792539Y-92421185D02*
G01*
X120838294Y-92473989D01*
X120849500Y-92525500D01*
X120849500Y-92929192D01*
X120829815Y-92996231D01*
X120813181Y-93016873D01*
X120361681Y-93468373D01*
X120300358Y-93501858D01*
X120230666Y-93496874D01*
X120174733Y-93455002D01*
X120150316Y-93389538D01*
X120150000Y-93380692D01*
X120150000Y-93250000D01*
X119324000Y-93250000D01*
X119256961Y-93230315D01*
X119211206Y-93177511D01*
X119200000Y-93126000D01*
X119200000Y-92874000D01*
X119219685Y-92806961D01*
X119272489Y-92761206D01*
X119324000Y-92750000D01*
X120150000Y-92750000D01*
X120150000Y-92525500D01*
X120169685Y-92458461D01*
X120222489Y-92412706D01*
X120274000Y-92401500D01*
X120725500Y-92401500D01*
X120792539Y-92421185D01*
G37*
G04 #@! TD.AperFunction*
G04 #@! TA.AperFunction,Conductor*
G36*
X106305203Y-76495721D02*
G01*
X106323262Y-76515118D01*
X106392454Y-76607546D01*
X106417775Y-76626501D01*
X106507664Y-76693793D01*
X106507671Y-76693797D01*
X106642517Y-76744091D01*
X106642516Y-76744091D01*
X106649444Y-76744835D01*
X106702127Y-76750500D01*
X107697872Y-76750499D01*
X107757483Y-76744091D01*
X107757482Y-76744091D01*
X107765196Y-76743262D01*
X107765504Y-76746131D01*
X107821674Y-76749116D01*
X107878365Y-76789956D01*
X107902093Y-76841881D01*
X107930261Y-76983489D01*
X107930264Y-76983501D01*
X107990602Y-77129172D01*
X107990609Y-77129185D01*
X108078210Y-77260288D01*
X108078213Y-77260292D01*
X108189707Y-77371786D01*
X108189711Y-77371789D01*
X108320814Y-77459390D01*
X108320827Y-77459397D01*
X108466498Y-77519735D01*
X108466503Y-77519737D01*
X108621153Y-77550499D01*
X108621156Y-77550500D01*
X108621158Y-77550500D01*
X108778844Y-77550500D01*
X108778845Y-77550499D01*
X108933497Y-77519737D01*
X109079179Y-77459394D01*
X109210289Y-77371789D01*
X109321789Y-77260289D01*
X109409394Y-77129179D01*
X109469737Y-76983497D01*
X109497906Y-76841879D01*
X109530290Y-76779970D01*
X109591006Y-76745396D01*
X109634574Y-76745398D01*
X109634804Y-76743262D01*
X109651387Y-76745044D01*
X109702127Y-76750500D01*
X110697872Y-76750499D01*
X110757483Y-76744091D01*
X110892331Y-76693796D01*
X110892333Y-76693794D01*
X110900640Y-76690696D01*
X110901285Y-76692426D01*
X110958837Y-76679902D01*
X110998988Y-76691691D01*
X110999360Y-76690696D01*
X111007666Y-76693794D01*
X111007669Y-76693796D01*
X111142517Y-76744091D01*
X111202127Y-76750500D01*
X112197872Y-76750499D01*
X112257483Y-76744091D01*
X112392331Y-76693796D01*
X112392333Y-76693794D01*
X112400640Y-76690696D01*
X112401285Y-76692426D01*
X112458837Y-76679902D01*
X112498988Y-76691691D01*
X112499360Y-76690696D01*
X112507666Y-76693794D01*
X112507669Y-76693796D01*
X112642517Y-76744091D01*
X112702127Y-76750500D01*
X113349902Y-76750499D01*
X113416941Y-76770183D01*
X113437583Y-76786818D01*
X114265139Y-77614374D01*
X114265149Y-77614385D01*
X114269479Y-77618715D01*
X114269480Y-77618716D01*
X114381284Y-77730520D01*
X114448767Y-77769481D01*
X114518215Y-77809577D01*
X114670943Y-77850501D01*
X114670946Y-77850501D01*
X114836653Y-77850501D01*
X114836669Y-77850500D01*
X121199903Y-77850500D01*
X121266942Y-77870185D01*
X121287584Y-77886819D01*
X121508181Y-78107416D01*
X121541666Y-78168739D01*
X121544500Y-78195095D01*
X121544500Y-78251378D01*
X121544501Y-78251380D01*
X121550546Y-78317925D01*
X121550548Y-78317933D01*
X121598265Y-78471066D01*
X121598267Y-78471070D01*
X121681242Y-78608329D01*
X121681246Y-78608334D01*
X121794665Y-78721753D01*
X121794670Y-78721757D01*
X121931929Y-78804732D01*
X121931933Y-78804734D01*
X121986100Y-78821612D01*
X122085067Y-78852452D01*
X122151619Y-78858500D01*
X122653380Y-78858499D01*
X122653388Y-78858499D01*
X122719926Y-78852453D01*
X122719927Y-78852452D01*
X122719933Y-78852452D01*
X122873069Y-78804733D01*
X122935850Y-78766779D01*
X123003405Y-78748944D01*
X123064149Y-78766779D01*
X123126931Y-78804733D01*
X123126934Y-78804734D01*
X123126933Y-78804734D01*
X123181100Y-78821612D01*
X123280067Y-78852452D01*
X123346619Y-78858500D01*
X123848380Y-78858499D01*
X123848388Y-78858499D01*
X123914926Y-78852453D01*
X123914927Y-78852452D01*
X123914933Y-78852452D01*
X124068069Y-78804733D01*
X124151992Y-78754000D01*
X124205329Y-78721757D01*
X124205329Y-78721756D01*
X124205335Y-78721753D01*
X124312822Y-78614265D01*
X124374141Y-78580783D01*
X124443833Y-78585767D01*
X124499767Y-78627638D01*
X124524184Y-78693102D01*
X124524500Y-78701949D01*
X124524500Y-79300001D01*
X124524501Y-79300019D01*
X124535000Y-79402796D01*
X124535001Y-79402799D01*
X124576081Y-79526769D01*
X124590186Y-79569334D01*
X124682288Y-79718656D01*
X124806344Y-79842712D01*
X124809628Y-79844737D01*
X124809653Y-79844753D01*
X124811445Y-79846746D01*
X124812011Y-79847193D01*
X124811934Y-79847289D01*
X124856379Y-79896699D01*
X124867603Y-79965661D01*
X124839761Y-80029744D01*
X124809665Y-80055826D01*
X124806660Y-80057679D01*
X124806655Y-80057683D01*
X124682684Y-80181654D01*
X124590643Y-80330875D01*
X124590641Y-80330880D01*
X124535494Y-80497302D01*
X124535493Y-80497309D01*
X124525000Y-80600013D01*
X124525000Y-80650000D01*
X125626000Y-80650000D01*
X125693039Y-80669685D01*
X125738794Y-80722489D01*
X125750000Y-80774000D01*
X125750000Y-80900000D01*
X125876000Y-80900000D01*
X125943039Y-80919685D01*
X125988794Y-80972489D01*
X126000000Y-81024000D01*
X126000000Y-81899999D01*
X126274972Y-81899999D01*
X126274986Y-81899998D01*
X126377697Y-81889505D01*
X126544119Y-81834358D01*
X126544124Y-81834356D01*
X126693345Y-81742315D01*
X126817315Y-81618345D01*
X126909356Y-81469124D01*
X126909359Y-81469117D01*
X126943145Y-81367156D01*
X126982917Y-81309711D01*
X127047432Y-81282887D01*
X127116208Y-81295201D01*
X127148532Y-81318478D01*
X127835325Y-82005272D01*
X127835328Y-82005274D01*
X127835331Y-82005277D01*
X127932699Y-82070335D01*
X127932700Y-82070336D01*
X127941871Y-82076464D01*
X127941872Y-82076464D01*
X127941873Y-82076465D01*
X128060256Y-82125501D01*
X128060260Y-82125501D01*
X128060261Y-82125502D01*
X128185928Y-82150500D01*
X128185931Y-82150500D01*
X129775500Y-82150500D01*
X129781045Y-82152128D01*
X129786716Y-82151008D01*
X129814197Y-82161863D01*
X129842539Y-82170185D01*
X129846323Y-82174552D01*
X129851700Y-82176676D01*
X129868950Y-82200665D01*
X129888294Y-82222989D01*
X129889995Y-82229931D01*
X129892491Y-82233402D01*
X129896256Y-82255482D01*
X129899331Y-82268028D01*
X129899500Y-82271261D01*
X129899500Y-82364069D01*
X129904333Y-82388363D01*
X129906078Y-82397138D01*
X129906079Y-82397147D01*
X129924492Y-82489711D01*
X129924499Y-82489744D01*
X129973535Y-82608127D01*
X130044723Y-82714669D01*
X130044726Y-82714673D01*
X131092872Y-83762819D01*
X131126357Y-83824142D01*
X131121373Y-83893834D01*
X131079501Y-83949767D01*
X131014037Y-83974184D01*
X131005191Y-83974500D01*
X130177129Y-83974500D01*
X130177123Y-83974501D01*
X130117516Y-83980908D01*
X129982671Y-84031202D01*
X129982664Y-84031206D01*
X129867455Y-84117452D01*
X129867452Y-84117455D01*
X129781206Y-84232664D01*
X129781202Y-84232671D01*
X129730910Y-84367513D01*
X129730909Y-84367517D01*
X129724500Y-84427127D01*
X129724500Y-84427134D01*
X129724500Y-84427135D01*
X129724500Y-84972869D01*
X129724501Y-84972878D01*
X129728679Y-85011745D01*
X129728679Y-85038250D01*
X129724500Y-85077122D01*
X129724500Y-85622869D01*
X129724501Y-85622880D01*
X129727289Y-85648822D01*
X129727291Y-85648827D01*
X129730909Y-85682483D01*
X129781204Y-85817331D01*
X129858929Y-85921158D01*
X129867455Y-85932547D01*
X129959876Y-86001734D01*
X130001747Y-86057668D01*
X130006731Y-86127359D01*
X129973245Y-86188682D01*
X129911922Y-86222166D01*
X129885565Y-86225000D01*
X129725000Y-86225000D01*
X129725000Y-86272835D01*
X129729183Y-86311748D01*
X129729183Y-86338252D01*
X129725000Y-86377164D01*
X129725000Y-86425000D01*
X129885565Y-86425000D01*
X129952604Y-86444685D01*
X129998359Y-86497489D01*
X130008303Y-86566647D01*
X129979278Y-86630203D01*
X129959876Y-86648266D01*
X129867455Y-86717452D01*
X129797525Y-86810865D01*
X129797523Y-86810868D01*
X129781204Y-86832669D01*
X129730909Y-86967517D01*
X129727291Y-87001167D01*
X129727289Y-87001173D01*
X129724500Y-87027122D01*
X129724500Y-87572869D01*
X129724501Y-87572878D01*
X129728679Y-87611745D01*
X129728679Y-87638250D01*
X129724500Y-87677122D01*
X129724500Y-88222869D01*
X129724501Y-88222878D01*
X129728679Y-88261745D01*
X129728679Y-88288250D01*
X129724500Y-88327122D01*
X129724500Y-88872869D01*
X129724501Y-88872878D01*
X129728679Y-88911745D01*
X129728679Y-88938250D01*
X129724500Y-88977122D01*
X129724500Y-89522869D01*
X129724501Y-89522880D01*
X129727289Y-89548822D01*
X129727291Y-89548827D01*
X129730909Y-89582483D01*
X129781204Y-89717331D01*
X129848831Y-89807669D01*
X129867455Y-89832547D01*
X129959876Y-89901734D01*
X130001747Y-89957668D01*
X130006731Y-90027359D01*
X129973245Y-90088682D01*
X129911922Y-90122166D01*
X129885565Y-90125000D01*
X129725000Y-90125000D01*
X129725000Y-90172835D01*
X129729183Y-90211748D01*
X129729183Y-90238252D01*
X129725000Y-90277164D01*
X129725000Y-90325000D01*
X129885565Y-90325000D01*
X129952604Y-90344685D01*
X129998359Y-90397489D01*
X130008303Y-90466647D01*
X129979278Y-90530203D01*
X129959876Y-90548266D01*
X129867455Y-90617452D01*
X129797525Y-90710865D01*
X129797523Y-90710868D01*
X129781204Y-90732669D01*
X129730909Y-90867517D01*
X129727291Y-90901167D01*
X129727289Y-90901173D01*
X129724500Y-90927122D01*
X129724500Y-91472869D01*
X129724501Y-91472878D01*
X129728679Y-91511745D01*
X129728679Y-91538250D01*
X129724500Y-91577122D01*
X129724500Y-92122870D01*
X129724501Y-92122876D01*
X129730908Y-92182483D01*
X129781202Y-92317328D01*
X129781206Y-92317335D01*
X129867452Y-92432544D01*
X129867455Y-92432547D01*
X129982664Y-92518793D01*
X129982671Y-92518797D01*
X130117517Y-92569091D01*
X130117516Y-92569091D01*
X130124444Y-92569835D01*
X130177127Y-92575500D01*
X131018542Y-92575499D01*
X131018556Y-92575500D01*
X131028545Y-92575500D01*
X135792218Y-92575500D01*
X135859257Y-92595185D01*
X135861109Y-92596398D01*
X136026079Y-92706628D01*
X136026092Y-92706635D01*
X136130786Y-92750000D01*
X136208165Y-92782051D01*
X136208169Y-92782051D01*
X136208170Y-92782052D01*
X136401456Y-92820500D01*
X136401459Y-92820500D01*
X136598543Y-92820500D01*
X136730085Y-92794334D01*
X136791835Y-92782051D01*
X136973914Y-92706632D01*
X137137782Y-92597139D01*
X137277139Y-92457782D01*
X137386632Y-92293914D01*
X137462051Y-92111835D01*
X137500500Y-91918541D01*
X137500500Y-91721459D01*
X137500500Y-91721456D01*
X137462052Y-91528170D01*
X137462051Y-91528169D01*
X137462051Y-91528165D01*
X137419680Y-91425873D01*
X137412212Y-91356407D01*
X137434977Y-91304111D01*
X137443796Y-91292331D01*
X137494091Y-91157483D01*
X137500500Y-91097873D01*
X137500499Y-90002128D01*
X137494091Y-89942517D01*
X137486282Y-89921581D01*
X137443797Y-89807671D01*
X137443793Y-89807664D01*
X137357547Y-89692455D01*
X137357544Y-89692452D01*
X137242335Y-89606206D01*
X137242328Y-89606202D01*
X137107482Y-89555908D01*
X137107483Y-89555908D01*
X137047883Y-89549501D01*
X137047881Y-89549500D01*
X137047873Y-89549500D01*
X137047864Y-89549500D01*
X135952129Y-89549500D01*
X135952123Y-89549501D01*
X135892516Y-89555908D01*
X135757671Y-89606202D01*
X135757664Y-89606206D01*
X135642456Y-89692452D01*
X135642455Y-89692453D01*
X135642454Y-89692454D01*
X135604762Y-89742804D01*
X135580802Y-89774811D01*
X135524868Y-89816682D01*
X135481535Y-89824500D01*
X134928594Y-89824500D01*
X134861555Y-89804815D01*
X134840913Y-89788181D01*
X133751450Y-88698718D01*
X133717965Y-88637395D01*
X133722949Y-88567703D01*
X133758406Y-88518073D01*
X133758173Y-88517840D01*
X133759574Y-88516438D01*
X133760478Y-88515174D01*
X133762470Y-88513538D01*
X133762480Y-88513532D01*
X134619193Y-87656819D01*
X134680516Y-87623334D01*
X134706874Y-87620500D01*
X136059216Y-87620500D01*
X136126255Y-87640185D01*
X136146897Y-87656819D01*
X136162214Y-87672136D01*
X136162218Y-87672139D01*
X136326079Y-87781628D01*
X136326092Y-87781635D01*
X136508160Y-87857049D01*
X136508165Y-87857051D01*
X136508169Y-87857051D01*
X136508170Y-87857052D01*
X136701456Y-87895500D01*
X136701459Y-87895500D01*
X136898543Y-87895500D01*
X137028582Y-87869632D01*
X137091835Y-87857051D01*
X137273914Y-87781632D01*
X137437782Y-87672139D01*
X137577139Y-87532782D01*
X137686632Y-87368914D01*
X137762051Y-87186835D01*
X137783524Y-87078884D01*
X137800500Y-86993543D01*
X137800500Y-86796456D01*
X137762052Y-86603170D01*
X137762051Y-86603169D01*
X137762051Y-86603165D01*
X137719680Y-86500873D01*
X137712212Y-86431407D01*
X137734977Y-86379111D01*
X137743796Y-86367331D01*
X137794091Y-86232483D01*
X137800500Y-86172873D01*
X137800499Y-85077128D01*
X137794091Y-85017517D01*
X137791938Y-85011745D01*
X137743797Y-84882671D01*
X137743793Y-84882664D01*
X137657547Y-84767455D01*
X137657544Y-84767452D01*
X137542335Y-84681206D01*
X137542328Y-84681202D01*
X137407482Y-84630908D01*
X137407483Y-84630908D01*
X137347883Y-84624501D01*
X137347881Y-84624500D01*
X137347873Y-84624500D01*
X137347864Y-84624500D01*
X136252129Y-84624500D01*
X136252123Y-84624501D01*
X136192516Y-84630908D01*
X136057671Y-84681202D01*
X136057664Y-84681206D01*
X135942456Y-84767452D01*
X135942455Y-84767453D01*
X135942454Y-84767454D01*
X135880802Y-84849811D01*
X135824868Y-84891682D01*
X135781535Y-84899500D01*
X132976874Y-84899500D01*
X132909835Y-84879815D01*
X132889197Y-84863185D01*
X132812480Y-84786468D01*
X132693653Y-84707071D01*
X132561620Y-84652381D01*
X132561619Y-84652380D01*
X132555992Y-84650050D01*
X132556648Y-84648466D01*
X132505047Y-84614632D01*
X132476605Y-84550814D01*
X132475499Y-84534291D01*
X132475499Y-84427129D01*
X132475498Y-84427123D01*
X132471388Y-84388891D01*
X132469091Y-84367517D01*
X132450559Y-84317832D01*
X132445576Y-84248142D01*
X132479061Y-84186819D01*
X132540384Y-84153334D01*
X132566742Y-84150500D01*
X135064071Y-84150500D01*
X135148615Y-84133682D01*
X135189744Y-84125501D01*
X135308127Y-84076465D01*
X135414669Y-84005277D01*
X136255276Y-83164669D01*
X136326465Y-83058127D01*
X136375501Y-82939744D01*
X136379198Y-82921158D01*
X136400500Y-82814069D01*
X136400500Y-81435931D01*
X136400500Y-81435928D01*
X136375502Y-81310261D01*
X136375501Y-81310260D01*
X136375501Y-81310256D01*
X136326465Y-81191873D01*
X136326465Y-81191872D01*
X136308289Y-81164671D01*
X136308287Y-81164667D01*
X136255278Y-81085332D01*
X136255272Y-81085325D01*
X136136819Y-80966872D01*
X136122115Y-80939944D01*
X136105523Y-80914126D01*
X136104631Y-80907925D01*
X136103334Y-80905549D01*
X136100500Y-80879191D01*
X136100500Y-80678230D01*
X136120185Y-80611191D01*
X136125233Y-80603919D01*
X136128157Y-80600013D01*
X136193796Y-80512331D01*
X136244091Y-80377483D01*
X136250500Y-80317873D01*
X136250499Y-79668998D01*
X136253049Y-79660313D01*
X136251761Y-79651353D01*
X136262738Y-79627316D01*
X136270183Y-79601961D01*
X136277025Y-79596032D01*
X136280786Y-79587797D01*
X136303017Y-79573510D01*
X136322987Y-79556206D01*
X136333502Y-79553918D01*
X136339564Y-79550023D01*
X136374499Y-79545000D01*
X136376000Y-79545000D01*
X136443039Y-79564685D01*
X136488794Y-79617489D01*
X136500000Y-79669000D01*
X136500000Y-80770000D01*
X136597828Y-80770000D01*
X136597844Y-80769999D01*
X136657372Y-80763598D01*
X136657379Y-80763596D01*
X136792086Y-80713354D01*
X136792093Y-80713350D01*
X136907187Y-80627190D01*
X136907190Y-80627187D01*
X136993350Y-80512093D01*
X136993354Y-80512086D01*
X137043596Y-80377379D01*
X137043598Y-80377372D01*
X137049999Y-80317844D01*
X137050000Y-80317827D01*
X137050000Y-80224923D01*
X137069685Y-80157884D01*
X137070000Y-80157530D01*
X137070000Y-79346988D01*
X137079940Y-79364205D01*
X137135795Y-79420060D01*
X137204204Y-79459556D01*
X137280504Y-79480000D01*
X137359496Y-79480000D01*
X137435796Y-79459556D01*
X137504205Y-79420060D01*
X137560060Y-79364205D01*
X137570000Y-79346988D01*
X137570000Y-80149862D01*
X137611690Y-80141569D01*
X137611692Y-80141569D01*
X137793671Y-80066192D01*
X137793684Y-80066185D01*
X137957462Y-79956751D01*
X137957466Y-79956748D01*
X138096748Y-79817466D01*
X138096751Y-79817462D01*
X138206185Y-79653684D01*
X138206192Y-79653671D01*
X138281569Y-79471693D01*
X138281572Y-79471681D01*
X138319999Y-79278495D01*
X138320000Y-79278492D01*
X138320000Y-78880000D01*
X137620000Y-78880000D01*
X137620000Y-78380000D01*
X138320000Y-78380000D01*
X138320000Y-77981508D01*
X138319999Y-77981504D01*
X138281572Y-77788318D01*
X138281569Y-77788306D01*
X138206192Y-77606328D01*
X138206185Y-77606315D01*
X138096751Y-77442537D01*
X138096748Y-77442533D01*
X137957466Y-77303251D01*
X137957462Y-77303248D01*
X137793684Y-77193814D01*
X137793671Y-77193807D01*
X137611691Y-77118429D01*
X137611683Y-77118427D01*
X137570000Y-77110135D01*
X137570000Y-77913011D01*
X137560060Y-77895795D01*
X137504205Y-77839940D01*
X137435796Y-77800444D01*
X137359496Y-77780000D01*
X137280504Y-77780000D01*
X137204204Y-77800444D01*
X137135795Y-77839940D01*
X137079940Y-77895795D01*
X137070000Y-77913011D01*
X137070000Y-77110136D01*
X137069999Y-77110135D01*
X137028316Y-77118427D01*
X137028308Y-77118429D01*
X136846328Y-77193807D01*
X136846315Y-77193814D01*
X136682537Y-77303248D01*
X136682533Y-77303251D01*
X136543248Y-77442536D01*
X136430427Y-77611387D01*
X136429003Y-77610435D01*
X136385742Y-77654451D01*
X136317600Y-77669892D01*
X136251927Y-77646041D01*
X136249907Y-77644306D01*
X136249811Y-77644432D01*
X136243367Y-77639487D01*
X136243365Y-77639485D01*
X136177750Y-77601602D01*
X136112136Y-77563719D01*
X136018228Y-77538557D01*
X135965766Y-77524500D01*
X135814234Y-77524500D01*
X135667863Y-77563719D01*
X135536635Y-77639485D01*
X135536632Y-77639487D01*
X135429487Y-77746632D01*
X135429485Y-77746635D01*
X135353719Y-77877863D01*
X135314500Y-78024234D01*
X135314500Y-78175768D01*
X135314967Y-78179316D01*
X135314500Y-78182310D01*
X135314500Y-78183893D01*
X135314253Y-78183893D01*
X135312757Y-78193482D01*
X135315439Y-78207567D01*
X135307481Y-78227313D01*
X135304201Y-78248351D01*
X135294682Y-78259074D01*
X135289324Y-78272373D01*
X135271953Y-78284683D01*
X135257821Y-78300606D01*
X135242934Y-78305248D01*
X135232319Y-78312772D01*
X135203245Y-78317626D01*
X135197647Y-78319373D01*
X135194833Y-78319500D01*
X135102128Y-78319501D01*
X135042517Y-78325909D01*
X135040987Y-78326479D01*
X135030615Y-78326950D01*
X135028236Y-78326367D01*
X135011742Y-78326367D01*
X135007483Y-78325909D01*
X134947873Y-78319500D01*
X134947864Y-78319500D01*
X134552130Y-78319500D01*
X134552119Y-78319501D01*
X134513253Y-78323679D01*
X134493218Y-78324203D01*
X134489957Y-78324024D01*
X134447873Y-78319500D01*
X134407388Y-78319500D01*
X134403993Y-78319314D01*
X134374133Y-78308740D01*
X134343738Y-78299815D01*
X134341091Y-78297039D01*
X134338131Y-78295991D01*
X134329622Y-78285011D01*
X134303390Y-78257500D01*
X134230520Y-78131284D01*
X134118716Y-78019480D01*
X134118715Y-78019479D01*
X134114385Y-78015149D01*
X134114374Y-78015139D01*
X133987590Y-77888355D01*
X133987588Y-77888352D01*
X133868716Y-77769480D01*
X133868714Y-77769479D01*
X133829146Y-77746635D01*
X133781904Y-77719360D01*
X133781904Y-77719359D01*
X133781900Y-77719358D01*
X133731785Y-77690423D01*
X133579057Y-77649499D01*
X133420943Y-77649499D01*
X133413347Y-77649499D01*
X133413331Y-77649500D01*
X133154669Y-77649500D01*
X133154653Y-77649499D01*
X133147057Y-77649499D01*
X132988943Y-77649499D01*
X132839781Y-77689467D01*
X132836200Y-77690427D01*
X132831741Y-77692274D01*
X132762271Y-77699734D01*
X132699796Y-77668451D01*
X132696623Y-77665388D01*
X131894416Y-76863181D01*
X131860931Y-76801858D01*
X131865915Y-76732166D01*
X131907787Y-76676233D01*
X131973251Y-76651816D01*
X131982097Y-76651500D01*
X141016573Y-76651500D01*
X141083612Y-76671185D01*
X141129367Y-76723989D01*
X141139311Y-76793147D01*
X141110286Y-76856703D01*
X141093886Y-76872447D01*
X141081175Y-76882583D01*
X140882583Y-77081175D01*
X140707476Y-77300753D01*
X140558053Y-77538557D01*
X140436200Y-77791588D01*
X140343443Y-78056670D01*
X140343439Y-78056682D01*
X140280945Y-78330487D01*
X140280942Y-78330505D01*
X140249500Y-78609568D01*
X140249500Y-78890431D01*
X140280942Y-79169494D01*
X140280945Y-79169512D01*
X140343439Y-79443317D01*
X140343443Y-79443329D01*
X140436200Y-79708411D01*
X140436203Y-79708419D01*
X140533514Y-79910487D01*
X140544866Y-79979428D01*
X140536357Y-80011736D01*
X140528899Y-80029744D01*
X140528341Y-80031090D01*
X140528340Y-80031093D01*
X140499500Y-80176079D01*
X140499500Y-80176082D01*
X140499500Y-87073918D01*
X140499500Y-87073920D01*
X140499499Y-87073920D01*
X140528340Y-87218907D01*
X140528343Y-87218917D01*
X140584914Y-87355492D01*
X140617812Y-87404727D01*
X140617813Y-87404730D01*
X140667046Y-87478414D01*
X140667052Y-87478421D01*
X142571580Y-89382948D01*
X142571581Y-89382949D01*
X142571584Y-89382951D01*
X142595231Y-89398751D01*
X142638764Y-89449537D01*
X142643798Y-89460354D01*
X142648359Y-89478693D01*
X142712767Y-89608560D01*
X142713417Y-89609957D01*
X142718415Y-89643039D01*
X142724234Y-89675984D01*
X142723616Y-89677460D01*
X142723855Y-89679042D01*
X142710176Y-89709569D01*
X142697257Y-89740436D01*
X142695445Y-89742444D01*
X142695285Y-89742804D01*
X142694889Y-89743062D01*
X142688675Y-89749955D01*
X142517049Y-89921581D01*
X142467812Y-89995271D01*
X142434921Y-90044496D01*
X142434914Y-90044508D01*
X142378342Y-90181086D01*
X142378340Y-90181092D01*
X142349500Y-90326079D01*
X142349500Y-90662770D01*
X142329815Y-90729809D01*
X142313181Y-90750451D01*
X142257289Y-90806342D01*
X142165187Y-90955663D01*
X142165185Y-90955668D01*
X142151062Y-90998288D01*
X142110001Y-91122203D01*
X142110001Y-91122204D01*
X142110000Y-91122204D01*
X142099500Y-91224983D01*
X142099500Y-92275001D01*
X142099501Y-92275019D01*
X142110000Y-92377796D01*
X142110001Y-92377799D01*
X142156724Y-92518797D01*
X142165186Y-92544334D01*
X142257288Y-92693656D01*
X142381344Y-92817712D01*
X142530666Y-92909814D01*
X142697203Y-92964999D01*
X142799991Y-92975500D01*
X143400008Y-92975499D01*
X143400016Y-92975498D01*
X143400019Y-92975498D01*
X143468681Y-92968484D01*
X143502797Y-92964999D01*
X143669334Y-92909814D01*
X143818656Y-92817712D01*
X143942712Y-92693656D01*
X143944752Y-92690347D01*
X143946745Y-92688555D01*
X143947193Y-92687989D01*
X143947289Y-92688065D01*
X143996694Y-92643623D01*
X144065656Y-92632395D01*
X144129740Y-92660234D01*
X144155829Y-92690339D01*
X144157681Y-92693341D01*
X144157683Y-92693344D01*
X144281654Y-92817315D01*
X144430875Y-92909356D01*
X144430880Y-92909358D01*
X144597302Y-92964505D01*
X144597309Y-92964506D01*
X144700019Y-92974999D01*
X145250000Y-92974999D01*
X145299972Y-92974999D01*
X145299986Y-92974998D01*
X145402697Y-92964505D01*
X145569119Y-92909358D01*
X145569124Y-92909356D01*
X145718345Y-92817315D01*
X145842315Y-92693345D01*
X145934356Y-92544124D01*
X145934358Y-92544119D01*
X145989505Y-92377697D01*
X145989506Y-92377690D01*
X145999999Y-92274986D01*
X146000000Y-92274973D01*
X146000000Y-92000000D01*
X145250000Y-92000000D01*
X145250000Y-92974999D01*
X144700019Y-92974999D01*
X144749999Y-92974998D01*
X144750000Y-92974998D01*
X144750000Y-91500000D01*
X145250000Y-91500000D01*
X145999999Y-91500000D01*
X145999999Y-91225028D01*
X145999998Y-91225013D01*
X145989505Y-91122302D01*
X145934358Y-90955880D01*
X145934356Y-90955875D01*
X145842315Y-90806654D01*
X145718345Y-90682684D01*
X145569124Y-90590643D01*
X145569119Y-90590641D01*
X145402697Y-90535494D01*
X145402690Y-90535493D01*
X145299986Y-90525000D01*
X145250000Y-90525000D01*
X145250000Y-91500000D01*
X144750000Y-91500000D01*
X144750000Y-90525000D01*
X144749999Y-90524999D01*
X144700029Y-90525000D01*
X144700011Y-90525001D01*
X144597302Y-90535494D01*
X144430880Y-90590641D01*
X144430875Y-90590643D01*
X144281654Y-90682684D01*
X144157683Y-90806655D01*
X144157679Y-90806660D01*
X144155826Y-90809665D01*
X144154018Y-90811290D01*
X144153202Y-90812323D01*
X144153025Y-90812183D01*
X144133965Y-90829323D01*
X144114025Y-90850927D01*
X144108284Y-90852418D01*
X144103874Y-90856385D01*
X144074856Y-90861104D01*
X144046401Y-90868498D01*
X144040764Y-90866648D01*
X144034911Y-90867601D01*
X144007952Y-90855884D01*
X143980012Y-90846719D01*
X143975184Y-90841643D01*
X143970831Y-90839752D01*
X143954077Y-90822780D01*
X143948991Y-90816524D01*
X143942712Y-90806344D01*
X143932033Y-90795665D01*
X143928013Y-90790720D01*
X143916870Y-90764143D01*
X143903063Y-90738857D01*
X143903530Y-90732324D01*
X143900998Y-90726285D01*
X143905991Y-90697908D01*
X143908047Y-90669165D01*
X143912181Y-90662731D01*
X143913107Y-90657472D01*
X143921189Y-90648715D01*
X143936546Y-90624820D01*
X144474548Y-90086817D01*
X144535871Y-90053333D01*
X144562229Y-90050499D01*
X144801123Y-90050499D01*
X144801123Y-90050498D01*
X144843889Y-90047600D01*
X145028693Y-90001641D01*
X145199296Y-89917030D01*
X145347722Y-89797722D01*
X145467030Y-89649296D01*
X145551641Y-89478693D01*
X145597600Y-89293889D01*
X145600500Y-89251123D01*
X145600499Y-88348878D01*
X145597600Y-88306111D01*
X145551641Y-88121307D01*
X145500135Y-88017454D01*
X145467032Y-87950707D01*
X145467030Y-87950704D01*
X145347722Y-87802278D01*
X145347721Y-87802277D01*
X145278514Y-87746647D01*
X145238595Y-87689304D01*
X145236015Y-87619482D01*
X145271594Y-87559349D01*
X145278514Y-87553353D01*
X145287909Y-87545800D01*
X145347722Y-87497722D01*
X145467030Y-87349296D01*
X145481854Y-87319406D01*
X145529275Y-87268093D01*
X145592942Y-87250500D01*
X146375500Y-87250500D01*
X146442539Y-87270185D01*
X146488294Y-87322989D01*
X146499500Y-87374500D01*
X146499500Y-93137770D01*
X146479815Y-93204809D01*
X146463181Y-93225451D01*
X146226451Y-93462181D01*
X146165128Y-93495666D01*
X146138770Y-93498500D01*
X130576874Y-93498500D01*
X130509835Y-93478815D01*
X130489193Y-93462181D01*
X125713483Y-88686470D01*
X125713482Y-88686469D01*
X125600696Y-88611109D01*
X125594653Y-88607071D01*
X125499610Y-88567703D01*
X125462620Y-88552381D01*
X125462615Y-88552380D01*
X125375306Y-88535012D01*
X125349101Y-88521303D01*
X125321772Y-88510010D01*
X125318489Y-88505290D01*
X125313396Y-88502626D01*
X125298761Y-88476926D01*
X125281877Y-88452650D01*
X125280655Y-88445128D01*
X125278822Y-88441910D01*
X125275582Y-88417922D01*
X125275499Y-88415650D01*
X125275499Y-88327128D01*
X125270599Y-88281553D01*
X125270440Y-88277177D01*
X125271067Y-88274710D01*
X125271068Y-88259393D01*
X125274999Y-88222833D01*
X125275000Y-88222819D01*
X125275000Y-88175000D01*
X125259388Y-88159388D01*
X125245516Y-88155315D01*
X125241330Y-88151418D01*
X125238246Y-88150268D01*
X125213289Y-88125312D01*
X125177433Y-88077415D01*
X125137678Y-88024309D01*
X125113261Y-87958848D01*
X125128112Y-87890575D01*
X125137673Y-87875696D01*
X125208088Y-87781635D01*
X125213289Y-87774688D01*
X125261105Y-87738894D01*
X125275000Y-87725000D01*
X125275000Y-87677182D01*
X125274999Y-87677164D01*
X125271068Y-87640602D01*
X125271068Y-87614094D01*
X125275500Y-87572873D01*
X125275499Y-87027128D01*
X125275499Y-87027127D01*
X125275498Y-87027111D01*
X125271320Y-86988253D01*
X125271320Y-86961747D01*
X125275500Y-86922873D01*
X125275499Y-86377128D01*
X125275498Y-86377111D01*
X125271320Y-86338253D01*
X125271320Y-86311747D01*
X125275500Y-86272873D01*
X125275499Y-85727128D01*
X125275498Y-85727111D01*
X125271320Y-85688253D01*
X125271320Y-85661747D01*
X125275500Y-85622873D01*
X125275499Y-85077128D01*
X125275499Y-85077127D01*
X125275498Y-85077111D01*
X125271320Y-85038253D01*
X125271320Y-85011745D01*
X125275500Y-84972873D01*
X125275499Y-84427128D01*
X125269091Y-84367517D01*
X125250560Y-84317834D01*
X125218797Y-84232671D01*
X125218793Y-84232664D01*
X125132547Y-84117455D01*
X125132544Y-84117452D01*
X125017335Y-84031206D01*
X125017328Y-84031202D01*
X124908686Y-83990682D01*
X124852752Y-83948811D01*
X124828335Y-83883347D01*
X124843186Y-83815074D01*
X124892591Y-83765668D01*
X124952019Y-83750500D01*
X125445396Y-83750500D01*
X125492844Y-83759937D01*
X125516503Y-83769737D01*
X125516508Y-83769738D01*
X125516511Y-83769739D01*
X125671153Y-83800499D01*
X125671156Y-83800500D01*
X125671158Y-83800500D01*
X125828844Y-83800500D01*
X125828845Y-83800499D01*
X125983497Y-83769737D01*
X126129179Y-83709394D01*
X126260289Y-83621789D01*
X126371789Y-83510289D01*
X126459394Y-83379179D01*
X126519737Y-83233497D01*
X126550500Y-83078842D01*
X126550500Y-82921158D01*
X126550500Y-82921155D01*
X126550499Y-82921153D01*
X126529199Y-82814071D01*
X126519737Y-82766503D01*
X126519735Y-82766498D01*
X126459397Y-82620827D01*
X126459390Y-82620814D01*
X126371789Y-82489711D01*
X126371786Y-82489707D01*
X126260292Y-82378213D01*
X126260288Y-82378210D01*
X126129185Y-82290609D01*
X126129172Y-82290602D01*
X125983501Y-82230264D01*
X125983489Y-82230261D01*
X125828845Y-82199500D01*
X125828842Y-82199500D01*
X125671158Y-82199500D01*
X125671155Y-82199500D01*
X125516511Y-82230260D01*
X125516506Y-82230262D01*
X125516504Y-82230262D01*
X125516503Y-82230263D01*
X125492844Y-82240062D01*
X125445396Y-82249500D01*
X124426080Y-82249500D01*
X124281092Y-82278340D01*
X124281082Y-82278343D01*
X124144511Y-82334912D01*
X124144498Y-82334919D01*
X124021584Y-82417048D01*
X124021580Y-82417051D01*
X123317052Y-83121578D01*
X123317051Y-83121579D01*
X123271507Y-83189743D01*
X123271506Y-83189744D01*
X123234914Y-83244507D01*
X123178343Y-83381082D01*
X123178340Y-83381092D01*
X123149500Y-83526079D01*
X123149500Y-83850500D01*
X123129815Y-83917539D01*
X123077011Y-83963294D01*
X123025502Y-83974500D01*
X122977131Y-83974500D01*
X122977123Y-83974501D01*
X122917516Y-83980908D01*
X122782671Y-84031202D01*
X122782664Y-84031206D01*
X122667455Y-84117452D01*
X122667452Y-84117455D01*
X122581206Y-84232664D01*
X122581202Y-84232671D01*
X122530910Y-84367513D01*
X122530909Y-84367517D01*
X122524500Y-84427127D01*
X122524500Y-84427134D01*
X122524500Y-84427135D01*
X122524500Y-84972869D01*
X122524501Y-84972878D01*
X122528679Y-85011745D01*
X122529352Y-85028020D01*
X122529226Y-85033159D01*
X122524500Y-85077127D01*
X122524500Y-85227005D01*
X122524463Y-85228523D01*
X122514247Y-85260414D01*
X122504815Y-85292539D01*
X122503628Y-85293566D01*
X122503150Y-85295062D01*
X122477296Y-85316383D01*
X122452011Y-85338294D01*
X122450270Y-85338672D01*
X122449247Y-85339517D01*
X122442940Y-85340267D01*
X122400500Y-85349500D01*
X122254935Y-85349500D01*
X122187896Y-85329815D01*
X122186090Y-85328633D01*
X122129179Y-85290606D01*
X122129172Y-85290602D01*
X121983501Y-85230264D01*
X121983489Y-85230261D01*
X121828845Y-85199500D01*
X121828842Y-85199500D01*
X121671158Y-85199500D01*
X121671155Y-85199500D01*
X121516510Y-85230261D01*
X121516498Y-85230264D01*
X121370827Y-85290602D01*
X121370814Y-85290609D01*
X121239711Y-85378210D01*
X121239707Y-85378213D01*
X121128213Y-85489707D01*
X121128210Y-85489711D01*
X121040609Y-85620814D01*
X121040602Y-85620827D01*
X120980264Y-85766498D01*
X120980261Y-85766508D01*
X120953769Y-85899692D01*
X120921384Y-85961603D01*
X120860668Y-85996177D01*
X120832152Y-85999500D01*
X120785929Y-85999500D01*
X120660261Y-86024497D01*
X120660255Y-86024499D01*
X120541875Y-86073533D01*
X120541866Y-86073538D01*
X120435331Y-86144723D01*
X120435327Y-86144726D01*
X119817889Y-86762164D01*
X117516873Y-89063181D01*
X117455550Y-89096666D01*
X117429192Y-89099500D01*
X113185929Y-89099500D01*
X113060261Y-89124497D01*
X113060255Y-89124499D01*
X112941874Y-89173534D01*
X112835326Y-89244726D01*
X111194726Y-90885326D01*
X111129496Y-90982952D01*
X111129495Y-90982954D01*
X111123533Y-90991875D01*
X111074499Y-91110255D01*
X111074497Y-91110261D01*
X111049500Y-91235928D01*
X111049500Y-91686230D01*
X111029815Y-91753269D01*
X110977011Y-91799024D01*
X110907853Y-91808968D01*
X110882168Y-91802412D01*
X110757485Y-91755909D01*
X110757483Y-91755908D01*
X110697883Y-91749501D01*
X110697881Y-91749500D01*
X110697873Y-91749500D01*
X110697864Y-91749500D01*
X109702129Y-91749500D01*
X109702123Y-91749501D01*
X109642516Y-91755908D01*
X109499359Y-91809303D01*
X109498714Y-91807575D01*
X109441147Y-91820095D01*
X109401011Y-91808310D01*
X109400641Y-91809303D01*
X109257482Y-91755908D01*
X109257483Y-91755908D01*
X109197883Y-91749501D01*
X109197881Y-91749500D01*
X109197873Y-91749500D01*
X109197864Y-91749500D01*
X108202129Y-91749500D01*
X108202123Y-91749501D01*
X108142516Y-91755908D01*
X107999359Y-91809303D01*
X107998714Y-91807575D01*
X107941147Y-91820095D01*
X107901011Y-91808310D01*
X107900641Y-91809303D01*
X107757482Y-91755908D01*
X107757483Y-91755908D01*
X107697883Y-91749501D01*
X107697881Y-91749500D01*
X107697873Y-91749500D01*
X107697864Y-91749500D01*
X106702129Y-91749500D01*
X106702123Y-91749501D01*
X106642516Y-91755908D01*
X106507671Y-91806202D01*
X106507664Y-91806206D01*
X106392455Y-91892452D01*
X106392452Y-91892455D01*
X106323266Y-91984876D01*
X106267332Y-92026747D01*
X106197641Y-92031731D01*
X106136318Y-91998245D01*
X106102834Y-91936922D01*
X106100000Y-91910565D01*
X106100000Y-81199986D01*
X124525001Y-81199986D01*
X124535494Y-81302697D01*
X124590641Y-81469119D01*
X124590643Y-81469124D01*
X124682684Y-81618345D01*
X124806654Y-81742315D01*
X124955875Y-81834356D01*
X124955880Y-81834358D01*
X125122302Y-81889505D01*
X125122309Y-81889506D01*
X125225019Y-81899999D01*
X125499999Y-81899999D01*
X125500000Y-81899998D01*
X125500000Y-81150000D01*
X124525001Y-81150000D01*
X124525001Y-81199986D01*
X106100000Y-81199986D01*
X106100000Y-76589434D01*
X106119685Y-76522395D01*
X106172489Y-76476640D01*
X106241647Y-76466696D01*
X106305203Y-76495721D01*
G37*
G04 #@! TD.AperFunction*
G04 #@! TA.AperFunction,Conductor*
G36*
X132591140Y-89631855D02*
G01*
X132618688Y-89633826D01*
X132626425Y-89638798D01*
X132632602Y-89640014D01*
X132641255Y-89648329D01*
X132663035Y-89662327D01*
X133874028Y-90873320D01*
X133889446Y-90892106D01*
X133915842Y-90931611D01*
X133936719Y-90998288D01*
X133918234Y-91065668D01*
X133866255Y-91112357D01*
X133812739Y-91124500D01*
X132599499Y-91124500D01*
X132532460Y-91104815D01*
X132486705Y-91052011D01*
X132475499Y-91000500D01*
X132475499Y-90927129D01*
X132475499Y-90927128D01*
X132471067Y-90885898D01*
X132471068Y-90859393D01*
X132474999Y-90822833D01*
X132475000Y-90822819D01*
X132475000Y-90775000D01*
X132459388Y-90759388D01*
X132445516Y-90755315D01*
X132413289Y-90725312D01*
X132366680Y-90663051D01*
X132332546Y-90617454D01*
X132332544Y-90617453D01*
X132332544Y-90617452D01*
X132240124Y-90548266D01*
X132198253Y-90492332D01*
X132193269Y-90422641D01*
X132226755Y-90361318D01*
X132288078Y-90327834D01*
X132314435Y-90325000D01*
X132475000Y-90325000D01*
X132475000Y-90277179D01*
X132474999Y-90277168D01*
X132470815Y-90238258D01*
X132470815Y-90211742D01*
X132474999Y-90172831D01*
X132475000Y-90172821D01*
X132475000Y-90125000D01*
X132314435Y-90125000D01*
X132247396Y-90105315D01*
X132201641Y-90052511D01*
X132191697Y-89983353D01*
X132220722Y-89919797D01*
X132240124Y-89901734D01*
X132298432Y-89858083D01*
X132332546Y-89832546D01*
X132399727Y-89742804D01*
X132413289Y-89724688D01*
X132436283Y-89701232D01*
X132499082Y-89652240D01*
X132524759Y-89642075D01*
X132548996Y-89628842D01*
X132556786Y-89629399D01*
X132564047Y-89626525D01*
X132591140Y-89631855D01*
G37*
G04 #@! TD.AperFunction*
G04 #@! TA.AperFunction,Conductor*
G36*
X133641165Y-86370185D02*
G01*
X133686920Y-86422989D01*
X133696864Y-86492147D01*
X133667839Y-86555703D01*
X133661807Y-86562181D01*
X133035807Y-87188181D01*
X132974484Y-87221666D01*
X132948126Y-87224500D01*
X132599499Y-87224500D01*
X132593227Y-87222658D01*
X132586799Y-87223848D01*
X132560113Y-87212935D01*
X132532460Y-87204815D01*
X132528180Y-87199876D01*
X132522128Y-87197401D01*
X132505577Y-87173791D01*
X132486705Y-87152011D01*
X132484843Y-87144213D01*
X132482022Y-87140188D01*
X132477907Y-87115154D01*
X132475599Y-87105483D01*
X132475499Y-87102996D01*
X132475499Y-87027128D01*
X132470623Y-86981773D01*
X132470457Y-86977633D01*
X132471067Y-86975195D01*
X132471068Y-86959393D01*
X132474999Y-86922833D01*
X132475000Y-86922819D01*
X132475000Y-86875000D01*
X132459388Y-86859388D01*
X132445516Y-86855315D01*
X132413289Y-86825312D01*
X132366016Y-86762164D01*
X132332546Y-86717454D01*
X132332544Y-86717453D01*
X132332544Y-86717452D01*
X132240124Y-86648266D01*
X132198253Y-86592332D01*
X132193269Y-86522641D01*
X132226755Y-86461318D01*
X132288078Y-86427834D01*
X132314435Y-86425000D01*
X132475000Y-86425000D01*
X132511319Y-86388681D01*
X132513658Y-86391020D01*
X132547489Y-86361706D01*
X132599000Y-86350500D01*
X133574126Y-86350500D01*
X133641165Y-86370185D01*
G37*
G04 #@! TD.AperFunction*
G04 #@! TA.AperFunction,Conductor*
G36*
X151442539Y-71020185D02*
G01*
X151488294Y-71072989D01*
X151499500Y-71124500D01*
X151499500Y-84079709D01*
X151479815Y-84146748D01*
X151427011Y-84192503D01*
X151357853Y-84202447D01*
X151318089Y-84189618D01*
X151273047Y-84166090D01*
X151189370Y-84142147D01*
X151077418Y-84110114D01*
X151077415Y-84110113D01*
X151077413Y-84110113D01*
X151011102Y-84104217D01*
X150958037Y-84099500D01*
X150958032Y-84099500D01*
X149841971Y-84099500D01*
X149841965Y-84099500D01*
X149841964Y-84099501D01*
X149830316Y-84100536D01*
X149722584Y-84110113D01*
X149526954Y-84166089D01*
X149457351Y-84202447D01*
X149346593Y-84260302D01*
X149346591Y-84260303D01*
X149346590Y-84260304D01*
X149188890Y-84388890D01*
X149060304Y-84546590D01*
X149060302Y-84546593D01*
X149019607Y-84624500D01*
X148966089Y-84726954D01*
X148910114Y-84922583D01*
X148910113Y-84922586D01*
X148905642Y-84972878D01*
X148901674Y-85017517D01*
X148899500Y-85041966D01*
X148899500Y-85625500D01*
X148879815Y-85692539D01*
X148827011Y-85738294D01*
X148775500Y-85749500D01*
X145592942Y-85749500D01*
X145525903Y-85729815D01*
X145481854Y-85680594D01*
X145467030Y-85650704D01*
X145347724Y-85502280D01*
X145347722Y-85502278D01*
X145278112Y-85446324D01*
X145238196Y-85388985D01*
X145235616Y-85319163D01*
X145271194Y-85259030D01*
X145278115Y-85253033D01*
X145347366Y-85197367D01*
X145347367Y-85197366D01*
X145466607Y-85049025D01*
X145466609Y-85049022D01*
X145551168Y-84878523D01*
X145597102Y-84693824D01*
X145600000Y-84651096D01*
X145600000Y-84450000D01*
X142600000Y-84450000D01*
X142600000Y-84651096D01*
X142602897Y-84693824D01*
X142648831Y-84878523D01*
X142733390Y-85049022D01*
X142733392Y-85049025D01*
X142852630Y-85197364D01*
X142921884Y-85253031D01*
X142961803Y-85310375D01*
X142964383Y-85380197D01*
X142928805Y-85440329D01*
X142921885Y-85446326D01*
X142852276Y-85502280D01*
X142732969Y-85650704D01*
X142732967Y-85650707D01*
X142648360Y-85821302D01*
X142602400Y-86006107D01*
X142599500Y-86048879D01*
X142599500Y-86951122D01*
X142599501Y-86951127D01*
X142601649Y-86982818D01*
X142586543Y-87051035D01*
X142536954Y-87100256D01*
X142468626Y-87114853D01*
X142403253Y-87090192D01*
X142390252Y-87078884D01*
X142036819Y-86725451D01*
X142003334Y-86664128D01*
X142000500Y-86637770D01*
X142000500Y-83748903D01*
X142600000Y-83748903D01*
X142600000Y-83950000D01*
X143850000Y-83950000D01*
X144350000Y-83950000D01*
X145600000Y-83950000D01*
X145600000Y-83748903D01*
X145597102Y-83706175D01*
X145551168Y-83521476D01*
X145466609Y-83350977D01*
X145466607Y-83350974D01*
X145347367Y-83202633D01*
X145347366Y-83202632D01*
X145199025Y-83083392D01*
X145199022Y-83083390D01*
X145028523Y-82998831D01*
X144843824Y-82952897D01*
X144801097Y-82950000D01*
X144350000Y-82950000D01*
X144350000Y-83950000D01*
X143850000Y-83950000D01*
X143850000Y-82950000D01*
X143398903Y-82950000D01*
X143356175Y-82952897D01*
X143171476Y-82998831D01*
X143000977Y-83083390D01*
X143000974Y-83083392D01*
X142852633Y-83202632D01*
X142852632Y-83202633D01*
X142733392Y-83350974D01*
X142733390Y-83350977D01*
X142648831Y-83521476D01*
X142602897Y-83706175D01*
X142600000Y-83748903D01*
X142000500Y-83748903D01*
X142000500Y-81299227D01*
X142020185Y-81232188D01*
X142072989Y-81186433D01*
X142142147Y-81176489D01*
X142152071Y-81178332D01*
X142330491Y-81219055D01*
X142330500Y-81219056D01*
X142330505Y-81219057D01*
X142516547Y-81240018D01*
X142609569Y-81250499D01*
X142609572Y-81250500D01*
X142609575Y-81250500D01*
X142890428Y-81250500D01*
X142890429Y-81250499D01*
X143067754Y-81230520D01*
X143169494Y-81219057D01*
X143169499Y-81219056D01*
X143169509Y-81219055D01*
X143443318Y-81156560D01*
X143708408Y-81063801D01*
X143961445Y-80941945D01*
X144199248Y-80792523D01*
X144418825Y-80617416D01*
X144617416Y-80418825D01*
X144792523Y-80199248D01*
X144941945Y-79961445D01*
X145063801Y-79708408D01*
X145095615Y-79617489D01*
X145107493Y-79583545D01*
X145148215Y-79526769D01*
X145213167Y-79501022D01*
X145224534Y-79500500D01*
X146323920Y-79500500D01*
X146426976Y-79480000D01*
X146468913Y-79471658D01*
X146605495Y-79415084D01*
X146623885Y-79402796D01*
X146657109Y-79380597D01*
X146657110Y-79380596D01*
X146681641Y-79364205D01*
X146728416Y-79332952D01*
X147444247Y-78617120D01*
X147505567Y-78583637D01*
X147575258Y-78588621D01*
X147631192Y-78630492D01*
X147649856Y-78666485D01*
X147661083Y-78701040D01*
X147661084Y-78701043D01*
X147745050Y-78865834D01*
X147760015Y-78886430D01*
X148350000Y-78296445D01*
X148350000Y-78302661D01*
X148377259Y-78404394D01*
X148429920Y-78495606D01*
X148504394Y-78570080D01*
X148595606Y-78622741D01*
X148697339Y-78650000D01*
X148703553Y-78650000D01*
X148113568Y-79239983D01*
X148113568Y-79239984D01*
X148134165Y-79254949D01*
X148298956Y-79338915D01*
X148298959Y-79338916D01*
X148474852Y-79396066D01*
X148657527Y-79425000D01*
X148842473Y-79425000D01*
X149025147Y-79396066D01*
X149201040Y-79338916D01*
X149201043Y-79338915D01*
X149365836Y-79254947D01*
X149365845Y-79254942D01*
X149386430Y-79239984D01*
X149386431Y-79239983D01*
X148796448Y-78650000D01*
X148802661Y-78650000D01*
X148904394Y-78622741D01*
X148995606Y-78570080D01*
X149070080Y-78495606D01*
X149122741Y-78404394D01*
X149150000Y-78302661D01*
X149150000Y-78296447D01*
X149739983Y-78886430D01*
X149739984Y-78886430D01*
X149754942Y-78865845D01*
X149754947Y-78865836D01*
X149838915Y-78701043D01*
X149838916Y-78701040D01*
X149896066Y-78525147D01*
X149925000Y-78342473D01*
X149925000Y-78157526D01*
X149896066Y-77974852D01*
X149838916Y-77798959D01*
X149838915Y-77798956D01*
X149754949Y-77634165D01*
X149739983Y-77613568D01*
X149150000Y-78203551D01*
X149150000Y-78197339D01*
X149122741Y-78095606D01*
X149070080Y-78004394D01*
X148995606Y-77929920D01*
X148904394Y-77877259D01*
X148802661Y-77850000D01*
X148796446Y-77850000D01*
X149410675Y-77235771D01*
X149441165Y-77200836D01*
X149515787Y-77146621D01*
X149646621Y-77015787D01*
X149755378Y-76866096D01*
X149839379Y-76701235D01*
X149896555Y-76525264D01*
X149925500Y-76342514D01*
X149925500Y-76157486D01*
X149896555Y-75974736D01*
X149839379Y-75798765D01*
X149839379Y-75798764D01*
X149755377Y-75633903D01*
X149671454Y-75518393D01*
X149647974Y-75452586D01*
X149663799Y-75384532D01*
X149697459Y-75346241D01*
X149782546Y-75282546D01*
X149868796Y-75167331D01*
X149919091Y-75032483D01*
X149925500Y-74972873D01*
X149925499Y-73527128D01*
X149919091Y-73467517D01*
X149890606Y-73391146D01*
X149868797Y-73332671D01*
X149868793Y-73332664D01*
X149782547Y-73217455D01*
X149782544Y-73217452D01*
X149667335Y-73131206D01*
X149667328Y-73131202D01*
X149532482Y-73080908D01*
X149532483Y-73080908D01*
X149472883Y-73074501D01*
X149472881Y-73074500D01*
X149472873Y-73074500D01*
X149472864Y-73074500D01*
X148027129Y-73074500D01*
X148027123Y-73074501D01*
X147967516Y-73080908D01*
X147832671Y-73131202D01*
X147832664Y-73131206D01*
X147717455Y-73217452D01*
X147717452Y-73217455D01*
X147631206Y-73332664D01*
X147631202Y-73332671D01*
X147580908Y-73467517D01*
X147574512Y-73527011D01*
X147574501Y-73527123D01*
X147574500Y-73527135D01*
X147574500Y-74454191D01*
X147554815Y-74521230D01*
X147538181Y-74541872D01*
X146765873Y-75314181D01*
X146704550Y-75347666D01*
X146678192Y-75350500D01*
X145232471Y-75350500D01*
X145165432Y-75330815D01*
X145119677Y-75278011D01*
X145109733Y-75208853D01*
X145112229Y-75196202D01*
X145139517Y-75087903D01*
X145149999Y-74954719D01*
X145150000Y-74954706D01*
X145150000Y-74000000D01*
X144077231Y-74000000D01*
X144100000Y-73856247D01*
X144100000Y-73643753D01*
X144077231Y-73500000D01*
X145150000Y-73500000D01*
X145150000Y-72545293D01*
X145149999Y-72545280D01*
X145139517Y-72412093D01*
X145139516Y-72412087D01*
X145084101Y-72192170D01*
X145084100Y-72192167D01*
X144990304Y-71985669D01*
X144990301Y-71985663D01*
X144861148Y-71799241D01*
X144861138Y-71799229D01*
X144700770Y-71638861D01*
X144700758Y-71638851D01*
X144514336Y-71509698D01*
X144514330Y-71509695D01*
X144307832Y-71415899D01*
X144307829Y-71415898D01*
X144087912Y-71360483D01*
X144087906Y-71360482D01*
X143954719Y-71350000D01*
X143000000Y-71350000D01*
X143000000Y-72422768D01*
X142856247Y-72400000D01*
X142643753Y-72400000D01*
X142500000Y-72422768D01*
X142500000Y-71350000D01*
X141545280Y-71350000D01*
X141412093Y-71360482D01*
X141412087Y-71360483D01*
X141192170Y-71415898D01*
X141192167Y-71415899D01*
X140985669Y-71509695D01*
X140985663Y-71509698D01*
X140799241Y-71638851D01*
X140799229Y-71638861D01*
X140638861Y-71799229D01*
X140638851Y-71799241D01*
X140509698Y-71985663D01*
X140509695Y-71985669D01*
X140415899Y-72192167D01*
X140415898Y-72192170D01*
X140360483Y-72412087D01*
X140360482Y-72412093D01*
X140350000Y-72545280D01*
X140350000Y-73500000D01*
X141422769Y-73500000D01*
X141400000Y-73643753D01*
X141400000Y-73856247D01*
X141422769Y-74000000D01*
X140350000Y-74000000D01*
X140350000Y-74954719D01*
X140360482Y-75087903D01*
X140387771Y-75196202D01*
X140385063Y-75266019D01*
X140345039Y-75323289D01*
X140280406Y-75349830D01*
X140267529Y-75350500D01*
X138339237Y-75350500D01*
X138272198Y-75330815D01*
X138226443Y-75278011D01*
X138216499Y-75208853D01*
X138224676Y-75179048D01*
X138281569Y-75041693D01*
X138281572Y-75041681D01*
X138319999Y-74848495D01*
X138320000Y-74848492D01*
X138320000Y-74700000D01*
X137620000Y-74700000D01*
X137620000Y-74200000D01*
X138320000Y-74200000D01*
X138320000Y-74051508D01*
X138319999Y-74051504D01*
X138281572Y-73858318D01*
X138281569Y-73858306D01*
X138206192Y-73676328D01*
X138206185Y-73676315D01*
X138096751Y-73512537D01*
X138096748Y-73512533D01*
X137957466Y-73373251D01*
X137957462Y-73373248D01*
X137793684Y-73263814D01*
X137793671Y-73263807D01*
X137611691Y-73188429D01*
X137611683Y-73188427D01*
X137570000Y-73180135D01*
X137570000Y-73983011D01*
X137560060Y-73965795D01*
X137504205Y-73909940D01*
X137435796Y-73870444D01*
X137359496Y-73850000D01*
X137280504Y-73850000D01*
X137204204Y-73870444D01*
X137135795Y-73909940D01*
X137079940Y-73965795D01*
X137070000Y-73983011D01*
X137070000Y-73180136D01*
X137069999Y-73180135D01*
X137028316Y-73188427D01*
X137028308Y-73188429D01*
X136846328Y-73263807D01*
X136846315Y-73263814D01*
X136682537Y-73373248D01*
X136682533Y-73373251D01*
X136543251Y-73512533D01*
X136543248Y-73512537D01*
X136433814Y-73676315D01*
X136433807Y-73676328D01*
X136358430Y-73858306D01*
X136358427Y-73858318D01*
X136320000Y-74051504D01*
X136320000Y-74200000D01*
X137020000Y-74200000D01*
X137020000Y-74700000D01*
X136320000Y-74700000D01*
X136320000Y-74848495D01*
X136358427Y-75041681D01*
X136358430Y-75041693D01*
X136415324Y-75179048D01*
X136422793Y-75248517D01*
X136391518Y-75310996D01*
X136331428Y-75346648D01*
X136300763Y-75350500D01*
X129699237Y-75350500D01*
X129632198Y-75330815D01*
X129586443Y-75278011D01*
X129576499Y-75208853D01*
X129584676Y-75179048D01*
X129641569Y-75041693D01*
X129641572Y-75041681D01*
X129679999Y-74848495D01*
X129680000Y-74848492D01*
X129680000Y-74700000D01*
X128980000Y-74700000D01*
X128980000Y-74200000D01*
X129680000Y-74200000D01*
X129680000Y-74051508D01*
X129679999Y-74051504D01*
X129641572Y-73858318D01*
X129641569Y-73858306D01*
X129566192Y-73676328D01*
X129566185Y-73676315D01*
X129456751Y-73512537D01*
X129456748Y-73512533D01*
X129317466Y-73373251D01*
X129317462Y-73373248D01*
X129153684Y-73263814D01*
X129153671Y-73263807D01*
X128971691Y-73188429D01*
X128971683Y-73188427D01*
X128930000Y-73180135D01*
X128930000Y-73983011D01*
X128920060Y-73965795D01*
X128864205Y-73909940D01*
X128795796Y-73870444D01*
X128719496Y-73850000D01*
X128640504Y-73850000D01*
X128564204Y-73870444D01*
X128495795Y-73909940D01*
X128439940Y-73965795D01*
X128430000Y-73983011D01*
X128430000Y-73180136D01*
X128429999Y-73180135D01*
X128388316Y-73188427D01*
X128388308Y-73188429D01*
X128206328Y-73263807D01*
X128206315Y-73263814D01*
X128042537Y-73373248D01*
X128042533Y-73373251D01*
X127903251Y-73512533D01*
X127903248Y-73512537D01*
X127793814Y-73676315D01*
X127793807Y-73676328D01*
X127718430Y-73858306D01*
X127718427Y-73858318D01*
X127680000Y-74051504D01*
X127680000Y-74200000D01*
X128380000Y-74200000D01*
X128380000Y-74700000D01*
X127680000Y-74700000D01*
X127680000Y-74848495D01*
X127718427Y-75041681D01*
X127718430Y-75041693D01*
X127775324Y-75179048D01*
X127782793Y-75248517D01*
X127751518Y-75310996D01*
X127691428Y-75346648D01*
X127660763Y-75350500D01*
X121321808Y-75350500D01*
X121254769Y-75330815D01*
X121234127Y-75314181D01*
X120914674Y-74994727D01*
X120914673Y-74994726D01*
X120907690Y-74990060D01*
X120808127Y-74923535D01*
X120689744Y-74874499D01*
X120689738Y-74874497D01*
X120564071Y-74849500D01*
X120564069Y-74849500D01*
X120274499Y-74849500D01*
X120207460Y-74829815D01*
X120161705Y-74777011D01*
X120153130Y-74750910D01*
X120150499Y-74738343D01*
X120150499Y-74702128D01*
X120144091Y-74642517D01*
X120112965Y-74559066D01*
X120111049Y-74549910D01*
X120113103Y-74524032D01*
X120111252Y-74498141D01*
X120115824Y-74489767D01*
X120116579Y-74480259D01*
X120132295Y-74459602D01*
X120144737Y-74436818D01*
X120153110Y-74432246D01*
X120158886Y-74424655D01*
X120183277Y-74415774D01*
X120206061Y-74403334D01*
X120222216Y-74401596D01*
X120224540Y-74400751D01*
X120226328Y-74401154D01*
X120232418Y-74400500D01*
X122613331Y-74400500D01*
X122613347Y-74400501D01*
X122620943Y-74400501D01*
X122779054Y-74400501D01*
X122779057Y-74400501D01*
X122931785Y-74359577D01*
X122992541Y-74324499D01*
X123068716Y-74280520D01*
X123180520Y-74168716D01*
X123180520Y-74168714D01*
X123190724Y-74158511D01*
X123190728Y-74158506D01*
X123911021Y-73438212D01*
X123972342Y-73404729D01*
X124018093Y-73403422D01*
X124157486Y-73425500D01*
X124157488Y-73425500D01*
X124342513Y-73425500D01*
X124342514Y-73425500D01*
X124525264Y-73396555D01*
X124701235Y-73339379D01*
X124866096Y-73255378D01*
X125015787Y-73146621D01*
X125146621Y-73015787D01*
X125255378Y-72866096D01*
X125339379Y-72701235D01*
X125396555Y-72525264D01*
X125401253Y-72495606D01*
X125424145Y-72351070D01*
X125425500Y-72342514D01*
X125425500Y-72157486D01*
X125396555Y-71974736D01*
X125339379Y-71798765D01*
X125339379Y-71798764D01*
X125296577Y-71714763D01*
X125255378Y-71633904D01*
X125146621Y-71484213D01*
X125015787Y-71353379D01*
X124866096Y-71244622D01*
X124847181Y-71234984D01*
X124796386Y-71187011D01*
X124779591Y-71119190D01*
X124802128Y-71053055D01*
X124856843Y-71009603D01*
X124903477Y-71000500D01*
X151375500Y-71000500D01*
X151442539Y-71020185D01*
G37*
G04 #@! TD.AperFunction*
G04 #@! TA.AperFunction,Conductor*
G36*
X131697912Y-82184345D02*
G01*
X131702634Y-82187060D01*
X131805924Y-82249500D01*
X131834431Y-82266733D01*
X131987567Y-82314452D01*
X131987572Y-82314452D01*
X131988306Y-82314681D01*
X131990473Y-82316124D01*
X131993070Y-82316273D01*
X132019381Y-82335383D01*
X132046454Y-82353419D01*
X132047495Y-82355803D01*
X132049602Y-82357333D01*
X132061408Y-82387645D01*
X132074428Y-82417444D01*
X132074306Y-82420760D01*
X132074960Y-82422439D01*
X132073878Y-82432401D01*
X132072950Y-82457676D01*
X132043812Y-82601579D01*
X132030545Y-82626729D01*
X132020098Y-82653176D01*
X132014455Y-82657233D01*
X132011214Y-82663378D01*
X131986458Y-82677362D01*
X131963369Y-82693964D01*
X131956429Y-82694326D01*
X131950380Y-82697744D01*
X131921992Y-82696124D01*
X131893595Y-82697607D01*
X131887408Y-82694151D01*
X131880624Y-82693764D01*
X131860336Y-82679029D01*
X131834597Y-82664651D01*
X131550804Y-82380858D01*
X131517319Y-82319535D01*
X131522303Y-82249843D01*
X131564175Y-82193910D01*
X131629639Y-82169493D01*
X131697912Y-82184345D01*
G37*
G04 #@! TD.AperFunction*
G04 #@! TA.AperFunction,Conductor*
G36*
X127634137Y-77809185D02*
G01*
X127679892Y-77861989D01*
X127689836Y-77931147D01*
X127688716Y-77937690D01*
X127680000Y-77981510D01*
X127680000Y-78380000D01*
X128380000Y-78380000D01*
X128380000Y-78880000D01*
X127680000Y-78880000D01*
X127680000Y-79278495D01*
X127718427Y-79471681D01*
X127718430Y-79471693D01*
X127793807Y-79653671D01*
X127793814Y-79653684D01*
X127903248Y-79817462D01*
X127903251Y-79817466D01*
X128042533Y-79956748D01*
X128042537Y-79956751D01*
X128206315Y-80066185D01*
X128206328Y-80066192D01*
X128388308Y-80141569D01*
X128430000Y-80149862D01*
X128430000Y-79346988D01*
X128439940Y-79364205D01*
X128495795Y-79420060D01*
X128564204Y-79459556D01*
X128640504Y-79480000D01*
X128719496Y-79480000D01*
X128795796Y-79459556D01*
X128864205Y-79420060D01*
X128920060Y-79364205D01*
X128959556Y-79295796D01*
X128959769Y-79295000D01*
X129625500Y-79295000D01*
X129692539Y-79314685D01*
X129738294Y-79367489D01*
X129749500Y-79419000D01*
X129749500Y-80317870D01*
X129749501Y-80317876D01*
X129755908Y-80377483D01*
X129806202Y-80512328D01*
X129806204Y-80512331D01*
X129853773Y-80575875D01*
X129864233Y-80603919D01*
X129876877Y-80637819D01*
X129878190Y-80641338D01*
X129863339Y-80709611D01*
X129842188Y-80737866D01*
X129766871Y-80813182D01*
X129705551Y-80846666D01*
X129679192Y-80849500D01*
X129624000Y-80849500D01*
X129556961Y-80829815D01*
X129511206Y-80777011D01*
X129500000Y-80725500D01*
X129500000Y-79795000D01*
X128930000Y-79795000D01*
X128930000Y-80166262D01*
X128943999Y-80186813D01*
X128950000Y-80224923D01*
X128950000Y-80317844D01*
X128956401Y-80377372D01*
X128956403Y-80377379D01*
X129006645Y-80512086D01*
X129006649Y-80512093D01*
X129092809Y-80627187D01*
X129099082Y-80633460D01*
X129097859Y-80634682D01*
X129133406Y-80682166D01*
X129138390Y-80751858D01*
X129104906Y-80813181D01*
X129043583Y-80846666D01*
X129017224Y-80849500D01*
X128570808Y-80849500D01*
X128503769Y-80829815D01*
X128483127Y-80813181D01*
X127011818Y-79341872D01*
X126978333Y-79280549D01*
X126975499Y-79254199D01*
X126975499Y-78699992D01*
X126964999Y-78597203D01*
X126909814Y-78430666D01*
X126817712Y-78281344D01*
X126693656Y-78157288D01*
X126544334Y-78065186D01*
X126441786Y-78031205D01*
X126384343Y-77991433D01*
X126357520Y-77926918D01*
X126369835Y-77858142D01*
X126417378Y-77806942D01*
X126480792Y-77789500D01*
X127567098Y-77789500D01*
X127634137Y-77809185D01*
G37*
G04 #@! TD.AperFunction*
G04 #@! TA.AperFunction,Conductor*
G36*
X112728661Y-71004589D02*
G01*
X112743159Y-71003802D01*
X112761516Y-71014237D01*
X112781772Y-71020185D01*
X112791277Y-71031155D01*
X112803901Y-71038331D01*
X112813702Y-71057034D01*
X112827527Y-71072989D01*
X112829593Y-71087358D01*
X112836332Y-71100218D01*
X112834466Y-71121248D01*
X112837471Y-71142147D01*
X112831326Y-71156628D01*
X112830157Y-71169814D01*
X112812715Y-71200497D01*
X112811410Y-71202178D01*
X112728068Y-71343104D01*
X112728066Y-71343107D01*
X112682391Y-71500320D01*
X112682390Y-71500326D01*
X112679500Y-71537052D01*
X112679500Y-71962947D01*
X112682390Y-71999673D01*
X112682391Y-71999679D01*
X112728066Y-72156891D01*
X112728068Y-72156895D01*
X112728069Y-72156897D01*
X112737219Y-72172370D01*
X112754402Y-72240091D01*
X112737222Y-72298606D01*
X112728532Y-72313301D01*
X112728529Y-72313308D01*
X112683005Y-72469998D01*
X112683007Y-72470000D01*
X112988643Y-72470000D01*
X113051763Y-72487267D01*
X113068103Y-72496931D01*
X113068104Y-72496931D01*
X113068107Y-72496933D01*
X113225320Y-72542608D01*
X113225323Y-72542608D01*
X113225325Y-72542609D01*
X113262060Y-72545500D01*
X113262068Y-72545500D01*
X113376000Y-72545500D01*
X113384685Y-72548050D01*
X113393647Y-72546762D01*
X113417687Y-72557740D01*
X113443039Y-72565185D01*
X113448966Y-72572025D01*
X113457203Y-72575787D01*
X113471492Y-72598021D01*
X113488794Y-72617989D01*
X113491081Y-72628503D01*
X113494977Y-72634565D01*
X113500000Y-72669500D01*
X113500000Y-72846000D01*
X113480315Y-72913039D01*
X113427511Y-72958794D01*
X113376000Y-72970000D01*
X112683007Y-72970000D01*
X112683005Y-72970001D01*
X112695395Y-73012647D01*
X112695384Y-73016269D01*
X112697160Y-73019430D01*
X112695285Y-73050949D01*
X112695196Y-73082517D01*
X112693228Y-73085560D01*
X112693013Y-73089177D01*
X112674400Y-73114672D01*
X112657254Y-73141187D01*
X112653325Y-73143541D01*
X112651817Y-73145609D01*
X112640882Y-73151002D01*
X112621045Y-73162895D01*
X112614841Y-73165293D01*
X112521058Y-73190423D01*
X112470938Y-73219360D01*
X112462625Y-73224159D01*
X112462621Y-73224161D01*
X112384128Y-73269479D01*
X112384125Y-73269481D01*
X112320943Y-73332664D01*
X112272323Y-73381284D01*
X112272321Y-73381286D01*
X112165943Y-73487665D01*
X112090427Y-73563181D01*
X112063499Y-73577884D01*
X112037681Y-73594477D01*
X112031480Y-73595368D01*
X112029104Y-73596666D01*
X112002746Y-73599500D01*
X111849001Y-73599500D01*
X111781962Y-73579815D01*
X111736207Y-73527011D01*
X111726263Y-73457853D01*
X111749734Y-73401189D01*
X111793796Y-73342331D01*
X111844091Y-73207483D01*
X111850500Y-73147873D01*
X111850499Y-71352128D01*
X111844091Y-71292517D01*
X111826227Y-71244622D01*
X111797587Y-71167833D01*
X111792603Y-71098141D01*
X111826088Y-71036818D01*
X111887411Y-71003334D01*
X111913769Y-71000500D01*
X112714733Y-71000500D01*
X112728661Y-71004589D01*
G37*
G04 #@! TD.AperFunction*
G04 #@! TA.AperFunction,Conductor*
G36*
X123663562Y-71020185D02*
G01*
X123709317Y-71072989D01*
X123719261Y-71142147D01*
X123690236Y-71205703D01*
X123652818Y-71234985D01*
X123633903Y-71244622D01*
X123567982Y-71292517D01*
X123484213Y-71353379D01*
X123484211Y-71353381D01*
X123484210Y-71353381D01*
X123353378Y-71484213D01*
X123299163Y-71558833D01*
X123279745Y-71573805D01*
X122650000Y-72203551D01*
X122650000Y-72197339D01*
X122622741Y-72095606D01*
X122570080Y-72004394D01*
X122495606Y-71929920D01*
X122404394Y-71877259D01*
X122302661Y-71850000D01*
X122296446Y-71850000D01*
X122886430Y-71260015D01*
X122865834Y-71245050D01*
X122846080Y-71234985D01*
X122795284Y-71187011D01*
X122778489Y-71119190D01*
X122801026Y-71053055D01*
X122855741Y-71009603D01*
X122902375Y-71000500D01*
X123596523Y-71000500D01*
X123663562Y-71020185D01*
G37*
G04 #@! TD.AperFunction*
G04 #@! TD*
M02*
