%TF.GenerationSoftware,KiCad,Pcbnew,9.0.3*%
%TF.CreationDate,2025-07-29T11:09:22-06:00*%
%TF.ProjectId,Battle_Bot_Mind,42617474-6c65-45f4-926f-745f4d696e64,rev?*%
%TF.SameCoordinates,Original*%
%TF.FileFunction,Legend,Top*%
%TF.FilePolarity,Positive*%
%FSLAX46Y46*%
G04 Gerber Fmt 4.6, Leading zero omitted, Abs format (unit mm)*
G04 Created by KiCad (PCBNEW 9.0.3) date 2025-07-29 11:09:22*
%MOMM*%
%LPD*%
G01*
G04 APERTURE LIST*
%ADD10C,0.300000*%
%ADD11C,0.150000*%
%ADD12C,0.120000*%
%ADD13C,0.100000*%
G04 APERTURE END LIST*
D10*
X137133082Y-93958971D02*
X137304510Y-94016114D01*
X137304510Y-94016114D02*
X137361653Y-94073257D01*
X137361653Y-94073257D02*
X137418796Y-94187542D01*
X137418796Y-94187542D02*
X137418796Y-94358971D01*
X137418796Y-94358971D02*
X137361653Y-94473257D01*
X137361653Y-94473257D02*
X137304510Y-94530400D01*
X137304510Y-94530400D02*
X137190225Y-94587542D01*
X137190225Y-94587542D02*
X136733082Y-94587542D01*
X136733082Y-94587542D02*
X136733082Y-93387542D01*
X136733082Y-93387542D02*
X137133082Y-93387542D01*
X137133082Y-93387542D02*
X137247368Y-93444685D01*
X137247368Y-93444685D02*
X137304510Y-93501828D01*
X137304510Y-93501828D02*
X137361653Y-93616114D01*
X137361653Y-93616114D02*
X137361653Y-93730400D01*
X137361653Y-93730400D02*
X137304510Y-93844685D01*
X137304510Y-93844685D02*
X137247368Y-93901828D01*
X137247368Y-93901828D02*
X137133082Y-93958971D01*
X137133082Y-93958971D02*
X136733082Y-93958971D01*
X137875939Y-94244685D02*
X138447368Y-94244685D01*
X137761653Y-94587542D02*
X138161653Y-93387542D01*
X138161653Y-93387542D02*
X138561653Y-94587542D01*
X138790224Y-93387542D02*
X139475939Y-93387542D01*
X139133081Y-94587542D02*
X139133081Y-93387542D01*
X139704510Y-93387542D02*
X140390225Y-93387542D01*
X140047367Y-94587542D02*
X140047367Y-93387542D01*
X141361653Y-94587542D02*
X140790225Y-94587542D01*
X140790225Y-94587542D02*
X140790225Y-93387542D01*
X141761654Y-93958971D02*
X142161654Y-93958971D01*
X142333082Y-94587542D02*
X141761654Y-94587542D01*
X141761654Y-94587542D02*
X141761654Y-93387542D01*
X141761654Y-93387542D02*
X142333082Y-93387542D01*
X147383082Y-93958971D02*
X147554510Y-94016114D01*
X147554510Y-94016114D02*
X147611653Y-94073257D01*
X147611653Y-94073257D02*
X147668796Y-94187542D01*
X147668796Y-94187542D02*
X147668796Y-94358971D01*
X147668796Y-94358971D02*
X147611653Y-94473257D01*
X147611653Y-94473257D02*
X147554510Y-94530400D01*
X147554510Y-94530400D02*
X147440225Y-94587542D01*
X147440225Y-94587542D02*
X146983082Y-94587542D01*
X146983082Y-94587542D02*
X146983082Y-93387542D01*
X146983082Y-93387542D02*
X147383082Y-93387542D01*
X147383082Y-93387542D02*
X147497368Y-93444685D01*
X147497368Y-93444685D02*
X147554510Y-93501828D01*
X147554510Y-93501828D02*
X147611653Y-93616114D01*
X147611653Y-93616114D02*
X147611653Y-93730400D01*
X147611653Y-93730400D02*
X147554510Y-93844685D01*
X147554510Y-93844685D02*
X147497368Y-93901828D01*
X147497368Y-93901828D02*
X147383082Y-93958971D01*
X147383082Y-93958971D02*
X146983082Y-93958971D01*
X148868796Y-94587542D02*
X148468796Y-94016114D01*
X148183082Y-94587542D02*
X148183082Y-93387542D01*
X148183082Y-93387542D02*
X148640225Y-93387542D01*
X148640225Y-93387542D02*
X148754510Y-93444685D01*
X148754510Y-93444685D02*
X148811653Y-93501828D01*
X148811653Y-93501828D02*
X148868796Y-93616114D01*
X148868796Y-93616114D02*
X148868796Y-93787542D01*
X148868796Y-93787542D02*
X148811653Y-93901828D01*
X148811653Y-93901828D02*
X148754510Y-93958971D01*
X148754510Y-93958971D02*
X148640225Y-94016114D01*
X148640225Y-94016114D02*
X148183082Y-94016114D01*
X149325939Y-94244685D02*
X149897368Y-94244685D01*
X149211653Y-94587542D02*
X149611653Y-93387542D01*
X149611653Y-93387542D02*
X150011653Y-94587542D01*
X150411653Y-94587542D02*
X150411653Y-93387542D01*
X150983082Y-94587542D02*
X150983082Y-93387542D01*
X150983082Y-93387542D02*
X151668796Y-94587542D01*
X151668796Y-94587542D02*
X151668796Y-93387542D01*
X143633082Y-93958971D02*
X143804510Y-94016114D01*
X143804510Y-94016114D02*
X143861653Y-94073257D01*
X143861653Y-94073257D02*
X143918796Y-94187542D01*
X143918796Y-94187542D02*
X143918796Y-94358971D01*
X143918796Y-94358971D02*
X143861653Y-94473257D01*
X143861653Y-94473257D02*
X143804510Y-94530400D01*
X143804510Y-94530400D02*
X143690225Y-94587542D01*
X143690225Y-94587542D02*
X143233082Y-94587542D01*
X143233082Y-94587542D02*
X143233082Y-93387542D01*
X143233082Y-93387542D02*
X143633082Y-93387542D01*
X143633082Y-93387542D02*
X143747368Y-93444685D01*
X143747368Y-93444685D02*
X143804510Y-93501828D01*
X143804510Y-93501828D02*
X143861653Y-93616114D01*
X143861653Y-93616114D02*
X143861653Y-93730400D01*
X143861653Y-93730400D02*
X143804510Y-93844685D01*
X143804510Y-93844685D02*
X143747368Y-93901828D01*
X143747368Y-93901828D02*
X143633082Y-93958971D01*
X143633082Y-93958971D02*
X143233082Y-93958971D01*
X144661653Y-93387542D02*
X144890225Y-93387542D01*
X144890225Y-93387542D02*
X145004510Y-93444685D01*
X145004510Y-93444685D02*
X145118796Y-93558971D01*
X145118796Y-93558971D02*
X145175939Y-93787542D01*
X145175939Y-93787542D02*
X145175939Y-94187542D01*
X145175939Y-94187542D02*
X145118796Y-94416114D01*
X145118796Y-94416114D02*
X145004510Y-94530400D01*
X145004510Y-94530400D02*
X144890225Y-94587542D01*
X144890225Y-94587542D02*
X144661653Y-94587542D01*
X144661653Y-94587542D02*
X144547368Y-94530400D01*
X144547368Y-94530400D02*
X144433082Y-94416114D01*
X144433082Y-94416114D02*
X144375939Y-94187542D01*
X144375939Y-94187542D02*
X144375939Y-93787542D01*
X144375939Y-93787542D02*
X144433082Y-93558971D01*
X144433082Y-93558971D02*
X144547368Y-93444685D01*
X144547368Y-93444685D02*
X144661653Y-93387542D01*
X145518796Y-93387542D02*
X146204511Y-93387542D01*
X145861653Y-94587542D02*
X145861653Y-93387542D01*
D11*
X142864700Y-74321428D02*
X142864700Y-73178571D01*
X143436128Y-73749999D02*
X142293271Y-73749999D01*
X142203571Y-71489700D02*
X143346429Y-71489700D01*
D12*
%TO.C,J2*%
X140040000Y-72740000D02*
X140040000Y-81460000D01*
X141340000Y-71040000D02*
X140040000Y-72740000D01*
X144160000Y-71040000D02*
X141340000Y-71040000D01*
X144160000Y-71040000D02*
X145460000Y-72740000D01*
X145460000Y-72740000D02*
X145460000Y-81460000D01*
X145460000Y-81460000D02*
X140040000Y-81460000D01*
%TO.C,U1*%
X99990000Y-75140000D02*
X106490000Y-75140000D01*
X99990000Y-93360000D02*
X99990000Y-75140000D01*
X99990000Y-93360000D02*
X105800000Y-93360000D01*
X119910000Y-75140000D02*
X120210000Y-75140000D01*
X119910000Y-93360000D02*
X120210000Y-93360000D01*
X120210000Y-93360000D02*
X120210000Y-75140000D01*
X106500000Y-93850000D02*
X106000000Y-93350000D01*
X106500000Y-93350000D01*
X106500000Y-93850000D01*
G36*
X106500000Y-93850000D02*
G01*
X106000000Y-93350000D01*
X106500000Y-93350000D01*
X106500000Y-93850000D01*
G37*
%TO.C,J4*%
X106420000Y-73710000D02*
X106420000Y-73830000D01*
X106420000Y-73830000D02*
X109080000Y-73830000D01*
X107750000Y-71170000D02*
X109080000Y-71170000D01*
X109080000Y-71170000D02*
X109080000Y-72500000D01*
X109080000Y-73710000D02*
X109080000Y-73830000D01*
%TO.C,R6*%
X123167621Y-76408000D02*
X122832379Y-76408000D01*
X123167621Y-77168000D02*
X122832379Y-77168000D01*
%TO.C,DBG1*%
X114140000Y-73360000D02*
X114140000Y-72250000D01*
X115250000Y-73360000D02*
X114140000Y-73360000D01*
X116250000Y-71140000D02*
X120360000Y-71140000D01*
X116250000Y-73360000D02*
X116250000Y-71140000D01*
X116250000Y-73360000D02*
X120360000Y-73360000D01*
X120360000Y-73360000D02*
X120360000Y-71140000D01*
%TO.C,R5*%
X123167621Y-77658000D02*
X122832379Y-77658000D01*
X123167621Y-78418000D02*
X122832379Y-78418000D01*
%TO.C,R1*%
X135620000Y-83265121D02*
X135620000Y-82929879D01*
X136380000Y-83265121D02*
X136380000Y-82929879D01*
%TO.C,J1*%
X128300000Y-73500000D02*
X128300000Y-71600000D01*
X128300000Y-77400000D02*
X128300000Y-75400000D01*
X137700000Y-71600000D02*
X128300000Y-71600000D01*
X137700000Y-73500000D02*
X137700000Y-71600000D01*
X137700000Y-77400000D02*
X137700000Y-75400000D01*
D13*
%TO.C,D2*%
X110550000Y-73355000D02*
G75*
G02*
X110450000Y-73355000I-50000J0D01*
G01*
X110450000Y-73355000D02*
G75*
G02*
X110550000Y-73355000I50000J0D01*
G01*
D12*
%TO.C,C1*%
X125015000Y-79688748D02*
X125015000Y-80211252D01*
X126485000Y-79688748D02*
X126485000Y-80211252D01*
%TO.C,R3*%
X111370000Y-72393641D02*
X111370000Y-72086359D01*
X112130000Y-72393641D02*
X112130000Y-72086359D01*
%TO.C,R8*%
X123120000Y-85143641D02*
X123120000Y-84836359D01*
X123880000Y-85143641D02*
X123880000Y-84836359D01*
%TO.C,U4*%
X145400000Y-83090000D02*
X149160000Y-83090000D01*
X145400000Y-89910000D02*
X149160000Y-89910000D01*
X149160000Y-83090000D02*
X149160000Y-84350000D01*
X149160000Y-89910000D02*
X149160000Y-88650000D01*
X144120000Y-83190000D02*
X143880000Y-82860000D01*
X144360000Y-82860000D01*
X144120000Y-83190000D01*
G36*
X144120000Y-83190000D02*
G01*
X143880000Y-82860000D01*
X144360000Y-82860000D01*
X144120000Y-83190000D01*
G37*
%TO.C,C9*%
X121910000Y-84882164D02*
X121910000Y-85097836D01*
X122630000Y-84882164D02*
X122630000Y-85097836D01*
%TO.C,M1*%
X129215000Y-83390000D02*
X129215000Y-84440000D01*
X129215000Y-84440000D02*
X128225000Y-84440000D01*
X129215000Y-87610000D02*
X129215000Y-86560000D01*
X130365000Y-83390000D02*
X129215000Y-83390000D01*
X130365000Y-87610000D02*
X129215000Y-87610000D01*
X132335000Y-84560000D02*
X132335000Y-86440000D01*
%TO.C,U3*%
X123140000Y-86640000D02*
X123615000Y-86640000D01*
X123140000Y-87115000D02*
X123140000Y-86640000D01*
X123140000Y-89385000D02*
X123140000Y-89560000D01*
X123615000Y-89860000D02*
X123380000Y-89860000D01*
X126360000Y-86640000D02*
X125885000Y-86640000D01*
X126360000Y-87115000D02*
X126360000Y-86640000D01*
X126360000Y-89385000D02*
X126360000Y-89860000D01*
X126360000Y-89860000D02*
X125885000Y-89860000D01*
X123140000Y-89860000D02*
X122810000Y-90100000D01*
X122810000Y-89620000D01*
X123140000Y-89860000D01*
G36*
X123140000Y-89860000D02*
G01*
X122810000Y-90100000D01*
X122810000Y-89620000D01*
X123140000Y-89860000D01*
G37*
%TO.C,C6*%
X138278748Y-90515000D02*
X138801252Y-90515000D01*
X138278748Y-91985000D02*
X138801252Y-91985000D01*
%TO.C,C5*%
X147461252Y-91265000D02*
X146938748Y-91265000D01*
X147461252Y-92735000D02*
X146938748Y-92735000D01*
%TO.C,R2*%
X134370000Y-83265121D02*
X134370000Y-82929879D01*
X135130000Y-83265121D02*
X135130000Y-82929879D01*
%TO.C,M2*%
X129215000Y-89390000D02*
X129215000Y-90440000D01*
X129215000Y-90440000D02*
X128225000Y-90440000D01*
X129215000Y-93610000D02*
X129215000Y-92560000D01*
X130365000Y-89390000D02*
X129215000Y-89390000D01*
X130365000Y-93610000D02*
X129215000Y-93610000D01*
X132335000Y-90560000D02*
X132335000Y-92440000D01*
%TO.C,J3*%
X147640000Y-73140000D02*
X148750000Y-73140000D01*
X147640000Y-74250000D02*
X147640000Y-73140000D01*
X147640000Y-75250000D02*
X147640000Y-79360000D01*
X147640000Y-75250000D02*
X149860000Y-75250000D01*
X147640000Y-79360000D02*
X149860000Y-79360000D01*
X149860000Y-75250000D02*
X149860000Y-79360000D01*
%TD*%
M02*
