M48
; DRILL file {KiCad 9.0.3} date 2025-07-29T11:21:30-0600
; FORMAT={-:-/ absolute / metric / decimal}
; #@! TF.CreationDate,2025-07-29T11:21:30-06:00
; #@! TF.GenerationSoftware,Kicad,Pcbnew,9.0.3
; #@! TF.FileFunction,Plated,1,2,PTH
FMAT,2
METRIC
; #@! TA.AperFunction,Plated,PTH,ComponentDrill
T1C0.200
; #@! TA.AperFunction,Plated,PTH,ViaDrill
T2C0.300
; #@! TA.AperFunction,Plated,PTH,ComponentDrill
T3C0.600
; #@! TA.AperFunction,Plated,PTH,ComponentDrill
T4C0.800
; #@! TA.AperFunction,Plated,PTH,ComponentDrill
T5C1.000
; #@! TA.AperFunction,Plated,PTH,ComponentDrill
T6C2.700
%
G90
G05
T1
X112.3Y-82.74
X112.3Y-83.84
X112.85Y-82.19
X112.85Y-83.29
X112.85Y-84.39
X113.4Y-82.74
X113.4Y-83.84
X113.95Y-82.19
X113.95Y-83.29
X113.95Y-84.39
X114.5Y-82.74
X114.5Y-83.84
T2
X108.0Y-93.5
X108.7Y-76.75
X110.25Y-76.75
X110.5Y-73.5
X120.75Y-93.0
X121.25Y-72.75
X122.25Y-86.25
X123.5Y-92.0
X124.75Y-88.25
X125.5Y-84.5
X126.5Y-90.5
X126.75Y-82.5
X127.0Y-85.65
X128.25Y-87.5
X128.25Y-89.0
X129.25Y-87.5
X129.25Y-89.0
X129.75Y-80.75
X134.75Y-84.5
X136.0Y-84.5
X136.25Y-80.75
X141.0Y-90.25
X144.75Y-92.0
X147.25Y-84.25
X147.25Y-86.5
X148.75Y-80.25
T4
X115.25Y-72.25
X117.25Y-72.25
X119.25Y-72.25
X148.75Y-74.25
X148.75Y-76.25
X148.75Y-78.25
T5
X107.75Y-72.5
T6
X142.75Y-73.75
X142.75Y-78.75
T3
G00X128.68Y-74.75
M15
G01X128.68Y-74.15
M16
G05
G00X128.68Y-79.18
M15
G01X128.68Y-78.08
M16
G05
G00X137.32Y-74.75
M15
G01X137.32Y-74.15
M16
G05
G00X137.32Y-79.18
M15
G01X137.32Y-78.08
M16
G05
M30
