G04 #@! TF.GenerationSoftware,KiCad,Pcbnew,9.0.3*
G04 #@! TF.CreationDate,2025-08-05T23:13:50-05:00*
G04 #@! TF.ProjectId,Battle_Bot_Mind,42617474-6c65-45f4-926f-745f4d696e64,rev?*
G04 #@! TF.SameCoordinates,Original*
G04 #@! TF.FileFunction,Legend,Top*
G04 #@! TF.FilePolarity,Positive*
%FSLAX46Y46*%
G04 Gerber Fmt 4.6, Leading zero omitted, Abs format (unit mm)*
G04 Created by KiCad (PCBNEW 9.0.3) date 2025-08-05 23:13:50*
%MOMM*%
%LPD*%
G01*
G04 APERTURE LIST*
%ADD10C,0.300000*%
%ADD11C,0.150000*%
%ADD12C,0.120000*%
%ADD13C,0.100000*%
G04 APERTURE END LIST*
D10*
X137133082Y-93958971D02*
X137304510Y-94016114D01*
X137304510Y-94016114D02*
X137361653Y-94073257D01*
X137361653Y-94073257D02*
X137418796Y-94187542D01*
X137418796Y-94187542D02*
X137418796Y-94358971D01*
X137418796Y-94358971D02*
X137361653Y-94473257D01*
X137361653Y-94473257D02*
X137304510Y-94530400D01*
X137304510Y-94530400D02*
X137190225Y-94587542D01*
X137190225Y-94587542D02*
X136733082Y-94587542D01*
X136733082Y-94587542D02*
X136733082Y-93387542D01*
X136733082Y-93387542D02*
X137133082Y-93387542D01*
X137133082Y-93387542D02*
X137247368Y-93444685D01*
X137247368Y-93444685D02*
X137304510Y-93501828D01*
X137304510Y-93501828D02*
X137361653Y-93616114D01*
X137361653Y-93616114D02*
X137361653Y-93730400D01*
X137361653Y-93730400D02*
X137304510Y-93844685D01*
X137304510Y-93844685D02*
X137247368Y-93901828D01*
X137247368Y-93901828D02*
X137133082Y-93958971D01*
X137133082Y-93958971D02*
X136733082Y-93958971D01*
X137875939Y-94244685D02*
X138447368Y-94244685D01*
X137761653Y-94587542D02*
X138161653Y-93387542D01*
X138161653Y-93387542D02*
X138561653Y-94587542D01*
X138790224Y-93387542D02*
X139475939Y-93387542D01*
X139133081Y-94587542D02*
X139133081Y-93387542D01*
X139704510Y-93387542D02*
X140390225Y-93387542D01*
X140047367Y-94587542D02*
X140047367Y-93387542D01*
X141361653Y-94587542D02*
X140790225Y-94587542D01*
X140790225Y-94587542D02*
X140790225Y-93387542D01*
X141761654Y-93958971D02*
X142161654Y-93958971D01*
X142333082Y-94587542D02*
X141761654Y-94587542D01*
X141761654Y-94587542D02*
X141761654Y-93387542D01*
X141761654Y-93387542D02*
X142333082Y-93387542D01*
X147383082Y-93958971D02*
X147554510Y-94016114D01*
X147554510Y-94016114D02*
X147611653Y-94073257D01*
X147611653Y-94073257D02*
X147668796Y-94187542D01*
X147668796Y-94187542D02*
X147668796Y-94358971D01*
X147668796Y-94358971D02*
X147611653Y-94473257D01*
X147611653Y-94473257D02*
X147554510Y-94530400D01*
X147554510Y-94530400D02*
X147440225Y-94587542D01*
X147440225Y-94587542D02*
X146983082Y-94587542D01*
X146983082Y-94587542D02*
X146983082Y-93387542D01*
X146983082Y-93387542D02*
X147383082Y-93387542D01*
X147383082Y-93387542D02*
X147497368Y-93444685D01*
X147497368Y-93444685D02*
X147554510Y-93501828D01*
X147554510Y-93501828D02*
X147611653Y-93616114D01*
X147611653Y-93616114D02*
X147611653Y-93730400D01*
X147611653Y-93730400D02*
X147554510Y-93844685D01*
X147554510Y-93844685D02*
X147497368Y-93901828D01*
X147497368Y-93901828D02*
X147383082Y-93958971D01*
X147383082Y-93958971D02*
X146983082Y-93958971D01*
X148868796Y-94587542D02*
X148468796Y-94016114D01*
X148183082Y-94587542D02*
X148183082Y-93387542D01*
X148183082Y-93387542D02*
X148640225Y-93387542D01*
X148640225Y-93387542D02*
X148754510Y-93444685D01*
X148754510Y-93444685D02*
X148811653Y-93501828D01*
X148811653Y-93501828D02*
X148868796Y-93616114D01*
X148868796Y-93616114D02*
X148868796Y-93787542D01*
X148868796Y-93787542D02*
X148811653Y-93901828D01*
X148811653Y-93901828D02*
X148754510Y-93958971D01*
X148754510Y-93958971D02*
X148640225Y-94016114D01*
X148640225Y-94016114D02*
X148183082Y-94016114D01*
X149325939Y-94244685D02*
X149897368Y-94244685D01*
X149211653Y-94587542D02*
X149611653Y-93387542D01*
X149611653Y-93387542D02*
X150011653Y-94587542D01*
X150411653Y-94587542D02*
X150411653Y-93387542D01*
X150983082Y-94587542D02*
X150983082Y-93387542D01*
X150983082Y-93387542D02*
X151668796Y-94587542D01*
X151668796Y-94587542D02*
X151668796Y-93387542D01*
X143633082Y-93958971D02*
X143804510Y-94016114D01*
X143804510Y-94016114D02*
X143861653Y-94073257D01*
X143861653Y-94073257D02*
X143918796Y-94187542D01*
X143918796Y-94187542D02*
X143918796Y-94358971D01*
X143918796Y-94358971D02*
X143861653Y-94473257D01*
X143861653Y-94473257D02*
X143804510Y-94530400D01*
X143804510Y-94530400D02*
X143690225Y-94587542D01*
X143690225Y-94587542D02*
X143233082Y-94587542D01*
X143233082Y-94587542D02*
X143233082Y-93387542D01*
X143233082Y-93387542D02*
X143633082Y-93387542D01*
X143633082Y-93387542D02*
X143747368Y-93444685D01*
X143747368Y-93444685D02*
X143804510Y-93501828D01*
X143804510Y-93501828D02*
X143861653Y-93616114D01*
X143861653Y-93616114D02*
X143861653Y-93730400D01*
X143861653Y-93730400D02*
X143804510Y-93844685D01*
X143804510Y-93844685D02*
X143747368Y-93901828D01*
X143747368Y-93901828D02*
X143633082Y-93958971D01*
X143633082Y-93958971D02*
X143233082Y-93958971D01*
X144661653Y-93387542D02*
X144890225Y-93387542D01*
X144890225Y-93387542D02*
X145004510Y-93444685D01*
X145004510Y-93444685D02*
X145118796Y-93558971D01*
X145118796Y-93558971D02*
X145175939Y-93787542D01*
X145175939Y-93787542D02*
X145175939Y-94187542D01*
X145175939Y-94187542D02*
X145118796Y-94416114D01*
X145118796Y-94416114D02*
X145004510Y-94530400D01*
X145004510Y-94530400D02*
X144890225Y-94587542D01*
X144890225Y-94587542D02*
X144661653Y-94587542D01*
X144661653Y-94587542D02*
X144547368Y-94530400D01*
X144547368Y-94530400D02*
X144433082Y-94416114D01*
X144433082Y-94416114D02*
X144375939Y-94187542D01*
X144375939Y-94187542D02*
X144375939Y-93787542D01*
X144375939Y-93787542D02*
X144433082Y-93558971D01*
X144433082Y-93558971D02*
X144547368Y-93444685D01*
X144547368Y-93444685D02*
X144661653Y-93387542D01*
X145518796Y-93387542D02*
X146204511Y-93387542D01*
X145861653Y-94587542D02*
X145861653Y-93387542D01*
D11*
X142864700Y-74321428D02*
X142864700Y-73178571D01*
X143436128Y-73749999D02*
X142293271Y-73749999D01*
X142203571Y-71489700D02*
X143346429Y-71489700D01*
X135690476Y-89259819D02*
X135690476Y-88259819D01*
X135690476Y-88259819D02*
X136023809Y-88974104D01*
X136023809Y-88974104D02*
X136357142Y-88259819D01*
X136357142Y-88259819D02*
X136357142Y-89259819D01*
X136785714Y-88355057D02*
X136833333Y-88307438D01*
X136833333Y-88307438D02*
X136928571Y-88259819D01*
X136928571Y-88259819D02*
X137166666Y-88259819D01*
X137166666Y-88259819D02*
X137261904Y-88307438D01*
X137261904Y-88307438D02*
X137309523Y-88355057D01*
X137309523Y-88355057D02*
X137357142Y-88450295D01*
X137357142Y-88450295D02*
X137357142Y-88545533D01*
X137357142Y-88545533D02*
X137309523Y-88688390D01*
X137309523Y-88688390D02*
X136738095Y-89259819D01*
X136738095Y-89259819D02*
X137357142Y-89259819D01*
X135990476Y-84334819D02*
X135990476Y-83334819D01*
X135990476Y-83334819D02*
X136323809Y-84049104D01*
X136323809Y-84049104D02*
X136657142Y-83334819D01*
X136657142Y-83334819D02*
X136657142Y-84334819D01*
X137657142Y-84334819D02*
X137085714Y-84334819D01*
X137371428Y-84334819D02*
X137371428Y-83334819D01*
X137371428Y-83334819D02*
X137276190Y-83477676D01*
X137276190Y-83477676D02*
X137180952Y-83572914D01*
X137180952Y-83572914D02*
X137085714Y-83620533D01*
D12*
G04 #@! TO.C,J2*
X140040000Y-72740000D02*
X140040000Y-81460000D01*
X141340000Y-71040000D02*
X140040000Y-72740000D01*
X144160000Y-71040000D02*
X141340000Y-71040000D01*
X144160000Y-71040000D02*
X145460000Y-72740000D01*
X145460000Y-72740000D02*
X145460000Y-81460000D01*
X145460000Y-81460000D02*
X140040000Y-81460000D01*
G04 #@! TO.C,U1*
X99990000Y-75140000D02*
X106490000Y-75140000D01*
X99990000Y-93360000D02*
X99990000Y-75140000D01*
X99990000Y-93360000D02*
X105800000Y-93360000D01*
X119910000Y-75140000D02*
X120210000Y-75140000D01*
X119910000Y-93360000D02*
X120210000Y-93360000D01*
X120210000Y-93360000D02*
X120210000Y-75140000D01*
X106500000Y-93850000D02*
X106000000Y-93350000D01*
X106500000Y-93350000D01*
X106500000Y-93850000D01*
G36*
X106500000Y-93850000D02*
G01*
X106000000Y-93350000D01*
X106500000Y-93350000D01*
X106500000Y-93850000D01*
G37*
G04 #@! TO.C,J4*
X109170000Y-73460000D02*
X109170000Y-73580000D01*
X109170000Y-73580000D02*
X111830000Y-73580000D01*
X110500000Y-70920000D02*
X111830000Y-70920000D01*
X111830000Y-70920000D02*
X111830000Y-72250000D01*
X111830000Y-73460000D02*
X111830000Y-73580000D01*
G04 #@! TO.C,R4*
X114370000Y-72363641D02*
X114370000Y-72056359D01*
X115130000Y-72363641D02*
X115130000Y-72056359D01*
G04 #@! TO.C,R6*
X123167621Y-76408000D02*
X122832379Y-76408000D01*
X123167621Y-77168000D02*
X122832379Y-77168000D01*
G04 #@! TO.C,DBG1*
X119140000Y-73360000D02*
X119140000Y-72250000D01*
X120250000Y-73360000D02*
X119140000Y-73360000D01*
X121250000Y-71140000D02*
X125360000Y-71140000D01*
X121250000Y-73360000D02*
X121250000Y-71140000D01*
X121250000Y-73360000D02*
X125360000Y-73360000D01*
X125360000Y-73360000D02*
X125360000Y-71140000D01*
G04 #@! TO.C,R5*
X123167621Y-77658000D02*
X122832379Y-77658000D01*
X123167621Y-78418000D02*
X122832379Y-78418000D01*
G04 #@! TO.C,R1*
X133332379Y-82430000D02*
X133667621Y-82430000D01*
X133332379Y-83190000D02*
X133667621Y-83190000D01*
G04 #@! TO.C,M2*
X135340000Y-89740000D02*
X136500000Y-89740000D01*
X135340000Y-90550000D02*
X135340000Y-89740000D01*
X135340000Y-91360000D02*
X135340000Y-92565000D01*
X135340000Y-91360000D02*
X135833292Y-91360000D01*
X135340000Y-92565000D02*
X136182077Y-92565000D01*
X136817923Y-92565000D02*
X137660000Y-92565000D01*
X137166708Y-91360000D02*
X137660000Y-91360000D01*
X137660000Y-91360000D02*
X137660000Y-92565000D01*
G04 #@! TO.C,J1*
X128300000Y-73500000D02*
X128300000Y-71600000D01*
X128300000Y-77400000D02*
X128300000Y-75400000D01*
X137700000Y-71600000D02*
X128300000Y-71600000D01*
X137700000Y-73500000D02*
X137700000Y-71600000D01*
X137700000Y-77400000D02*
X137700000Y-75400000D01*
G04 #@! TO.C,M1*
X135640000Y-84815000D02*
X136800000Y-84815000D01*
X135640000Y-85625000D02*
X135640000Y-84815000D01*
X135640000Y-86435000D02*
X135640000Y-87640000D01*
X135640000Y-86435000D02*
X136133292Y-86435000D01*
X135640000Y-87640000D02*
X136482077Y-87640000D01*
X137117923Y-87640000D02*
X137960000Y-87640000D01*
X137466708Y-86435000D02*
X137960000Y-86435000D01*
X137960000Y-86435000D02*
X137960000Y-87640000D01*
D13*
G04 #@! TO.C,D1*
X116050000Y-73325000D02*
G75*
G02*
X115950000Y-73325000I-50000J0D01*
G01*
X115950000Y-73325000D02*
G75*
G02*
X116050000Y-73325000I50000J0D01*
G01*
D12*
G04 #@! TO.C,C1*
X125015000Y-79688748D02*
X125015000Y-80211252D01*
X126485000Y-79688748D02*
X126485000Y-80211252D01*
D11*
G04 #@! TO.C,U2*
X124625000Y-83950000D02*
X124625000Y-84175000D01*
X124625000Y-92600000D02*
X124625000Y-92375000D01*
X130375000Y-83950000D02*
X124625000Y-83950000D01*
X130375000Y-83950000D02*
X130375000Y-84175000D01*
X130375000Y-92600000D02*
X124625000Y-92600000D01*
X130375000Y-92600000D02*
X130375000Y-92375000D01*
D12*
X131115000Y-92680000D02*
X130635000Y-92680000D01*
X130875000Y-92350000D01*
X131115000Y-92680000D01*
G36*
X131115000Y-92680000D02*
G01*
X130635000Y-92680000D01*
X130875000Y-92350000D01*
X131115000Y-92680000D01*
G37*
G04 #@! TO.C,R3*
X116870000Y-72363641D02*
X116870000Y-72056359D01*
X117630000Y-72363641D02*
X117630000Y-72056359D01*
D13*
G04 #@! TO.C,D2*
X113550000Y-73325000D02*
G75*
G02*
X113450000Y-73325000I-50000J0D01*
G01*
X113450000Y-73325000D02*
G75*
G02*
X113550000Y-73325000I50000J0D01*
G01*
D12*
G04 #@! TO.C,U4*
X145400000Y-83090000D02*
X149160000Y-83090000D01*
X145400000Y-89910000D02*
X149160000Y-89910000D01*
X149160000Y-83090000D02*
X149160000Y-84350000D01*
X149160000Y-89910000D02*
X149160000Y-88650000D01*
X144120000Y-83190000D02*
X143880000Y-82860000D01*
X144360000Y-82860000D01*
X144120000Y-83190000D01*
G36*
X144120000Y-83190000D02*
G01*
X143880000Y-82860000D01*
X144360000Y-82860000D01*
X144120000Y-83190000D01*
G37*
G04 #@! TO.C,C6*
X143788748Y-91015000D02*
X144311252Y-91015000D01*
X143788748Y-92485000D02*
X144311252Y-92485000D01*
G04 #@! TO.C,C5*
X150261252Y-91265000D02*
X149738748Y-91265000D01*
X150261252Y-92735000D02*
X149738748Y-92735000D01*
G04 #@! TO.C,R2*
X133070121Y-81120000D02*
X132734879Y-81120000D01*
X133070121Y-81880000D02*
X132734879Y-81880000D01*
G04 #@! TO.C,J3*
X147640000Y-73140000D02*
X148750000Y-73140000D01*
X147640000Y-74250000D02*
X147640000Y-73140000D01*
X147640000Y-75250000D02*
X147640000Y-79360000D01*
X147640000Y-75250000D02*
X149860000Y-75250000D01*
X147640000Y-79360000D02*
X149860000Y-79360000D01*
X149860000Y-75250000D02*
X149860000Y-79360000D01*
G04 #@! TD*
M02*
